<?xml version="1.0" encoding="UTF-8"?>
<svg width="481px" height="353px" viewBox="0 0 481 353" version="1.1" xmlns="http://www.w3.org/2000/svg" xmlns:xlink="http://www.w3.org/1999/xlink">
    <title>arrow</title>
    <defs>
        <linearGradient x1="100%" y1="50%" x2="-52.1207957%" y2="50%" id="linearGradient-1">
            <stop stop-color="#58F0FF" offset="0%"></stop>
            <stop stop-color="#1723B1" offset="100%"></stop>
        </linearGradient>
    </defs>
    <g id="Page-1" stroke="none" stroke-width="1" fill="none" fill-rule="evenodd">
        <g id="Desktop" transform="translate(-268.000000, -276.000000)" fill="url(#linearGradient-1)" fill-rule="nonzero">
            <g id="arrow" transform="translate(268.000000, 276.000000)">
                <path d="M475.922,165.325 L331.922,5.325 C328.85,1.933 324.562,0.013 320.018,0.013 L224.018,0.013 C217.714,0.013 211.986,3.725 209.394,9.485 C206.834,15.277 207.89,22.029 212.114,26.701 L346.482,176.013 L212.114,325.293 C207.89,329.997 206.802,336.749 209.394,342.509 C211.986,348.301 217.714,352.013 224.018,352.013 L320.018,352.013 C324.562,352.013 328.85,350.061 331.922,346.733 L475.922,186.733 C481.394,180.653 481.394,171.373 475.922,165.325 Z" id="Path"></path>
                <path d="M267.922,165.325 L123.922,5.325 C120.85,1.933 116.562,0.013 112.018,0.013 L16.018,0.013 C9.714,0.013 3.986,3.725 1.394,9.485 C-1.166,15.277 -0.11,22.029 4.114,26.701 L138.482,176.013 L4.114,325.293 C-0.11,329.997 -1.198,336.749 1.394,342.509 C3.986,348.301 9.714,352.013 16.018,352.013 L112.018,352.013 C116.562,352.013 120.85,350.061 123.922,346.733 L267.922,186.733 C273.394,180.653 273.394,171.373 267.922,165.325 Z" id="Path"></path>
            </g>
        </g>
    </g>
</svg>