<?xml version="1.0" encoding="UTF-8"?>
<svg width="320px" height="282px" viewBox="0 0 320 282" version="1.1" xmlns="http://www.w3.org/2000/svg" xmlns:xlink="http://www.w3.org/1999/xlink">
    <title>carrito</title>
    <g id="Page-1" stroke="none" stroke-width="1" fill="none" fill-rule="evenodd">
        <g id="Mobile" transform="translate(0.000000, -381.000000)" fill="#FFFFFF" fill-rule="nonzero">
            <g id="carrito" transform="translate(0.000000, 381.000000)">
                <path d="M103.100586,187.502441 L103.115234,187.502441 C103.127441,187.502441 103.139649,187.5 103.151856,187.5 L273.125,187.5 C277.30957,187.5 280.988769,184.724121 282.138672,180.700684 L319.638672,49.4506837 C320.446777,46.6210938 319.880371,43.5791012 318.110351,41.2304688 C316.337891,38.8818362 313.566894,37.5 310.625,37.5 L81.4794925,37.5 L74.7778319,7.34130875 C73.8232425,3.0517575 70.0195312,-1.77635684e-14 65.625,-1.77635684e-14 L9.375,-1.77635684e-14 C4.1967775,-1.77635684e-14 0,4.1967775 0,9.375 C0,14.5532225 4.1967775,18.75 9.375,18.75 L58.1054687,18.75 C59.2919925,24.0942381 90.1757812,163.073731 91.953125,171.069336 C81.9897462,175.400391 75,185.334472 75,196.875 C75,212.382813 87.6171875,225 103.125,225 L273.125,225 C278.303222,225 282.5,220.803222 282.5,215.625 C282.5,210.446777 278.303222,206.25 273.125,206.25 L103.125,206.25 C97.9565431,206.25 93.75,202.043457 93.75,196.875 C93.75,191.713867 97.9418944,187.514649 103.100586,187.502441 L103.100586,187.502441 Z M298.195801,56.25 L266.052246,168.75 L110.644531,168.75 L85.6445312,56.25 L298.195801,56.25 Z" id="Shape"></path>
                <path d="M93.75,253.125 C93.75,268.632812 106.367188,281.25 121.875,281.25 C137.382812,281.25 150,268.632812 150,253.125 C150,237.617188 137.382812,225 121.875,225 C106.367188,225 93.75,237.617188 93.75,253.125 Z M121.875,243.75 C127.043457,243.75 131.25,247.956543 131.25,253.125 C131.25,258.293457 127.043457,262.5 121.875,262.5 C116.706543,262.5 112.5,258.293457 112.5,253.125 C112.5,247.956543 116.706543,243.75 121.875,243.75 Z" id="Shape"></path>
                <path d="M226.25,253.125 C226.25,268.632812 238.867188,281.25 254.375,281.25 C269.882812,281.25 282.5,268.632812 282.5,253.125 C282.5,237.617188 269.882812,225 254.375,225 C238.867188,225 226.25,237.617188 226.25,253.125 Z M254.375,243.75 C259.543457,243.75 263.75,247.956543 263.75,253.125 C263.75,258.293457 259.543457,262.5 254.375,262.5 C249.206543,262.5 245,258.293457 245,253.125 C245,247.956543 249.206543,243.75 254.375,243.75 Z" id="Shape"></path>
            </g>
        </g>
    </g>
</svg>