<svg xmlns="http://www.w3.org/2000/svg" viewBox="0 0 370 289.53"><defs><style>.cls-1{fill:#131214;}.cls-2{fill:#070308;}.cls-3{fill:#535359;}.cls-4{fill:#303033;}.cls-5{fill:#45454a;}.cls-6{fill:#bcbebf;}.cls-7{fill:#174463;}.cls-8{fill:#3670a0;}.cls-9{fill:#939597;}.cls-10{fill:#c23959;}.cls-11{fill:#b15f16;}.cls-12{fill:#d27b33;}.cls-13{fill:#a1223a;}</style></defs><title>Recurso 2</title><g id="Capa_2" data-name="Capa 2"><g id="Capa_1-2" data-name="Capa 1"><polygon class="cls-1" points="221.75 172.87 241.84 184.46 241.84 161.45 221.75 149.86 221.75 172.87"/><polygon class="cls-2" points="148.7 215.04 168.78 226.64 241.84 184.46 221.75 172.87 148.7 215.04"/><polygon class="cls-1" points="0 159.44 142.59 241.76 142.59 210.33 132.3 192.5 0 116.13 0 159.44"/><polygon class="cls-3" points="229.44 174.19 217.35 167.21 205.46 174.08 217.55 188.54 229.44 174.19"/><polygon class="cls-1" points="229.44 181.67 229.44 174.19 217.55 181.06 217.55 188.54 229.44 181.67"/><polygon class="cls-4" points="233.15 187.83 233.15 180.35 217.55 181.06 217.55 188.54 228.22 190.68 233.15 187.83"/><polygon class="cls-3" points="233.15 180.35 229.44 174.19 224.66 176.36 217.55 181.06 228.22 183.2 233.15 180.35"/><polygon class="cls-1" points="205.46 181.56 205.46 174.08 217.55 181.06 217.55 188.54 205.46 181.56"/><polygon class="cls-3" points="204.77 188.35 192.67 181.37 180.78 188.23 192.87 202.69 204.77 188.35"/><polygon class="cls-1" points="204.77 195.82 204.77 188.35 192.87 195.21 192.87 202.69 204.77 195.82"/><polygon class="cls-4" points="208.47 201.98 208.47 194.5 192.87 195.21 192.87 202.69 203.53 204.83 208.47 201.98"/><polygon class="cls-3" points="208.47 194.5 204.77 188.35 199.98 190.51 192.87 195.21 203.53 197.35 208.47 194.5"/><polygon class="cls-1" points="180.78 195.71 180.78 188.23 192.87 195.21 192.87 202.69 180.78 195.71"/><polygon class="cls-4" points="343.75 94.2 343.75 125.63 241.84 184.46 241.84 166.81 168.78 208.99 168.78 226.64 142.59 241.76 142.59 210.33 343.75 94.2"/><rect class="cls-5" x="121.89" y="133.06" width="232.27" height="20.58" transform="translate(-39.79 138.21) rotate(-30)"/><polygon class="cls-3" points="132.3 192.5 333.46 76.37 201.16 0 0 116.13 132.3 192.5"/><polygon class="cls-5" points="119.95 178.44 211.17 125.78 110.52 67.67 19.32 120.34 119.95 178.44"/><path class="cls-1" d="M155.49,64.65c1.93-7.08,7.61-13.88,17.06-19.34,23.74-13.71,62.23-13.71,86,0,9.69,5.61,15.43,12.63,17.2,19.91h.6v4.91h0c0,9-5.94,18-17.8,24.82-23.74,13.7-62.23,13.7-86,0-11.87-6.86-17.8-15.84-17.8-24.82V64.65Z"/><path class="cls-5" d="M172.55,90c23.74,13.71,62.23,13.71,86,0s23.73-35.92,0-49.63-62.23-13.7-86,0S148.81,76.33,172.55,90Z"/><path class="cls-6" d="M183.71,59.38c6,3.46,15.71,3.46,21.71,0s6-9.07,0-12.53-15.72-3.47-21.72,0S177.71,55.92,183.71,59.38Z"/><polygon class="cls-4" points="75.33 146.11 155.5 99.82 112.16 74.79 31.99 121.08 75.33 146.11"/><polygon class="cls-4" points="97.86 159.11 178.04 112.83 163.08 104.2 82.91 150.48 97.86 159.11"/><path class="cls-4" d="M54.37,181.76c0,1.4-1,2-2.2,1.27l-6.26-3.6a4.94,4.94,0,0,1-2.21-3.83v-3.78c0-1.4,1-2,2.21-1.27l6.26,3.6a4.93,4.93,0,0,1,2.2,3.83Z"/><path class="cls-2" d="M53.47,180.81c0,1.17-.82,1.65-1.84,1.06l-5.2-3a4.11,4.11,0,0,1-1.83-3.18v-2.86c0-1.16.83-1.64,1.83-1.06l5.2,3A4,4,0,0,1,53.47,178Z"/><path class="cls-4" d="M76.49,194.44c0,1.4-1,2-2.2,1.28L60.87,188a4.91,4.91,0,0,1-2.21-3.82V182c0-1.4,1-2,2.21-1.28l13.42,7.75a4.9,4.9,0,0,1,2.2,3.83Z"/><path class="cls-2" d="M75.72,193.51c0,1.28-.92,1.8-2,1.16l-12.23-7.06a4.47,4.47,0,0,1-2-3.49V183c0-1.28.91-1.81,2-1.16l12.23,7.06a4.48,4.48,0,0,1,2,3.49Z"/><path class="cls-4" d="M96.59,206c0,1.4-1,2-2.21,1.27L81,199.56a4.91,4.91,0,0,1-2.21-3.82v-2.11c0-1.4,1-2,2.21-1.28l13.41,7.75a4.88,4.88,0,0,1,2.21,3.82Z"/><path class="cls-2" d="M95.81,205.1c0,1.28-.91,1.8-2,1.16l-12.23-7.07a4.43,4.43,0,0,1-2-3.48V194.6c0-1.28.9-1.81,2-1.16l12.23,7.07a4.44,4.44,0,0,1,2,3.48Z"/><path class="cls-4" d="M200.7,201.9l37.37,3.39a16.17,16.17,0,0,1,9.09.82l34.14,3.1v14.9c.14,1.77-.93,3.56-3.15,4.84L264,237.14c-3.9,2.25-10.81,2.62-15.37.83l-44.3-9.47c-2.35-.92-3.55-2.21-3.59-3.53h0Z"/><path class="cls-4" d="M121.09,251.23l26.33,3,2.29-1.57c3.56-2.43,9-2.28,12.12.36l3.9,3.3L194,259.56v14.82h0c.05,1.89-1.11,3.81-3.39,5.13L176.4,287.7c-3.9,2.25-10.59,2.45-14.86.43l-36.82-9.35c-2.56-1.21-3.79-3-3.61-4.76h0Z"/><path class="cls-4" d="M171.94,231.17c10.41-6,23.09-10.2,28.76-11.91v2.56h0c0,1.33,28.28-1.32,30.66-.39v11.22l-51,29.46-.25,3.27-18.25-15.47c-3.08-2.6-8.46-2.78-12-.42A86.3,86.3,0,0,1,171.94,231.17Z"/><path class="cls-3" d="M171.94,216.57c10.41-6,23.09-10.2,28.76-11.91v2.55h0c0,1.33,1.21,2.64,3.59,3.57l27.07,10.65-51,29.47-.25-.13-18.25-15.46c-3.08-2.61-8.46-2.79-12-.42A86.07,86.07,0,0,1,171.94,216.57Z"/><path class="cls-7" d="M176,232.92v-2.2l10.13-4V229h0a.81.81,0,0,1-.47.66l-6.87,4a2.56,2.56,0,0,1-2.29,0l0,0A.78.78,0,0,1,176,232.92Z"/><path class="cls-8" d="M178.74,231.36l6.87-4a.7.7,0,0,0,0-1.32h0a2.52,2.52,0,0,0-2.3,0l-6.86,4a.69.69,0,0,0,0,1.32h0A2.5,2.5,0,0,0,178.74,231.36Z"/><path class="cls-7" d="M191.79,223.79v-2.21l10.13-4v2.23h0a.81.81,0,0,1-.47.66l-6.88,4a2.5,2.5,0,0,1-2.29,0h0A.81.81,0,0,1,191.79,223.79Z"/><path class="cls-8" d="M194.57,222.23l6.88-4a.7.7,0,0,0,0-1.32l0,0a2.56,2.56,0,0,0-2.29,0l-6.87,4a.7.7,0,0,0,0,1.32h0A2.5,2.5,0,0,0,194.57,222.23Z"/><path class="cls-3" d="M278.91,205.35c3.48,2.47,3.14,6.33-.76,8.58L264,222.12c-3.9,2.25-10.81,2.62-15.37.83l-44.3-17.43c-4.55-1.79-4.83-4.94-.61-7l31.22-15.19c4.21-2.05,10.52-1.71,14,.75Z"/><path class="cls-2" d="M227,207.53c6.48,3.74,17,3.74,23.49,0s6.48-9.81,0-13.55-17-3.75-23.48,0S220.47,203.78,227,207.53Z"/><path class="cls-1" d="M223.23,198.38a9.73,9.73,0,0,1,4.15-4.17c6.26-3.61,16.4-3.61,22.66,0a9.7,9.7,0,0,1,4.16,4.2l.53,1.09v1.25h0c0,2.36-1.57,4.73-4.7,6.54-6.26,3.61-16.41,3.61-22.66,0-3.12-1.8-4.69-4.17-4.69-6.53h0v-1.33Z"/><path class="cls-4" d="M227.37,206c6.25,3.61,16.4,3.61,22.66,0s6.26-9.46,0-13.08-16.4-3.62-22.66,0S221.12,202.35,227.37,206Z"/><polygon class="cls-1" points="235.44 199.43 226.89 194.49 226.89 192.44 238.7 197.54 250.76 192.31 250.76 194.36 241.97 199.43 250.64 202.4 250.64 204.44 247.38 206.33 238.7 201.31 229.97 206.35 226.71 204.47 226.71 202.42 235.44 199.43"/><polygon class="cls-3" points="235.44 197.38 226.89 192.44 230.16 190.56 238.7 195.5 247.5 190.43 250.76 192.31 241.97 197.39 250.64 202.4 247.38 204.28 238.7 199.27 229.97 204.31 226.71 202.42 235.44 197.38"/><polygon class="cls-1" points="236.78 193.97 240.64 193.97 240.64 192.41 238.72 191.74 236.78 192.41 236.78 193.97"/><polygon class="cls-3" points="236.78 192.41 240.64 192.41 238.72 190.18 236.78 192.41"/><polygon class="cls-1" points="229.3 200.51 229.3 198.95 225.44 197.83 225.44 199.39 229.3 200.51"/><polygon class="cls-3" points="229.3 198.95 229.31 196.72 225.44 197.83 229.3 198.95"/><polygon class="cls-1" points="240.55 204.77 240.55 203.21 236.69 203.21 236.69 204.77 238.61 207 240.55 204.77"/><polygon class="cls-3" points="240.55 203.21 236.69 203.21 238.61 205.45 240.55 203.21"/><polygon class="cls-1" points="248.02 198.91 248.02 200.46 251.89 199.35 251.89 197.79 248.02 198.91"/><polygon class="cls-3" points="248.03 196.67 248.02 198.91 251.89 197.79 248.03 196.67"/><polygon class="cls-9" points="177.16 248.29 226.79 219.63 219.93 216.93 172.48 244.33 177.16 248.29"/><polygon class="cls-4" points="188.49 239.19 221.63 220.06 220.26 219.26 187.11 238.4 188.49 239.19"/><polygon class="cls-10" points="180.37 243.88 186.81 240.16 185.43 239.37 178.99 243.09 180.37 243.88"/><path class="cls-3" d="M161.54,273.12c4.27,2,11,1.81,14.86-.44l14.18-8.19c3.9-2.25,4.54-6.24,1.43-8.87L161.83,230c-3.11-2.63-8.56-2.79-12.12-.35l-26.3,18c-3.55,2.44-3,6.07,1.31,8.08Z"/><path class="cls-1" d="M143.61,252.09c2.57-1.49,2.57-3.89,0-5.38a10.27,10.27,0,0,0-9.32,0c-2.58,1.48-2.58,3.89,0,5.38A10.27,10.27,0,0,0,143.61,252.09Z"/><path class="cls-11" d="M133.09,247.38l2.46,0a9.51,9.51,0,0,1,6.73,0h2.52v2h0a3,3,0,0,1-1.72,2.33,9.13,9.13,0,0,1-8.27,0,2.9,2.9,0,0,1-1.7-2.33h0Z"/><path class="cls-12" d="M143.08,249.77c2.29-1.32,2.29-3.46,0-4.78a9.13,9.13,0,0,0-8.27,0c-2.29,1.32-2.29,3.46,0,4.78A9.13,9.13,0,0,0,143.08,249.77Z"/><path class="cls-1" d="M161.24,248.06c2.58-1.49,2.58-3.9,0-5.39a10.34,10.34,0,0,0-9.32,0c-2.57,1.49-2.57,3.9,0,5.39A10.34,10.34,0,0,0,161.24,248.06Z"/><path class="cls-11" d="M150.72,243.35l2.45,0a9.54,9.54,0,0,1,6.74,0h2.52v2h0a3,3,0,0,1-1.71,2.34,9.19,9.19,0,0,1-8.27,0,2.9,2.9,0,0,1-1.7-2.34h0Z"/><path class="cls-12" d="M160.72,245.74c2.28-1.32,2.28-3.46,0-4.78a9.13,9.13,0,0,0-8.27,0c-2.29,1.32-2.29,3.46,0,4.78A9.19,9.19,0,0,0,160.72,245.74Z"/><path class="cls-1" d="M155.34,258.87c2.58-1.49,2.58-3.9,0-5.39a10.34,10.34,0,0,0-9.32,0c-2.57,1.49-2.57,3.9,0,5.39A10.34,10.34,0,0,0,155.34,258.87Z"/><path class="cls-13" d="M144.83,254.16l2.45,0a9.54,9.54,0,0,1,6.74,0h2.51v2h0a2.93,2.93,0,0,1-1.71,2.33,9.13,9.13,0,0,1-8.27,0,2.85,2.85,0,0,1-1.7-2.33h0Z"/><path class="cls-10" d="M154.82,256.55c2.28-1.33,2.28-3.46,0-4.78a9.13,9.13,0,0,0-8.27,0c-2.29,1.31-2.29,3.45,0,4.78A9.19,9.19,0,0,0,154.82,256.55Z"/><path class="cls-1" d="M173,254.84c2.57-1.49,2.57-3.9,0-5.39a10.34,10.34,0,0,0-9.32,0c-2.58,1.49-2.58,3.9,0,5.39A10.34,10.34,0,0,0,173,254.84Z"/><path class="cls-13" d="M162.46,250.12h2.45a9.54,9.54,0,0,1,6.74,0l2.52,0v2h0a3,3,0,0,1-1.72,2.33,9.13,9.13,0,0,1-8.27,0,2.91,2.91,0,0,1-1.7-2.33h0Z"/><path class="cls-10" d="M172.45,252.51c2.29-1.32,2.29-3.46,0-4.78a9.13,9.13,0,0,0-8.27,0c-2.29,1.32-2.29,3.46,0,4.78A9.13,9.13,0,0,0,172.45,252.51Z"/><path class="cls-4" d="M279.2,162.41l31.71,20.07a16.06,16.06,0,0,1,7.71,4.88l29,18.33L340.8,219c-.69,1.63-2.46,2.75-5,2.87l-16.34.82c-4.5.22-10.82-2.6-14.07-6.27l-35.1-28.64c-1.67-1.9-2.15-3.59-1.59-4.78h0Z"/><path class="cls-4" d="M185.85,170l22.06,14.69,2.76-.36c4.28-.54,9.06,2.09,10.61,5.85l2,4.72,23.67,15.76-6.76,13.19h0c-.82,1.71-2.72,2.89-5.37,3l-16.35.82c-4.49.23-10.53-2.64-13.42-6.38l-28.49-25.13c-1.73-2.24-2-4.39-1-5.88h0Z"/><path class="cls-4" d="M240.26,175.34c12-.6,25.2,1.47,31,2.53l-1.17,2.28h0c-.59,1.19,25.78,11.72,27.47,13.64l-5.12,10-58.86,2.93-1.71,2.8-9.19-22.09c-1.56-3.72-6.26-6.33-10.5-5.85A86.32,86.32,0,0,1,240.26,175.34Z"/><path class="cls-3" d="M246.92,162.34c12-.6,25.2,1.46,31,2.53l-1.17,2.27h0c-.59,1.19-.11,2.9,1.58,4.81l19.23,21.83-58.87,2.94-.15-.23-9.2-22.09c-1.56-3.72-6.26-6.33-10.49-5.85A86.13,86.13,0,0,1,246.92,162.34Z"/><path class="cls-7" d="M243,178.73l1-2,10.83,1.08-1,2h0a.79.79,0,0,1-.72.37l-7.92.39a2.49,2.49,0,0,1-2-1v0A.82.82,0,0,1,243,178.73Z"/><path class="cls-8" d="M246.22,178.62l7.92-.39c.72,0,1-.57.6-1.18v0a2.52,2.52,0,0,0-2-1.05l-7.93.39c-.73,0-1,.56-.6,1.18l0,0A2.53,2.53,0,0,0,246.22,178.62Z"/><path class="cls-7" d="M261.29,177.83l1-2L273.12,177l-1,2h0a.82.82,0,0,1-.73.37l-7.92.39a2.52,2.52,0,0,1-2-1v0A.75.75,0,0,1,261.29,177.83Z"/><path class="cls-8" d="M264.48,177.72l7.92-.39c.72,0,1-.57.6-1.18l0,0a2.48,2.48,0,0,0-2-1l-7.92.39c-.73,0-1,.56-.61,1.17l0,0A2.53,2.53,0,0,0,264.48,177.72Z"/><path class="cls-3" d="M347.23,201.16c2,3.79-.09,7.07-4.59,7.29l-16.35.82c-4.5.22-10.82-2.59-14.07-6.27l-31.47-35.72c-3.22-3.67-2-6.6,2.64-6.5l34.72.72c4.69.1,10.15,3.28,12.12,7.06Z"/><path class="cls-2" d="M300,179.4c4.06,6.28,13.41,11.08,20.89,10.72s10.25-5.78,6.19-12.07S313.67,167,306.19,167.34,295.94,173.11,300,179.4Z"/><path class="cls-1" d="M300.85,169.56a9.67,9.67,0,0,1,5.61-1.81c7.21-.36,16.24,4.27,20.15,10.34a9.68,9.68,0,0,1,1.79,5.64l0,1.2-.57,1.12h0c-1.08,2.1-3.55,3.5-7.16,3.68-7.22.35-16.25-4.28-20.17-10.35-2-3-2.26-5.85-1.18-7.95h0l.6-1.18Z"/><path class="cls-4" d="M301.09,178.2c3.91,6.07,12.93,10.7,20.15,10.35s9.89-5.57,6-11.65-12.94-10.69-20.16-10.33S297.16,172.13,301.09,178.2Z"/><polygon class="cls-1" points="311.25 176.07 305.89 167.77 306.82 165.94 315 175.88 328.13 176.72 327.19 178.54 317.06 179.04 323.42 185.64 322.49 187.46 318.72 187.65 313.29 179.24 303.22 179.73 301.18 176.56 302.11 174.74 311.25 176.07"/><polygon class="cls-3" points="312.18 174.25 306.82 165.94 310.58 165.76 315.95 174.06 326.08 173.56 328.13 176.72 317.98 177.22 323.42 185.64 319.65 185.83 314.22 177.41 304.15 177.91 302.11 174.74 312.18 174.25"/><polygon class="cls-1" points="314.93 171.82 318.37 173.58 319.08 172.19 317.67 170.71 315.64 170.43 314.93 171.82"/><polygon class="cls-3" points="315.64 170.43 319.08 172.19 318.38 169.33 315.64 170.43"/><polygon class="cls-1" points="305.29 174.23 306 172.84 303.08 170.09 302.37 171.48 305.29 174.23"/><polygon class="cls-3" points="306 172.84 307.03 170.86 303.08 170.09 306 172.84"/><polygon class="cls-1" points="313.35 183.16 314.07 181.76 310.63 180 309.91 181.38 310.61 184.25 313.35 183.16"/><polygon class="cls-3" points="314.07 181.76 310.63 180 311.32 182.87 314.07 181.76"/><polygon class="cls-1" points="322.68 181.34 321.97 182.73 325.92 183.5 326.63 182.11 322.68 181.34"/><polygon class="cls-3" points="323.7 179.35 322.68 181.34 326.63 182.11 323.7 179.35"/><polygon class="cls-9" points="237.09 192.96 294.34 190.1 289.46 184.57 234.73 187.3 237.09 192.96"/><polygon class="cls-4" points="251.33 190.03 289.55 188.12 288.69 186.79 250.46 188.7 251.33 190.03"/><polygon class="cls-10" points="241.95 190.5 249.38 190.13 248.52 188.79 241.09 189.16 241.95 190.5"/><path class="cls-3" d="M211.87,207.93c2.88,3.73,8.92,6.61,13.42,6.38l16.35-.81c4.5-.23,6.9-3.48,5.33-7.24l-15.2-36.53c-1.56-3.76-6.34-6.39-10.62-5.85l-31.62,4.05c-4.28.54-5.41,4-2.53,7.79Z"/><path class="cls-1" d="M205.5,181c3-.15,4.07-2.29,2.46-4.8a10.36,10.36,0,0,0-8.3-4.25c-3,.15-4.07,2.3-2.45,4.79A10.31,10.31,0,0,0,205.5,181Z"/><path class="cls-11" d="M198.3,172.05l2.18,1.1a9.53,9.53,0,0,1,6,3l2.25,1.14-.9,1.74h0a2.94,2.94,0,0,1-2.59,1.3,9.18,9.18,0,0,1-7.37-3.78,2.93,2.93,0,0,1-.44-2.85h0Z"/><path class="cls-12" d="M206.1,178.73c2.63-.13,3.6-2,2.18-4.25a9.19,9.19,0,0,0-7.37-3.78c-2.64.13-3.61,2-2.18,4.26A9.15,9.15,0,0,0,206.1,178.73Z"/><path class="cls-1" d="M223,185.49c3-.14,4.08-2.29,2.46-4.79a10.34,10.34,0,0,0-8.29-4.25c-3,.15-4.07,2.29-2.46,4.79A10.26,10.26,0,0,0,223,185.49Z"/><path class="cls-11" d="M215.83,176.51l2.18,1.1a9.5,9.5,0,0,1,6,3l2.25,1.14-.9,1.75h0a3,3,0,0,1-2.59,1.3,9.2,9.2,0,0,1-7.36-3.78,2.93,2.93,0,0,1-.45-2.85h0Z"/><path class="cls-12" d="M223.63,183.19c2.63-.14,3.61-2,2.18-4.25a9.14,9.14,0,0,0-7.36-3.78c-2.64.13-3.62,2-2.18,4.26A9.15,9.15,0,0,0,223.63,183.19Z"/><path class="cls-1" d="M212.85,192.42c3-.15,4.07-2.29,2.46-4.79a10.32,10.32,0,0,0-8.3-4.25c-3,.14-4.07,2.29-2.45,4.79A10.28,10.28,0,0,0,212.85,192.42Z"/><path class="cls-13" d="M205.64,183.43l2.19,1.1a9.56,9.56,0,0,1,6,3.05l2.25,1.14-.9,1.74h0a2.94,2.94,0,0,1-2.58,1.3,9.18,9.18,0,0,1-7.37-3.77,2.93,2.93,0,0,1-.45-2.86h0Z"/><path class="cls-10" d="M213.45,190.12c2.63-.14,3.6-2,2.17-4.25a9.15,9.15,0,0,0-7.36-3.79c-2.63.14-3.61,2-2.18,4.26A9.16,9.16,0,0,0,213.45,190.12Z"/><path class="cls-1" d="M230.38,196.88c3-.15,4.08-2.29,2.46-4.8a10.33,10.33,0,0,0-8.3-4.25c-3,.15-4.06,2.29-2.45,4.8A10.3,10.3,0,0,0,230.38,196.88Z"/><path class="cls-13" d="M223.18,187.89l2.19,1.1a9.46,9.46,0,0,1,6,3l2.25,1.14-.89,1.74h0a3,3,0,0,1-2.59,1.29,9.11,9.11,0,0,1-7.37-3.77,2.85,2.85,0,0,1-.44-2.85h0Z"/><path class="cls-10" d="M231,194.57c2.63-.13,3.61-2,2.18-4.25a9.2,9.2,0,0,0-7.36-3.78c-2.64.13-3.62,2-2.18,4.26A9.13,9.13,0,0,0,231,194.57Z"/></g></g></svg>