<svg xmlns="http://www.w3.org/2000/svg" xmlns:xlink="http://www.w3.org/1999/xlink" viewBox="0 0 273.41 314.13"><defs><style>.cls-1{fill:none;}.cls-2{isolation:isolate;}.cls-3{clip-path:url(#clip-path);}.cls-4{fill:#db9c89;}.cls-12,.cls-16,.cls-24,.cls-5{fill:#a34b5f;}.cls-21,.cls-5{opacity:0.5;}.cls-6{fill:#4a53a5;}.cls-7{fill:#787fff;}.cls-10,.cls-11,.cls-19,.cls-8{fill:#62344a;}.cls-12,.cls-19,.cls-25,.cls-9{opacity:0.3;}.cls-10,.cls-11,.cls-19,.cls-25{mix-blend-mode:multiply;}.cls-11{opacity:0.2;}.cls-13,.cls-14,.cls-21{fill:#ffc442;}.cls-14,.cls-21{mix-blend-mode:overlay;}.cls-15{fill:#2d2433;}.cls-16{opacity:0.4;}.cls-17{fill:#fff;}.cls-18{fill:#f4c8b5;}.cls-20{fill:#ff5a4d;}.cls-22{opacity:0.15;}.cls-23{fill:#dd6b7d;}</style><clipPath id="clip-path" transform="translate(-130.15 -58.68)"><rect class="cls-1" width="547.76" height="365.18"/></clipPath></defs><title>Recurso 3</title><g class="cls-2"><g id="Capa_2" data-name="Capa 2"><g id="OBJECTS"><g class="cls-3"><path class="cls-4" d="M269.26,107.44a39.43,39.43,0,0,0-2.81-13c-1.4-3.41-.77-4.08,1.33-1.62,1.81,2.2,2.75,4.58,3.21,4.51.22,0-.45-2-1.73-4.61s-2.36-4.68-1.43-5.15c1.09-.53,5.66,6.47,6.15,8.62.82,2.06-1.28-6.21-2.83-8.83-1.53-3,.2-3.31,2.73.41s3.29,7.39,3.95,8.34c.18-.88.3-2-.89-6.35-1-3.16.59-3.07,2.3,0,2.09,3.76,2,9.8,3.11,10.29,1-.09,1-1.66,2.82-4.46s1.71,1.62.58,5.11-1.73,6.45-2.5,9.73c-1.73,7.35-3.75,8.12-7,8.12C272.87,118.57,269.16,116.18,269.26,107.44Z" transform="translate(-130.15 -58.68)"/><path class="cls-5" d="M278.77,102.62a.7.7,0,0,0-.28.23,3.07,3.07,0,0,0-.29.34c-.14.24-.27.49-.39.74a16.33,16.33,0,0,0-.65,1.55c-.19.51-.36,1-.5,1.56a6.39,6.39,0,0,0-.31,1.67.33.33,0,0,0,.64.13,13.57,13.57,0,0,0,.48-1.53c.16-.52.33-1,.52-1.56s.4-1,.62-1.48c.11-.24.22-.49.32-.73a2.79,2.79,0,0,0,.1-.39.63.63,0,0,0,0-.38A.21.21,0,0,0,278.77,102.62Z" transform="translate(-130.15 -58.68)"/><path class="cls-4" d="M332.46,146.87c3.86,5.51-.39,17.51-11.25,22.07-8.64,3.63-44.27,14.44-54.27,5.1-7-6.55,1.71-54.64,3.35-62,2.56.84,8.9-.12,12.07-.18-1.07,3.65-1.66,44.81,1.39,45.17,3.7.43,21.84-7.2,32.8-12.53C326.27,139.79,330,143.39,332.46,146.87Z" transform="translate(-130.15 -58.68)"/><path class="cls-6" d="M335.35,147c-1.8-5.33-15.58-7.61-41.89,6.25a67.32,67.32,0,0,0,4.58,15c3.17,6.75,5.45,9,5.45,9S340.7,162.77,335.35,147Z" transform="translate(-130.15 -58.68)"/><path class="cls-7" d="M296.15,155c-.23-1.17-.51-2.77-1.24-3a4.75,4.75,0,0,0-3.15,1.18c-.54.72-.24,3.78.39,6.26s4,11.75,8.18,17.46c.21.29,3.36-.43,3.6-.71.65-.74.3-.95-.15-1.84-1.06-2.09-2.34-4-3.33-6.19A58.42,58.42,0,0,1,296.15,155Z" transform="translate(-130.15 -58.68)"/><path class="cls-8" d="M321.2,268.09c-.29,1.44-8.2,52.29-1.3,96.56-1.59,0-3.19.05-4.78.09-6.32.14-12.64.38-19,.58l-3.09.09c-.89-8.56-2.71-28.26-2.92-46.85-.28-24.62,5.25-81.7,7.3-87l60.67,5c-.29.88-2.34,101.36,21,129.32H347.26c-12.77-27.1-19.24-90.7-20.41-96.54S321.5,266.62,321.2,268.09Z" transform="translate(-130.15 -58.68)"/><g class="cls-9"><path class="cls-10" d="M324.1,248.59c.07-1.54.16-3.09.32-4.62a39.87,39.87,0,0,1,.62-4.48c0-.21.41-.22.45,0a.13.13,0,0,0,0,.06h0c0,.21.07.41.08.61s-.09.1-.15.07c-.13,1.27-.31,2.55-.43,3.83-.14,1.51-.26,3-.33,4.53s-.09,3-.09,4.45.1,3.08.06,4.62c0,.18-.28.23-.31,0a33.73,33.73,0,0,1-.28-4.49C324,251.67,324,250.13,324.1,248.59Z" transform="translate(-130.15 -58.68)"/><path class="cls-10" d="M320.87,248.22a33.38,33.38,0,0,1,.65-4.56c.16-.76.35-1.52.56-2.28a4.83,4.83,0,0,1,.78-1.93c.07-.09.2,0,.2.08a7.45,7.45,0,0,1-.5,2.16c-.19.7-.36,1.41-.51,2.12a35.69,35.69,0,0,0-.64,4.49,36.56,36.56,0,0,0-.08,4.44c0,.73.08,1.45.15,2.18a15.06,15.06,0,0,1,.22,2.32c0,.11-.18.19-.23.06a7.49,7.49,0,0,1-.43-2.05c-.1-.78-.18-1.56-.23-2.34A33.38,33.38,0,0,1,320.87,248.22Z" transform="translate(-130.15 -58.68)"/><path class="cls-10" d="M347.79,239.67c0-.22.34-.18.41,0a10.89,10.89,0,0,1,.31,2.28c.1.78.22,1.54.36,2.31.28,1.53.63,3,1,4.53a22.36,22.36,0,0,0,1.46,4.24c.61,1.17,2,2.39,3.37,1.65.2-.11.38.19.18.3a2.74,2.74,0,0,1-3.39-.79,12.14,12.14,0,0,1-1.86-4.26,46.07,46.07,0,0,1-1.28-5.18c-.16-.85-.3-1.7-.41-2.55A8.32,8.32,0,0,1,347.79,239.67Z" transform="translate(-130.15 -58.68)"/><path class="cls-10" d="M296.71,249.66c.06.58.88.45,1.17.16a3.36,3.36,0,0,0,.64-1.47c.39-1.3.77-2.61,1.15-3.92.77-2.61,1.54-5.22,2.37-7.82a.18.18,0,0,1,.34.1c-.86,3.28-1.82,6.53-2.76,9.78-.23.8-.46,1.6-.7,2.39a2.9,2.9,0,0,1-.8,1.45c-.64.52-1.91.3-1.9-.67C296.22,249.34,296.67,249.35,296.71,249.66Z" transform="translate(-130.15 -58.68)"/><path class="cls-10" d="M314.9,264a31.85,31.85,0,0,1,5.61,0,45.39,45.39,0,0,1,5.45.71c.19,0,.15.36,0,.34-1.83-.22-3.66-.41-5.5-.53s-3.68-.14-5.52-.26A.12.12,0,0,1,314.9,264Z" transform="translate(-130.15 -58.68)"/></g><path class="cls-6" d="M294.58,235.76c.5,1.76,14.8,8.53,31.85,10.78s37.12-1.75,36.37-6-6-49.33,1.27-72.41,3.16-25.48-.36-28.73c-2.54-2.34-9-2.71-16.46-2a128.15,128.15,0,0,0-21.44,4,45.91,45.91,0,0,0-8.66,3.12c-7.27,4-15.41,13.49-17.95,33.95C297,196.36,294.08,234,294.58,235.76Z" transform="translate(-130.15 -58.68)"/><path class="cls-11" d="M306.6,156.64a7.81,7.81,0,0,0-1.4,1.73c-.41.6-.8,1.22-1.15,1.85a30.83,30.83,0,0,0-1.92,4.07c-.29.74-.55,1.48-.78,2.24a10.48,10.48,0,0,0-.41,2.4,14.13,14.13,0,0,0,.71-2.23c.28-.73.57-1.54.85-2.27a31,31,0,0,1,2-4c.36-.64.73-1.26,1.13-1.87a15.28,15.28,0,0,0,1.15-1.84A.1.1,0,0,0,306.6,156.64Z" transform="translate(-130.15 -58.68)"/><path class="cls-7" d="M332.43,162.08c6.51,1,12.24-.38,12.32,0a20.19,20.19,0,0,1,.19,5.86,16.41,16.41,0,0,1-1.49,6,7.3,7.3,0,0,1-2.26,2.86,6.17,6.17,0,0,1-2.95,1,5.37,5.37,0,0,1-2.81-.41,5.54,5.54,0,0,1-2.52-2.87,17.65,17.65,0,0,1-.94-7.15,28.26,28.26,0,0,1,.24-4.78C332.23,162.52,332.28,162.06,332.43,162.08Z" transform="translate(-130.15 -58.68)"/><path class="cls-4" d="M384.53,201.41c-1.09,8.48-16.43,13-32.51,21.76L356.56,237s48.6-12.22,47-36.32c-.83-12.22-28.64-52.61-32.38-51.61-1.7.45-12.19,10.56-13.9,13C354.84,165.38,385.62,192.93,384.53,201.41Z" transform="translate(-130.15 -58.68)"/><path class="cls-6" d="M350.17,139.06c-4.72,3.06-5.11,19.25,15.07,38.56a163.26,163.26,0,0,1,12.21-12.3c6.89-6.22,5.85-7.87,5.85-7.87S364.16,130,350.17,139.06Z" transform="translate(-130.15 -58.68)"/><path class="cls-11" d="M362.2,174.15a39.43,39.43,0,0,1-5.41-5.7,32.92,32.92,0,0,1-2.13-3.2c-.66-1.13-1.2-2.34-1.91-3.43a.12.12,0,0,0-.22.09,14.55,14.55,0,0,0,1.67,3.6c.51.87,1.08,1.71,1.66,2.52l-1.57-.55-1.19-.4a3.62,3.62,0,0,0-1.21-.28c-.1,0-.18.15-.09.23a3.26,3.26,0,0,0,1.09.49l1.19.4c.72.23,1.45.48,2.18.67l.18.25a29.68,29.68,0,0,0,5.51,5.63C362.14,174.62,362.38,174.3,362.2,174.15Z" transform="translate(-130.15 -58.68)"/><path class="cls-4" d="M352,240.85s4,3.64,8.39,1.78-.63-2.48-.63-2.48,3.62-1,3.39-2.29S359,237,359,237Z" transform="translate(-130.15 -58.68)"/><path class="cls-4" d="M356.38,221.18s-9.45,2.67-10.75,6.22,4.79,13.24,6.82,13.81,11.24-6.58,11.81-7.46S359.34,219.94,356.38,221.18Z" transform="translate(-130.15 -58.68)"/><path class="cls-12" d="M355.32,240l.69-.3a13.88,13.88,0,0,0,1.37-.74,12.25,12.25,0,0,0,2.42-1.95c.18-.19.45.12.27.31a13.47,13.47,0,0,1-2.45,2,12.14,12.14,0,0,1-1.37.75c-.25.11-.49.22-.74.31a1.88,1.88,0,0,1-.73.16.13.13,0,0,1-.08-.22A2,2,0,0,1,355.32,240Z" transform="translate(-130.15 -58.68)"/><path class="cls-7" d="M380.21,156.88c.79-1.14,1.29-2.4,2.66-2.41.61,0,3.18,2.06,2.88,3.2a13.2,13.2,0,0,1-2.3,4.41,54.81,54.81,0,0,1-17.59,16.23c-1.1.64-3.74-1.95-3.87-2.36-.33-1.1.14-1.16,1-1.89,2.1-1.75,4.38-3.25,6.43-5.08A69.2,69.2,0,0,0,380.21,156.88Z" transform="translate(-130.15 -58.68)"/><rect class="cls-8" x="353.98" y="223.62" width="17.87" height="5.76" rx="1.35" ry="1.35" transform="translate(198.69 594.25) rotate(-117.4)"/><path class="cls-13" d="M360.58,222a5.06,5.06,0,1,0,6.83,2.17A5.07,5.07,0,0,0,360.58,222Z" transform="translate(-130.15 -58.68)"/><path class="cls-14" d="M361.54,223.85a3,3,0,1,0,4,1.28A3,3,0,0,0,361.54,223.85Z" transform="translate(-130.15 -58.68)"/><path class="cls-15" d="M300.37,86.41c.12-5.18,2-10.15,4.43-14.75a7.58,7.58,0,0,1,1.61-2.3,2.78,2.78,0,0,1,2.62-.67,3.24,3.24,0,0,1,1.83,2.17,13.85,13.85,0,0,1,.07,6.18l-2.28,16.23a16.09,16.09,0,0,1-1.4,5.37c-1.24,2.33-2.5.44-3.62-1.09A18.18,18.18,0,0,1,300.37,86.41Z" transform="translate(-130.15 -58.68)"/><path class="cls-4" d="M329,142.41s-3.95,4.92-.56,5S341.51,140,341.51,140l-2.57-13.23-12.49,2.44Z" transform="translate(-130.15 -58.68)"/><path class="cls-16" d="M336.14,133.77c1.24-.55,2.46-1.14,3.7-1.7L340,132l-1-5.28-12.49,2.44,1.34,6.91A27.44,27.44,0,0,0,336.14,133.77Z" transform="translate(-130.15 -58.68)"/><path class="cls-4" d="M349.64,120.16c-3.8,14.81-31.9,16.23-43,8.77-9.45-6.33-4.87-51.13-.33-54.6,10.07-7.73,21.22-11.9,32.26-8.3C359.91,73.1,357.78,101.11,349.64,120.16Z" transform="translate(-130.15 -58.68)"/><path class="cls-15" d="M296.08,74.64A9.67,9.67,0,0,1,301,68.11a9.86,9.86,0,0,1,1.66-.65A9.61,9.61,0,0,1,306.26,61c3.51-2.71,8.43-2.66,12.82-1.91a67,67,0,0,0,11.81,1.46,90.94,90.94,0,0,1,13.7,1c3.31.57,6.74,1.23,9.41,3.24,3.47,2.61,5,7,6.33,11.07A44.31,44.31,0,0,1,363,87.35c.18,3.93-.8,8.07-3.49,11-1.26,1.34-7.79,3.19-9,4.58a8.15,8.15,0,0,0-1.94,3.61,2.16,2.16,0,0,1-2,1.75,2.2,2.2,0,0,1-2.33-2.12,86,86,0,0,0,1.17-9.35c.15-3.65,1.35-6.35-.53-7.64-1.58-1.08-2-.39-3.36-1.7s-1.22-3.4-1.52-5.24c-1.4-8.53-16.65-7-20.4-5.75-3.18,1-6.61,1.92-9.85,1.07a8.14,8.14,0,0,1-1.26-.43,9.79,9.79,0,0,1-5,4.1,6,6,0,0,1-5.54-.51C296.1,79.36,295.63,76.82,296.08,74.64Z" transform="translate(-130.15 -58.68)"/><path class="cls-4" d="M349.22,111.37c1,2.75,5.52,3.74,9.19,1.26s6.35-9.95,3.62-14-9.22-2.26-11.69,2.58A14.53,14.53,0,0,0,349.22,111.37Z" transform="translate(-130.15 -58.68)"/><path class="cls-5" d="M359.5,101.34a.27.27,0,0,0-.13-.45,3.76,3.76,0,0,0-2.56.76,8.67,8.67,0,0,0-2.14,1.77,7.77,7.77,0,0,0-2,5.14c0,.36.56.46.64.09a9.76,9.76,0,0,1,2.14-4.56c.15-.17.33-.32.5-.48l.22.24.38.43a7.47,7.47,0,0,1,.66.93c.41.67.66,1.42,1.12,2.05.09.12.33.13.36-.05a3.67,3.67,0,0,0-.71-2.44,7.3,7.3,0,0,0-.79-1,3.73,3.73,0,0,0-.45-.44l-.23-.18a9.6,9.6,0,0,1,.83-.59A11.36,11.36,0,0,0,359.5,101.34Z" transform="translate(-130.15 -58.68)"/><path class="cls-15" d="M304.93,90.19a5.87,5.87,0,0,1,1.94-1.32,4.49,4.49,0,0,1,2.13-.33,3,3,0,0,1,2.25,1.13,1.27,1.27,0,0,1,.13,1.14.93.93,0,0,1-.74.63,2.12,2.12,0,0,1-.78-.07l-.19,0a5.49,5.49,0,0,0-.7,0,3.48,3.48,0,0,0-1.39.31,4,4,0,0,0-1.24.88,3.05,3.05,0,0,0-.32.38,2.64,2.64,0,0,1-1.36,1.06h-.15a.75.75,0,0,1-.49-.2,1.24,1.24,0,0,1-.38-.82A3.8,3.8,0,0,1,304.93,90.19Z" transform="translate(-130.15 -58.68)"/><path class="cls-15" d="M327.13,87.87a6.28,6.28,0,0,1,2.75.3,7.21,7.21,0,0,1,2.52,1.41h0c.45.38,1.82,1.56,1.73,3a1.35,1.35,0,0,1-.46.94,1.14,1.14,0,0,1-.63.24h-.18a3.19,3.19,0,0,1-1.77-1.15,5.33,5.33,0,0,0-.43-.41,5.17,5.17,0,0,0-1.61-1,5,5,0,0,0-1.8-.3,5.26,5.26,0,0,0-.89.08l-.25,0a3,3,0,0,1-1,.11,1.16,1.16,0,0,1-1-.68,1.27,1.27,0,0,1,.13-1.3A4.08,4.08,0,0,1,327.13,87.87Z" transform="translate(-130.15 -58.68)"/><path class="cls-15" d="M326,100.61a2.64,2.64,0,0,1,2.3-.59,5.23,5.23,0,0,1,2.24,1.3,3.91,3.91,0,0,1,1.38,2c.09.35-.42.6-.6.25a5.44,5.44,0,0,0-1.33-1.46,5.14,5.14,0,0,0-1.64-1,1.68,1.68,0,0,0-1.59.22,2,2,0,0,0-.47.58,3.41,3.41,0,0,0-.23.83.49.49,0,0,1-.93,0A2.35,2.35,0,0,1,326,100.61Z" transform="translate(-130.15 -58.68)"/><path class="cls-15" d="M304.56,102.28a1.91,1.91,0,0,1,1.55-1.17,3.17,3.17,0,0,1,2,.93,4.5,4.5,0,0,1,.73.78,2.49,2.49,0,0,1,.49,1,.24.24,0,0,1-.4.23c-.22-.2-.38-.45-.58-.67s-.38-.4-.59-.59a5.14,5.14,0,0,0-.72-.5,2.09,2.09,0,0,0-.8-.33,1.05,1.05,0,0,0-1,.75,2.79,2.79,0,0,0-.15.9,1.21,1.21,0,0,1-.28.89.15.15,0,0,1-.18,0,.81.81,0,0,1-.31-.41,2.39,2.39,0,0,1-.06-.65A3.14,3.14,0,0,1,304.56,102.28Z" transform="translate(-130.15 -58.68)"/><path class="cls-5" d="M309.55,108.43a37.26,37.26,0,0,1,2.39-8.54,20.93,20.93,0,0,1,2.3-4.4.19.19,0,0,1,.34.19c-.68,1.58-1.48,3.09-2.13,4.69a37.62,37.62,0,0,0-1.6,4.88c-.21.81-.39,1.64-.55,2.46-.08.43-.16.86-.22,1.29a1.12,1.12,0,0,0,.25,1.14c.53.42,1.33.19,1.9,0a3.69,3.69,0,0,1,2.19-.32c.17,0,.14.34,0,.32-1.29-.17-2.34,1-3.65.75a1.53,1.53,0,0,1-1.11-.69A2.68,2.68,0,0,1,309.55,108.43Z" transform="translate(-130.15 -58.68)"/><path class="cls-17" d="M318,112.6c3.21-.67,6.09-2.13,7.12-1.17s-.88,4.77-5.91,5.63-6.87-2-6.37-3.13S314.72,113.28,318,112.6Z" transform="translate(-130.15 -58.68)"/><path class="cls-6" d="M329.69,147.81s1.11-8,2.42-8.41,3.38,7.14,3.38,7.14A14.13,14.13,0,0,1,329.69,147.81Z" transform="translate(-130.15 -58.68)"/><path class="cls-7" d="M329.16,149s.85-8.77,2.85-10.81,9-7.44,11.89-5.84,3.38,4.31,4.38,6.64-12.2,8.69-13.06,8.47-1.93-8-2.92-7.52S330.73,148.89,329.16,149Z" transform="translate(-130.15 -58.68)"/><path class="cls-6" d="M328.59,148s.27-8.78-1.54-9-4.59,7.1-4.59,7.1A46.74,46.74,0,0,0,328.59,148Z" transform="translate(-130.15 -58.68)"/><path class="cls-7" d="M323.12,147a2.66,2.66,0,0,1-1.44-.62,5.79,5.79,0,0,1-1.12-1.38,2.63,2.63,0,0,1-.47-1.29,4.92,4.92,0,0,1,.75-2.1,17,17,0,0,1,1.2-2.12c.76-1.16,2.68-4.14,4.67-4s2.28,3.73,2.38,4.87.17,3.35.21,5a30.17,30.17,0,0,1,0,3.7c-1.12.14-.84-9.13-2.33-9.57-.93-.27-2.4,5.77-3.34,7.55A2,2,0,0,1,323.12,147Z" transform="translate(-130.15 -58.68)"/><path class="cls-8" d="M178.18,76.1c-4.76,2-19.64,16.69-21.12,45.94s3.32,27.56,1.9,39.09-14,19.25-14.65,27c-.87,10.67,13.77,14.17,18.34,4.6-1,6.06-.81,13.24,7.41,14.55s11.5-12,11.5-12,0,12.65,7.89,13.64,12.65-14.14,12.65-14.14S200,204.61,208,205.11s8.38-10.68,7.07-20.71-1.32-30.24,5.25-30.89,13.32-1,14.79-8.55-6.17-13-7.56-23.5.83-30.4-19.39-37.8S182.93,74.15,178.18,76.1Z" transform="translate(-130.15 -58.68)"/><path class="cls-18" d="M235.36,204.84c6.73,12.5,15.71,17.51,33.41,31.47l-2.61,9.62s-27-9.4-46-34.81c-9-12.08-10.77-42.88-5.7-53,4.39-8.76,14.9-4.61,15.78,5.26C231.33,175.43,228.21,191.54,235.36,204.84Z" transform="translate(-130.15 -58.68)"/><path class="cls-18" d="M258.5,244.22a26.92,26.92,0,0,1,4.88,9.12c.78,2.68,1.57,2.75,1.69.29.05-2.23-.77-4.26-.37-4.51.2-.12.54,1.49,1.21,3.68.8,2.59,1.06,5,2,4.18,1.15-.9.43-7.3-.3-9s2.28,4.12,2.9,7c.78,3.15,2.28,2.88,1.79-1.56-.59-4.12-1.79-6.53-1.83-7.56.61.53,1.35,1.16,3,5.18,1.14,3.2,2.44,2.28,1.76-1.36-.8-4.24-4.45-8.14-4-9.08.65-.45,1.54.52,4.32,1.78,2.69,1.41.09-2.26-2.62-4.13-2.76-2-5.9-4.36-8.69-5.24-3.85-1.21-5.92-1.85-8.3.37-1.55,1.38-4.3,3.58-3.33,5.5C253.43,240.4,256.84,241.83,258.5,244.22Z" transform="translate(-130.15 -58.68)"/><path class="cls-7" d="M213.21,330.9c2.4-11.5-5.45-56.1-6.23-64.66s-1-31.17-1-31.17l36.62.2s10.71,26.49,4.48,58.62-13.25,54.92-14.61,67-28.44,6.62-28.44,6.62S210.48,343.94,213.21,330.9Z" transform="translate(-130.15 -58.68)"/><path class="cls-7" d="M188.08,234.29c-14.53,24-10.32,21-15.77,66.42s-7.79,57.65-14.61,67.58,26.65.38,26.65.38,11.39-27,20.55-54c9.56-28.19,20.58-80.17,20.58-80.17Z" transform="translate(-130.15 -58.68)"/><path class="cls-19" d="M214.6,281.59q1.72-5.59,3.48-11.2c.32-1,.64-2.08,1-3.12.26-.81.49-1.66.82-2.45a8.41,8.41,0,0,1-2.7-.1c-.13,0-.14-.26,0-.28,1-.14,2-.14,3-.21a.17.17,0,0,1,.26,0l.8-.08a25.77,25.77,0,0,0,4-.95c.27-.08.36.31.12.41a18,18,0,0,1-4.09,1.08l-.83.11a22.34,22.34,0,0,1-.61,2.23c-.29,1-.59,1.91-.88,2.87l-1.77,5.64q-1.75,5.6-3.53,11.18c-.68,2.11-1.4,4.2-2.08,6.31-.06.2-.39.12-.32-.09C212.34,289.14,213.44,285.36,214.6,281.59Z" transform="translate(-130.15 -58.68)"/><path class="cls-19" d="M185.65,256c.87.22,1.69.64,2.54.92a10.6,10.6,0,0,0,2.61.58,8.11,8.11,0,0,0,4.48-.93,14.12,14.12,0,0,0,6-7.06c.78-1.78,1.39-3.63,2-5.47.08-.24.46-.15.39.1-.95,3.38-2,6.84-4.17,9.65-1.93,2.47-4.84,4.42-8.06,4.4a10.59,10.59,0,0,1-3.06-.5,11.11,11.11,0,0,1-2.94-1.26A.24.24,0,0,1,185.65,256Z" transform="translate(-130.15 -58.68)"/><path class="cls-19" d="M240.19,240.52c.28,1.51.49,3,.79,4.53s.65,3.06,1,4.58.77,2.93,1.22,4.38,1.17,2.77,2.74,2.9a.18.18,0,0,1,0,.35c-1.36.17-2.37-1-2.87-2.1a30.84,30.84,0,0,1-1.42-4.62c-.44-1.65-.83-3.32-1.17-5s-.67-3.29-.84-5C239.63,240.3,240.13,240.23,240.19,240.52Z" transform="translate(-130.15 -58.68)"/><path class="cls-19" d="M222.6,246.21c0-1.32,0-2.64,0-4s-.26-2.7-.23-4.05a.17.17,0,0,1,.34,0,17.83,17.83,0,0,1,.43,4c.05,1.38.06,2.76,0,4.14a52.78,52.78,0,0,1-1,7.93,2.38,2.38,0,0,0,3.14-1c.8-1.24.78-2.83.87-4.25a86.74,86.74,0,0,0,.18-9.94c0-.16.24-.16.25,0a81.1,81.1,0,0,1-.14,11.24,5.37,5.37,0,0,1-1.43,3.86,2.61,2.61,0,0,1-3.22.34.21.21,0,0,1-.09-.23A48.81,48.81,0,0,0,222.6,246.21Z" transform="translate(-130.15 -58.68)"/><path class="cls-20" d="M250.41,247.54c-5.65,3.31-9.93-4.87-14.61-2.73-4.16,1.91-12.65,3-19.13.38a14.47,14.47,0,0,1-2.29-1.16c-1.53-.94-3.07-1.84-4.61-2.6l-.11-.05a20.15,20.15,0,0,0-7.95-2.3s0,0,0,0a13.58,13.58,0,0,0-6.43,1.26l-.24.11c-.42.2-.84.42-1.27.66a34.68,34.68,0,0,1-8.34,3.53c-4.07,1.1-7.53,1.09-9.57.17-5.65-2.53,5.84-15.78,9.15-25.13a12,12,0,0,0,.63-4.15c0-4.14-1.63-9-3.46-14.13A112.47,112.47,0,0,1,177.67,187q-.28-1.38-.51-2.94a108.91,108.91,0,0,1-.41-23c.63-7.26,2-13.18,4.13-14.28,1.12-.58,3.74-.65,7.15-.37,1.29.1,2.69.26,4.16.45a188.29,188.29,0,0,1,24.08,4.91c2.63.75,4.4,1.41,4.73,1.82,1.06,1.33,10,10,15.77,18.49,2.68,3.95,4.66,7.87,4.87,11a20,20,0,0,1-1.16,9.17c-1,2.56-2.34,3.81-2.34,5.34a61.85,61.85,0,0,0,1.65,8.2c1.61,6.71,4.15,16,6.3,22.05.57,1.59,1.11,3,1.59,4C251.19,239.55,256.05,244.22,250.41,247.54Z" transform="translate(-130.15 -58.68)"/><path class="cls-19" d="M210.91,196.06a41.05,41.05,0,0,1,8-2.09c1.34-.25,2.67-.47,4-.66a24.75,24.75,0,0,1,4.11-.39.22.22,0,0,1,.06.43c-1.3.3-2.68.38-4,.57s-2.73.44-4.09.7c-2.68.53-5.32,1.27-8,1.76A.17.17,0,0,1,210.91,196.06Z" transform="translate(-130.15 -58.68)"/><path class="cls-18" d="M192.18,146.93a171.19,171.19,0,0,1,11.9,20.14c1.23,2.45,2.5,5,4.76,6.58,2.76,1.86,6.36,1.76,9.69,1.58,2.13-.11,4.58-.39,5.8-2.14a4.82,4.82,0,0,0,.62-3.68,16,16,0,0,0-1.33-3.57,107.69,107.69,0,0,0-7.36-14A187.57,187.57,0,0,0,192.18,146.93Z" transform="translate(-130.15 -58.68)"/><path class="cls-21" d="M245.92,231.1a3.63,3.63,0,0,1-2,3.77c-1.78.72-3.89-.56-4.68-2.31a8.31,8.31,0,0,1-.65-2.83,12.36,12.36,0,0,1-.75,1.3,5.6,5.6,0,0,1-3.37,2.6c-2.46.53-5-1.49-5.53-3.95a7.09,7.09,0,0,1,2.72-6.66,11.14,11.14,0,0,1-6.64.08A4.82,4.82,0,0,1,222,221a3.78,3.78,0,0,1,1-4.34,6.13,6.13,0,0,1,4.44-1.41,18,18,0,0,1,4.66,1,11,11,0,0,1-4.6-5.94c-.38-1.22-.37-2.86.77-3.42.93-.46,2,.09,2.88.67a28.25,28.25,0,0,1,6.5,6.13,7.89,7.89,0,0,1,.65-6.16,3.88,3.88,0,0,1,1.56-1.62c1.61,6.71,4.15,16,6.3,22.05a4.33,4.33,0,0,1-2.45-.66A6.23,6.23,0,0,1,245.92,231.1Z" transform="translate(-130.15 -58.68)"/><path class="cls-21" d="M195,240.45c-.42.2-.84.42-1.27.66a34.68,34.68,0,0,1-8.34,3.53,3.28,3.28,0,0,1-.27-.38,3,3,0,0,1-.17-3.13,3.85,3.85,0,0,1,2.14-1.43A10.11,10.11,0,0,1,195,240.45Z" transform="translate(-130.15 -58.68)"/><path class="cls-21" d="M199.14,226.28a41.48,41.48,0,0,1,2.53,12.8,13.58,13.58,0,0,0-6.43,1.26A12.44,12.44,0,0,1,194,225.72c.73-1.12,1.95-2.22,3.23-1.85C198.23,224.17,198.77,225.28,199.14,226.28Z" transform="translate(-130.15 -58.68)"/><path class="cls-21" d="M209.66,241.38a20.15,20.15,0,0,0-7.95-2.3,15.91,15.91,0,0,1,4-9.7,3.43,3.43,0,0,1,2.64-1.43c1.43.14,2.18,1.76,2.46,3.16A16.93,16.93,0,0,1,209.66,241.38Z" transform="translate(-130.15 -58.68)"/><path class="cls-21" d="M217.44,243.9c-.23.45-.5.87-.77,1.29a14.47,14.47,0,0,1-2.29-1.16c-1.53-.94-3.07-1.84-4.61-2.6,1-1.24,1.92-2.73,3.32-3.36a3.87,3.87,0,0,1,4.64.82C218.78,240.32,218.27,242.35,217.44,243.9Z" transform="translate(-130.15 -58.68)"/><path class="cls-21" d="M207.19,205.17a10.8,10.8,0,0,1-9.95,7.1,8.36,8.36,0,0,1,3.12,2.2,3.36,3.36,0,0,1,.49,3.6c-.92,1.61-3.17,1.71-5,1.51a20.83,20.83,0,0,1-7.5-2,10.64,10.64,0,0,1-2.74-2c0-4.14-1.63-9-3.46-14.13a4.14,4.14,0,0,1,3.6,2.27,12.24,12.24,0,0,1-.39-8,4.42,4.42,0,0,1,1.45-2.41,3.31,3.31,0,0,1,3.92.25,5.45,5.45,0,0,1,1.83,3.71,16.27,16.27,0,0,1-.29,4.23,17.82,17.82,0,0,1,3.86-7.79,5,5,0,0,1,3.19-2c1.86-.14,3.45,1.62,3.71,3.46a8.75,8.75,0,0,1-1.41,5.31,26.07,26.07,0,0,0-2.55,4.95,25.75,25.75,0,0,1,5.88-2.27c.79-.19,1.79-.28,2.25.39A2,2,0,0,1,207.19,205.17Z" transform="translate(-130.15 -58.68)"/><path class="cls-21" d="M240.48,192.34a9.59,9.59,0,0,0-1.68-1.8,37.43,37.43,0,0,0-5.63-3.34,15.08,15.08,0,0,1-2.86-2,1.54,1.54,0,0,1,1.07-2.66,12.16,12.16,0,0,1,4.33.95,17.58,17.58,0,0,1-6.07-6.95,2.44,2.44,0,0,1,0-2.2c.74-1.36,2.49-1,3.72-.4a14,14,0,0,1,4.92,4.08,8,8,0,0,1-1.67-4.74,4.12,4.12,0,0,1,.21-1.11c2.68,3.95,4.66,7.87,4.87,11A20,20,0,0,1,240.48,192.34Z" transform="translate(-130.15 -58.68)"/><path class="cls-21" d="M192,178.56c-.59,1.2-2.16,1.47-3.49,1.46a21.14,21.14,0,0,1-8.53-1.91,6.42,6.42,0,0,1,3.16,3.11c.69,1.71-.06,4.09-1.86,4.53a4.09,4.09,0,0,1-3.22-.92,9.05,9.05,0,0,1-.89-.75,108.91,108.91,0,0,1-.41-23,17,17,0,0,1,3.68.37,14.39,14.39,0,0,1,6.29,2.47,6.52,6.52,0,0,1,2.68,5.93c-.36,2.24-2.71,4.13-4.91,3.55a10.51,10.51,0,0,0,3.34.89,6.87,6.87,0,0,1,3.22,1.15A2.64,2.64,0,0,1,192,178.56Z" transform="translate(-130.15 -58.68)"/><path class="cls-8" d="M233.21,88.79c-1.87-4.34-5.34-7.94-9.14-11.06a7.58,7.58,0,0,0-2.29-1.44,3.09,3.09,0,0,0-2.69.26,2.8,2.8,0,0,0-1,2.43,11.55,11.55,0,0,0,2,5.26l7.61,13a14.25,14.25,0,0,0,3.13,4.1c1.94,1.58,2.5-.42,3-2.08A15,15,0,0,0,233.21,88.79Z" transform="translate(-130.15 -58.68)"/><polygon class="cls-18" points="80.25 93.15 69.46 92.46 70.52 78.94 81.3 79.63 80.25 93.15"/><path class="cls-16" d="M203.69,143.59c-1.1-.34-2.19-.72-3.28-1.07l-.12,0,.38-4.86,10.79.69-.5,6.35A21.84,21.84,0,0,1,203.69,143.59Z" transform="translate(-130.15 -58.68)"/><path class="cls-18" d="M181.54,124.75a21.45,21.45,0,0,0,4.77,6.77,38.26,38.26,0,0,0,3.91,3.5A33.2,33.2,0,0,0,206,141.54c7.2,1,14.45-.37,19.73-4.12a14.66,14.66,0,0,0,1.36-1.37h0c3.42-3.85,5.5-9.85,6.43-16.57,2.13-15.29-1.65-34.3-9.14-40-9-9-22.13-10.69-33-6.3C170.27,81.82,171.78,106.32,181.54,124.75Z" transform="translate(-130.15 -58.68)"/><g class="cls-22"><path class="cls-23" d="M186.31,131.52a38.26,38.26,0,0,0,3.91,3.5A33.2,33.2,0,0,0,206,141.54c4.57-3.69,4.52-10.51,2.84-14.24a11.61,11.61,0,0,0-14.59-6.56A11.25,11.25,0,0,0,186.31,131.52Z" transform="translate(-130.15 -58.68)"/><path class="cls-23" d="M227.12,136.05c3.42-3.85,5.5-9.85,6.43-16.57a12.39,12.39,0,0,0-6.83,7.26A11.86,11.86,0,0,0,227.12,136.05Z" transform="translate(-130.15 -58.68)"/></g><path class="cls-8" d="M231.91,84.43a4.26,4.26,0,0,0-.57-1.15c-2.52-4.6-11.77-12.24-24-13.06-15-1-29.28.92-36.36,10.72-4.79,6.61-6.45,16.53-3.38,24.39s9.49,7,11.76,7.12c1.72.09,3.34-1.24,5-.67a2.55,2.55,0,0,1,1.48,1.37.39.39,0,0,1,.29.33c0,.18.5.41.64.47a1.93,1.93,0,0,0,.66.16c1.12,0,1.79-1.06,2.22-2.16a18.33,18.33,0,0,0,4-8c2-7.54,12.15-12.13,11.39-20.46a11.49,11.49,0,0,0-.39-2.13c.73-.86,2.15-1.48,4.9-.45s5.5,1.91,8.3,2.69a36.54,36.54,0,0,0,4.46,1.16,19.58,19.58,0,0,1,4.64.85c1.3.54,3.74,2.57,4.83.75A2.44,2.44,0,0,0,231.91,84.43Z" transform="translate(-130.15 -58.68)"/><path class="cls-18" d="M186.27,121.35c-1,2.75-5.51,3.74-9.18,1.27s-6.35-10-3.62-14,9.22-2.26,11.69,2.58A14.58,14.58,0,0,1,186.27,121.35Z" transform="translate(-130.15 -58.68)"/><path class="cls-5" d="M176,111.32a.27.27,0,0,1,.12-.45,3.74,3.74,0,0,1,2.56.76,8.72,8.72,0,0,1,2.15,1.77,7.78,7.78,0,0,1,2,5.15c0,.35-.56.45-.64.08a9.76,9.76,0,0,0-2.14-4.56c-.16-.17-.33-.32-.5-.48l-.22.24c-.13.14-.26.28-.38.43a7.55,7.55,0,0,0-.67.93c-.41.67-.66,1.42-1.12,2-.08.12-.33.14-.36,0a3.68,3.68,0,0,1,.72-2.44,7.13,7.13,0,0,1,.79-1,3.12,3.12,0,0,1,.45-.44l.22-.18a6.74,6.74,0,0,0-.82-.58A11.66,11.66,0,0,1,176,111.32Z" transform="translate(-130.15 -58.68)"/><path class="cls-8" d="M230.31,101a5.51,5.51,0,0,0-1.94-.9,4.57,4.57,0,0,0-2,0,2.63,2.63,0,0,0-1.79,1c-.13.23,0,.55.23.54a3.14,3.14,0,0,0,.83-.2,4.92,4.92,0,0,1,.85-.17,4.82,4.82,0,0,1,3.4.94c.48.34,1,1,1.56,1,.15,0,.23-.19.22-.35C231.66,102,230.81,101.35,230.31,101Z" transform="translate(-130.15 -58.68)"/><path class="cls-24" d="M218.77,123.3c-2.51-.42-3.47-2.52-5.57-1-1.68,1.19-.59,4.7,4.53,5.43s5.94-2.75,5-3.91S221.28,123.72,218.77,123.3Z" transform="translate(-130.15 -58.68)"/><path class="cls-23" d="M213.48,123.76a6.09,6.09,0,0,1,3.72,1.73,3.06,3.06,0,0,1,1.1,2.26c-.19,0-.37,0-.57,0-3.55-.51-5.16-2.35-5.26-3.83A2.64,2.64,0,0,1,213.48,123.76Z" transform="translate(-130.15 -58.68)"/><path class="cls-8" d="M204.2,103.54a7.75,7.75,0,0,1,2.37-1.47,6.87,6.87,0,0,1,2.61-.49,3.81,3.81,0,0,1,2.61.8.39.39,0,0,1-.18.67,4.84,4.84,0,0,1-1.14,0,7.49,7.49,0,0,0-1.16,0,7.17,7.17,0,0,0-2.31.56,7.27,7.27,0,0,0-2,1.28c-.56.5-1.12,1.39-1.84,1.54-.18,0-.34-.17-.37-.36C202.65,105.05,203.62,104.07,204.2,103.54Z" transform="translate(-130.15 -58.68)"/><path class="cls-15" d="M208.33,112.78a2.64,2.64,0,0,0-2.37-.17,5.24,5.24,0,0,0-2,1.69,4,4,0,0,0-1,2.24c0,.37.53.51.64.14a7.47,7.47,0,0,1,2.47-3,1.68,1.68,0,0,1,1.6-.06,1.76,1.76,0,0,1,.57.48,3.68,3.68,0,0,1,.38.77.48.48,0,0,0,.91-.16A2.34,2.34,0,0,0,208.33,112.78Z" transform="translate(-130.15 -58.68)"/><path class="cls-15" d="M229.76,110.55a1.9,1.9,0,0,0-1.73-.88,3.16,3.16,0,0,0-1.84,1.29,4.39,4.39,0,0,0-.58.89,2.53,2.53,0,0,0-.3,1.07.24.24,0,0,0,.43.15c.18-.23.29-.51.45-.76s.31-.47.48-.69a5.1,5.1,0,0,1,.61-.62,2,2,0,0,1,.73-.47,1.05,1.05,0,0,1,1.1.56,2.61,2.61,0,0,1,.31.86,1.19,1.19,0,0,0,.43.82.14.14,0,0,0,.18,0,.7.7,0,0,0,.23-.46,2,2,0,0,0,0-.65A3.12,3.12,0,0,0,229.76,110.55Z" transform="translate(-130.15 -58.68)"/><path class="cls-5" d="M220.59,120.52c.68-.14,1.34-.33,2-.46.31-.07.62-.12.94-.17s.57-.06.7-.27c.27-.42-.27-1.35-.41-1.74-.22-.62-.42-1.24-.61-1.87a38.5,38.5,0,0,1-.94-3.81,12.46,12.46,0,0,1-.36-3.79c0-.24.36-.19.42,0a14.2,14.2,0,0,1,.41,2.16c.12.73.25,1.46.4,2.18a37.75,37.75,0,0,0,1.16,4.29A18.67,18.67,0,0,1,225,119a1.19,1.19,0,0,1-.41,1.3,4,4,0,0,1-1.71.38c-.74.09-1.48.1-2.22.18C220.45,120.87,220.41,120.56,220.59,120.52Z" transform="translate(-130.15 -58.68)"/><circle class="cls-7" cx="49.39" cy="65.35" r="1.99"/><path class="cls-8" d="M200.77,90.79c-1.29,2.62-3,5-4.24,7.67-3.23,6.64-3.8,14.32-2.86,21.65s3.28,14.38,5.68,21.36c1,2.74,1.86,5.93.33,8.39s-5.08,3.1-7.93,2.33-5.29-2.57-7.91-3.94-5.73-2.33-8.49-1.28a5.15,5.15,0,0,1,5.3-7.54,35.87,35.87,0,0,1,4,1.39c1.38.38,3.13.2,3.86-1,.85-1.44-.2-3.21-.94-4.72-1.69-3.43-1.75-7.41-1.73-11.23,0-6.93.23-13.91,1.8-20.66a38,38,0,0,1,7.38-15.72c1.16-1.4,4.27-5.42,6.42-4.17C203.85,84.67,201.57,89.15,200.77,90.79Z" transform="translate(-130.15 -58.68)"/><path class="cls-18" d="M232.33,161.15c12.74-3.25,16.87-17.53,24.89-34.82l10,4.25s-2.45,40.89-33.18,49.1c-11.38,3-55.18-10-59.89-16.77s-3-17.7,7.2-16.66S219.59,164.41,232.33,161.15Z" transform="translate(-130.15 -58.68)"/><path class="cls-18" d="M269.86,127.06c2.85-4.81,5-13.11,5.23-17.53.3-4.68-.65-5.29-1.39-2.09-.74,3-1.45,6.48-1.93,6.34-.24-.06.69-2.45.86-6,.18-4.12-.26-7.28-1.35-6.89s-1.63,8.63-2.53,11.16c-.32,2.61.53-7-.61-10.43-.91-3.86-2.65-4.06-2.31.62.15,4.73-.31,8.29-.9,9.36-.38-1.08-.15-2.44-1-7.66-.86-3.83-2.59-3.42-2.49.22.18,4.41.18,11.14-1.24,11.44-1-.24-.58-2-2.61-5.23s-1.17,1.59-.94,5.33c.37,3.91.71,8.39-.14,11.17-1.23,4,1.11,6.68,4.87,7.31S267.38,131.39,269.86,127.06Z" transform="translate(-130.15 -58.68)"/><g class="cls-25"><path class="cls-24" d="M195.18,150.83c2.19.75,4.34,1.59,6.49,2.43l6.44,2.54c2.14.85,4.29,1.67,6.45,2.48,1.08.4,2.16.78,3.26,1.15s2.18.72,3.28,1.08a53.75,53.75,0,0,1-6.72-1.7c-2.22-.68-4.39-1.49-6.54-2.33s-4.28-1.75-6.38-2.7S197.25,151.86,195.18,150.83Z" transform="translate(-130.15 -58.68)"/></g><path class="cls-7" d="M267.28,134.75c-.83,1.31-5.16,1.85-9.32-.72-3.16-1.94-3.61-4.6-3.14-6.11.42-1.35,1.3-1.22,1.58-.75a.22.22,0,0,1,0,.08c-.34,1.07.7,2.92,3,4.43S265.3,134,267,133.5C267.42,133.39,267.78,134,267.28,134.75Z" transform="translate(-130.15 -58.68)"/><path class="cls-13" d="M139.49,95.62a2.86,2.86,0,0,0-.92-.73l-1.14-.69-2.2-1.33-2.14-1.29a13.67,13.67,0,0,0-2.3-1.29.47.47,0,0,0-.47.79,13.51,13.51,0,0,0,2.16,1.36l2.22,1.31L136.86,95l1.15.66a3.12,3.12,0,0,0,1.15.51A.36.36,0,0,0,139.49,95.62Z" transform="translate(-130.15 -58.68)"/><path class="cls-13" d="M142.43,85.79c-.36-.72-.72-1.44-1.09-2.16s-.73-1.43-1.1-2.15l-.54-1c-.19-.37-.31-.76-.77-.8a.46.46,0,0,0-.46.25c-.23.41.06.77.25,1.13l.54,1,1.13,2.14c.37.72.75,1.43,1.14,2.14a7.63,7.63,0,0,0,1.24,2,.39.39,0,0,0,.63-.35A8.16,8.16,0,0,0,142.43,85.79Z" transform="translate(-130.15 -58.68)"/><path class="cls-13" d="M152.54,73.73c-.11-.4-.7-.33-.85,0a3.24,3.24,0,0,0-.2,1.15l-.09,1.22-.18,2.27c-.05.76-.11,1.52-.15,2.28a9.89,9.89,0,0,0,0,2.37c.05.26.44.37.55.08a18.62,18.62,0,0,0,.63-4.65c.07-.79.14-1.57.2-2.36A7.14,7.14,0,0,0,152.54,73.73Z" transform="translate(-130.15 -58.68)"/><path class="cls-13" d="M166.16,79.58a1.82,1.82,0,0,0-.57.81l-.47.88-.94,1.78c-.31.59-.62,1.18-.92,1.78a12.36,12.36,0,0,0-.84,1.81c-.13.38.36.72.62.38a14.12,14.12,0,0,0,1.05-1.7c.34-.6.67-1.2,1-1.81l1-1.77.47-.88a1.77,1.77,0,0,0,.35-1A.45.45,0,0,0,166.16,79.58Z" transform="translate(-130.15 -58.68)"/></g></g></g></g></svg>