<svg xmlns="http://www.w3.org/2000/svg" viewBox="0 0 5628.65 5067.79"><defs><style>.cls-1{fill:#cecece;}.cls-2{fill:#c1b91a;}.cls-3{fill:#e5e01a;}.cls-4{fill:#ccc31d;}.cls-5{fill:#e0d24c;opacity:0.57;}.cls-6{fill:#a09318;}.cls-7{fill:#ccc;}.cls-8{fill:#bdd891;}.cls-9{fill:#588b35;}.cls-10{fill:#3d5b24;}.cls-11{fill:#4a702c;}.cls-12{fill:#aeafae;}</style></defs><title>Recurso 1</title><g id="Capa_2" data-name="Capa 2"><g id="Livello_1" data-name="Livello 1"><polygon class="cls-1" points="2923.69 5067.79 3394.99 5067.79 5136.32 4055.23 4329.35 3595.42 2923.69 5067.79"/><polygon class="cls-1" points="2304.83 3903.41 2776.13 3903.41 4517.47 2890.85 3710.49 2431.04 2304.83 3903.41"/><polygon class="cls-1" points="1748.64 4994.16 2690.31 4994.16 2305.61 4609.46 1975.41 4609.46 1748.64 4994.16"/><polygon class="cls-1" points="4686.98 3173.43 5628.65 3173.43 5243.94 2788.73 4913.75 2788.73 4686.98 3173.43"/><polygon class="cls-1" points="1277.81 4375 2219.47 4375 1834.77 3990.3 1504.58 3990.3 1277.81 4375"/><polygon class="cls-1" points="432.41 3927.23 1374.08 3927.23 989.37 3542.53 659.18 3542.53 432.41 3927.23"/><path class="cls-2" d="M3673,1876.42c-20.71-28.06-50.66-54.32-89.88-77.14-166.18-96.73-438.53-95.7-605.21,2.29-35.7,21-63.73,44.74-84.14,70l-40.65-.25v99.36a145,145,0,0,0,0,15.32h0c3.2,61.15,44.78,121.44,124.79,167.26,166.68,95.47,439,94.44,605.21-2.29,78.36-45.61,119.75-104.9,124.22-165h.42V1876.64Z"/><path class="cls-3" d="M3583.15,1700.09c-166.18-96.73-438.53-95.7-605.21,2.3s-166.69,256.27,0,351.74,439,94.43,605.21-2.3S3749.34,1796.82,3583.15,1700.09Z"/><path class="cls-4" d="M3556.68,1715.52c-151.65-88.27-400.19-87.33-552.31,2.1s-152.11,233.87,0,321,400.66,86.18,552.31-2.09S3708.34,1803.8,3556.68,1715.52Z"/><path class="cls-5" d="M2900.82,1826.33l616,230.42s54.29-25.56,94.27-60L2958.65,1752.2S2924.72,1771.19,2900.82,1826.33Z"/><path class="cls-5" d="M3004.37,1717.62l644.91,232.51s15.71-30.12,18.1-45.65L3058.61,1691S3022.11,1706.47,3004.37,1717.62Z"/><path class="cls-6" d="M3267.41,2001.07v-24.72q-36.4-2.34-59.19-8.31t-39.38-19.3q-16.58-13.32-19.28-32.55l48.81-4.67q5.67,19.92,20,29.25,20.49,13.18,49.08,14.7v-78.7a342.78,342.78,0,0,1-61.22-11.81q-23.19-6.59-35.73-18.27t-12.54-26.5q0-26.37,36.68-42.72,24.54-11,72.81-13.46V1752.2H3296V1764q42.33,2.07,67.15,12.64,31.82,13.45,38.29,36.95l-50.16,3.84a37.08,37.08,0,0,0-17.93-22.32q-13.62-7.75-37.35-10.23v71.28q36.67,4.66,48.54,7.28,22.65,5.08,36.95,12.36t22,17.31a34.9,34.9,0,0,1,7.69,21.7q0,25.68-32.09,42.85t-83.06,18.4v25Zm0-216.45q-28.32,2.19-44.63,11.53t-16.32,22.11q0,12.65,13.89,21.16t47.06,13.59ZM3296,1955.47q28.3-1.79,46.79-12.5t18.47-26.51q0-13.45-13.08-21.63T3296,1880.21Z"/><path class="cls-2" d="M3651.11,1677.59c-20.71-28.06-50.66-54.32-89.87-77.15-166.19-96.72-438.54-95.69-605.22,2.3-35.7,21-63.73,44.74-84.13,70l-40.66-.25v99.36a145,145,0,0,0,0,15.32h0c3.2,61.15,44.78,121.44,124.79,167.26,166.68,95.47,439,94.44,605.22-2.29,78.35-45.61,119.74-104.9,124.21-165h.42V1677.8Z"/><path class="cls-3" d="M3561.24,1501.26c-166.19-96.73-438.54-95.7-605.22,2.29s-166.69,256.28,0,351.75,439,94.43,605.22-2.3S3727.42,1598,3561.24,1501.26Z"/><path class="cls-4" d="M3534.76,1516.69c-151.65-88.27-400.19-87.33-552.3,2.1s-152.12,233.87,0,321,400.65,86.18,552.3-2.09S3686.42,1605,3534.76,1516.69Z"/><path class="cls-5" d="M2878.9,1627.5l616,230.42s54.3-25.56,94.28-60l-652.49-244.54S2902.8,1572.36,2878.9,1627.5Z"/><path class="cls-5" d="M2982.46,1518.79l644.9,232.51s15.71-30.12,18.1-45.66l-608.77-213.47S3000.19,1507.64,2982.46,1518.79Z"/><path class="cls-6" d="M3245.49,1802.24v-24.72q-36.4-2.34-59.19-8.31t-39.38-19.3q-16.58-13.32-19.28-32.55l48.81-4.67q5.67,19.92,20,29.25,20.49,13.18,49.08,14.7v-78.7a343,343,0,0,1-61.22-11.81q-23.19-6.59-35.73-18.27t-12.54-26.5q0-26.37,36.68-42.72,24.54-11,72.81-13.46v-11.81h28.59v11.81q42.33,2.07,67.15,12.64,31.82,13.46,38.29,36.94l-50.16,3.85a37,37,0,0,0-17.93-22.32q-13.62-7.76-37.35-10.23v71.28q36.68,4.67,48.54,7.28,22.65,5.09,37,12.36t22,17.31a35,35,0,0,1,7.68,21.7q0,25.68-32.09,42.85t-83.06,18.4v25Zm0-216.45q-28.32,2.19-44.63,11.53t-16.32,22.11q0,12.64,13.89,21.15t47.06,13.6Zm28.59,170.85q28.32-1.79,46.79-12.5t18.47-26.51q0-13.45-13.08-21.63t-52.18-14.62Z"/><path class="cls-2" d="M3710.38,1469c-20.7-28.06-50.65-54.32-89.87-77.14-166.18-96.73-438.53-95.7-605.22,2.29-35.69,21-63.72,44.75-84.13,70l-40.66-.25v99.36a145,145,0,0,0,0,15.32h0c3.21,61.15,44.79,121.45,124.79,167.27,166.69,95.46,439,94.43,605.22-2.3,78.35-45.61,119.75-104.9,124.21-165h.43V1469.21Z"/><path class="cls-3" d="M3620.51,1292.66c-166.18-96.73-438.53-95.69-605.22,2.3s-166.69,256.27,0,351.74,439,94.43,605.22-2.29S3786.69,1389.39,3620.51,1292.66Z"/><path class="cls-4" d="M3594,1308.1c-151.66-88.28-400.19-87.33-552.31,2.09s-152.11,233.87,0,321,400.65,86.18,552.31-2.09S3745.69,1396.37,3594,1308.1Z"/><path class="cls-5" d="M2938.17,1418.9l616,230.42s54.29-25.56,94.27-60L2996,1344.78S2962.08,1363.76,2938.17,1418.9Z"/><path class="cls-5" d="M3041.73,1310.19l644.91,232.51s15.71-30.12,18.1-45.65L3096,1283.58S3059.47,1299.05,3041.73,1310.19Z"/><path class="cls-6" d="M3304.77,1593.64v-24.72q-36.41-2.34-59.2-8.31t-39.37-19.3q-16.59-13.32-19.28-32.55l48.81-4.67q5.67,19.92,20,29.26,20.49,13.19,49.08,14.69v-78.69a342.83,342.83,0,0,1-61.22-11.82q-23.19-6.58-35.73-18.26t-12.54-26.51q0-26.37,36.67-42.71,24.54-11,72.82-13.46v-11.81h28.58v11.81q42.34,2.06,67.15,12.63,31.83,13.47,38.3,37l-50.16,3.84a37.05,37.05,0,0,0-17.94-22.31q-13.62-7.77-37.35-10.24v71.28q36.68,4.68,48.55,7.28,22.65,5.09,36.94,12.36t22,17.31a35,35,0,0,1,7.69,21.7q0,25.68-32.1,42.85t-83.06,18.4v25Zm0-216.45q-28.32,2.19-44.63,11.54t-16.32,22.11q0,12.63,13.89,21.15t47.06,13.6ZM3333.35,1548q28.32-1.79,46.79-12.5t18.48-26.5q0-13.47-13.08-21.63t-52.19-14.63Z"/><path class="cls-2" d="M3662.07,1307.55c-20.71-28.07-50.66-54.32-89.88-77.15-166.18-96.73-438.53-95.69-605.21,2.3-35.7,21-63.73,44.74-84.13,70l-40.66-.25v99.36a144.79,144.79,0,0,0,0,15.31h0c3.2,61.16,44.78,121.45,124.79,167.27,166.68,95.47,439,94.43,605.21-2.3,78.36-45.6,119.75-104.89,124.22-165h.42V1307.76Z"/><path class="cls-3" d="M3572.19,1131.22c-166.18-96.73-438.53-95.7-605.21,2.29s-166.69,256.28,0,351.74,439,94.44,605.21-2.29S3738.38,1228,3572.19,1131.22Z"/><path class="cls-4" d="M3545.72,1146.65c-151.65-88.27-400.19-87.33-552.3,2.1s-152.12,233.87,0,321,400.65,86.17,552.3-2.1S3697.38,1234.92,3545.72,1146.65Z"/><path class="cls-5" d="M2889.86,1257.45l616,230.42s54.3-25.56,94.28-60l-652.49-244.54S2913.76,1202.31,2889.86,1257.45Z"/><path class="cls-5" d="M2993.42,1148.75l644.9,232.51s15.71-30.12,18.1-45.66l-608.77-213.47S3011.15,1137.6,2993.42,1148.75Z"/><path class="cls-6" d="M3256.45,1432.19v-24.72q-36.4-2.33-59.19-8.31t-39.38-19.29q-16.58-13.32-19.28-32.55l48.81-4.67q5.67,19.9,20,29.25,20.49,13.18,49.08,14.7v-78.7a343,343,0,0,1-61.22-11.81q-23.19-6.6-35.73-18.27T3147,1251.31q0-26.37,36.68-42.71,24.54-11,72.81-13.46v-11.81H3285v11.81q42.33,2.05,67.15,12.64,31.82,13.46,38.29,36.94l-50.16,3.85a37,37,0,0,0-17.93-22.32q-13.62-7.76-37.35-10.23v71.28q36.67,4.67,48.54,7.28,22.65,5.07,37,12.36t22,17.3a34.94,34.94,0,0,1,7.69,21.7q0,25.69-32.09,42.85T3285,1407.2v25Zm0-216.45q-28.32,2.21-44.63,11.54t-16.32,22.11q0,12.63,13.89,21.15t47.06,13.6ZM3285,1386.6q28.32-1.78,46.79-12.5t18.47-26.51q0-13.46-13.08-21.63T3285,1311.33Z"/><path class="cls-2" d="M3721.37,1147.26c-20.71-28.07-50.66-54.32-89.88-77.15-166.18-96.73-438.53-95.7-605.21,2.3-35.7,21-63.73,44.74-84.13,70l-40.66-.25v99.36a145,145,0,0,0,0,15.32h0c3.2,61.15,44.78,121.45,124.79,167.27,166.68,95.47,439,94.43,605.21-2.3,78.36-45.6,119.75-104.9,124.22-165h.42V1147.47Z"/><path class="cls-3" d="M3631.49,970.92c-166.18-96.73-438.53-95.69-605.21,2.3s-166.69,256.28,0,351.74,439,94.44,605.21-2.29S3797.68,1067.65,3631.49,970.92Z"/><path class="cls-4" d="M3605,986.36c-151.65-88.27-400.19-87.33-552.3,2.09s-152.12,233.88,0,321,400.65,86.17,552.3-2.1S3756.68,1074.63,3605,986.36Z"/><path class="cls-5" d="M2949.16,1097.16l616,230.42s54.3-25.56,94.28-60L3007,1023S2973.06,1042,2949.16,1097.16Z"/><path class="cls-5" d="M3052.72,988.45,3697.62,1221s15.71-30.12,18.1-45.65L3107,961.84S3070.45,977.31,3052.72,988.45Z"/><path class="cls-6" d="M3315.75,1271.9v-24.72q-36.4-2.34-59.19-8.31t-39.38-19.3q-16.57-13.32-19.28-32.55l48.81-4.67q5.67,19.92,20,29.26,20.49,13.19,49.08,14.69v-78.69a343.84,343.84,0,0,1-61.22-11.81q-23.19-6.6-35.73-18.27T3206.26,1091q0-26.37,36.68-42.71,24.54-11,72.81-13.46V1023h28.59v11.81q42.33,2.06,67.15,12.63,31.82,13.47,38.29,37l-50.16,3.85a37,37,0,0,0-17.93-22.32q-13.62-7.77-37.35-10.23V1127q36.67,4.66,48.54,7.28,22.65,5.07,36.95,12.36t22,17.3a34.94,34.94,0,0,1,7.69,21.7q0,25.68-32.09,42.85t-83.06,18.41v25Zm0-216.45q-28.32,2.21-44.63,11.54t-16.32,22.11q0,12.63,13.89,21.15t47.06,13.6Zm28.59,170.85q28.32-1.79,46.79-12.49t18.47-26.51q0-13.46-13.08-21.63T3344.34,1151Z"/><path class="cls-2" d="M3699.45,948.42c-20.71-28.06-50.66-54.31-89.87-77.14-166.19-96.73-438.53-95.7-605.22,2.3-35.7,21-63.73,44.74-84.13,70l-40.66-.25v99.36a145,145,0,0,0,0,15.32h0c3.2,61.15,44.78,121.45,124.79,167.27,166.69,95.46,439,94.43,605.22-2.3,78.35-45.61,119.74-104.9,124.21-165h.42V948.64Z"/><path class="cls-3" d="M3609.58,772.09c-166.19-96.73-438.53-95.69-605.22,2.3s-166.69,256.28,0,351.74,439,94.44,605.22-2.29S3775.76,868.82,3609.58,772.09Z"/><path class="cls-4" d="M3583.1,787.53c-151.65-88.27-400.19-87.33-552.3,2.09s-152.12,233.87,0,321,400.65,86.18,552.3-2.09S3734.76,875.8,3583.1,787.53Z"/><path class="cls-5" d="M2927.24,898.33l616,230.42s54.3-25.56,94.28-60L2985.07,824.21S2951.14,843.19,2927.24,898.33Z"/><path class="cls-5" d="M3030.8,789.62l644.9,232.51s15.71-30.12,18.1-45.65L3085,763S3048.53,778.48,3030.8,789.62Z"/><path class="cls-6" d="M3293.83,1073.07v-24.72q-36.4-2.34-59.19-8.31t-39.38-19.3q-16.58-13.32-19.28-32.55l48.81-4.67q5.67,19.92,20,29.26,20.49,13.19,49.08,14.69V948.78A343.57,343.57,0,0,1,3232.62,937q-23.2-6.6-35.74-18.27t-12.54-26.51q0-26.37,36.68-42.71,24.54-11,72.81-13.46V824.21h28.59V836q42.35,2.06,67.15,12.63,31.82,13.47,38.29,37l-50.16,3.84a37,37,0,0,0-17.93-22.31q-13.62-7.77-37.35-10.24v71.29q36.67,4.67,48.54,7.27,22.65,5.09,36.95,12.37t22,17.3a35,35,0,0,1,7.68,21.7q0,25.68-32.09,42.85t-83.06,18.41v25Zm0-216.45q-28.3,2.19-44.63,11.54t-16.31,22.11q0,12.63,13.88,21.15t47.06,13.6Zm28.59,170.85q28.32-1.79,46.79-12.49t18.47-26.51q0-13.46-13.08-21.63t-52.18-14.63Z"/><path class="cls-2" d="M3758.72,739.83c-20.7-28.07-50.65-54.32-89.87-77.15C3502.67,566,3230.32,567,3063.63,665c-35.69,21-63.72,44.74-84.13,70l-40.66-.25v99.36a150.35,150.35,0,0,0,0,15.31h0c3.21,61.15,44.79,121.44,124.79,167.26,166.69,95.47,439,94.44,605.22-2.29,78.35-45.61,119.75-104.9,124.22-165h.42V740Z"/><path class="cls-3" d="M3668.85,563.5c-166.18-96.73-438.53-95.7-605.22,2.29s-166.68,256.28,0,351.75,439,94.43,605.22-2.3S3835,660.23,3668.85,563.5Z"/><path class="cls-4" d="M3642.38,578.93c-151.66-88.27-400.19-87.33-552.31,2.1s-152.11,233.87,0,321,400.65,86.18,552.31-2.1S3794,667.2,3642.38,578.93Z"/><path class="cls-5" d="M2986.52,689.74l616,230.41s54.29-25.55,94.27-60L3044.35,615.61S3010.42,634.59,2986.52,689.74Z"/><path class="cls-5" d="M3090.07,581,3735,813.54s15.71-30.12,18.1-45.66L3144.31,554.41S3107.81,569.88,3090.07,581Z"/><path class="cls-6" d="M3353.11,864.47V839.75q-36.41-2.32-59.2-8.31t-39.37-19.29q-16.59-13.32-19.28-32.55l48.81-4.67q5.67,19.91,20,29.25,20.49,13.19,49.08,14.7v-78.7a342.78,342.78,0,0,1-61.22-11.81q-23.19-6.6-35.73-18.27t-12.54-26.51q0-26.37,36.67-42.71,24.55-11,72.82-13.46V615.61h28.58v11.81q42.34,2.05,67.15,12.64,31.83,13.46,38.3,36.94L3437,680.85A37,37,0,0,0,3419,658.53q-13.61-7.75-37.35-10.23v71.28q36.67,4.67,48.55,7.28,22.65,5.08,36.94,12.36t22,17.3a34.94,34.94,0,0,1,7.69,21.7q0,25.69-32.09,42.85t-83.07,18.41v25Zm0-216.45q-28.32,2.21-44.63,11.54t-16.32,22.11q0,12.65,13.89,21.15t47.06,13.6Zm28.58,170.86q28.32-1.78,46.79-12.5T3447,779.87q0-13.46-13.08-21.63t-52.19-14.63Z"/><path class="cls-2" d="M3758.72,576.46c-20.7-28.06-50.65-54.32-89.87-77.14-166.18-96.73-438.53-95.7-605.22,2.29-35.69,21-63.72,44.74-84.13,70l-40.66-.25v99.36a150.55,150.55,0,0,0,0,15.32h0c3.21,61.15,44.79,121.44,124.79,167.27,166.69,95.46,439,94.43,605.22-2.3,78.35-45.61,119.75-104.9,124.22-165h.42V576.68Z"/><path class="cls-3" d="M3668.85,400.13c-166.18-96.73-438.53-95.7-605.22,2.3s-166.68,256.27,0,351.74,439,94.43,605.22-2.3S3835,496.86,3668.85,400.13Z"/><path class="cls-4" d="M3642.38,415.57c-151.66-88.28-400.19-87.33-552.31,2.09s-152.11,233.87,0,321,400.65,86.18,552.31-2.09S3794,503.84,3642.38,415.57Z"/><path class="cls-5" d="M2986.52,526.37l616,230.42s54.29-25.56,94.27-60L3044.35,452.24S3010.42,471.23,2986.52,526.37Z"/><path class="cls-5" d="M3090.07,417.66,3735,650.17s15.71-30.12,18.1-45.65L3144.31,391.05S3107.81,406.52,3090.07,417.66Z"/><path class="cls-6" d="M3353.11,701.11V676.39q-36.41-2.34-59.2-8.31t-39.37-19.3q-16.59-13.32-19.28-32.55l48.81-4.67q5.67,19.92,20,29.26,20.49,13.18,49.08,14.69v-78.7A342.78,342.78,0,0,1,3291.89,565q-23.19-6.59-35.73-18.26t-12.54-26.51q0-26.37,36.67-42.71,24.55-11,72.82-13.46V452.24h28.58v11.82q42.34,2.06,67.15,12.63,31.83,13.46,38.3,36.95L3437,517.48A37.1,37.1,0,0,0,3419,495.16q-13.61-7.76-37.35-10.23v71.28q36.67,4.68,48.55,7.28,22.65,5.09,36.94,12.36t22,17.31a34.92,34.92,0,0,1,7.69,21.7q0,25.68-32.09,42.85t-83.07,18.4v25Zm0-216.45q-28.32,2.19-44.63,11.53t-16.32,22.12q0,12.63,13.89,21.15t47.06,13.59Zm28.58,170.85q28.32-1.78,46.79-12.5t18.48-26.5q0-13.47-13.08-21.64t-52.19-14.62Z"/><path class="cls-2" d="M3697.44,418.09c-20.71-28.06-50.66-54.32-89.87-77.15-166.19-96.73-438.53-95.69-605.22,2.3-35.7,21-63.73,44.74-84.13,70.05l-40.66-.25V512.4a145,145,0,0,0,0,15.32h0c3.2,61.15,44.78,121.44,124.79,167.26,166.69,95.47,439,94.44,605.22-2.29,78.35-45.61,119.74-104.9,124.21-165h.42V418.3Z"/><path class="cls-3" d="M3607.57,241.76c-166.19-96.73-438.53-95.7-605.22,2.29s-166.69,256.28,0,351.75,439,94.43,605.22-2.3S3773.75,338.49,3607.57,241.76Z"/><path class="cls-4" d="M3581.09,257.19c-151.65-88.27-400.19-87.33-552.3,2.1s-152.12,233.87,0,321,400.65,86.18,552.3-2.1S3732.75,345.47,3581.09,257.19Z"/><path class="cls-5" d="M2925.23,368l616,230.42s54.3-25.56,94.28-60L2983.06,293.87S2949.13,312.85,2925.23,368Z"/><path class="cls-5" d="M3028.79,259.29l644.9,232.51s15.71-30.12,18.1-45.66L3083,232.67S3046.52,248.14,3028.79,259.29Z"/><path class="cls-6" d="M3291.82,542.74V518q-36.41-2.32-59.19-8.3t-39.38-19.3q-16.58-13.32-19.28-32.55l48.81-4.67q5.67,19.92,20,29.25,20.49,13.19,49.08,14.7v-78.7a342.68,342.68,0,0,1-61.21-11.81q-23.21-6.58-35.74-18.27t-12.54-26.5q0-26.37,36.68-42.72,24.54-11,72.81-13.46V293.87h28.59v11.81q42.35,2.07,67.15,12.64,31.82,13.46,38.29,36.94l-50.16,3.85a37,37,0,0,0-17.93-22.32q-13.62-7.76-37.35-10.23v71.28q36.68,4.67,48.54,7.28,22.65,5.08,37,12.36t22,17.31a35,35,0,0,1,7.68,21.7q0,25.68-32.09,42.85t-83.06,18.4v25Zm0-216.46q-28.31,2.21-44.63,11.54t-16.31,22.11q0,12.65,13.88,21.15t47.06,13.6Zm28.59,170.86q28.32-1.78,46.79-12.5t18.47-26.51q0-13.45-13.08-21.63t-52.18-14.62Z"/><path class="cls-2" d="M3728.55,248.21c-20.71-28.06-50.66-54.32-89.87-77.15-166.19-96.73-438.53-95.69-605.22,2.3-35.7,21-63.73,44.74-84.13,70l-40.66-.25v99.36a145,145,0,0,0,0,15.32h0c3.2,61.15,44.78,121.44,124.79,167.26,166.69,95.47,439,94.44,605.22-2.29,78.35-45.61,119.74-104.9,124.21-165h.42V248.42Z"/><path class="cls-3" d="M3638.68,71.88c-166.19-96.73-438.53-95.7-605.22,2.29s-166.69,256.28,0,351.75,439,94.43,605.22-2.3S3804.86,168.61,3638.68,71.88Z"/><path class="cls-4" d="M3612.2,87.31C3460.55-1,3212,0,3059.9,89.41s-152.12,233.87,0,321,400.65,86.18,552.3-2.1S3763.86,175.59,3612.2,87.31Z"/><path class="cls-5" d="M2956.34,198.12l616,230.42s54.3-25.56,94.28-60L3014.17,124S2980.25,143,2956.34,198.12Z"/><path class="cls-5" d="M3059.9,89.41l644.9,232.51s15.71-30.12,18.1-45.66L3114.13,62.79S3077.64,78.26,3059.9,89.41Z"/><path class="cls-6" d="M3322.93,372.86V348.13q-36.41-2.33-59.19-8.3t-39.37-19.3q-16.59-13.32-19.29-32.55l48.82-4.67q5.66,19.92,19.95,29.25,20.51,13.19,49.08,14.7v-78.7a342.68,342.68,0,0,1-61.21-11.81q-23.2-6.6-35.74-18.27T3213.44,192q0-26.37,36.68-42.72,24.54-11,72.81-13.46V124h28.59V135.8q42.34,2.07,67.15,12.64,31.82,13.45,38.29,36.94l-50.16,3.85a37,37,0,0,0-17.93-22.32q-13.62-7.75-37.35-10.23V228q36.67,4.66,48.54,7.28,22.65,5.08,37,12.36t22,17.3a35,35,0,0,1,7.68,21.71q0,25.68-32.09,42.85t-83.06,18.4v25Zm0-216.46q-28.3,2.21-44.63,11.54T3262,190.05q0,12.64,13.88,21.15t47.06,13.6Zm28.59,170.86q28.32-1.78,46.79-12.5t18.47-26.51q0-13.46-13.08-21.63T3351.52,252Z"/><polygon class="cls-7" points="834.62 2524.36 834.62 2227.59 1043.5 2104.7 1043.5 2401.58 834.62 2524.36"/><polygon class="cls-8" points="141.35 2765.8 649.94 3098.74 931.81 3170.23 2596.49 2200.01 2518.88 2065.2 1863.22 1713.89 141.35 2765.8"/><path class="cls-9" d="M2522.91,2039.67l-457-259.4-186.27-102.7L1696.19,1786.4,245,2634.06,15.16,2765.8l211.41,121,456.51,255.83L873.8,3251.42l190.73-108.77,1459.91-853.27,205.84-130.22Zm-33.39,199.76L998.68,3107.59c-103.44-42.09-196.17-21.19-253.93,2.35l-470-262.64c32.06-35.83,59.61-94.55,7.39-170.11l1480.39-868c55.86,14.43,141,25.92,231.8-.25L2491,2079.38C2453.48,2140.76,2468.93,2199.7,2489.52,2239.43Z"/><polygon class="cls-10" points="2730.28 2159.16 2730.28 2442.06 873.8 3533.29 873.8 3251.42 2730.28 2159.16"/><polygon class="cls-11" points="15.16 2765.8 15.16 3046.91 873.8 3533.29 873.8 3251.42 15.16 2765.8"/><path class="cls-9" d="M1582.59,2337c-121.45-70.51-320.17-70.51-441.62,0s-121.91,185.41-1,255.34,319.6,69.93,441.62,0S1704,2407.54,1582.59,2337Zm-46.15,229.13c-97,55.6-255,55.6-351.11,0s-95.72-147,.83-203,254.55-56.06,351.11,0S1633.45,2510.57,1536.44,2566.17Z"/><path class="cls-9" d="M945.36,2695.7c-51.58-29.95-136-29.95-187.56,0s-51.78,78.75-.44,108.45,135.74,29.7,187.56,0S996.94,2725.64,945.36,2695.7Z"/><path class="cls-9" d="M1959.75,2134.51c-51.58-30-136-30-187.57,0s-51.77,78.74-.44,108.45,135.74,29.7,187.56,0S2011.33,2164.45,1959.75,2134.51Z"/><polygon class="cls-7" points="1724.42 3033.3 1724.42 2736.53 1933.3 2613.63 1933.3 2910.52 1724.42 3033.3"/><polygon class="cls-12" points="834.62 2227.38 1724.75 2736.7 1933.3 2613.63 1043.5 2104.7 834.62 2227.38"/><polygon class="cls-7" points="834.62 2148.58 834.62 1851.81 1043.5 1728.91 1043.5 2025.8 834.62 2148.58"/><polygon class="cls-8" points="141.35 2390.02 649.94 2722.95 931.81 2794.44 2596.49 1824.23 2518.88 1689.42 1863.22 1338.1 141.35 2390.02"/><path class="cls-9" d="M2522.91,1663.89l-457-259.41-186.27-102.7-183.43,108.83L245,2258.27,15.16,2390l211.41,121,456.51,255.83L873.8,2875.63l190.73-108.76,1459.91-853.28,205.84-130.21Zm-33.39,199.75L998.68,2731.8c-103.44-42.08-196.17-21.18-253.93,2.35l-470-262.64c32.06-35.82,59.61-94.54,7.39-170.11l1480.39-868c55.86,14.42,141,25.91,231.8-.25L2491,1703.59C2453.48,1765,2468.93,1823.91,2489.52,1863.64Z"/><polygon class="cls-10" points="2730.28 1783.38 2730.28 2066.27 873.8 3157.51 873.8 2875.63 2730.28 1783.38"/><polygon class="cls-11" points="15.16 2390.02 15.16 2671.12 873.8 3157.51 873.8 2875.63 15.16 2390.02"/><path class="cls-9" d="M1582.59,1961.25c-121.45-70.5-320.17-70.5-441.62,0s-121.91,185.41-1,255.34,319.6,69.94,441.62,0S1704,2031.76,1582.59,1961.25Zm-46.15,229.13c-97,55.6-255,55.6-351.11,0s-95.72-147,.83-203,254.55-56,351.11,0S1633.45,2134.79,1536.44,2190.38Z"/><path class="cls-9" d="M945.36,2319.91c-51.58-29.94-136-29.94-187.56,0s-51.78,78.75-.44,108.45,135.74,29.7,187.56,0S996.94,2349.86,945.36,2319.91Z"/><path class="cls-9" d="M1959.75,1758.72c-51.58-29.94-136-29.94-187.57,0s-51.77,78.75-.44,108.45,135.74,29.7,187.56,0S2011.33,1788.67,1959.75,1758.72Z"/><polygon class="cls-7" points="1724.42 2657.51 1724.42 2360.74 1933.3 2237.84 1933.3 2534.73 1724.42 2657.51"/><polygon class="cls-12" points="834.62 1851.59 1724.75 2360.91 1933.3 2237.84 1043.5 1728.91 834.62 1851.59"/><polygon class="cls-7" points="856.29 1764.07 856.29 1467.3 1065.17 1344.4 1065.17 1641.29 856.29 1764.07"/><polygon class="cls-8" points="163.02 2005.51 671.61 2338.44 953.49 2409.93 2618.17 1439.72 2540.55 1304.91 1884.89 953.59 163.02 2005.51"/><path class="cls-9" d="M2544.58,1279.38l-457-259.41-186.27-102.7L1717.86,1026.1,266.62,1873.76,36.84,2005.5l211.4,121,456.51,255.83,190.73,108.76,190.72-108.76,1459.91-853.28L2752,1398.87Zm-33.39,199.75L1020.35,2347.29c-103.44-42.08-196.17-21.19-253.93,2.35L296.37,2087c32.06-35.82,59.62-94.54,7.39-170.11l1480.4-868c55.85,14.43,141,25.92,231.79-.24l496.7,270.42C2475.16,1380.46,2490.6,1439.4,2511.19,1479.13Z"/><polygon class="cls-10" points="2751.95 1398.87 2751.95 1681.76 895.48 2772.99 895.48 2491.12 2751.95 1398.87"/><polygon class="cls-11" points="36.84 2005.51 36.84 2286.61 895.48 2772.99 895.48 2491.12 36.84 2005.51"/><path class="cls-9" d="M1604.26,1576.74c-121.45-70.5-320.17-70.5-441.62,0s-121.91,185.41-1,255.34,319.59,69.93,441.61,0S1725.7,1647.25,1604.26,1576.74Zm-46.15,229.13c-97,55.6-255,55.6-351.11,0s-95.72-146.95.83-203,254.56-56,351.11,0S1655.12,1750.27,1558.11,1805.87Z"/><path class="cls-9" d="M967,1935.4c-51.58-29.94-136-29.94-187.57,0s-51.78,78.75-.44,108.45,135.74,29.7,187.56,0S1018.62,1965.35,967,1935.4Z"/><path class="cls-9" d="M1981.42,1374.21c-51.58-29.94-136-29.94-187.56,0s-51.78,78.75-.45,108.45,135.74,29.7,187.57,0S2033,1404.16,1981.42,1374.21Z"/><polygon class="cls-7" points="1746.09 2273 1746.09 1976.23 1954.98 1853.34 1954.98 2150.22 1746.09 2273"/><polygon class="cls-12" points="856.29 1467.08 1746.42 1976.4 1954.98 1853.34 1065.17 1344.4 856.29 1467.08"/><polygon class="cls-7" points="856.29 1388.28 856.29 1091.51 1065.17 968.61 1065.17 1265.5 856.29 1388.28"/><polygon class="cls-8" points="163.02 1629.72 671.61 1962.66 953.49 2034.14 2618.17 1063.93 2540.55 929.12 1884.89 577.8 163.02 1629.72"/><path class="cls-9" d="M2544.58,903.59l-457-259.4-186.27-102.7L1717.86,650.32,266.62,1498,36.84,1629.72l211.4,121,456.51,255.83,190.73,108.77,190.72-108.77,1459.91-853.28L2752,1023.08Zm-33.39,199.76L1020.35,1971.51c-103.44-42.09-196.17-21.19-253.93,2.35l-470-262.64c32.06-35.83,59.62-94.55,7.39-170.11l1480.4-868c55.85,14.43,141,25.91,231.79-.25l496.7,270.42C2475.16,1004.68,2490.6,1063.62,2511.19,1103.35Z"/><polygon class="cls-10" points="2751.95 1023.08 2751.95 1305.97 895.48 2397.21 895.48 2115.34 2751.95 1023.08"/><polygon class="cls-11" points="36.84 1629.72 36.84 1910.83 895.48 2397.21 895.48 2115.34 36.84 1629.72"/><path class="cls-9" d="M1604.26,1201c-121.45-70.51-320.17-70.51-441.62,0s-121.91,185.41-1,255.34,319.59,69.93,441.61,0S1725.7,1271.46,1604.26,1201Zm-46.15,229.13c-97,55.6-255,55.6-351.11,0s-95.72-147,.83-203,254.56-56.06,351.11,0S1655.12,1374.49,1558.11,1430.09Z"/><path class="cls-9" d="M967,1559.62c-51.58-29.95-136-29.95-187.57,0s-51.78,78.74-.44,108.45,135.74,29.7,187.56,0S1018.62,1589.56,967,1559.62Z"/><path class="cls-9" d="M1981.42,998.43c-51.58-29.95-136-29.95-187.56,0s-51.78,78.74-.45,108.44,135.74,29.71,187.57,0S2033,1028.37,1981.42,998.43Z"/><polygon class="cls-7" points="1746.09 1897.22 1746.09 1600.45 1954.98 1477.55 1954.98 1774.44 1746.09 1897.22"/><polygon class="cls-12" points="856.29 1091.29 1746.42 1600.61 1954.98 1477.55 1065.17 968.61 856.29 1091.29"/><polygon class="cls-7" points="856.29 1013.43 856.29 716.66 1065.17 593.76 1065.17 890.65 856.29 1013.43"/><polygon class="cls-8" points="163.02 1254.87 671.61 1587.8 953.49 1659.29 2618.17 689.08 2540.55 554.27 1884.89 202.95 163.02 1254.87"/><path class="cls-9" d="M2544.58,528.74l-457-259.41-186.27-102.7L1717.86,275.46,266.62,1123.12,36.84,1254.87l211.4,121,456.51,255.83,190.73,108.76,190.72-108.76L2546.11,778.44,2752,648.23Zm-33.39,199.75L1020.35,1596.65c-103.44-42.08-196.17-21.18-253.93,2.35l-470-262.64c32.06-35.82,59.62-94.54,7.39-170.11l1480.4-868c55.85,14.43,141,25.91,231.79-.25l496.7,270.42C2475.16,629.82,2490.6,688.76,2511.19,728.49Z"/><polygon class="cls-10" points="2751.95 648.23 2751.95 931.12 895.48 2022.36 895.48 1740.48 2751.95 648.23"/><polygon class="cls-11" points="36.84 1254.87 36.84 1535.97 895.48 2022.36 895.48 1740.48 36.84 1254.87"/><path class="cls-9" d="M1604.26,826.1c-121.45-70.5-320.17-70.5-441.62,0s-121.91,185.41-1,255.34,319.59,69.94,441.61,0S1725.7,896.61,1604.26,826.1Zm-46.15,229.13c-97,55.61-255,55.61-351.11,0s-95.72-147,.83-203,254.56-56.05,351.11,0S1655.12,999.64,1558.11,1055.23Z"/><path class="cls-9" d="M967,1184.76c-51.58-29.94-136-29.94-187.57,0s-51.78,78.75-.44,108.45,135.74,29.7,187.56,0S1018.62,1214.71,967,1184.76Z"/><path class="cls-9" d="M1981.42,623.57c-51.58-29.94-136-29.94-187.56,0s-51.78,78.75-.45,108.45,135.74,29.7,187.57,0S2033,653.52,1981.42,623.57Z"/><polygon class="cls-7" points="1746.09 1522.37 1746.09 1225.59 1954.98 1102.7 1954.98 1399.58 1746.09 1522.37"/><polygon class="cls-12" points="856.29 716.44 1746.42 1225.76 1954.98 1102.7 1065.17 593.76 856.29 716.44"/><polygon class="cls-7" points="2281.03 2925.79 2281.03 2629.02 2489.91 2506.12 2489.91 2803.01 2281.03 2925.79"/><polygon class="cls-8" points="1587.76 3167.23 2096.35 3500.16 2378.22 3571.65 4042.9 2601.44 3965.29 2466.63 3309.63 2115.31 1587.76 3167.23"/><path class="cls-9" d="M3969.32,2441.1l-457-259.41L3326,2079,3142.6,2187.82,1691.36,3035.48l-229.79,131.75,211.41,121,456.51,255.83,190.72,108.76,190.73-108.76L3970.85,2690.8l205.84-130.21Zm-33.39,199.75L2445.09,3509c-103.44-42.08-196.18-21.18-253.93,2.35l-470-262.64c32.06-35.82,59.61-94.54,7.39-170.11l1480.39-868c55.86,14.42,141,25.91,231.8-.25l496.7,270.42C3899.89,2542.18,3915.34,2601.12,3935.93,2640.85Z"/><polygon class="cls-10" points="4176.69 2560.59 4176.69 2843.48 2320.21 3934.72 2320.21 3652.84 4176.69 2560.59"/><polygon class="cls-11" points="1461.57 3167.23 1461.57 3448.33 2320.21 3934.72 2320.21 3652.84 1461.57 3167.23"/><path class="cls-9" d="M3029,2738.46c-121.45-70.5-320.17-70.5-441.62,0s-121.91,185.41-1.05,255.34,319.6,69.94,441.62,0S3150.44,2809,3029,2738.46Zm-46.15,229.13c-97,55.61-255,55.61-351.11,0s-95.73-147,.83-203,254.55-56,351.11,0S3079.86,2912,2982.85,2967.59Z"/><path class="cls-9" d="M2391.77,3097.12c-51.58-29.94-136-29.94-187.56,0s-51.78,78.75-.44,108.45,135.74,29.7,187.56,0S2443.35,3127.07,2391.77,3097.12Z"/><path class="cls-9" d="M3406.16,2535.93c-51.58-29.94-136-29.94-187.57,0s-51.78,78.75-.44,108.45,135.74,29.7,187.56,0S3457.74,2565.88,3406.16,2535.93Z"/><polygon class="cls-7" points="3170.83 3434.72 3170.83 3137.95 3379.71 3015.06 3379.71 3311.94 3170.83 3434.72"/><polygon class="cls-12" points="2281.03 2628.8 3171.16 3138.12 3379.71 3015.06 2489.91 2506.12 2281.03 2628.8"/><polygon class="cls-7" points="2884.5 4058.86 2884.5 3762.09 3093.38 3639.19 3093.38 3936.08 2884.5 4058.86"/><polygon class="cls-8" points="2191.23 4300.3 2699.82 4633.23 2981.7 4704.72 4646.38 3734.51 4568.76 3599.7 3913.1 3248.38 2191.23 4300.3"/><path class="cls-9" d="M4572.79,3574.17l-457-259.41-186.27-102.7-183.43,108.83L2294.84,4168.55,2065.05,4300.3l211.4,121L2733,4677.15l190.73,108.76,190.72-108.76,1459.91-853.28,205.85-130.21Zm-33.38,199.75L3048.56,4642.08c-103.44-42.08-196.17-21.18-253.92,2.35l-470.06-262.64c32.06-35.82,59.62-94.54,7.39-170.11l1480.4-868c55.85,14.43,141,25.91,231.79-.25l496.7,270.42C4503.37,3675.25,4518.81,3734.19,4539.41,3773.92Z"/><polygon class="cls-10" points="4780.17 3693.66 4780.17 3976.55 2923.69 5067.79 2923.69 4785.91 4780.17 3693.66"/><polygon class="cls-11" points="2065.05 4300.3 2065.05 4581.4 2923.69 5067.79 2923.69 4785.91 2065.05 4300.3"/><path class="cls-9" d="M3632.47,3871.53c-121.45-70.5-320.17-70.5-441.62,0s-121.91,185.41-1,255.34,319.59,69.94,441.61,0S3753.91,3942,3632.47,3871.53Zm-46.15,229.13c-97,55.61-255,55.61-351.11,0s-95.72-146.95.83-203,254.56-56.05,351.11,0S3683.33,4045.07,3586.32,4100.66Z"/><path class="cls-9" d="M2995.25,4230.19c-51.58-29.94-136-29.94-187.56,0s-51.78,78.75-.45,108.45,135.74,29.7,187.56,0S3046.83,4260.14,2995.25,4230.19Z"/><path class="cls-9" d="M4009.63,3669c-51.58-29.94-136-29.94-187.56,0s-51.78,78.75-.45,108.45,135.74,29.7,187.57,0S4061.21,3699,4009.63,3669Z"/><polygon class="cls-7" points="3774.3 4567.8 3774.3 4271.02 3983.19 4148.13 3983.19 4445.01 3774.3 4567.8"/><polygon class="cls-12" points="2884.5 3761.87 3774.64 4271.19 3983.19 4148.13 3093.38 3639.19 2884.5 3761.87"/><polygon class="cls-7" points="2884.5 3718.66 2884.5 3421.89 3093.38 3298.99 3093.38 3595.88 2884.5 3718.66"/><polygon class="cls-8" points="2191.23 3960.1 2699.82 4293.03 2981.7 4364.52 4646.38 3394.31 4568.76 3259.5 3913.1 2908.18 2191.23 3960.1"/><path class="cls-9" d="M4572.79,3234l-457-259.4-186.27-102.7-183.43,108.82L2294.84,3828.35,2065.05,3960.1l211.4,121L2733,4337l190.73,108.77L3114.41,4337l1459.91-853.28,205.85-130.21Zm-33.38,199.76L3048.56,4301.89c-103.44-42.09-196.17-21.19-253.92,2.35L2324.58,4041.6c32.06-35.83,59.62-94.55,7.39-170.11l1480.4-868c55.85,14.43,141,25.91,231.79-.25l496.7,270.42C4503.37,3335.06,4518.81,3394,4539.41,3433.73Z"/><polygon class="cls-10" points="4780.17 3353.46 4780.17 3636.35 2923.69 4727.59 2923.69 4445.72 4780.17 3353.46"/><polygon class="cls-11" points="2065.05 3960.1 2065.05 4241.21 2923.69 4727.59 2923.69 4445.72 2065.05 3960.1"/><path class="cls-9" d="M3632.47,3531.34c-121.45-70.51-320.17-70.51-441.62,0s-121.91,185.41-1,255.34,319.59,69.93,441.61,0S3753.91,3601.84,3632.47,3531.34Zm-46.15,229.13c-97,55.6-255,55.6-351.11,0s-95.72-147,.83-203,254.56-56.06,351.11,0S3683.33,3704.87,3586.32,3760.47Z"/><path class="cls-9" d="M2995.25,3890c-51.58-29.95-136-29.95-187.56,0s-51.78,78.74-.45,108.44,135.74,29.71,187.56,0S3046.83,3919.94,2995.25,3890Z"/><path class="cls-9" d="M4009.63,3328.81c-51.58-29.95-136-29.95-187.56,0s-51.78,78.74-.45,108.44,135.74,29.71,187.57,0S4061.21,3358.75,4009.63,3328.81Z"/><polygon class="cls-7" points="3774.3 4227.6 3774.3 3930.82 3983.19 3807.93 3983.19 4104.82 3774.3 4227.6"/><polygon class="cls-12" points="2884.5 3421.67 3774.64 3930.99 3983.19 3807.93 3093.38 3298.99 2884.5 3421.67"/><polygon class="cls-7" points="2281.03 2550 2281.03 2253.23 2489.91 2130.33 2489.91 2427.22 2281.03 2550"/><polygon class="cls-8" points="1587.76 2791.44 2096.35 3124.38 2378.22 3195.87 4042.9 2225.65 3965.29 2090.84 3309.63 1739.53 1587.76 2791.44"/><path class="cls-9" d="M3969.32,2065.31l-457-259.4L3326,1703.21,3142.6,1812,1691.36,2659.7l-229.79,131.74,211.41,121,456.51,255.83,190.72,108.77,190.73-108.77L3970.85,2315l205.84-130.21Zm-33.39,199.76L2445.09,3133.23c-103.44-42.09-196.18-21.19-253.93,2.35l-470-262.64c32.06-35.83,59.61-94.55,7.39-170.11l1480.39-868c55.86,14.43,141,25.91,231.8-.25L3937.39,2105C3899.89,2166.4,3915.34,2225.34,3935.93,2265.07Z"/><polygon class="cls-10" points="4176.69 2184.8 4176.69 2467.7 2320.21 3558.93 2320.21 3277.06 4176.69 2184.8"/><polygon class="cls-11" points="1461.57 2791.44 1461.57 3072.55 2320.21 3558.93 2320.21 3277.06 1461.57 2791.44"/><path class="cls-9" d="M3029,2362.68c-121.45-70.51-320.17-70.51-441.62,0s-121.91,185.41-1.05,255.34,319.6,69.93,441.62,0S3150.44,2433.18,3029,2362.68Zm-46.15,229.13c-97,55.6-255,55.6-351.11,0s-95.73-147,.83-203,254.55-56.06,351.11,0S3079.86,2536.21,2982.85,2591.81Z"/><path class="cls-9" d="M2391.77,2721.34c-51.58-30-136-30-187.56,0s-51.78,78.75-.44,108.45,135.74,29.7,187.56,0S2443.35,2751.28,2391.77,2721.34Z"/><path class="cls-9" d="M3406.16,2160.15c-51.58-30-136-30-187.57,0s-51.78,78.74-.44,108.44,135.74,29.71,187.56,0S3457.74,2190.09,3406.16,2160.15Z"/><polygon class="cls-7" points="3170.83 3058.94 3170.83 2762.17 3379.71 2639.27 3379.71 2936.16 3170.83 3058.94"/><polygon class="cls-12" points="2281.03 2253.01 3171.16 2762.33 3379.71 2639.27 2489.91 2130.33 2281.03 2253.01"/><polygon class="cls-7" points="2323.92 2151.02 2323.92 1854.25 2532.8 1731.35 2532.8 2028.24 2323.92 2151.02"/><polygon class="cls-8" points="1630.65 2392.46 2139.24 2725.39 2421.12 2796.88 4085.8 1826.67 4008.18 1691.86 3352.52 1340.54 1630.65 2392.46"/><path class="cls-9" d="M4012.21,1666.33l-457-259.41-186.27-102.7-183.43,108.83L1734.26,2260.71l-229.79,131.75,211.4,121,456.51,255.83,190.73,108.76,190.72-108.76L4013.74,1916l205.85-130.21Zm-33.38,199.75L2488,2734.24c-103.44-42.08-196.17-21.18-253.92,2.35L1764,2474c32.06-35.82,59.62-94.54,7.39-170.11l1480.4-868c55.85,14.43,141,25.91,231.79-.25L3980.28,1706C3942.79,1767.41,3958.23,1826.35,3978.83,1866.08Z"/><polygon class="cls-10" points="4219.59 1785.82 4219.59 2068.71 2363.11 3159.95 2363.11 2878.07 4219.59 1785.82"/><polygon class="cls-11" points="1504.47 2392.46 1504.47 2673.56 2363.11 3159.95 2363.11 2878.07 1504.47 2392.46"/><path class="cls-9" d="M3071.89,1963.69c-121.45-70.5-320.17-70.5-441.62,0s-121.91,185.41-1,255.34,319.59,69.94,441.61,0S3193.33,2034.2,3071.89,1963.69Zm-46.15,229.13c-97,55.61-255,55.61-351.11,0s-95.72-147,.83-203,254.56-56,351.11,0S3122.75,2137.23,3025.74,2192.82Z"/><path class="cls-9" d="M2434.67,2322.35c-51.58-29.94-136-29.94-187.57,0s-51.77,78.75-.44,108.45,135.74,29.7,187.56,0S2486.25,2352.3,2434.67,2322.35Z"/><path class="cls-9" d="M3449.05,1761.16c-51.58-29.94-136-29.94-187.56,0s-51.78,78.75-.45,108.45,135.74,29.7,187.57,0S3500.63,1791.11,3449.05,1761.16Z"/><polygon class="cls-7" points="3213.72 2659.95 3213.72 2363.18 3422.61 2240.29 3422.61 2537.17 3213.72 2659.95"/><polygon class="cls-12" points="2323.92 1854.03 3214.05 2363.35 3422.61 2240.29 2532.8 1731.35 2323.92 1854.03"/><path class="cls-2" d="M5101.56,2825.6c-20.71-28.06-50.66-54.32-89.87-77.14-166.19-96.73-438.54-95.7-605.22,2.29-35.7,21-63.73,44.74-84.13,70.05l-40.66-.25v99.36a145,145,0,0,0,0,15.32h0c3.2,61.15,44.78,121.45,124.79,167.27,166.68,95.46,439,94.43,605.22-2.3,78.35-45.61,119.74-104.9,124.21-165h.42V2825.82Z"/><path class="cls-3" d="M5011.69,2649.27c-166.19-96.73-438.54-95.69-605.22,2.3s-166.69,256.27,0,351.74,439,94.43,605.22-2.3S5177.87,2746,5011.69,2649.27Z"/><path class="cls-4" d="M4985.21,2664.71c-151.65-88.28-400.19-87.33-552.3,2.09s-152.12,233.87,0,321,400.65,86.18,552.3-2.09S5136.87,2753,4985.21,2664.71Z"/><path class="cls-5" d="M4329.35,2775.51l616,230.42s54.3-25.56,94.28-60l-652.49-244.53S4353.25,2720.37,4329.35,2775.51Z"/><path class="cls-5" d="M4432.91,2666.8l644.9,232.51s15.71-30.12,18.1-45.65l-608.77-213.47S4450.64,2655.66,4432.91,2666.8Z"/><path class="cls-6" d="M4695.94,2950.25v-24.72q-36.4-2.34-59.19-8.31t-39.38-19.3q-16.57-13.32-19.28-32.55l48.81-4.67q5.67,19.92,20,29.26,20.49,13.18,49.08,14.69V2826a343,343,0,0,1-61.22-11.81q-23.19-6.58-35.73-18.26t-12.54-26.51q0-26.37,36.68-42.71,24.54-11,72.81-13.46v-11.81h28.59v11.81q42.33,2.06,67.15,12.63,31.82,13.47,38.29,37l-50.16,3.84a37,37,0,0,0-17.93-22.32q-13.62-7.76-37.35-10.23v71.28q36.68,4.68,48.54,7.28,22.65,5.09,37,12.36t22,17.31a35,35,0,0,1,7.68,21.7q0,25.68-32.09,42.85t-83.06,18.4v25Zm0-216.45q-28.32,2.19-44.63,11.53T4635,2767.45q0,12.63,13.89,21.15t47.06,13.59Zm28.59,170.85q28.32-1.79,46.79-12.5t18.47-26.5q0-13.47-13.08-21.63t-52.18-14.63Z"/><path class="cls-2" d="M5079.64,2626.77c-20.71-28.06-50.66-54.32-89.87-77.14-166.19-96.73-438.53-95.7-605.22,2.29-35.7,21-63.73,44.74-84.13,70l-40.66-.25v99.36a145,145,0,0,0,0,15.32h0c3.2,61.15,44.78,121.44,124.79,167.27,166.69,95.46,439,94.43,605.22-2.3,78.35-45.61,119.74-104.9,124.21-165h.42V2627Z"/><path class="cls-3" d="M4989.77,2450.44c-166.19-96.73-438.53-95.7-605.22,2.3s-166.69,256.27,0,351.74,439,94.43,605.22-2.3S5156,2547.17,4989.77,2450.44Z"/><path class="cls-4" d="M4963.29,2465.88c-151.65-88.28-400.19-87.33-552.3,2.09s-152.12,233.87,0,321,400.65,86.18,552.3-2.09S5115,2554.15,4963.29,2465.88Z"/><path class="cls-5" d="M4307.43,2576.68l616,230.42s54.3-25.56,94.28-60l-652.49-244.54S4331.34,2521.54,4307.43,2576.68Z"/><path class="cls-5" d="M4411,2468l644.9,232.51s15.71-30.12,18.1-45.65l-608.77-213.47S4428.73,2456.83,4411,2468Z"/><path class="cls-6" d="M4674,2751.42V2726.7q-36.41-2.34-59.19-8.31t-39.37-19.3q-16.59-13.32-19.29-32.55l48.82-4.67q5.66,19.92,19.95,29.26,20.51,13.18,49.08,14.69v-78.7a342.68,342.68,0,0,1-61.21-11.81q-23.21-6.58-35.74-18.26t-12.54-26.51q0-26.37,36.68-42.71,24.54-11,72.81-13.46v-11.82h28.59v11.82q42.35,2.05,67.15,12.63,31.82,13.45,38.29,36.95l-50.16,3.84a37,37,0,0,0-17.93-22.32q-13.62-7.75-37.35-10.23v71.28q36.68,4.68,48.54,7.28,22.65,5.09,37,12.36t22,17.31a35,35,0,0,1,7.68,21.7q0,25.68-32.09,42.85t-83.06,18.4v25Zm0-216.45q-28.31,2.19-44.63,11.53t-16.31,22.12q0,12.63,13.88,21.15t47.06,13.59Zm28.59,170.85q28.32-1.79,46.79-12.5t18.47-26.5q0-13.47-13.08-21.64t-52.18-14.62Z"/><path class="cls-2" d="M842,3579.4c-20.71-28.06-50.66-54.32-89.88-77.14-166.18-96.73-438.53-95.7-605.22,2.29-35.69,21-63.72,44.74-84.13,70l-40.66-.25v99.36a150.55,150.55,0,0,0,0,15.32h0c3.21,61.15,44.79,121.45,124.79,167.27,166.69,95.46,439,94.43,605.22-2.3,78.36-45.61,119.75-104.9,124.22-165h.42V3579.62Z"/><path class="cls-3" d="M752.15,3403.07c-166.18-96.73-438.53-95.69-605.22,2.3s-166.68,256.27,0,351.74,439,94.43,605.22-2.3S918.34,3499.8,752.15,3403.07Z"/><path class="cls-4" d="M725.68,3418.51c-151.65-88.28-400.19-87.33-552.31,2.09s-152.11,233.87,0,321,400.66,86.18,552.31-2.09S877.33,3506.78,725.68,3418.51Z"/><path class="cls-5" d="M69.82,3529.31l616,230.42s54.29-25.56,94.27-60L127.65,3455.19S93.72,3474.17,69.82,3529.31Z"/><path class="cls-5" d="M173.37,3420.6l644.91,232.51s15.71-30.12,18.1-45.65L227.61,3394S191.11,3409.46,173.37,3420.6Z"/><path class="cls-6" d="M436.41,3704.05v-24.72Q400,3677,377.22,3671t-39.38-19.3q-16.57-13.32-19.28-32.55l48.81-4.67q5.67,19.92,20,29.26,20.49,13.18,49.08,14.69v-78.69a342.83,342.83,0,0,1-61.22-11.82q-23.19-6.58-35.73-18.26t-12.54-26.51q0-26.37,36.68-42.71,24.54-11,72.81-13.46v-11.81H465V3467q42.33,2.05,67.15,12.63,31.82,13.47,38.29,36.95l-50.16,3.84a37,37,0,0,0-17.93-22.31q-13.62-7.77-37.35-10.24v71.28q36.67,4.68,48.54,7.28,22.65,5.09,36.94,12.36t22,17.31a34.92,34.92,0,0,1,7.69,21.7q0,25.68-32.09,42.85T465,3679.05v25Zm0-216.45q-28.32,2.19-44.63,11.54t-16.32,22.11q0,12.63,13.89,21.15t47.06,13.6ZM465,3658.45q28.31-1.78,46.79-12.5t18.47-26.5q0-13.47-13.08-21.63T465,3583.19Z"/><path class="cls-2" d="M820.11,3380.57c-20.71-28.06-50.66-54.32-89.88-77.14-166.18-96.73-438.53-95.7-605.21,2.29-35.7,21-63.73,44.74-84.14,70.05l-40.65-.25v99.36a145,145,0,0,0,0,15.32h0C3.43,3551.35,45,3611.65,125,3657.47c166.68,95.46,439,94.43,605.21-2.3,78.36-45.61,119.75-104.9,124.22-165h.42V3380.79Z"/><path class="cls-3" d="M730.23,3204.24c-166.18-96.73-438.53-95.69-605.21,2.3s-166.69,256.27,0,351.74,439,94.43,605.21-2.3S896.42,3301,730.23,3204.24Z"/><path class="cls-4" d="M703.76,3219.68c-151.65-88.28-400.19-87.33-552.3,2.09s-152.12,233.87,0,321,400.65,86.18,552.3-2.09S855.42,3308,703.76,3219.68Z"/><path class="cls-5" d="M47.9,3330.48l616,230.42s54.29-25.56,94.27-60L105.73,3256.35S71.8,3275.34,47.9,3330.48Z"/><path class="cls-5" d="M151.46,3221.77l644.9,232.51s15.71-30.12,18.1-45.65L205.69,3195.16S169.19,3210.63,151.46,3221.77Z"/><path class="cls-6" d="M414.49,3505.22V3480.5q-36.4-2.34-59.19-8.31t-39.38-19.3q-16.57-13.32-19.28-32.55l48.81-4.67q5.67,19.92,20,29.26,20.49,13.18,49.08,14.69v-78.7a342.78,342.78,0,0,1-61.22-11.81q-23.19-6.59-35.73-18.26T305,3324.34q0-26.37,36.68-42.71,24.54-11,72.81-13.46v-11.82h28.59v11.82q42.33,2.05,67.15,12.63,31.82,13.45,38.29,36.95l-50.16,3.84a37.08,37.08,0,0,0-17.93-22.32q-13.62-7.76-37.35-10.23v71.28q36.68,4.68,48.54,7.28,22.65,5.08,37,12.36t22,17.31a34.92,34.92,0,0,1,7.69,21.7q0,25.68-32.09,42.85t-83.06,18.4v25Zm0-216.45q-28.32,2.19-44.63,11.53t-16.32,22.12q0,12.63,13.89,21.15t47.06,13.59Zm28.59,170.85q28.31-1.78,46.79-12.5t18.47-26.5q0-13.47-13.08-21.63t-52.18-14.63Z"/><path class="cls-2" d="M897.55,3221.8c-20.71-28.07-50.66-54.32-89.87-77.15-166.19-96.73-438.54-95.69-605.22,2.3-35.7,21-63.73,44.74-84.13,70.05l-40.66-.25v99.36a144.79,144.79,0,0,0,0,15.31h0c3.2,61.15,44.78,121.44,124.79,167.26,166.68,95.47,439,94.44,605.22-2.29,78.35-45.61,119.74-104.9,124.21-165h.42V3222Z"/><path class="cls-3" d="M807.68,3045.47c-166.19-96.73-438.54-95.7-605.22,2.29s-166.69,256.28,0,351.75,439,94.43,605.22-2.3S973.86,3142.2,807.68,3045.47Z"/><path class="cls-4" d="M781.2,3060.9c-151.65-88.27-400.19-87.33-552.3,2.1s-152.12,233.87,0,321,400.65,86.18,552.3-2.1S932.86,3149.17,781.2,3060.9Z"/><path class="cls-5" d="M125.34,3171.71l616,230.42s54.3-25.56,94.28-60L183.17,3097.58S149.24,3116.56,125.34,3171.71Z"/><path class="cls-5" d="M228.9,3063l644.9,232.51s15.71-30.12,18.1-45.66L283.13,3036.38S246.63,3051.85,228.9,3063Z"/><path class="cls-6" d="M491.93,3346.45v-24.73q-36.4-2.32-59.19-8.31t-39.38-19.29q-16.58-13.32-19.28-32.55l48.81-4.67q5.67,19.91,20,29.25,20.49,13.18,49.08,14.7v-78.7a342.68,342.68,0,0,1-61.21-11.81q-23.21-6.6-35.74-18.27t-12.54-26.51q0-26.36,36.68-42.71,24.54-11,72.81-13.46v-11.81h28.59v11.81q42.33,2.07,67.15,12.64Q619.49,3135.48,626,3159l-50.16,3.85a37,37,0,0,0-17.93-22.32q-13.62-7.76-37.35-10.23v71.28q36.68,4.66,48.54,7.28,22.65,5.09,37,12.36t22,17.3a35,35,0,0,1,7.68,21.7q0,25.7-32.09,42.85t-83.06,18.41v25Zm0-216.46q-28.32,2.21-44.63,11.54T431,3163.64q0,12.65,13.89,21.15t47.06,13.6Zm28.59,170.86q28.32-1.79,46.79-12.5t18.47-26.51q0-13.46-13.08-21.63t-52.18-14.63Z"/><path class="cls-2" d="M873.17,3064c-20.71-28.07-50.66-54.32-89.87-77.15-166.19-96.73-438.53-95.69-605.22,2.3-35.7,21-63.73,44.74-84.13,70l-40.66-.25v99.36a144.79,144.79,0,0,0,0,15.31h0c3.2,61.15,44.78,121.44,124.79,167.26,166.69,95.47,439,94.44,605.22-2.29,78.35-45.61,119.74-104.9,124.21-165h.42V3064.17Z"/><path class="cls-3" d="M783.3,2887.63c-166.19-96.73-438.53-95.7-605.22,2.29s-166.69,256.28,0,351.75,439,94.43,605.22-2.3S949.48,2984.36,783.3,2887.63Z"/><path class="cls-4" d="M756.82,2903.06c-151.65-88.27-400.19-87.33-552.3,2.1s-152.12,233.87,0,321,400.65,86.18,552.3-2.1S908.48,2991.33,756.82,2903.06Z"/><path class="cls-5" d="M101,3013.87l616,230.41s54.3-25.55,94.28-60L158.79,2939.74S124.87,2958.72,101,3013.87Z"/><path class="cls-5" d="M204.52,2905.16l644.9,232.51s15.71-30.12,18.1-45.66L258.75,2878.54S222.26,2894,204.52,2905.16Z"/><path class="cls-6" d="M467.55,3188.6v-24.72q-36.41-2.33-59.19-8.31T369,3136.28Q352.4,3123,349.7,3103.73l48.82-4.67q5.66,19.91,20,29.25,20.5,13.18,49.08,14.7v-78.7a342.68,342.68,0,0,1-61.21-11.81q-23.2-6.6-35.74-18.27t-12.54-26.51q0-26.37,36.68-42.71,24.54-11,72.81-13.46v-11.81h28.59v11.81q42.35,2.05,67.15,12.64,31.82,13.45,38.29,36.94L551.42,3005a37,37,0,0,0-17.93-22.32q-13.62-7.76-37.35-10.23v71.28q36.68,4.66,48.54,7.28,22.65,5.09,37,12.36t22,17.3a35,35,0,0,1,7.68,21.7q0,25.7-32.09,42.85t-83.06,18.41v25Zm0-216.45q-28.31,2.2-44.63,11.54t-16.31,22.11q0,12.64,13.88,21.15t47.06,13.6ZM496.14,3143q28.32-1.78,46.79-12.5T561.4,3104q0-13.45-13.08-21.63t-52.18-14.63Z"/><path class="cls-2" d="M5138.91,2418.18c-20.7-28.07-50.65-54.32-89.87-77.15-166.18-96.73-438.53-95.7-605.22,2.3-35.69,21-63.72,44.74-84.13,70l-40.66-.25v99.36a150.55,150.55,0,0,0,0,15.32h0c3.21,61.15,44.79,121.45,124.79,167.27,166.69,95.47,439,94.43,605.22-2.3,78.36-45.6,119.75-104.9,124.22-165h.42V2418.39Z"/><path class="cls-3" d="M5049,2241.84c-166.18-96.73-438.53-95.69-605.22,2.3s-166.68,256.28,0,351.74,439,94.44,605.22-2.29S5215.22,2338.57,5049,2241.84Z"/><path class="cls-4" d="M5022.57,2257.28c-151.65-88.27-400.19-87.33-552.31,2.09s-152.11,233.88,0,321,400.66,86.17,552.31-2.1S5174.22,2345.55,5022.57,2257.28Z"/><path class="cls-5" d="M4366.71,2368.08l616,230.42s54.29-25.56,94.27-60L4424.54,2294S4390.61,2312.94,4366.71,2368.08Z"/><path class="cls-5" d="M4470.26,2259.37l644.91,232.51s15.71-30.12,18.1-45.65L4524.5,2232.76S4488,2248.23,4470.26,2259.37Z"/><path class="cls-6" d="M4733.3,2542.82V2518.1q-36.41-2.34-59.2-8.31t-39.37-19.3q-16.59-13.32-19.28-32.55l48.81-4.66q5.67,19.91,20,29.25,20.49,13.18,49.08,14.69v-78.69a343.67,343.67,0,0,1-61.22-11.81q-23.19-6.6-35.73-18.27t-12.54-26.51q0-26.37,36.68-42.71,24.54-11,72.81-13.46V2294h28.58v11.81q42.34,2.05,67.15,12.63,31.83,13.47,38.3,36.95l-50.16,3.85a37.06,37.06,0,0,0-17.93-22.32q-13.62-7.77-37.36-10.23v71.28q36.69,4.67,48.55,7.28,22.65,5.07,36.94,12.36t22,17.3a34.94,34.94,0,0,1,7.69,21.7q0,25.68-32.09,42.85t-83.07,18.41v25Zm0-216.45q-28.32,2.21-44.63,11.54T4672.35,2360q0,12.63,13.89,21.15t47.06,13.6Zm28.58,170.85q28.32-1.78,46.79-12.49t18.48-26.51q0-13.45-13.08-21.63T4761.88,2422Z"/><path class="cls-2" d="M5090.6,2256.73c-20.71-28.06-50.66-54.32-89.87-77.15-166.19-96.73-438.54-95.69-605.22,2.3-35.7,21-63.73,44.74-84.13,70l-40.66-.25V2351a145,145,0,0,0,0,15.32h0c3.2,61.15,44.78,121.44,124.79,167.26,166.68,95.47,439,94.44,605.22-2.29,78.35-45.61,119.74-104.9,124.21-165h.42V2256.94Z"/><path class="cls-3" d="M5000.73,2080.4c-166.19-96.73-438.54-95.7-605.22,2.29s-166.69,256.28,0,351.75,439,94.43,605.22-2.3S5166.91,2177.13,5000.73,2080.4Z"/><path class="cls-4" d="M4974.25,2095.83c-151.65-88.27-400.19-87.33-552.3,2.1s-152.12,233.87,0,321,400.65,86.18,552.3-2.1S5125.91,2184.1,4974.25,2095.83Z"/><path class="cls-5" d="M4318.39,2206.64l616,230.42s54.3-25.56,94.28-60l-652.49-244.54S4342.29,2151.49,4318.39,2206.64Z"/><path class="cls-5" d="M4422,2097.93l644.9,232.51s15.71-30.12,18.1-45.66l-608.77-213.47S4439.68,2086.78,4422,2097.93Z"/><path class="cls-6" d="M4685,2381.38v-24.73q-36.4-2.33-59.19-8.3t-39.38-19.3q-16.58-13.32-19.28-32.55l48.81-4.67q5.67,19.92,20,29.25,20.49,13.18,49.08,14.7v-78.7a342.68,342.68,0,0,1-61.21-11.81q-23.2-6.6-35.74-18.27t-12.54-26.5q0-26.37,36.68-42.72,24.54-11,72.81-13.46v-11.81h28.59v11.81q42.33,2.07,67.15,12.64,31.81,13.45,38.29,36.94l-50.16,3.85a37,37,0,0,0-17.93-22.32q-13.62-7.75-37.35-10.23v71.28q36.68,4.67,48.54,7.28,22.65,5.09,37,12.36t22,17.3a35,35,0,0,1,7.68,21.7q0,25.7-32.09,42.86t-83.06,18.4v25Zm0-216.46q-28.32,2.2-44.63,11.54T4624,2198.57q0,12.64,13.88,21.15t47.06,13.6Zm28.59,170.86q28.32-1.79,46.79-12.5t18.47-26.51q0-13.45-13.08-21.63t-52.18-14.63Z"/><path class="cls-2" d="M5149.9,2096.44c-20.71-28.07-50.66-54.32-89.87-77.15-166.19-96.73-438.53-95.69-605.22,2.3-35.7,21-63.73,44.74-84.13,70l-40.66-.25v99.36a144.79,144.79,0,0,0,0,15.31h0c3.2,61.16,44.78,121.45,124.79,167.27,166.69,95.47,439,94.43,605.22-2.3,78.35-45.6,119.74-104.89,124.21-165h.42V2096.65Z"/><path class="cls-3" d="M5060,1920.11c-166.19-96.73-438.53-95.7-605.22,2.29s-166.69,256.28,0,351.74,439,94.44,605.22-2.29S5226.21,2016.84,5060,1920.11Z"/><path class="cls-4" d="M5033.55,1935.54c-151.65-88.27-400.19-87.33-552.3,2.1s-152.12,233.87,0,321,400.65,86.17,552.3-2.1S5185.21,2023.81,5033.55,1935.54Z"/><path class="cls-5" d="M4377.69,2046.35l616,230.41s54.3-25.55,94.28-60l-652.49-244.54S4401.59,1991.2,4377.69,2046.35Z"/><path class="cls-5" d="M4481.25,1937.64l644.9,232.51s15.71-30.12,18.1-45.66L4535.48,1911S4499,1926.49,4481.25,1937.64Z"/><path class="cls-6" d="M4744.28,2221.08v-24.72q-36.4-2.33-59.19-8.31t-39.38-19.29q-16.57-13.32-19.28-32.55l48.81-4.67q5.67,19.9,20,29.25,20.49,13.18,49.08,14.7v-78.7a342.68,342.68,0,0,1-61.21-11.81q-23.2-6.6-35.74-18.27t-12.54-26.51q0-26.37,36.68-42.71,24.54-11,72.81-13.46v-11.81h28.59V1984q42.33,2.06,67.15,12.64,31.81,13.45,38.29,36.94l-50.16,3.85a37,37,0,0,0-17.93-22.32q-13.62-7.76-37.35-10.23v71.28q36.68,4.67,48.54,7.28,22.65,5.07,36.95,12.36t22,17.3a35,35,0,0,1,7.68,21.7q0,25.7-32.09,42.85t-83.06,18.41v25Zm0-216.45q-28.32,2.2-44.63,11.54t-16.32,22.11q0,12.63,13.89,21.15t47.06,13.6Zm28.59,170.86q28.32-1.78,46.79-12.5t18.47-26.51q0-13.45-13.08-21.63t-52.18-14.63Z"/><path class="cls-2" d="M5128,1897.61c-20.71-28.07-50.66-54.32-89.87-77.15-166.19-96.73-438.53-95.7-605.22,2.3-35.7,21-63.73,44.74-84.13,70l-40.66-.25v99.36a145,145,0,0,0,0,15.32h0c3.2,61.16,44.78,121.45,124.79,167.27,166.69,95.47,439,94.43,605.22-2.3,78.35-45.6,119.74-104.89,124.21-165h.42V1897.82Z"/><path class="cls-3" d="M5038.11,1721.28c-166.19-96.73-438.53-95.7-605.22,2.29s-166.69,256.28,0,351.74,439,94.44,605.22-2.29S5204.29,1818,5038.11,1721.28Z"/><path class="cls-4" d="M5011.63,1736.71c-151.65-88.27-400.19-87.33-552.3,2.09s-152.12,233.88,0,321,400.65,86.17,552.3-2.1S5163.29,1825,5011.63,1736.71Z"/><path class="cls-5" d="M4355.77,1847.51l616,230.42s54.3-25.56,94.28-60L4413.6,1773.39S4379.68,1792.37,4355.77,1847.51Z"/><path class="cls-5" d="M4459.33,1738.8l644.9,232.52s15.71-30.13,18.1-45.66l-608.77-213.47S4477.07,1727.66,4459.33,1738.8Z"/><path class="cls-6" d="M4722.36,2022.25v-24.72q-36.4-2.33-59.19-8.31t-39.37-19.29q-16.59-13.34-19.29-32.55l48.82-4.67q5.66,19.9,19.95,29.25,20.51,13.18,49.08,14.7V1898a342.68,342.68,0,0,1-61.21-11.81q-23.2-6.6-35.74-18.27t-12.54-26.51q0-26.37,36.68-42.71,24.54-11,72.81-13.46v-11.81H4751v11.81q42.35,2.05,67.15,12.64,31.82,13.46,38.29,36.94l-50.16,3.85a37,37,0,0,0-17.93-22.32q-13.62-7.77-37.35-10.23v71.28q36.68,4.67,48.54,7.28,22.65,5.07,36.95,12.36t22,17.3a35,35,0,0,1,7.68,21.7q0,25.68-32.09,42.85T4751,1997.26v25Zm0-216.45q-28.3,2.21-44.63,11.54t-16.31,22.11q0,12.63,13.88,21.15t47.06,13.6ZM4751,1976.66q28.32-1.79,46.79-12.5t18.47-26.51q0-13.45-13.08-21.63T4751,1901.39Z"/><path class="cls-2" d="M5187.26,1689c-20.71-28.06-50.66-54.32-89.88-77.15-166.18-96.73-438.53-95.69-605.22,2.3-35.69,21-63.72,44.74-84.13,70l-40.66-.25v99.36a150.55,150.55,0,0,0,0,15.32h0c3.21,61.15,44.79,121.44,124.79,167.26,166.69,95.47,439,94.44,605.22-2.29,78.36-45.61,119.75-104.9,124.22-165h.42V1689.22Z"/><path class="cls-3" d="M5097.38,1512.68C4931.2,1416,4658.85,1417,4492.16,1515s-166.68,256.28,0,351.75,439,94.43,605.22-2.3S5263.56,1609.41,5097.38,1512.68Z"/><path class="cls-4" d="M5070.91,1528.11c-151.65-88.27-400.19-87.33-552.31,2.1s-152.11,233.87,0,321,400.66,86.18,552.31-2.1S5222.56,1616.39,5070.91,1528.11Z"/><path class="cls-5" d="M4415.05,1638.92l616,230.42s54.29-25.56,94.27-60l-652.48-244.54S4439,1583.78,4415.05,1638.92Z"/><path class="cls-5" d="M4518.6,1530.21l644.91,232.51s15.71-30.12,18.1-45.66l-608.77-213.47S4536.34,1519.06,4518.6,1530.21Z"/><path class="cls-6" d="M4781.64,1813.66v-24.72q-36.41-2.34-59.2-8.31t-39.37-19.3q-16.59-13.32-19.28-32.55l48.81-4.67q5.67,19.92,20,29.25,20.49,13.19,49.08,14.7v-78.7a342.78,342.78,0,0,1-61.22-11.81q-23.19-6.58-35.73-18.27t-12.54-26.5q0-26.37,36.68-42.72,24.54-11,72.81-13.46v-11.81h28.59v11.81q42.33,2.07,67.15,12.64,31.81,13.46,38.29,36.94l-50.16,3.85a37.06,37.06,0,0,0-17.93-22.32q-13.62-7.76-37.35-10.23v71.28q36.68,4.66,48.54,7.28,22.65,5.09,36.94,12.36t22,17.31a34.9,34.9,0,0,1,7.69,21.7q0,25.68-32.09,42.85t-83.06,18.4v25Zm0-216.46q-28.32,2.21-44.63,11.54t-16.32,22.11q0,12.64,13.89,21.15t47.06,13.6Zm28.59,170.86q28.31-1.79,46.78-12.5t18.48-26.51q0-13.46-13.08-21.63t-52.18-14.62Z"/><path class="cls-2" d="M1694.16,4027.17c-20.7-28.06-50.65-54.32-89.87-77.14-166.18-96.73-438.53-95.7-605.22,2.29-35.7,21-63.72,44.74-84.13,70l-40.66-.25v99.36a145,145,0,0,0,0,15.32h0c3.21,61.15,44.79,121.45,124.79,167.27,166.69,95.46,439,94.43,605.22-2.3,78.35-45.61,119.75-104.9,124.21-165h.43V4027.39Z"/><path class="cls-3" d="M1604.29,3850.84c-166.18-96.73-438.53-95.69-605.22,2.3s-166.69,256.27,0,351.74,439,94.43,605.22-2.3S1770.47,3947.57,1604.29,3850.84Z"/><path class="cls-4" d="M1577.82,3866.28c-151.66-88.28-400.19-87.33-552.31,2.09s-152.11,233.87,0,321,400.65,86.18,552.31-2.09S1729.47,3954.55,1577.82,3866.28Z"/><path class="cls-5" d="M922,3977.08,1538,4207.5s54.29-25.56,94.27-60L979.79,3903S945.86,3921.94,922,3977.08Z"/><path class="cls-5" d="M1025.51,3868.37l644.91,232.51s15.71-30.12,18.1-45.65l-608.78-213.47S1043.25,3857.23,1025.51,3868.37Z"/><path class="cls-6" d="M1288.55,4151.82V4127.1q-36.4-2.34-59.2-8.31t-39.37-19.3q-16.59-13.32-19.28-32.55l48.81-4.67q5.65,19.92,20,29.26,20.49,13.18,49.08,14.69v-78.7a342.61,342.61,0,0,1-61.22-11.81q-23.19-6.59-35.73-18.26t-12.54-26.51q0-26.37,36.67-42.71,24.54-11,72.82-13.46V3903h28.58v11.81q42.34,2.05,67.15,12.63,31.83,13.47,38.3,36.95l-50.16,3.84a37.1,37.1,0,0,0-17.94-22.32q-13.62-7.76-37.35-10.23v71.28q36.67,4.68,48.55,7.28,22.65,5.09,36.94,12.36t22,17.31a35,35,0,0,1,7.69,21.7q0,25.68-32.1,42.85t-83.06,18.4v25Zm0-216.45q-28.32,2.19-44.64,11.53T1227.6,3969q0,12.63,13.89,21.15t47.06,13.59Zm28.58,170.85q28.32-1.79,46.79-12.5t18.48-26.5q0-13.47-13.08-21.63T1317.13,4031Z"/><path class="cls-2" d="M1672.24,3828.34c-20.7-28.06-50.65-54.32-89.87-77.14-166.18-96.73-438.53-95.7-605.22,2.29-35.69,21-63.72,44.74-84.13,70.05l-40.66-.25v99.36a145,145,0,0,0,0,15.32h0c3.21,61.15,44.79,121.45,124.79,167.27,166.69,95.46,439,94.43,605.22-2.3,78.35-45.61,119.75-104.9,124.22-165h.42V3828.56Z"/><path class="cls-3" d="M1582.37,3652c-166.18-96.73-438.53-95.7-605.22,2.3s-166.68,256.27,0,351.74,439,94.43,605.22-2.3S1748.55,3748.74,1582.37,3652Z"/><path class="cls-4" d="M1555.9,3667.45c-151.66-88.28-400.19-87.33-552.31,2.09s-152.11,233.87,0,321,400.65,86.18,552.31-2.09S1707.55,3755.72,1555.9,3667.45Z"/><path class="cls-5" d="M900,3778.25l616.05,230.42s54.29-25.56,94.27-60L957.87,3704.12S923.94,3723.11,900,3778.25Z"/><path class="cls-5" d="M1003.59,3669.54l644.91,232.51s15.71-30.12,18.1-45.65l-608.77-213.47S1021.33,3658.4,1003.59,3669.54Z"/><path class="cls-6" d="M1266.63,3953v-24.72q-36.41-2.34-59.2-8.31t-39.37-19.3q-16.59-13.32-19.28-32.55l48.81-4.67q5.67,19.92,20,29.26,20.49,13.18,49.08,14.69v-78.7a342.78,342.78,0,0,1-61.22-11.81q-23.19-6.59-35.73-18.26t-12.54-26.51q0-26.37,36.67-42.71,24.56-11,72.82-13.46v-11.82h28.58v11.82q42.35,2.05,67.15,12.63,31.83,13.45,38.3,36.95l-50.16,3.84a37.1,37.1,0,0,0-17.94-22.32q-13.61-7.76-37.35-10.23v71.28q36.68,4.68,48.55,7.28,22.65,5.09,36.94,12.36t22,17.31a34.92,34.92,0,0,1,7.69,21.7q0,25.68-32.09,42.85t-83.07,18.4v25Zm0-216.45q-28.32,2.19-44.63,11.53t-16.32,22.12q0,12.63,13.89,21.15t47.06,13.59Zm28.58,170.85q28.32-1.79,46.79-12.5t18.48-26.5q0-13.47-13.08-21.64t-52.19-14.62Z"/><path class="cls-2" d="M1731.52,3619.75c-20.71-28.07-50.66-54.32-89.87-77.15-166.19-96.73-438.53-95.7-605.22,2.3-35.7,21-63.73,44.74-84.13,70l-40.66-.25v99.36a145,145,0,0,0,0,15.32h0c3.2,61.15,44.78,121.45,124.79,167.27,166.69,95.47,439,94.43,605.22-2.3,78.35-45.6,119.74-104.89,124.21-165h.42V3620Z"/><path class="cls-3" d="M1641.65,3443.41c-166.19-96.73-438.53-95.69-605.22,2.3s-166.69,256.28,0,351.74,439,94.44,605.22-2.29S1807.83,3540.14,1641.65,3443.41Z"/><path class="cls-4" d="M1615.17,3458.85c-151.65-88.27-400.19-87.33-552.3,2.09s-152.12,233.88,0,321,400.65,86.17,552.3-2.1S1766.83,3547.12,1615.17,3458.85Z"/><path class="cls-5" d="M959.31,3569.65l616,230.42s54.3-25.56,94.28-60l-652.49-244.53S983.22,3514.51,959.31,3569.65Z"/><path class="cls-5" d="M1062.87,3460.94l644.9,232.51s15.71-30.12,18.1-45.65L1117.1,3434.33S1080.61,3449.8,1062.87,3460.94Z"/><path class="cls-6" d="M1325.9,3744.39v-24.72q-36.4-2.34-59.19-8.31t-39.37-19.29q-16.59-13.34-19.29-32.56l48.82-4.66q5.66,19.91,20,29.25,20.51,13.18,49.08,14.69V3620.1a343.57,343.57,0,0,1-61.21-11.81q-23.2-6.6-35.74-18.27t-12.54-26.51q0-26.37,36.68-42.71,24.54-11,72.81-13.46v-11.81h28.59v11.81q42.35,2.05,67.15,12.63,31.81,13.47,38.29,37l-50.16,3.85a37,37,0,0,0-17.93-22.32q-13.62-7.77-37.35-10.23v71.28q36.67,4.66,48.54,7.28,22.65,5.07,37,12.36t22,17.3a35,35,0,0,1,7.68,21.7q0,25.68-32.09,42.85t-83.06,18.41v25Zm0-216.45q-28.31,2.2-44.63,11.54T1265,3561.59q0,12.63,13.88,21.15t47.06,13.6Zm28.59,170.85q28.32-1.78,46.79-12.49t18.47-26.51q0-13.45-13.08-21.63t-52.18-14.63Z"/><path class="cls-2" d="M1634.86,3415.1c-20.7-28.07-50.65-54.32-89.87-77.15-166.18-96.73-438.53-95.7-605.22,2.3-35.7,21-63.72,44.74-84.13,70L815,3410v99.36a145,145,0,0,0,0,15.32h0c3.21,61.15,44.79,121.45,124.79,167.27,166.69,95.47,439,94.43,605.22-2.3,78.35-45.6,119.75-104.9,124.21-165h.43V3415.31Z"/><path class="cls-3" d="M1545,3238.76c-166.18-96.73-438.53-95.69-605.22,2.3s-166.69,256.28,0,351.74,439,94.44,605.22-2.29S1711.17,3335.49,1545,3238.76Z"/><path class="cls-4" d="M1518.52,3254.2c-151.66-88.27-400.19-87.33-552.31,2.09s-152.11,233.88,0,321,400.65,86.17,552.31-2.1S1670.17,3342.47,1518.52,3254.2Z"/><path class="cls-5" d="M862.65,3365l616.05,230.42s54.29-25.56,94.27-60L920.49,3290.88S886.56,3309.86,862.65,3365Z"/><path class="cls-5" d="M966.21,3256.29l644.91,232.51s15.71-30.12,18.1-45.65l-608.78-213.47S984,3245.15,966.21,3256.29Z"/><path class="cls-6" d="M1229.25,3539.74V3515q-36.4-2.34-59.2-8.31t-39.37-19.3q-16.59-13.32-19.28-32.55l48.81-4.66q5.65,19.9,20,29.25,20.49,13.18,49.08,14.69v-78.69a343.5,343.5,0,0,1-61.22-11.81q-23.19-6.6-35.73-18.27t-12.54-26.51q0-26.37,36.67-42.71,24.54-11,72.82-13.46v-11.81h28.58v11.81q42.35,2.05,67.15,12.63,31.83,13.47,38.3,36.95l-50.16,3.85a37,37,0,0,0-17.94-22.32q-13.62-7.77-37.35-10.23v71.28q36.68,4.67,48.55,7.28,22.65,5.07,36.94,12.36t22,17.3a35,35,0,0,1,7.69,21.7q0,25.68-32.1,42.85t-83.06,18.41v25Zm0-216.45q-28.32,2.21-44.64,11.54t-16.31,22.11q0,12.63,13.89,21.15t47.06,13.6Zm28.58,170.85q28.32-1.79,46.79-12.49t18.48-26.51q0-13.45-13.08-21.63t-52.19-14.63Z"/><path class="cls-2" d="M1694.15,3238c-20.71-28.06-50.66-54.32-89.87-77.14-166.18-96.73-438.53-95.7-605.22,2.29-35.7,21-63.72,44.74-84.13,70l-40.66-.25v99.36a145,145,0,0,0,0,15.32h0c3.2,61.15,44.78,121.45,124.79,167.27,166.69,95.46,439,94.43,605.22-2.3,78.35-45.61,119.74-104.9,124.21-165h.42V3238.2Z"/><path class="cls-3" d="M1604.28,3061.65c-166.18-96.73-438.53-95.69-605.22,2.3s-166.69,256.27,0,351.74,439,94.43,605.22-2.3S1770.46,3158.38,1604.28,3061.65Z"/><path class="cls-4" d="M1577.81,3077.09c-151.66-88.28-400.2-87.33-552.31,2.09s-152.12,233.87,0,321,400.65,86.18,552.31-2.09S1729.46,3165.36,1577.81,3077.09Z"/><path class="cls-5" d="M921.94,3187.89l616,230.42s54.3-25.56,94.28-60L979.77,3113.77S945.85,3132.75,921.94,3187.89Z"/><path class="cls-5" d="M1025.5,3079.18l644.9,232.51s15.71-30.12,18.11-45.65l-608.78-213.47S1043.24,3068,1025.5,3079.18Z"/><path class="cls-6" d="M1288.53,3362.63v-24.72q-36.4-2.34-59.19-8.31T1190,3310.3q-16.59-13.32-19.29-32.55l48.82-4.67q5.65,19.92,20,29.26,20.5,13.18,49.08,14.69v-78.69a342.72,342.72,0,0,1-61.21-11.82q-23.19-6.58-35.74-18.26T1179,3181.75q0-26.37,36.68-42.71,24.54-11,72.81-13.46v-11.81h28.59v11.81q42.35,2.05,67.15,12.63,31.83,13.47,38.3,36.95L1372.4,3179a37,37,0,0,0-17.93-22.31q-13.62-7.77-37.35-10.24v71.28q36.68,4.68,48.54,7.28,22.65,5.09,36.95,12.36t22,17.31a35,35,0,0,1,7.68,21.7q0,25.68-32.09,42.85t-83.06,18.4v25Zm0-216.45q-28.3,2.19-44.63,11.54t-16.31,22.11q0,12.63,13.89,21.15t47,13.6ZM1317.12,3317q28.32-1.79,46.79-12.5t18.47-26.5q0-13.47-13.08-21.63t-52.18-14.63Z"/><path class="cls-2" d="M1656.78,3054.76c-20.71-28.06-50.66-54.32-89.87-77.15-166.18-96.73-438.53-95.69-605.22,2.3-35.7,21-63.72,44.74-84.13,70.05l-40.66-.25v99.36a145,145,0,0,0,0,15.32h0c3.21,61.15,44.78,121.44,124.79,167.26,166.69,95.47,439,94.44,605.22-2.29,78.35-45.61,119.75-104.9,124.21-165h.43V3055Z"/><path class="cls-3" d="M1566.91,2878.43c-166.18-96.73-438.53-95.7-605.22,2.29S795,3137,961.69,3232.47s439,94.43,605.22-2.3S1733.09,2975.16,1566.91,2878.43Z"/><path class="cls-4" d="M1540.44,2893.86c-151.66-88.27-400.2-87.33-552.31,2.1s-152.12,233.87,0,321,400.65,86.18,552.31-2.1S1692.09,2982.13,1540.44,2893.86Z"/><path class="cls-5" d="M884.57,3004.67l616,230.42s54.29-25.56,94.27-60L942.4,2930.54S908.48,2949.52,884.57,3004.67Z"/><path class="cls-5" d="M988.13,2896,1633,3128.47s15.71-30.12,18.1-45.66l-608.78-213.47S1005.87,2884.81,988.13,2896Z"/><path class="cls-6" d="M1251.17,3179.41v-24.73q-36.42-2.32-59.2-8.3t-39.37-19.3q-16.59-13.32-19.28-32.55l48.81-4.67q5.65,19.92,19.95,29.25,20.51,13.18,49.09,14.7v-78.7A342.61,342.61,0,0,1,1190,3043.3q-23.19-6.6-35.73-18.27t-12.54-26.5q0-26.37,36.67-42.72,24.54-11,72.82-13.46v-11.81h28.58v11.81q42.35,2.07,67.15,12.64,31.83,13.46,38.3,36.94l-50.16,3.85a37,37,0,0,0-17.94-22.32q-13.62-7.76-37.35-10.23v71.28q36.68,4.66,48.54,7.28,22.67,5.09,37,12.36t22,17.3a35,35,0,0,1,7.68,21.7q0,25.7-32.09,42.86t-83.06,18.4v25Zm0-216.46q-28.32,2.21-44.64,11.54t-16.31,22.11q0,12.65,13.89,21.15t47.06,13.6Zm28.58,170.86q28.32-1.79,46.79-12.5T1345,3094.8q0-13.46-13.08-21.63t-52.18-14.63Z"/><path class="cls-2" d="M2142.15,4646.34c-20.7-28.06-50.65-54.32-89.87-77.15-166.18-96.73-438.53-95.69-605.22,2.3-35.7,21-63.72,44.74-84.13,70.05l-40.66-.25v99.36a145,145,0,0,0,0,15.32h0c3.21,61.15,44.79,121.44,124.79,167.26,166.69,95.47,439,94.44,605.22-2.29,78.35-45.61,119.75-104.9,124.21-165h.43V4646.55Z"/><path class="cls-3" d="M2052.28,4470c-166.18-96.73-438.53-95.7-605.22,2.29s-166.69,256.28,0,351.75,439,94.43,605.22-2.3S2218.46,4566.74,2052.28,4470Z"/><path class="cls-4" d="M2025.81,4485.44c-151.66-88.27-400.19-87.33-552.31,2.1s-152.11,233.87,0,321,400.65,86.18,552.31-2.1S2177.46,4573.72,2025.81,4485.44Z"/><path class="cls-5" d="M1369.94,4596.25,1986,4826.67s54.29-25.56,94.27-60l-652.48-244.54S1393.85,4541.1,1369.94,4596.25Z"/><path class="cls-5" d="M1473.5,4487.54l644.91,232.51s15.71-30.12,18.1-45.66l-608.78-213.47S1491.24,4476.39,1473.5,4487.54Z"/><path class="cls-6" d="M1736.54,4771v-24.73q-36.4-2.33-59.2-8.3t-39.37-19.3q-16.59-13.32-19.28-32.55l48.81-4.67q5.65,19.92,20,29.25,20.49,13.19,49.08,14.7v-78.7a342.61,342.61,0,0,1-61.22-11.81q-23.19-6.6-35.73-18.27t-12.54-26.5q0-26.37,36.67-42.72,24.54-11,72.82-13.46v-11.81h28.58v11.81q42.35,2.07,67.15,12.64,31.83,13.45,38.3,36.94l-50.16,3.85a37,37,0,0,0-17.94-22.32q-13.62-7.76-37.35-10.23v71.28q36.68,4.66,48.55,7.28,22.65,5.09,36.94,12.36t22,17.3a35,35,0,0,1,7.69,21.71q0,25.68-32.1,42.85t-83.06,18.4v25Zm0-216.46q-28.32,2.21-44.63,11.54t-16.32,22.11q0,12.64,13.89,21.15t47.06,13.6Zm28.58,170.86q28.32-1.79,46.79-12.5t18.48-26.51q0-13.46-13.08-21.63t-52.19-14.63Z"/><path class="cls-2" d="M2154.26,4504.73c-20.71-28.07-50.66-54.32-89.88-77.15-166.18-96.73-438.53-95.7-605.21,2.3-35.7,21-63.73,44.74-84.14,70l-40.65-.25V4599a145,145,0,0,0,0,15.32h0c3.2,61.16,44.78,121.45,124.79,167.27,166.68,95.47,439,94.43,605.21-2.3,78.36-45.6,119.75-104.89,124.22-165h.42V4504.94Z"/><path class="cls-3" d="M2064.38,4328.4c-166.18-96.73-438.53-95.7-605.21,2.29s-166.69,256.28,0,351.74,439,94.44,605.21-2.29S2230.57,4425.12,2064.38,4328.4Z"/><path class="cls-4" d="M2037.91,4343.83c-151.65-88.27-400.19-87.33-552.3,2.09s-152.12,233.88,0,321,400.65,86.17,552.3-2.1S2189.57,4432.1,2037.91,4343.83Z"/><path class="cls-5" d="M1382.05,4454.63l616,230.42s54.29-25.56,94.28-60l-652.49-244.53S1406,4399.49,1382.05,4454.63Z"/><path class="cls-5" d="M1485.61,4345.92l644.9,232.52s15.71-30.13,18.1-45.66l-608.77-213.47S1503.34,4334.78,1485.61,4345.92Z"/><path class="cls-6" d="M1748.64,4629.37v-24.72q-36.41-2.32-59.19-8.31t-39.38-19.29q-16.58-13.34-19.28-32.55l48.81-4.67q5.67,19.91,20,29.25,20.49,13.18,49.08,14.7v-78.7a342.78,342.78,0,0,1-61.22-11.81q-23.19-6.6-35.73-18.27t-12.54-26.51q0-26.37,36.68-42.71,24.54-11,72.81-13.46v-11.81h28.59v11.81q42.33,2.06,67.15,12.64,31.81,13.46,38.29,36.94l-50.16,3.85a37,37,0,0,0-17.93-22.32q-13.62-7.76-37.35-10.23v71.28q36.68,4.67,48.54,7.28,22.65,5.07,37,12.36t22,17.3a34.94,34.94,0,0,1,7.69,21.7q0,25.68-32.09,42.85t-83.06,18.41v25Zm0-216.45q-28.32,2.2-44.63,11.54t-16.32,22.11q0,12.63,13.89,21.15t47.06,13.6Zm28.59,170.86q28.3-1.78,46.79-12.5t18.47-26.51q0-13.45-13.08-21.63t-52.18-14.63Z"/><path class="cls-2" d="M2202.53,4339.93c-20.71-28.06-50.66-54.32-89.87-77.14-166.19-96.73-438.53-95.7-605.22,2.29-35.7,21-63.73,44.74-84.13,70.05l-40.66-.25v99.36a145,145,0,0,0,0,15.32h0c3.2,61.15,44.78,121.44,124.79,167.27,166.69,95.46,439,94.43,605.22-2.3,78.35-45.61,119.74-104.9,124.21-165h.42V4340.15Z"/><path class="cls-3" d="M2112.66,4163.6c-166.19-96.73-438.53-95.7-605.22,2.3s-166.69,256.27,0,351.74,439,94.43,605.22-2.3S2278.84,4260.33,2112.66,4163.6Z"/><path class="cls-4" d="M2086.18,4179c-151.65-88.28-400.19-87.33-552.3,2.09s-152.12,233.87,0,321,400.65,86.18,552.3-2.09S2237.84,4267.31,2086.18,4179Z"/><path class="cls-5" d="M1430.32,4289.84l616,230.42s54.3-25.56,94.28-60l-652.49-244.54S1454.23,4234.7,1430.32,4289.84Z"/><path class="cls-5" d="M1533.88,4181.13l644.9,232.51s15.71-30.12,18.1-45.65l-608.77-213.47S1551.62,4170,1533.88,4181.13Z"/><path class="cls-6" d="M1796.91,4464.58v-24.72q-36.4-2.34-59.19-8.31t-39.37-19.3q-16.59-13.32-19.29-32.55l48.82-4.67q5.65,19.92,19.95,29.26,20.51,13.19,49.08,14.69v-78.7a342.68,342.68,0,0,1-61.21-11.81q-23.21-6.59-35.74-18.26t-12.54-26.51q0-26.37,36.68-42.71,24.54-11,72.81-13.46v-11.82h28.59v11.82q42.35,2.05,67.15,12.63,31.81,13.45,38.29,36.95l-50.16,3.84a37,37,0,0,0-17.93-22.32q-13.62-7.76-37.35-10.23v71.28q36.68,4.68,48.54,7.28,22.65,5.09,37,12.36t22,17.31a35,35,0,0,1,7.68,21.7q0,25.68-32.09,42.85t-83.06,18.4v25Zm0-216.45q-28.31,2.19-44.63,11.53T1736,4281.78q0,12.63,13.88,21.15t47.06,13.59ZM1825.5,4419q28.32-1.78,46.79-12.5t18.47-26.5q0-13.47-13.08-21.64t-52.18-14.62Z"/></g></g></svg>