<svg xmlns="http://www.w3.org/2000/svg" viewBox="0 0 918.83 696.3"><defs><style>.cls-1{fill:#3d4046;opacity:0.24;}.cls-2{fill:#eae3e0;}.cls-3{fill:#d8d1cf;}.cls-4{fill:#9d9996;}.cls-20,.cls-5{fill:#c3bebb;}.cls-6{fill:#aca8a5;}.cls-7{fill:#b2adaa;}.cls-8{fill:#232b38;}.cls-9{opacity:0.41;}.cls-10,.cls-11{fill:#354154;}.cls-11{opacity:0.75;}.cls-12{opacity:0.08;}.cls-13{fill:#fff;}.cls-14{fill:#898583;}.cls-15{opacity:0.44;}.cls-16{opacity:0.42;}.cls-17{fill:#fbf4f1;}.cls-18{opacity:0.17;}.cls-19{fill:#5c5c5c;}.cls-20{opacity:0.58;}.cls-21{fill:#95928f;}.cls-22{opacity:0.2;}.cls-23{fill:#f1ebe7;}.cls-24{fill:#989592;}.cls-25{opacity:0.43;}.cls-26,.cls-27{fill:#baaba2;}.cls-26{opacity:0.87;}.cls-28{fill:#ddd7d4;}.cls-29{opacity:0.7;}.cls-30{fill:#ece6e3;}</style></defs><title>Recurso 1</title><g id="Capa_2" data-name="Capa 2"><g id="objects"><path class="cls-1" d="M329.11,202.69,6.82,349.69a11.65,11.65,0,0,0,0,21.18l209.48,96.5a16,16,0,0,0,13.31,0L555.94,318.53a7.9,7.9,0,0,0,0-14.37L335.7,202.7A7.9,7.9,0,0,0,329.11,202.69Z"/><path class="cls-2" d="M396,383.29l-63.14,28.8a6.26,6.26,0,0,0-1.21,10.66L398.56,474a22.36,22.36,0,0,0,22.87,2.59l96.08-43.83c5.18-2.36,6-12.83.59-14.6L400.51,383A6.25,6.25,0,0,0,396,383.29Z"/><path class="cls-3" d="M400.51,383a6.25,6.25,0,0,0-4.54.25l-63.14,28.8a6.26,6.26,0,0,0-1.21,10.66L398.56,474a22.37,22.37,0,0,0,19.35,3.84V388.23Z"/><path class="cls-4" d="M400.51,383a6.25,6.25,0,0,0-4.54.25l-63.14,28.8a6.26,6.26,0,0,0-1.21,10.66L398.56,474a22.9,22.9,0,0,0,2.52,1.67V383.21Z"/><path class="cls-5" d="M396,379l-63.14,28.8a6.25,6.25,0,0,0-1.21,10.65l66.94,51.25a22.34,22.34,0,0,0,22.87,2.59l96.08-43.82a6.25,6.25,0,0,0-.65-11.63L400.51,378.7A6.3,6.3,0,0,0,396,379Z"/><path class="cls-6" d="M407.36,381.05a6.2,6.2,0,0,0-4.54.26l-63.14,28.8c-4.3,1.95-6.62,10.26-2.87,13.13l40.71,30.53,87.9-53.71Z"/><path class="cls-5" d="M228.79,177.74V467.62c0,8.77,13.88,19.13,21.85,15.49L589.42,320.35a12.05,12.05,0,0,0,7.05-11l6.92-298.13c0-8.76-16-13.69-24-10L242.52,156.39A23.47,23.47,0,0,0,228.79,177.74Z"/><path class="cls-7" d="M242.25,156.52a23.48,23.48,0,0,0-13.46,21.22V467.62c0,8.77,13.88,19.13,21.85,15.49l33.66-16.17V163Z"/><path class="cls-8" d="M237.4,183V472.89a12,12,0,0,0,17,10.95L598,325.61a12,12,0,0,0,7.05-10.95V17.43a12.05,12.05,0,0,0-17-11L251.13,161.66A23.45,23.45,0,0,0,237.4,183Z"/><path class="cls-2" d="M237.4,472.89a12,12,0,0,0,17,10.95L598,325.61a12,12,0,0,0,7.05-10.95V275.58L237.4,444.8Z"/><g class="cls-9"><path class="cls-6" d="M598,321.27,254.44,479.5a12,12,0,0,1-17-10.95v4.34a12,12,0,0,0,17,10.95L598,325.61a12,12,0,0,0,7.05-10.95v-4.35A12.05,12.05,0,0,1,598,321.27Z"/></g><path class="cls-10" d="M253.41,182.05v232.4a5,5,0,0,0,7.11,4.58L587.7,269.79a5,5,0,0,0,2.94-4.57V32.82a5,5,0,0,0-7.11-4.58L256.35,177.48A5,5,0,0,0,253.41,182.05Z"/><path class="cls-11" d="M424.28,375.11v7.24A4,4,0,0,0,430,386l5.52-2.52a4,4,0,0,0,2.35-3.67v-7.24a4,4,0,0,0-5.7-3.67l-5.52,2.52A4,4,0,0,0,424.28,375.11Z"/><g class="cls-12"><path class="cls-13" d="M605.08,17.43a12.05,12.05,0,0,0-17-11L460.3,65.31,411.87,364.5l193.21-88.92Z"/></g><path class="cls-13" d="M237.76,196.3s.1,14.19.24,35.47c0,10.64.08,23,.13,36.36s0,27.48.05,41.67,0,28.38-.05,41.68S238,377.2,238,387.84c-.14,21.28-.24,35.47-.24,35.47a.36.36,0,0,1-.36.36.37.37,0,0,1-.36-.36s-.09-14.19-.23-35.47c0-10.64-.08-23.06-.13-36.36s0-27.49-.06-41.68,0-28.37.06-41.67.09-25.72.12-36.36c.15-21.28.24-35.47.24-35.47a.37.37,0,0,1,.37-.36A.36.36,0,0,1,237.76,196.3Z"/><path class="cls-13" d="M551.31,23.48,506.13,44.55l-46.36,21.5L406.59,90.6l-53.23,24.46-46.47,21.26L261.51,157a.35.35,0,0,1-.48-.18.36.36,0,0,1,.18-.47l45.18-21.07,46.36-21.5,53.18-24.56,53.23-24.46,46.47-21.26L551,22.82a.36.36,0,1,1,.3.66Z"/><path class="cls-1" d="M910.88,462.15a8.82,8.82,0,0,0-3.23-7.44h0c-1-.86-2.1-1.69-3.16-2.52l-.69-.54c-1-.8-2.07-1.59-3.11-2.36l-.37-.28c-1-.73-2-1.44-3-2.15l-.45-.32c-1.08-.76-2.15-1.5-3.22-2.22l-.36-.24q-3.35-2.25-6.66-4.29a1.18,1.18,0,0,1-.19-.11,182.52,182.52,0,0,0-54-22.22h0a130.75,130.75,0,0,0-22.36-3.36h0l-.41,0h-.9c-.62,0-1.69,0-3.13.11-1.21.09-2.68.24-4.39.5-1,.16-2.13.35-3.31.6a74.25,74.25,0,0,0-8,2.09c-1.94.63-4,1.37-6.13,2.25s-4.37,1.91-6.67,3.09a98.23,98.23,0,0,0-15.62,9.7l-.9.72c-.57.47-1.1.91-1.57,1.33l-.69.62-.61.58a2.42,2.42,0,0,0-.76,1.87,2.46,2.46,0,0,0,.23,1,3.62,3.62,0,0,0,.39,2,3.41,3.41,0,0,0,1.59,3.84c8,4.49,97,44.87,102.57,46s17.49,1.37,35.92-8.59c12.47-6.74,13.77-13,13.3-16.29A7.93,7.93,0,0,0,910.88,462.15Z"/><path class="cls-14" d="M767,446.44c8,4.48,97,44.86,102.56,45.95s17.5,1.37,35.93-8.59S917.9,465,917.9,465l-49.81-21-83.2-12.46s-12.27,3.18-17.47,7.67C764.94,441.3,764.38,445,767,446.44Z"/><path class="cls-5" d="M767,444.19c8,4.49,95.78,44.35,102.56,46s17.5,1.37,35.93-8.59,12.45-18.81,12.45-18.81L868.09,441.7l-83.2-12.45s-12.56,3.44-17.9,7.85C764.28,439.34,764.28,442.69,767,444.19Z"/><path class="cls-2" d="M915.82,470a8.83,8.83,0,0,0-.52-13.22c-47.88-39.11-96.09-40.57-98.2-40.65,0,0-13.78-.84-32.21,8.63-10.44,5.36-16.28,10-19.39,12.94a2.48,2.48,0,0,0,1.32,4.23c15.09,2.47,54.78,7.27,95.91,42.13a13.75,13.75,0,0,0,10.06,3.22,87.82,87.82,0,0,0,26.91-7.22C907.52,476.66,912.57,473.07,915.82,470Z"/><g class="cls-15"><path class="cls-5" d="M794,427.38c19.44-10,34-9.09,34-9.09a105.35,105.35,0,0,1,12.21,1.25,126.6,126.6,0,0,0-23.07-3.4s-13.78-.84-32.21,8.63c-10.44,5.36-16.28,10-19.39,12.94a2.48,2.48,0,0,0,1.32,4.23l5.91.95a2.6,2.6,0,0,1,.8-1.85C776.81,437.89,783,433,794,427.38Z"/></g><g class="cls-16"><path class="cls-17" d="M915.3,456.79a190.8,190.8,0,0,0-28-19,48.76,48.76,0,0,1-19,13.94c-13.88,5.89-28.88,8.39-39.42,9.46a184.41,184.41,0,0,1,33.82,22.88,13.75,13.75,0,0,0,10.06,3.22,87.82,87.82,0,0,0,26.91-7.22c7.82-3.41,12.87-7,16.12-10.06A8.83,8.83,0,0,0,915.3,456.79Z"/></g><g class="cls-18"><path class="cls-19" d="M918.24,469.26l-.21.45a8,8,0,0,1-.74,1.24,10.63,10.63,0,0,1-.67.83c-.27.3-.58.59-.89.88-.64.61-1.4,1.28-2.29,2a54.46,54.46,0,0,1-6.76,4.58,77.51,77.51,0,0,1-9.5,4.59,93.16,93.16,0,0,1-11.84,4c-2.15.57-4.38,1.08-6.68,1.49-1.14.22-2.32.38-3.5.54a34.62,34.62,0,0,1-3.68.31,14.71,14.71,0,0,1-7.48-2.11,14.13,14.13,0,0,1-1.64-1.14l-1.46-1.18L858,483.36c-3.93-3.05-8.06-6-12.3-8.83s-8.57-5.48-12.93-7.95-8.73-4.73-13-6.79-8.52-3.92-12.6-5.45a106,106,0,0,0-11.75-3.54c-7.42-1.85-13.66-3.22-18-4.15l-6.87-1.42h0a.51.51,0,1,1,.19-1l6.93,1.22c4.4.83,10.7,1.95,18.19,3.7a107.49,107.49,0,0,1,12,3.41c4.17,1.5,8.47,3.3,12.82,5.36s8.79,4.34,13.21,6.79,8.8,5.15,13.11,8,8.42,5.89,12.43,9l2.9,2.39,1.44,1.18a11.33,11.33,0,0,0,1.4,1,12.54,12.54,0,0,0,6.39,1.84,31.83,31.83,0,0,0,3.42-.27c1.15-.15,2.29-.31,3.41-.49,2.25-.37,4.43-.83,6.54-1.35a93.7,93.7,0,0,0,11.67-3.73,83.79,83.79,0,0,0,9.42-4.3,53.45,53.45,0,0,0,6.71-4.28,22.57,22.57,0,0,0,3.74-3.35,9.18,9.18,0,0,0,.7-1.07l.2-.4v0a.52.52,0,0,1,.7-.22A.5.5,0,0,1,918.24,469.26Z"/></g><path class="cls-13" d="M918.24,467.49l-.21.44a8,8,0,0,1-.74,1.25,10.63,10.63,0,0,1-.67.83c-.27.3-.58.59-.89.88-.64.6-1.4,1.28-2.29,2a54.5,54.5,0,0,1-6.76,4.57,77.48,77.48,0,0,1-9.5,4.6,96.42,96.42,0,0,1-11.84,4q-3.23.85-6.68,1.49c-1.14.21-2.32.38-3.5.53a32.18,32.18,0,0,1-3.68.31,14.8,14.8,0,0,1-7.48-2.1,15.48,15.48,0,0,1-1.64-1.14L860.9,484,858,481.58c-3.93-3-8.06-6-12.3-8.83s-8.57-5.47-12.93-7.94-8.73-4.74-13-6.79-8.52-3.93-12.6-5.46A105.86,105.86,0,0,0,795.38,449c-7.42-1.85-13.66-3.23-18-4.16l-6.87-1.41h0a.53.53,0,0,1-.41-.61.52.52,0,0,1,.6-.41l6.93,1.22c4.4.83,10.7,1.95,18.19,3.71a107.49,107.49,0,0,1,12,3.41,138.23,138.23,0,0,1,12.82,5.36c4.36,2.05,8.79,4.33,13.21,6.79s8.8,5.14,13.11,7.95,8.42,5.89,12.43,9l2.9,2.39,1.44,1.17a11.41,11.41,0,0,0,1.4,1,12.63,12.63,0,0,0,6.39,1.83,29.45,29.45,0,0,0,3.42-.27c1.15-.14,2.29-.3,3.41-.49,2.25-.36,4.43-.82,6.54-1.34a95.4,95.4,0,0,0,11.67-3.73,85.55,85.55,0,0,0,9.42-4.31,52.34,52.34,0,0,0,6.71-4.28,21.7,21.7,0,0,0,3.74-3.35,8.4,8.4,0,0,0,.7-1.07l.2-.4h0a.52.52,0,0,1,.93.45Z"/><path class="cls-20" d="M882.41,456.7l-5.84,2.58a2.93,2.93,0,0,0-.68,4.94l4.48,3.7a5.4,5.4,0,0,0,5.66.76l4.4-2a2.92,2.92,0,0,0,.67-4.92l-5.64-4.66A2.92,2.92,0,0,0,882.41,456.7Z"/><path class="cls-1" d="M634.49,468.41,315.17,614.06a5.82,5.82,0,0,0,0,10.58l154.41,71.12a5.83,5.83,0,0,0,4.85,0L793.73,550.12a5.82,5.82,0,0,0,0-10.58L639.34,468.42A5.83,5.83,0,0,0,634.49,468.41Z"/><polygon class="cls-21" points="401.74 607.49 350.31 630.94 359.57 640.77 411 617.32 401.74 607.49"/><path class="cls-2" d="M677,461.35,345.07,609.69c-2.22,1-2.23,7.21,0,8.23l122.25,77.14a12,12,0,0,0,10,0L806.7,544.85c2.23-1,2.67-7,.45-8L682,461.36A6,6,0,0,0,677,461.35Z"/><ellipse class="cls-5" cx="351.26" cy="625.17" rx="15.22" ry="17.8" transform="translate(-320.27 373.63) rotate(-40.14)"/><path class="cls-5" d="M677,457.29,345.07,608.67a2.85,2.85,0,0,0,0,5.19L467.31,691a12,12,0,0,0,10,0L806.7,540.79a2.86,2.86,0,0,0,0-5.21L682,457.3A6,6,0,0,0,677,457.29Z"/><g class="cls-22"><path class="cls-23" d="M806.71,535.58l-65.33-41L384.67,638.85,467.31,691a12,12,0,0,0,10,0L806.7,540.79A2.86,2.86,0,0,0,806.71,535.58Z"/></g><path class="cls-24" d="M679.73,589.32,579.38,635.08a7.38,7.38,0,0,1-6.23-.23L561,627.23a2.11,2.11,0,0,1-.91-1c-.59.79-.4,1.71.68,2.39l12.14,7.62a7.38,7.38,0,0,0,6.23.23L679.5,590.69c1.29-.59,1.79-1.49,1.47-2.31A3.07,3.07,0,0,1,679.73,589.32Z"/><path class="cls-24" d="M732.59,565.21l-12.08,5.51a7.34,7.34,0,0,1-6.23-.23l-12.14-7.62a2.11,2.11,0,0,1-.91-1c-.59.79-.4,1.71.68,2.39l12.14,7.62a7.38,7.38,0,0,0,6.23.23l12.09-5.51c1.29-.59,1.79-1.49,1.47-2.31A3.11,3.11,0,0,1,732.59,565.21Z"/><path class="cls-24" d="M567,640.74l-15.36,7a7.4,7.4,0,0,1-6.24-.23l-12.13-7.62a2.11,2.11,0,0,1-.91-1c-.59.79-.4,1.71.68,2.39l12.14,7.62a7.42,7.42,0,0,0,6.23.23l15.36-7c1.29-.59,1.79-1.48,1.47-2.31A3.06,3.06,0,0,1,567,640.74Z"/><path class="cls-24" d="M708.11,576.38l-16,7.28a7.34,7.34,0,0,1-6.23-.23l-12.14-7.62a2.19,2.19,0,0,1-.91-1c-.59.78-.39,1.7.68,2.38l12.14,7.62a7.4,7.4,0,0,0,6.24.23l16-7.28c1.29-.59,1.79-1.49,1.47-2.31A3.14,3.14,0,0,1,708.11,576.38Z"/><path class="cls-24" d="M477.81,656.64a3.17,3.17,0,0,1-1.26,1l-25,11.42a7.4,7.4,0,0,1-6.24-.23l-9.77-6.14a2.19,2.19,0,0,1-.92-1c-.58.79-.39,1.71.69,2.39l9.77,6.14a7.44,7.44,0,0,0,6.24.23L476.33,659C477.62,658.37,478.12,657.47,477.81,656.64Z"/><path class="cls-24" d="M539.21,653.4l-13.27,6.05a7.38,7.38,0,0,1-6.23-.23l-12.14-7.62a2.16,2.16,0,0,1-.91-1c-.59.79-.39,1.71.68,2.38l12.14,7.62a7.37,7.37,0,0,0,6.24.23l13.27-6c1.29-.59,1.79-1.48,1.47-2.31A3.12,3.12,0,0,1,539.21,653.4Z"/><path class="cls-24" d="M513.54,665.11,502,670.39a7.4,7.4,0,0,1-6.24-.23l-12.13-7.62a2.16,2.16,0,0,1-.91-1c-.59.78-.4,1.71.68,2.38l12.13,7.62a7.37,7.37,0,0,0,6.24.23l11.58-5.28c1.29-.59,1.79-1.49,1.47-2.31A3.17,3.17,0,0,1,513.54,665.11Z"/><path class="cls-24" d="M489.55,676,474,683.14a7.38,7.38,0,0,1-6.23-.23l-12.14-7.62a2.11,2.11,0,0,1-.91-1c-.59.79-.39,1.71.68,2.38l12.14,7.62a7.35,7.35,0,0,0,6.23.23l15.56-7.09c1.3-.59,1.8-1.49,1.48-2.31A3.18,3.18,0,0,1,489.55,676Z"/><path class="cls-24" d="M597.51,549.09l6.8,4.27a13.25,13.25,0,0,0,3.1,1.35A6.57,6.57,0,0,0,611,554l12.81-5.84c1.29-.59,1.79-1.49,1.47-2.31a3.07,3.07,0,0,1-1.24.94l-12.81,5.84a6.63,6.63,0,0,1-3.6.68,13.76,13.76,0,0,1-3.1-1.35l-6.8-4.27a2.16,2.16,0,0,1-.91-1C596.24,547.49,596.43,548.42,597.51,549.09Z"/><path class="cls-24" d="M571.44,561l7.33,4.6a7,7,0,0,0,3,1,7.28,7.28,0,0,0,3.27-.76l13.68-6.24c1.29-.59,1.79-1.49,1.47-2.31a3.21,3.21,0,0,1-1.25.95L585.3,564.5a7.43,7.43,0,0,1-3.27.77,7.14,7.14,0,0,1-3-1.06l-7.33-4.6a2.11,2.11,0,0,1-.91-1C570.17,559.38,570.37,560.3,571.44,561Z"/><path class="cls-24" d="M545.49,572.81l7.41,4.65a7.37,7.37,0,0,0,6.24.23l13.54-6.17c1.3-.59,1.79-1.49,1.48-2.31a3.18,3.18,0,0,1-1.25.94l-13.55,6.18a7.38,7.38,0,0,1-6.23-.23l-7.41-4.65a2.16,2.16,0,0,1-.91-1C544.22,571.21,544.42,572.14,545.49,572.81Z"/><path class="cls-24" d="M677.16,522.61l-13.61,6.21a7.38,7.38,0,0,1-6.23-.23l-7.41-4.65a2.2,2.2,0,0,1-.91-1c-.59.78-.4,1.7.68,2.38l7.41,4.65a7.38,7.38,0,0,0,6.23.23l13.61-6.2c1.3-.59,1.8-1.49,1.48-2.31A3.18,3.18,0,0,1,677.16,522.61Z"/><path class="cls-24" d="M622.58,537.66,630,542.3a6,6,0,0,0,3.2.87,5.48,5.48,0,0,0,3.05-.63l14.7-6.7c1.29-.59,1.79-1.49,1.47-2.31a3.07,3.07,0,0,1-1.24.94l-14.7,6.71a5.6,5.6,0,0,1-3.05.63,6.06,6.06,0,0,1-3.2-.88l-7.39-4.64a2.11,2.11,0,0,1-.91-1C621.31,536.06,621.51,537,622.58,537.66Z"/><path class="cls-24" d="M703.73,532.19l-15,6.83a7.4,7.4,0,0,1-6.24-.23l-9.66-6.07a2.11,2.11,0,0,1-.91-1c-.59.79-.4,1.71.68,2.38l9.66,6.07a7.4,7.4,0,0,0,6.24.23l15-6.83c1.29-.59,1.79-1.48,1.47-2.31A3.12,3.12,0,0,1,703.73,532.19Z"/><path class="cls-24" d="M530.33,545.06l3.34,2.1a7.38,7.38,0,0,0,6.23.23l16.78-7.65c1.29-.59,1.79-1.49,1.47-2.31a3.21,3.21,0,0,1-1.25,1L540.13,546a7.34,7.34,0,0,1-6.23-.23l-3.35-2.1a2.16,2.16,0,0,1-.91-1C529.06,543.46,529.25,544.38,530.33,545.06Z"/><path class="cls-24" d="M613,507.37l3.34,2.1a7.37,7.37,0,0,0,6.24.23l17.12-7.8c1.29-.59,1.79-1.49,1.47-2.31a3.14,3.14,0,0,1-1.24.94l-17.12,7.81a7.4,7.4,0,0,1-6.24-.23L613.2,506a2.16,2.16,0,0,1-.91-1C611.7,505.77,611.89,506.7,613,507.37Z"/><path class="cls-24" d="M668.31,482.13l3.35,2.1a7.38,7.38,0,0,0,6.23.24l15.55-7.09c1.29-.59,1.79-1.49,1.47-2.31a3.14,3.14,0,0,1-1.24.94l-15.55,7.09a7.4,7.4,0,0,1-6.24-.23l-3.34-2.1a2.11,2.11,0,0,1-.91-1C667,480.54,667.23,481.46,668.31,482.13Z"/><path class="cls-24" d="M642.49,493.91l3.35,2.1a7.38,7.38,0,0,0,6.23.23l13.42-6.12c1.29-.59,1.79-1.48,1.47-2.31a3.12,3.12,0,0,1-1.25.95l-13.41,6.11a7.34,7.34,0,0,1-6.23-.23l-3.35-2.1a2.11,2.11,0,0,1-.91-1C641.22,492.31,641.42,493.23,642.49,493.91Z"/><path class="cls-24" d="M586.05,519.65l3.35,2.1a7.38,7.38,0,0,0,6.23.23l14.51-6.62c1.3-.59,1.8-1.49,1.48-2.31a3.18,3.18,0,0,1-1.25.94l-14.51,6.62a7.4,7.4,0,0,1-6.24-.23l-3.34-2.1a2.11,2.11,0,0,1-.91-1C584.78,518.05,585,519,586.05,519.65Z"/><path class="cls-24" d="M559.5,531.75l3.35,2.1a7.34,7.34,0,0,0,6.23.23l14.15-6.45c1.29-.59,1.79-1.48,1.47-2.31a3,3,0,0,1-1.25.95l-14.14,6.45a7.4,7.4,0,0,1-6.24-.23l-3.34-2.1a2.16,2.16,0,0,1-.91-1C558.23,530.16,558.42,531.08,559.5,531.75Z"/><path class="cls-24" d="M769.86,523.85l-46.65,21.27a5.8,5.8,0,0,1-3.24.63,7.72,7.72,0,0,1-3.22-1l-9.51-6a2.23,2.23,0,0,1-.92-1c-.58.78-.39,1.7.69,2.38l9.52,6a7.43,7.43,0,0,0,3.21,1,5.72,5.72,0,0,0,3.24-.62l46.65-21.28c1.29-.59,1.79-1.48,1.47-2.31A3.08,3.08,0,0,1,769.86,523.85Z"/><path class="cls-24" d="M469.29,638.72a3.21,3.21,0,0,1-1.25.95l-36.41,16.6a9.55,9.55,0,0,1-3.59.82,5.06,5.06,0,0,1-2.87-.92l-9.69-6.08a2.16,2.16,0,0,1-.91-1c-.59.78-.39,1.71.68,2.38l9.69,6.09a5.26,5.26,0,0,0,2.87.92,9.78,9.78,0,0,0,3.59-.82L467.81,641C469.11,640.44,469.61,639.54,469.29,638.72Z"/><path class="cls-24" d="M712,487.5l-31.57,14.39a7.14,7.14,0,0,1-6.19-.31l-7.55-5a2.14,2.14,0,0,1-.89-1.07c-.58.8-.39,1.73.66,2.43l7.55,5a7.11,7.11,0,0,0,6.19.32l31.57-14.4c1.29-.59,1.79-1.49,1.47-2.31A3.17,3.17,0,0,1,712,487.5Z"/><path class="cls-24" d="M749.73,511.21l-5.35,2.44a7.37,7.37,0,0,1-6.24-.23l-13.62-8.55c-1.56-1-3.19-2-4.35-1.86s-2.34,1.06-4.21,1.91c0,0-2.72,1.15-3.94.94a6.32,6.32,0,0,1-3.06-1.28l-7-4.39a2.19,2.19,0,0,1-.92-1c-.58.79-.39,1.71.69,2.39l7,4.38a6.32,6.32,0,0,0,3.06,1.28c1.22.21,4-.94,4-.94,1.87-.85,3-1.73,4.2-1.91s2.8.89,4.36,1.87l13.62,8.55a7.38,7.38,0,0,0,6.23.23l5.35-2.44c1.3-.59,1.8-1.49,1.48-2.31A3.18,3.18,0,0,1,749.73,511.21Z"/><path class="cls-24" d="M395.87,606.37l3.34,2.1a7.4,7.4,0,0,0,6.24.23L420,602.08c1.29-.58,1.79-1.48,1.47-2.3a3.07,3.07,0,0,1-1.24.94l-14.51,6.62a7.4,7.4,0,0,1-6.24-.23L396.1,605a2.16,2.16,0,0,1-.91-1C394.6,604.77,394.79,605.7,395.87,606.37Z"/><path class="cls-24" d="M409.07,625.24a3.07,3.07,0,0,1-1.24.94l-14.22,6.49a7.4,7.4,0,0,1-6.24-.23l-7.94-5a2.11,2.11,0,0,1-.91-1c-.59.79-.4,1.71.68,2.39l7.94,5a7.37,7.37,0,0,0,6.24.23l14.22-6.48C408.89,627,409.39,626.06,409.07,625.24Z"/><path class="cls-24" d="M422.79,594.1l3.34,2.1a7.38,7.38,0,0,0,6.23.23l14.52-6.62c1.29-.59,1.79-1.49,1.47-2.31a3.21,3.21,0,0,1-1.25,1l-14.51,6.61a7.34,7.34,0,0,1-6.23-.23l-3.35-2.1a2.16,2.16,0,0,1-.91-1C421.52,592.5,421.71,593.42,422.79,594.1Z"/><path class="cls-24" d="M519.4,584.71l7.41,4.65a7.34,7.34,0,0,0,6.23.23l13.69-6.24c1.29-.59,1.79-1.49,1.47-2.31a3.17,3.17,0,0,1-1.24,1l-13.69,6.24A7.4,7.4,0,0,1,527,588l-7.4-4.65a2.24,2.24,0,0,1-.92-1C518.13,583.11,518.32,584,519.4,584.71Z"/><path class="cls-24" d="M443.62,628.73a3,3,0,0,1-1.25.95l-31,14.14a7.38,7.38,0,0,1-6.23-.23l-7.41-4.65a2.16,2.16,0,0,1-.91-1c-.59.78-.39,1.71.68,2.38L404.9,645a7.37,7.37,0,0,0,6.24.23l31-14.14C443.44,630.45,443.94,629.56,443.62,628.73Z"/><path class="cls-24" d="M503.53,557.28l3.35,2.1a7.42,7.42,0,0,0,6.23.23l14.39-6.56c1.29-.59,1.79-1.49,1.47-2.31a3.07,3.07,0,0,1-1.24.94l-14.39,6.56a7.38,7.38,0,0,1-6.23-.23l-3.35-2.1a2.11,2.11,0,0,1-.91-1C502.26,555.68,502.46,556.6,503.53,557.28Z"/><path class="cls-24" d="M449.7,581.82l3.35,2.1a7.34,7.34,0,0,0,6.23.23l14.51-6.61c1.3-.59,1.79-1.49,1.48-2.31a3.18,3.18,0,0,1-1.25.94l-14.51,6.62a7.4,7.4,0,0,1-6.24-.23l-3.34-2.1a2.16,2.16,0,0,1-.91-1C448.43,580.23,448.62,581.15,449.7,581.82Z"/><path class="cls-24" d="M476.62,569.55l3.34,2.1a7.4,7.4,0,0,0,6.24.23l14.51-6.62c1.29-.59,1.79-1.48,1.47-2.31a3.15,3.15,0,0,1-1.24.95l-14.52,6.62a7.38,7.38,0,0,1-6.23-.24l-3.34-2.09a2.17,2.17,0,0,1-.91-1C475.35,568,475.54,568.87,476.62,569.55Z"/><path class="cls-24" d="M394.84,612.75a.86.86,0,0,0-.16-.72,4.91,4.91,0,0,1-1.54,1l-17.83,8.12a7.34,7.34,0,0,1-6.23-.23l-3.35-2.1a2.11,2.11,0,0,1-.91-1c-.58.79-.39,1.71.69,2.39l3.34,2.1a7.38,7.38,0,0,0,6.23.23l17.83-8.13C394.78,613.57,394.83,612.77,394.84,612.75Z"/><path class="cls-24" d="M502.4,645.81,489,651.94a7.4,7.4,0,0,1-6.24-.23L473,645.57a2.11,2.11,0,0,1-.91-1c-.59.79-.4,1.71.68,2.39l9.78,6.14a7.38,7.38,0,0,0,6.23.23l13.44-6.13c1.29-.59,1.79-1.49,1.47-2.31A3.14,3.14,0,0,1,502.4,645.81Z"/><path class="cls-24" d="M464.32,629.08l9.66,6.06a7.4,7.4,0,0,0,6.24.24l13.51-6.17c1.29-.59,1.79-1.48,1.47-2.31a3.08,3.08,0,0,1-1.24,1L480.45,634a7.4,7.4,0,0,1-6.24-.23l-9.66-6.07a2.11,2.11,0,0,1-.91-1C463.05,627.48,463.24,628.4,464.32,629.08Z"/><path class="cls-24" d="M441.11,620.41l7.41,4.65a7.37,7.37,0,0,0,6.24.23l13.69-6.24c1.29-.59,1.79-1.49,1.47-2.31a3.21,3.21,0,0,1-1.25,1L455,623.93a7.38,7.38,0,0,1-6.23-.23l-7.41-4.65a2.2,2.2,0,0,1-.91-1C439.84,618.81,440,619.73,441.11,620.41Z"/><path class="cls-24" d="M528.49,633.91l-13.69,6.25a9.33,9.33,0,0,1-3.63.82,6.77,6.77,0,0,1-2.64-1.07l-9.74-6.12a2.11,2.11,0,0,1-.91-1c-.59.79-.4,1.71.68,2.38l9.74,6.12a6.53,6.53,0,0,0,2.65,1.07,8.91,8.91,0,0,0,3.62-.82l13.69-6.24c1.3-.59,1.8-1.49,1.48-2.31A3.18,3.18,0,0,1,528.49,633.91Z"/><path class="cls-24" d="M433.92,614.28l-13.69,6.25a7.42,7.42,0,0,1-6.23-.23l-7.94-5a2.16,2.16,0,0,1-.91-1c-.59.79-.4,1.71.68,2.38l7.94,5a7.4,7.4,0,0,0,6.24.23l13.69-6.24c1.29-.59,1.79-1.49,1.47-2.31A3.11,3.11,0,0,1,433.92,614.28Z"/><path class="cls-24" d="M458,592.93l7.66,5a7.2,7.2,0,0,0,6.2.29l14-6.4c1.29-.59,1.79-1.49,1.47-2.31a3.11,3.11,0,0,1-1.25.94l-14,6.41a7.2,7.2,0,0,1-6.2-.29l-7.67-5a2.16,2.16,0,0,1-.89-1.05C456.74,591.31,456.93,592.24,458,592.93Z"/><path class="cls-24" d="M442.9,610.83a8.16,8.16,0,0,0,3.2-.84l13.69-6.24c1.29-.59,1.79-1.49,1.47-2.31a3.07,3.07,0,0,1-1.24.94l-13.7,6.25a8,8,0,0,1-3.2.83,7.28,7.28,0,0,1-3.06-1.08l-7.91-5a2.11,2.11,0,0,1-.91-1c-.59.79-.39,1.71.68,2.38l7.92,5A7.52,7.52,0,0,0,442.9,610.83Z"/><path class="cls-24" d="M554.59,622l-13.69,6.24a7.4,7.4,0,0,1-6.24-.23l-9.77-6.14a2.11,2.11,0,0,1-.91-1c-.59.79-.4,1.71.68,2.38l9.77,6.14a7.37,7.37,0,0,0,6.24.23l13.69-6.24c1.29-.59,1.79-1.49,1.47-2.31A3.25,3.25,0,0,1,554.59,622Z"/><path class="cls-24" d="M684.79,562.64l-13.61,6.21a7.38,7.38,0,0,1-6.23-.23l-9.78-6.14a2.16,2.16,0,0,1-.91-1c-.59.79-.4,1.71.68,2.38l9.78,6.14a7.38,7.38,0,0,0,6.23.23l13.61-6.2c1.29-.59,1.79-1.49,1.47-2.31A3.07,3.07,0,0,1,684.79,562.64Z"/><path class="cls-24" d="M710.84,550.76,697.19,557a7.34,7.34,0,0,1-6.23-.23l-9.78-6.13a2.2,2.2,0,0,1-.91-1c-.59.78-.39,1.7.69,2.38l9.77,6.14a7.4,7.4,0,0,0,6.24.23l13.64-6.22c1.3-.59,1.8-1.49,1.48-2.31A3.18,3.18,0,0,1,710.84,550.76Z"/><path class="cls-24" d="M753,547l11.17-5.1a6.35,6.35,0,0,1,1.36-.42,1.32,1.32,0,0,0,.07-1.16,3.1,3.1,0,0,1-1.26,1l-11.25,5.13a5.92,5.92,0,0,1-5-.18l-2.86-1.8a2.24,2.24,0,0,1-1-1.14c-.59.83-.37,1.8.76,2.51l2.87,1.79a5.72,5.72,0,0,0,4,.5A1.91,1.91,0,0,1,753,547Z"/><path class="cls-24" d="M484.11,581l7.94,5a6.56,6.56,0,0,0,3,1,7.8,7.8,0,0,0,3.24-.79L512,580c1.29-.59,1.79-1.49,1.47-2.31a3.07,3.07,0,0,1-1.24.94l-13.69,6.25a7.67,7.67,0,0,1-3.24.78,6.56,6.56,0,0,1-3-1l-7.94-5a2.11,2.11,0,0,1-.91-1C482.84,579.38,483,580.3,484.11,581Z"/><path class="cls-24" d="M580.54,610.18,567,616.36a7.38,7.38,0,0,1-6.23-.23L551,610a2.11,2.11,0,0,1-.91-1c-.59.79-.39,1.71.68,2.39l9.78,6.13a7.34,7.34,0,0,0,6.23.23l13.55-6.17c1.29-.59,1.79-1.49,1.47-2.31A3.07,3.07,0,0,1,580.54,610.18Z"/><path class="cls-24" d="M606.6,598.3l-13.66,6.22a7.34,7.34,0,0,1-6.23-.23l-9.78-6.13a2.2,2.2,0,0,1-.91-1c-.59.78-.39,1.7.68,2.38l9.78,6.14a7.38,7.38,0,0,0,6.23.23l13.66-6.23c1.3-.59,1.8-1.49,1.48-2.31A3.29,3.29,0,0,1,606.6,598.3Z"/><path class="cls-24" d="M631.68,586.86l-12.75,5.81a5.68,5.68,0,0,1-3.51.52,7.69,7.69,0,0,1-3.09-1.06L603,586.27a2.11,2.11,0,0,1-.91-1c-.59.79-.4,1.71.68,2.39l9.34,5.86a7.56,7.56,0,0,0,3.08,1,5.63,5.63,0,0,0,3.51-.51l12.75-5.81c1.29-.59,1.79-1.49,1.47-2.31A3.14,3.14,0,0,1,631.68,586.86Z"/><path class="cls-24" d="M658.78,574.5l-14.7,6.7a7.34,7.34,0,0,1-6.23-.23l-9.78-6.13a2.16,2.16,0,0,1-.91-1c-.59.78-.4,1.7.68,2.38l9.78,6.14a7.38,7.38,0,0,0,6.23.23l14.7-6.7c1.29-.59,1.79-1.49,1.47-2.31A3.14,3.14,0,0,1,658.78,574.5Z"/><path class="cls-24" d="M493.3,596.61l7.21,4.52a5.21,5.21,0,0,0,2.93,1.09,5.55,5.55,0,0,0,3.48-.71l13.72-6.26c1.29-.59,1.79-1.49,1.47-2.31a3.21,3.21,0,0,1-1.25.95l-13.72,6.25a5.45,5.45,0,0,1-3.47.71,5.1,5.1,0,0,1-2.93-1.08l-7.21-4.52a2.16,2.16,0,0,1-.91-1C492,595,492.23,595.94,493.3,596.61Z"/><path class="cls-24" d="M598.16,580.33l-13.8,6.29a5.49,5.49,0,0,1-3.48.76c-1.13-.08-1.67-.46-3.23-1.44l-9-5.68a2.11,2.11,0,0,1-.91-1c-.59.79-.4,1.71.68,2.38l9,5.68c1.56,1,2.1,1.36,3.24,1.44a5.45,5.45,0,0,0,3.47-.75l13.81-6.3c1.29-.59,1.79-1.48,1.47-2.31A3,3,0,0,1,598.16,580.33Z"/><path class="cls-24" d="M623.24,568.89l-12.67,5.78a7.4,7.4,0,0,1-6.24-.23l-9.66-6.07a2.11,2.11,0,0,1-.91-1c-.59.79-.39,1.71.68,2.39l9.67,6.07a7.38,7.38,0,0,0,6.23.23L623,570.26c1.29-.59,1.79-1.49,1.47-2.31A3.07,3.07,0,0,1,623.24,568.89Z"/><path class="cls-24" d="M676.35,544.67l-13.61,6.21a7.38,7.38,0,0,1-6.23-.23l-9.67-6.07a2.16,2.16,0,0,1-.91-1c-.58.79-.39,1.71.69,2.39l9.66,6.06a7.35,7.35,0,0,0,6.23.23l13.61-6.2c1.3-.59,1.8-1.49,1.48-2.31A3.18,3.18,0,0,1,676.35,544.67Z"/><path class="cls-24" d="M572.1,592.21l-13.55,6.18a7.38,7.38,0,0,1-6.23-.23l-9.66-6.07a2.14,2.14,0,0,1-.92-1c-.58.79-.39,1.71.69,2.39l9.66,6.07a7.4,7.4,0,0,0,6.24.23l13.54-6.18c1.29-.59,1.79-1.49,1.47-2.31A3.07,3.07,0,0,1,572.1,592.21Z"/><path class="cls-24" d="M650.32,556.45,635.1,563a7.57,7.57,0,0,1-6.25-.31l-9.11-5.72a2.16,2.16,0,0,1-.91-1c-.58.79-.39,1.71.69,2.38l9.1,5.72a7.63,7.63,0,0,0,6.26.32l15.21-6.52c1.32-.57,1.82-1.45,1.48-2.27A3.13,3.13,0,0,1,650.32,556.45Z"/><path class="cls-24" d="M546.15,604.05l-13.69,6.24a7.4,7.4,0,0,1-6.24-.23L516.56,604a2.11,2.11,0,0,1-.91-1c-.59.79-.4,1.71.68,2.39l9.67,6.07a7.42,7.42,0,0,0,6.23.23l13.69-6.25c1.29-.59,1.79-1.48,1.47-2.31A3,3,0,0,1,546.15,604.05Z"/><path class="cls-24" d="M467.21,608.51l7.41,4.65a7.34,7.34,0,0,0,6.23.23l13.69-6.24c1.29-.59,1.79-1.49,1.47-2.31a3.17,3.17,0,0,1-1.24.95L481.08,612a7.4,7.4,0,0,1-6.24-.23l-7.4-4.65a2.16,2.16,0,0,1-.91-1C465.94,606.91,466.13,607.83,467.21,608.51Z"/><path class="cls-24" d="M520.05,616l-13.88,6.33a6,6,0,0,1-3.55.65,19,19,0,0,1-3.23-1.43l-8.92-5.61a2.14,2.14,0,0,1-.92-1c-.58.79-.39,1.71.69,2.39l8.92,5.6a18.11,18.11,0,0,0,3.23,1.43,5.92,5.92,0,0,0,3.55-.65l13.89-6.33c1.29-.59,1.79-1.48,1.47-2.31A3.12,3.12,0,0,1,520.05,616Z"/><path class="cls-24" d="M640.41,509.7l7.89,4.95,2.87,1.81,3.41-1.54,13.66-6.23c1.29-.59,1.79-1.48,1.47-2.3a3.11,3.11,0,0,1-1.25.94l-13.65,6.23c-1.87.85-3.41,1.54-3.42,1.53l-2.87-1.8-7.88-4.95a2.2,2.2,0,0,1-.91-1C639.14,508.1,639.33,509,640.41,509.7Z"/><path class="cls-24" d="M536.16,557.24l7.94,5a7.4,7.4,0,0,0,6.24.23L564,556.23c1.29-.59,1.79-1.49,1.47-2.31a3.14,3.14,0,0,1-1.24.94l-13.67,6.23a7.35,7.35,0,0,1-6.23-.23l-7.94-5a2.16,2.16,0,0,1-.91-1C534.89,555.64,535.08,556.56,536.16,557.24Z"/><path class="cls-24" d="M732,519.31l-15.83,7.22a7.4,7.4,0,0,1-6.24-.23l-9.66-6.07a2.11,2.11,0,0,1-.91-1c-.59.79-.4,1.71.68,2.39l9.67,6.06a7.38,7.38,0,0,0,6.23.24l15.84-7.23c1.29-.59,1.79-1.48,1.47-2.31A3,3,0,0,1,732,519.31Z"/><path class="cls-24" d="M587.3,533.92l7.94,5a7.4,7.4,0,0,0,6.24.23l14.69-6.7c1.29-.59,1.79-1.49,1.47-2.31a3.07,3.07,0,0,1-1.24.94l-14.7,6.7a7.34,7.34,0,0,1-6.23-.23l-7.94-5a2.16,2.16,0,0,1-.91-1C586,532.32,586.22,533.25,587.3,533.92Z"/><path class="cls-24" d="M562.23,545.36l7.94,5a7.38,7.38,0,0,0,6.23.23l12.67-5.78c1.29-.58,1.79-1.48,1.47-2.3a3.07,3.07,0,0,1-1.24.94l-12.67,5.78a7.38,7.38,0,0,1-6.23-.23l-7.95-5a2.11,2.11,0,0,1-.91-1C561,543.76,561.15,544.68,562.23,545.36Z"/><path class="cls-24" d="M510.21,569.08,518,574a7.91,7.91,0,0,0,3.1,1.11,7.08,7.08,0,0,0,3.27-.77l13.57-6.19c1.3-.58,1.79-1.48,1.48-2.3a3.18,3.18,0,0,1-1.25.94l-13.57,6.19a7,7,0,0,1-3.28.76,7.83,7.83,0,0,1-3.09-1.1l-7.78-4.89a2.11,2.11,0,0,1-.91-1C508.94,567.48,509.13,568.4,510.21,569.08Z"/><path class="cls-24" d="M614.4,521.56l7.94,5a7.4,7.4,0,0,0,6.24.23l13.6-6.21c1.3-.59,1.8-1.48,1.48-2.3a3.18,3.18,0,0,1-1.25.94l-13.61,6.21a7.42,7.42,0,0,1-6.23-.23l-7.94-5a2.16,2.16,0,0,1-.91-1C613.13,520,613.32,520.89,614.4,521.56Z"/><path class="cls-24" d="M675.7,513.44l7.4,4.65a7.4,7.4,0,0,0,6.24.23L703,512.1c1.29-.59,1.79-1.49,1.47-2.31a3.11,3.11,0,0,1-1.25.94L689.57,517a7.4,7.4,0,0,1-6.24-.24l-7.41-4.65a2.16,2.16,0,0,1-.91-1C674.43,511.84,674.62,512.76,675.7,513.44Z"/><path class="cls-24" d="M734.6,556.25c-1.75.8-2,2.2-.53,3.12l1.68,1a7.55,7.55,0,0,0,6.37.23l10.66-4.86c1.58-.72,1.79-2,.47-2.81l-1.92-1.21a7.55,7.55,0,0,0-6.37-.24Z"/><path class="cls-24" d="M753,547.91c-1.41.64-1.6,1.77-.43,2.5l2,1.27a8,8,0,0,0,6.76.25l11.17-5.1c1.4-.64,1.59-1.76.42-2.5l-2-1.26a7.93,7.93,0,0,0-6.75-.25Z"/><path class="cls-24" d="M775.1,542.88a7.66,7.66,0,0,0,6.45.23l10.32-4.7c1.14-.52,1.29-1.43.35-2l-2.57-1.62a7.66,7.66,0,0,0-6.45-.24l-10.64,4.86c-1,.43-1.09,1.2-.29,1.71Z"/><path class="cls-23" d="M734.6,555.3c-1.75.8-2,2.2-.53,3.11l1.68,1.05a7.55,7.55,0,0,0,6.37.24l10.66-4.86c1.58-.72,1.79-2,.47-2.82l-1.92-1.21a7.55,7.55,0,0,0-6.37-.23Z"/><path class="cls-23" d="M561.57,623.9c-1.87.85-2.12,2.35-.56,3.33l12.14,7.62a7.38,7.38,0,0,0,6.23.23l100.35-45.76c1.87-.85,2.12-2.35.56-3.33l-12.13-7.62a7.4,7.4,0,0,0-6.24-.23Z"/><path class="cls-23" d="M702.7,559.54c-1.87.86-2.12,2.36-.56,3.33l12.14,7.62a7.34,7.34,0,0,0,6.23.23l12.08-5.51c1.87-.85,2.13-2.35.57-3.33L721,554.26a7.38,7.38,0,0,0-6.23-.23Z"/><path class="cls-23" d="M533.81,636.56c-1.87.85-2.12,2.35-.56,3.33l12.13,7.62a7.4,7.4,0,0,0,6.24.23l15.36-7c1.87-.85,2.12-2.35.56-3.33l-12.14-7.62a7.38,7.38,0,0,0-6.23-.23Z"/><path class="cls-23" d="M674.33,572.5c-1.87.84-2.13,2.34-.57,3.31l12.14,7.62a7.34,7.34,0,0,0,6.23.23l16-7.28c1.87-.85,2.12-2.35.56-3.33l-12-7.56a7.4,7.4,0,0,0-6.24-.24Z"/><path class="cls-23" d="M467.67,648a7.22,7.22,0,0,0-6.21-.28l-25.4,11.58c-1.87.86-2.12,2.35-.56,3.33l9.77,6.14a7.4,7.4,0,0,0,6.24.23l25-11.42c1.87-.85,2.13-2.36.58-3.35Z"/><path class="cls-23" d="M508.14,648.27c-1.87.85-2.13,2.35-.57,3.33l12.14,7.62a7.38,7.38,0,0,0,6.23.23l13.27-6.05c1.87-.85,2.13-2.35.57-3.33l-12.14-7.62a7.38,7.38,0,0,0-6.23-.23Z"/><path class="cls-23" d="M484.15,659.21c-1.87.85-2.12,2.35-.56,3.33l12.13,7.62a7.4,7.4,0,0,0,6.24.23l11.58-5.28c1.87-.86,2.12-2.35.56-3.33L502,654.16a7.37,7.37,0,0,0-6.24-.23Z"/><path class="cls-23" d="M456.18,672c-1.87.85-2.12,2.35-.56,3.33l12.14,7.62a7.38,7.38,0,0,0,6.23.23l15.56-7.1c1.87-.85,2.12-2.35.56-3.33L478,665.09a7.44,7.44,0,0,0-6.24-.23Z"/><path class="cls-23" d="M615,537.82a6.07,6.07,0,0,0-3.84.72L598.3,544.4c-1.87.85-2.12,2.35-.56,3.33l6.8,4.27a13.76,13.76,0,0,0,3.1,1.35,6.63,6.63,0,0,0,3.6-.68l12.81-5.84c1.87-.85,2.12-2.35.56-3.33l-6.73-4.23C616.32,538.29,616.18,537.94,615,537.82Z"/><path class="cls-23" d="M753,547c-1.41.64-1.6,1.76-.43,2.5l2,1.27a8,8,0,0,0,6.76.25l11.17-5.1c1.4-.64,1.59-1.76.42-2.5l-2-1.27a8,8,0,0,0-6.75-.25Z"/><path class="cls-23" d="M572.23,556.28c-1.86.86-2.12,2.35-.56,3.33l7.33,4.6a7.14,7.14,0,0,0,3,1.06,7.43,7.43,0,0,0,3.27-.77L599,558.27c1.87-.86,2.13-2.35.57-3.33l-7.41-4.66a7.42,7.42,0,0,0-6.23-.23Z"/><path class="cls-23" d="M563.21,561.1a7.62,7.62,0,0,0-3.34.82l-13.59,6.2c-1.87.85-2.12,2.35-.56,3.33l7.41,4.65a7.38,7.38,0,0,0,6.23.23l13.55-6.18c1.87-.85,2.12-2.35.56-3.33l-7.15-4.49A9.78,9.78,0,0,0,563.21,561.1Z"/><path class="cls-23" d="M677.16,522.61c1.87-.85,2.12-2.35.56-3.33l-7.4-4.65a7.4,7.4,0,0,0-6.24-.23l-13.61,6.21c-1.87.85-2.12,2.35-.56,3.33l7.41,4.65a7.38,7.38,0,0,0,6.23.23Z"/><path class="cls-23" d="M642.16,525.53a5.74,5.74,0,0,0-3.87.63L623.37,533c-1.87.86-2.12,2.35-.56,3.33l7.39,4.64a6.06,6.06,0,0,0,3.2.88,5.6,5.6,0,0,0,3.05-.63l14.7-6.71c1.87-.85,2.12-2.35.56-3.33L645.12,527A10.62,10.62,0,0,0,642.16,525.53Z"/><path class="cls-23" d="M775.1,541.78a7.66,7.66,0,0,0,6.45.24l10.32-4.71c1.14-.51,1.29-1.42.35-2l-2.57-1.61a7.66,7.66,0,0,0-6.45-.24l-10.64,4.85c-1,.44-1.09,1.21-.29,1.71Z"/><path class="cls-23" d="M673.42,529.39c-1.87.85-2.12,2.35-.56,3.33l9.66,6.07a7.4,7.4,0,0,0,6.24.23l15-6.83c1.87-.85,2.13-2.35.57-3.33l-9.67-6.07a7.38,7.38,0,0,0-6.23-.23Z"/><path class="cls-23" d="M556.9,538.38c1.87-.86,2.13-2.36.57-3.33l-3.35-2.1a7.34,7.34,0,0,0-6.23-.23l-16.77,7.64c-1.87.86-2.13,2.35-.57,3.33l3.35,2.1a7.34,7.34,0,0,0,6.23.23Z"/><path class="cls-23" d="M639.9,500.53c1.87-.85,2.12-2.35.56-3.33l-3.35-2.1a7.38,7.38,0,0,0-6.23-.23l-17.12,7.81c-1.87.85-2.12,2.35-.56,3.33l3.34,2.1a7.4,7.4,0,0,0,6.24.23Z"/><path class="cls-23" d="M693.67,476c1.87-.85,2.12-2.35.56-3.33l-3.35-2.1a7.38,7.38,0,0,0-6.23-.23l-15.55,7.09c-1.87.85-2.12,2.35-.56,3.33l3.34,2.1a7.4,7.4,0,0,0,6.24.23Z"/><path class="cls-23" d="M665.71,488.76c1.87-.85,2.13-2.35.57-3.33l-3.35-2.1a7.34,7.34,0,0,0-6.23-.23l-13.42,6.11c-1.86.86-2.12,2.35-.56,3.33l3.35,2.1a7.34,7.34,0,0,0,6.23.23Z"/><path class="cls-23" d="M610.37,514c1.87-.85,2.12-2.35.56-3.33l-3.34-2.1a7.44,7.44,0,0,0-6.24-.23L586.84,515c-1.87.85-2.12,2.35-.56,3.33l3.34,2.1a7.4,7.4,0,0,0,6.24.23Z"/><path class="cls-23" d="M583.45,526.27c1.87-.85,2.13-2.35.57-3.33l-3.35-2.1a7.38,7.38,0,0,0-6.23-.23l-14.15,6.45c-1.87.85-2.12,2.35-.56,3.33l3.34,2.1a7.4,7.4,0,0,0,6.24.23Z"/><path class="cls-23" d="M716.75,544.71a7.72,7.72,0,0,0,3.22,1,5.8,5.8,0,0,0,3.24-.63l46.65-21.27c1.87-.85,2.12-2.35.56-3.33l-9.77-6.14a7.4,7.4,0,0,0-6.24-.23L707.8,535.41c-1.87.85-2.12,2.35-.56,3.33Z"/><path class="cls-23" d="M468,639.67c1.87-.86,2.13-2.36.57-3.34L459,630.25a7.34,7.34,0,0,0-6.23-.24L416,646.76c-1.87.85-2.12,2.35-.56,3.33l9.69,6.08a5.06,5.06,0,0,0,2.87.92,9.55,9.55,0,0,0,3.59-.82Z"/><path class="cls-23" d="M674.2,501.58a7.14,7.14,0,0,0,6.19.31L712,487.5c1.87-.86,2.12-2.36.56-3.33l-7.94-5a7.38,7.38,0,0,0-6.23-.23l-31.09,14.18c-1.87.85-2.15,2.38-.61,3.41Z"/><path class="cls-23" d="M709,504.58a6.32,6.32,0,0,0,3.06,1.28c1.22.21,3.94-.94,3.94-.94,1.87-.85,3-1.74,4.21-1.91s2.8.88,4.35,1.86l13.62,8.55a7.37,7.37,0,0,0,6.24.23l5.35-2.44c1.87-.85,2.12-2.35.56-3.33l-27.42-17.22a7.42,7.42,0,0,0-6.23-.23l-14.1,6.43c-1.87.86-2.12,2.35-.56,3.33Z"/><path class="cls-23" d="M420.19,600.72c1.87-.85,2.12-2.35.56-3.33l-3.34-2.1a7.4,7.4,0,0,0-6.24-.23l-14.51,6.62c-1.87.85-2.12,2.35-.56,3.33l3.34,2.1a7.4,7.4,0,0,0,6.24.23Z"/><path class="cls-23" d="M400.45,617.87a7.35,7.35,0,0,0-6.23-.23L380,624.12c-1.87.85-2.12,2.35-.56,3.33l7.94,5a7.4,7.4,0,0,0,6.24.23l14.22-6.49c1.87-.85,2.12-2.35.56-3.33Z"/><path class="cls-23" d="M447.1,588.45c1.87-.86,2.13-2.35.57-3.33l-3.35-2.1a7.34,7.34,0,0,0-6.23-.23l-14.51,6.61c-1.87.86-2.13,2.35-.57,3.33l3.35,2.1a7.34,7.34,0,0,0,6.23.23Z"/><path class="cls-23" d="M520.19,580c-1.87.85-2.12,2.35-.56,3.33L527,588a7.4,7.4,0,0,0,6.24.23L547,582c1.87-.86,2.12-2.35.56-3.33L540.11,574a7.42,7.42,0,0,0-6.23-.23Z"/><path class="cls-23" d="M435.53,621.7a7.37,7.37,0,0,0-6.24-.23l-31,14.14c-1.86.85-2.12,2.35-.56,3.33l7.41,4.65a7.38,7.38,0,0,0,6.23.23l31-14.14c1.87-.85,2.13-2.35.57-3.33Z"/><path class="cls-23" d="M527.73,551.68c1.87-.85,2.12-2.35.56-3.33l-3.34-2.1a7.4,7.4,0,0,0-6.24-.23l-14.39,6.56c-1.86.85-2.12,2.35-.56,3.33l3.35,2.1a7.38,7.38,0,0,0,6.23.23Z"/><path class="cls-23" d="M474,576.17c1.87-.85,2.12-2.35.56-3.33l-3.34-2.1a7.4,7.4,0,0,0-6.24-.23l-14.51,6.62c-1.87.85-2.12,2.35-.56,3.33l3.34,2.1a7.4,7.4,0,0,0,6.24.23Z"/><path class="cls-23" d="M500.94,563.9c1.87-.85,2.12-2.35.56-3.33l-3.35-2.1a7.34,7.34,0,0,0-6.23-.23l-14.51,6.61c-1.87.86-2.12,2.36-.56,3.34l3.34,2.09a7.4,7.4,0,0,0,6.24.24Z"/><path class="cls-23" d="M395.07,611.39s.28-.78-1.28-1.76l-3.3-2.07a7.42,7.42,0,0,0-6.23-.23l-18,8.19c-1.87.86-2.13,2.35-.57,3.33l3.35,2.1a7.34,7.34,0,0,0,6.23.23l17.83-8.12C395,612.2,395.05,611.41,395.07,611.39Z"/><path class="cls-23" d="M490.43,635.23a8.06,8.06,0,0,0-3.43.86l-13.49,6.15c-1.87.86-2.12,2.36-.56,3.33l9.77,6.14a7.4,7.4,0,0,0,6.24.23l13.44-6.13c1.87-.85,2.12-2.35.56-3.33l-9.4-5.9A12.94,12.94,0,0,0,490.43,635.23Z"/><path class="cls-23" d="M494,627.85c1.87-.85,2.12-2.35.56-3.33l-9.66-6.07a7.4,7.4,0,0,0-6.24-.23l-13.51,6.16c-1.87.85-2.12,2.35-.56,3.33l9.66,6.07a7.4,7.4,0,0,0,6.24.23Z"/><path class="cls-23" d="M462.36,610a13,13,0,0,0-3.08-1.34,7,7,0,0,0-3.58.73l-13.8,6.3c-1.87.85-2.12,2.35-.56,3.33l7.41,4.65a7.38,7.38,0,0,0,6.23.23l13.69-6.24c1.87-.86,2.13-2.36.57-3.34Z"/><path class="cls-23" d="M499.35,630.46c-1.87.85-2.12,2.35-.56,3.33l9.74,6.12a6.77,6.77,0,0,0,2.64,1.07,9.33,9.33,0,0,0,3.63-.82l13.69-6.25c1.87-.85,2.12-2.35.56-3.33l-9.77-6.13a7.37,7.37,0,0,0-6.24-.23Z"/><path class="cls-23" d="M423.61,604.93a7.22,7.22,0,0,0-3.26.79L406.62,612c-1.87.85-2.12,2.35-.56,3.33l7.94,5a7.42,7.42,0,0,0,6.23.23l13.69-6.25c1.87-.85,2.13-2.35.57-3.33l-7.71-4.83A9.22,9.22,0,0,0,423.61,604.93Z"/><path class="cls-23" d="M486.11,590.48c1.87-.85,2.13-2.35.57-3.33l-7.94-5a7.37,7.37,0,0,0-6.24-.23l-13.69,6.24c-1.87.85-2.14,2.38-.6,3.39l7.67,5a7.2,7.2,0,0,0,6.2.29Z"/><path class="cls-23" d="M443.12,609.46a8,8,0,0,0,3.2-.83l13.7-6.25c1.87-.85,2.12-2.35.56-3.33l-7.94-5a7.34,7.34,0,0,0-6.23-.23l-13.69,6.24c-1.87.85-2.13,2.35-.57,3.33l7.91,5A7.28,7.28,0,0,0,443.12,609.46Z"/><path class="cls-23" d="M525.45,618.56c-1.87.85-2.12,2.35-.56,3.33l9.77,6.14a7.4,7.4,0,0,0,6.24.23L554.59,622c1.87-.86,2.12-2.36.56-3.34l-9.78-6.13a7.34,7.34,0,0,0-6.23-.23Z"/><path class="cls-23" d="M655.73,559.15c-1.87.85-2.12,2.35-.56,3.33l9.78,6.14a7.38,7.38,0,0,0,6.23.23l13.61-6.21c1.87-.85,2.12-2.35.56-3.33l-9.77-6.14a7.4,7.4,0,0,0-6.24-.23Z"/><path class="cls-23" d="M681.75,547.29c-1.87.85-2.13,2.35-.57,3.33l9.78,6.13a7.34,7.34,0,0,0,6.23.23l13.65-6.22c1.87-.85,2.12-2.35.56-3.33l-9.77-6.14a7.4,7.4,0,0,0-6.24-.23Z"/><path class="cls-23" d="M745.86,540.86c-2,.91-2.27,2.52-.6,3.56l2.86,1.8a5.92,5.92,0,0,0,5,.18l11.25-5.13c1.89-.86,2.14-2.37.57-3.36l-3.9-2.45a3.67,3.67,0,0,0-3.08-.11Z"/><path class="cls-23" d="M495.28,585.61a7.67,7.67,0,0,0,3.24-.78l13.69-6.25c1.87-.85,2.12-2.35.56-3.33l-7.94-5a7.35,7.35,0,0,0-6.23-.23l-13.69,6.24c-1.87.85-2.13,2.35-.57,3.33l7.94,5A6.56,6.56,0,0,0,495.28,585.61Z"/><path class="cls-23" d="M551.54,606.66c-1.87.85-2.12,2.35-.56,3.33l9.78,6.14a7.38,7.38,0,0,0,6.23.23l13.55-6.18c1.87-.85,2.12-2.35.56-3.33l-9.78-6.14a7.38,7.38,0,0,0-6.23-.23Z"/><path class="cls-23" d="M577.49,594.83c-1.86.85-2.12,2.35-.56,3.33l9.78,6.13a7.34,7.34,0,0,0,6.23.23l13.66-6.22c1.87-.86,2.12-2.36.56-3.34l-9.77-6.13a7.37,7.37,0,0,0-6.24-.23Z"/><path class="cls-23" d="M619.42,576.37a7.23,7.23,0,0,0-3.18.79l-12.68,5.78c-1.87.85-2.12,2.35-.56,3.33l9.33,5.86a7.69,7.69,0,0,0,3.09,1.06,5.68,5.68,0,0,0,3.51-.52l12.75-5.81c1.86-.85,2.12-2.35.56-3.33l-9.69-6.08A7.5,7.5,0,0,0,619.42,576.37Z"/><path class="cls-23" d="M646.59,564.13a5.87,5.87,0,0,0-3.23.66l-14.73,6.72c-1.87.85-2.12,2.35-.56,3.33l9.78,6.13a7.34,7.34,0,0,0,6.23.23l14.7-6.7c1.87-.85,2.12-2.35.56-3.33l-9.54-6A7.72,7.72,0,0,0,646.59,564.13Z"/><path class="cls-23" d="M511.27,584.79a8.68,8.68,0,0,0-3.45.87l-13.73,6.26c-1.87.85-2.12,2.35-.56,3.33l7.21,4.52a5.1,5.1,0,0,0,2.93,1.08,5.45,5.45,0,0,0,3.47-.71l13.72-6.25c1.87-.86,2.13-2.35.57-3.33l-7.18-4.51A10.45,10.45,0,0,0,511.27,584.79Z"/><path class="cls-23" d="M580.88,587.38a5.49,5.49,0,0,0,3.48-.76l13.8-6.29c1.87-.85,2.13-2.35.57-3.33l-9.67-6.07a7.38,7.38,0,0,0-6.23-.23l-13.66,6.23c-1.87.85-2.12,2.35-.56,3.33l9,5.68C579.21,586.92,579.75,587.3,580.88,587.38Z"/><path class="cls-23" d="M623.24,568.89c1.87-.85,2.12-2.35.56-3.33l-9.66-6.06a7.37,7.37,0,0,0-6.24-.23L595.23,565c-1.87.86-2.12,2.35-.56,3.33l9.66,6.07a7.4,7.4,0,0,0,6.24.23Z"/><path class="cls-23" d="M676.35,544.67c1.87-.85,2.12-2.35.56-3.33l-9.66-6.06a7.34,7.34,0,0,0-6.23-.23l-13.61,6.2c-1.87.85-2.12,2.35-.57,3.33l9.67,6.07a7.38,7.38,0,0,0,6.23.23Z"/><path class="cls-23" d="M572.1,592.22c1.87-.86,2.12-2.36.56-3.34L563,582.82a7.37,7.37,0,0,0-6.24-.23l-13.54,6.17c-1.87.86-2.12,2.35-.56,3.33l9.66,6.07a7.38,7.38,0,0,0,6.23.23Z"/><path class="cls-23" d="M650.32,556.45c1.88-.8,2.14-2.26.58-3.24l-9.66-6.07a7.4,7.4,0,0,0-6.24-.23l-14.69,6.7c-1.87.85-2.13,2.35-.57,3.33l9.11,5.72a7.57,7.57,0,0,0,6.25.31Z"/><path class="cls-23" d="M546.15,604.05c1.87-.85,2.12-2.35.56-3.33l-8.58-5.39c-1.56-1-2.17-1.52-3.22-1.68a5.43,5.43,0,0,0-3.72.6l-14.07,6.41c-1.87.86-2.12,2.35-.56,3.33l9.66,6.07a7.4,7.4,0,0,0,6.24.23Z"/><path class="cls-23" d="M468,603.82c-1.87.85-2.12,2.35-.56,3.33l7.4,4.65a7.4,7.4,0,0,0,6.24.23l13.69-6.24c1.87-.86,2.12-2.36.56-3.33l-7.41-4.66a7.38,7.38,0,0,0-6.23-.23Z"/><path class="cls-23" d="M502.62,622.93a6,6,0,0,0,3.55-.65L520.05,616c1.87-.85,2.13-2.35.57-3.33L511,606.55a7.38,7.38,0,0,0-6.23-.23L491,612.56c-1.87.86-2.12,2.35-.56,3.33l8.92,5.61A19,19,0,0,0,502.62,622.93Z"/><path class="cls-23" d="M651.39,515.09s1.55-.68,3.42-1.53l13.65-6.23c1.87-.85,2.13-2.35.57-3.33l-7.94-5a7.4,7.4,0,0,0-6.24-.23L641.2,505c-1.87.85-2.12,2.35-.56,3.33l7.88,4.95Z"/><path class="cls-23" d="M564.23,554.86c1.86-.85,2.12-2.35.56-3.33l-7.94-5a7.37,7.37,0,0,0-6.24-.23L537,552.55c-1.87.85-2.12,2.35-.56,3.33l7.94,5a7.35,7.35,0,0,0,6.23.23Z"/><path class="cls-23" d="M709.9,526.3a7.4,7.4,0,0,0,6.24.23L732,519.31c1.87-.85,2.13-2.35.57-3.33l-9.67-6.07a7.38,7.38,0,0,0-6.23-.23L700.8,516.9c-1.87.86-2.12,2.35-.56,3.33Z"/><path class="cls-23" d="M616.4,531.07c1.87-.85,2.12-2.35.56-3.33l-7.41-4.65a12.61,12.61,0,0,0-3.1-1.32,6.83,6.83,0,0,0-3.55.7l-14.81,6.76c-1.87.85-2.12,2.35-.56,3.33l7.94,5a7.34,7.34,0,0,0,6.23.23Z"/><path class="cls-23" d="M589.3,543.43c1.87-.85,2.12-2.35.56-3.33l-7.56-4.75a9.27,9.27,0,0,0-2.93-1.2,7.31,7.31,0,0,0-3.63.71L563,540.66c-1.87.85-2.13,2.35-.57,3.33l7.95,5a7.38,7.38,0,0,0,6.23.23Z"/><path class="cls-23" d="M521.31,573.7a7,7,0,0,0,3.28-.76l13.57-6.19c1.87-.85,2.12-2.35.56-3.33l-7.94-5a7.38,7.38,0,0,0-6.23-.23L511,564.38c-1.87.85-2.12,2.35-.56,3.33l7.78,4.89A7.83,7.83,0,0,0,521.31,573.7Z"/><path class="cls-23" d="M642.41,519.21c1.87-.85,2.12-2.35.56-3.33l-7.94-5a7.38,7.38,0,0,0-6.23-.23l-13.61,6.21c-1.87.85-2.12,2.35-.56,3.33l7.94,5a7.42,7.42,0,0,0,6.23.23Z"/><path class="cls-23" d="M703.21,510.73c1.87-.85,2.13-2.35.57-3.33l-7.41-4.65a7.4,7.4,0,0,0-6.24-.23l-13.64,6.22c-1.87.86-2.13,2.35-.57,3.33l7.41,4.65a7.4,7.4,0,0,0,6.24.24Z"/><g class="cls-25"><path class="cls-26" d="M472.67,669.12,467,671.68a.71.71,0,0,0-.19,1.17l2.08,1.3a.48.48,0,0,0,.45,0L475,671.6a.7.7,0,0,0,.19-1.16l-2.08-1.3A.45.45,0,0,0,472.67,669.12Z"/><path class="cls-26" d="M699.78,483.74l-5.62,2.57a.7.7,0,0,0-.2,1.16l2.08,1.3a.47.47,0,0,0,.46,0l5.62-2.56c.47-.22.59-.92.2-1.16l-2.08-1.31A.5.5,0,0,0,699.78,483.74Z"/><path class="cls-26" d="M717,496.07l-5.62,2.56c-.46.21-.58.92-.2,1.16l2.08,1.31a.47.47,0,0,0,.46,0l5.62-2.56c.47-.21.59-.92.2-1.16l-2.08-1.31A.47.47,0,0,0,717,496.07Z"/><path class="cls-26" d="M435.07,646.37l-5.63,2.57a.7.7,0,0,0-.19,1.16l2.08,1.3a.48.48,0,0,0,.45,0l5.63-2.57a.7.7,0,0,0,.19-1.16l-2.08-1.3A.45.45,0,0,0,435.07,646.37Z"/><path class="cls-26" d="M416.54,634.67l-5.63,2.56a.71.71,0,0,0-.19,1.17l2.08,1.3a.48.48,0,0,0,.45,0l5.63-2.57a.7.7,0,0,0,.19-1.16l-2.08-1.3A.45.45,0,0,0,416.54,634.67Z"/><path class="cls-26" d="M383.39,611.07l-5.62,2.57a.7.7,0,0,0-.2,1.16l2.08,1.3a.5.5,0,0,0,.46,0l5.62-2.57a.7.7,0,0,0,.2-1.16l-2.08-1.3A.5.5,0,0,0,383.39,611.07Z"/><path class="cls-26" d="M411.12,598.3l-5.62,2.57a.7.7,0,0,0-.2,1.16l2.08,1.3a.47.47,0,0,0,.46,0l5.62-2.56c.46-.22.58-.92.2-1.16l-2.08-1.31A.5.5,0,0,0,411.12,598.3Z"/><path class="cls-26" d="M438.85,585.53l-5.63,2.57c-.46.21-.58.92-.19,1.16l2.08,1.3a.45.45,0,0,0,.45,0l5.63-2.56c.46-.21.58-.92.19-1.16l-2.08-1.31A.48.48,0,0,0,438.85,585.53Z"/><path class="cls-26" d="M464.18,573.35l-5.63,2.57a.7.7,0,0,0-.19,1.16l2.08,1.3a.45.45,0,0,0,.45,0l5.63-2.56a.71.71,0,0,0,.19-1.17l-2.08-1.3A.48.48,0,0,0,464.18,573.35Z"/><path class="cls-26" d="M491.56,560.91l-5.62,2.56c-.47.21-.59.92-.2,1.16l2.08,1.31a.47.47,0,0,0,.46,0l5.62-2.56c.47-.21.59-.92.2-1.16L492,560.92A.47.47,0,0,0,491.56,560.91Z"/><path class="cls-26" d="M518.55,549.12l-5.62,2.56c-.47.21-.59.92-.2,1.16l2.08,1.31a.47.47,0,0,0,.46,0l5.62-2.56c.46-.21.58-.92.2-1.16L519,549.13A.47.47,0,0,0,518.55,549.12Z"/><path class="cls-26" d="M545.93,536.67l-5.62,2.57a.71.71,0,0,0-.2,1.16l2.09,1.3a.48.48,0,0,0,.45,0l5.63-2.57a.7.7,0,0,0,.19-1.16l-2.08-1.3A.5.5,0,0,0,545.93,536.67Z"/><path class="cls-26" d="M573.09,523.88l-5.62,2.57a.7.7,0,0,0-.2,1.16l2.08,1.3a.47.47,0,0,0,.46,0l5.62-2.56a.7.7,0,0,0,.2-1.16l-2.08-1.31A.5.5,0,0,0,573.09,523.88Z"/><path class="cls-26" d="M599.51,512.07l-5.63,2.57a.7.7,0,0,0-.19,1.16l2.08,1.3a.45.45,0,0,0,.45,0l5.63-2.56c.46-.21.58-.92.19-1.16L600,512.09A.48.48,0,0,0,599.51,512.07Z"/><path class="cls-26" d="M628.43,499l-5.62,2.57a.7.7,0,0,0-.2,1.16l2.08,1.3a.47.47,0,0,0,.46,0l5.62-2.57a.7.7,0,0,0,.2-1.16l-2.08-1.3A.5.5,0,0,0,628.43,499Z"/><path class="cls-26" d="M656.16,486.24l-5.62,2.57a.7.7,0,0,0-.2,1.16l2.08,1.3a.47.47,0,0,0,.46,0l5.62-2.56a.7.7,0,0,0,.2-1.16l-2.08-1.31A.5.5,0,0,0,656.16,486.24Z"/><path class="cls-26" d="M683.26,473.79l-5.62,2.56c-.47.21-.59.92-.2,1.16l2.08,1.31a.5.5,0,0,0,.46,0l5.62-2.57c.46-.21.58-.92.2-1.16l-2.08-1.31A.5.5,0,0,0,683.26,473.79Z"/><path class="cls-26" d="M455.9,658.49l-5.62,2.56c-.47.21-.59.92-.2,1.16l2.08,1.31a.47.47,0,0,0,.46,0l5.62-2.56c.46-.21.58-.92.2-1.16l-2.08-1.31A.47.47,0,0,0,455.9,658.49Z"/><path class="cls-27" d="M496.66,663.53c-.47.22-.54.6-.14.85l2.47,1.55a1.65,1.65,0,0,0,.67.27,2.16,2.16,0,0,0,.92-.2l3.48-1.59c.48-.22.54-.6.14-.84L501.72,662a1.85,1.85,0,0,0-1.58-.06Z"/><path class="cls-27" d="M522.17,652c-.48.21-.54.59-.15.84l2.48,1.56a1.59,1.59,0,0,0,.67.27,2.32,2.32,0,0,0,.92-.21l3.48-1.59c.47-.21.53-.59.14-.84l-2.48-1.56a1.91,1.91,0,0,0-1.59-.06Z"/><path class="cls-27" d="M548.12,639.53c-.47.22-.54.6-.14.85l2.47,1.55a1.65,1.65,0,0,0,.67.27,2.38,2.38,0,0,0,.92-.2l3.48-1.59c.48-.22.54-.6.14-.85L553.18,638a1.85,1.85,0,0,0-1.58-.06Z"/><path class="cls-27" d="M689.33,575.78c-.47.22-.54.6-.14.84l2.47,1.56a1.65,1.65,0,0,0,.67.27,2.29,2.29,0,0,0,.92-.21l3.48-1.58c.47-.22.54-.6.14-.85l-2.48-1.56a1.89,1.89,0,0,0-1.58-.06Z"/><path class="cls-27" d="M715.77,563.38c-.47.22-.54.6-.14.85l2.47,1.55a2,2,0,0,0,.67.28,2.48,2.48,0,0,0,.92-.21l3.48-1.59c.48-.22.54-.6.14-.84l-2.48-1.56a1.85,1.85,0,0,0-1.58-.06Z"/><path class="cls-27" d="M755.17,521.7c-.47.21-.54.6-.14.84l2.47,1.56a1.65,1.65,0,0,0,.67.27,2.26,2.26,0,0,0,.92-.21l3.48-1.58c.48-.22.54-.6.15-.85l-2.49-1.56a1.89,1.89,0,0,0-1.58-.06Z"/><path class="cls-27" d="M588.7,596c-.39.17-.44.48-.12.68l2,1.26a1.38,1.38,0,0,0,.55.23,2.09,2.09,0,0,0,.75-.17l2.82-1.29c.39-.18.44-.49.12-.69l-2-1.26a1.49,1.49,0,0,0-1.29,0Z"/><path class="cls-27" d="M484.75,643.32c-.39.18-.44.49-.12.69l2,1.26a1.44,1.44,0,0,0,.55.22,1.86,1.86,0,0,0,.75-.17l2.82-1.28c.39-.18.44-.49.12-.69l-2-1.27a1.56,1.56,0,0,0-1.29-.05Z"/><path class="cls-27" d="M510.88,631.5c-.39.18-.44.49-.12.69l2,1.26a1.44,1.44,0,0,0,.55.22,2,2,0,0,0,.75-.16l2.82-1.29c.39-.18.44-.49.12-.69l-2-1.27a1.52,1.52,0,0,0-1.29,0Z"/><path class="cls-27" d="M537,619.68c-.39.18-.44.49-.12.69l2,1.26a1.25,1.25,0,0,0,.55.22,1.75,1.75,0,0,0,.75-.16L543,620.4c.39-.18.44-.49.12-.69l-2-1.27a1.5,1.5,0,0,0-1.28,0Z"/><path class="cls-27" d="M563.14,607.87c-.38.17-.44.48-.12.68l2,1.26a1.61,1.61,0,0,0,.55.23,2.09,2.09,0,0,0,.75-.17l2.82-1.29c.39-.18.44-.49.12-.69l-2-1.27a1.5,1.5,0,0,0-1.28,0Z"/><path class="cls-27" d="M615.4,584.23c-.38.17-.44.48-.11.68l2,1.27a1.37,1.37,0,0,0,.54.22,2.09,2.09,0,0,0,.75-.17l2.82-1.29c.39-.18.44-.49.12-.69l-2-1.26a1.47,1.47,0,0,0-1.28,0Z"/><path class="cls-27" d="M641.53,572.41c-.38.17-.44.48-.11.68l2,1.27a1.37,1.37,0,0,0,.54.22,2.09,2.09,0,0,0,.75-.17l2.82-1.29c.39-.18.44-.49.12-.69l-2-1.26a1.47,1.47,0,0,0-1.28,0Z"/><path class="cls-27" d="M667.66,560.59c-.38.17-.43.48-.11.69l2,1.26a1.37,1.37,0,0,0,.54.22,1.86,1.86,0,0,0,.75-.17l2.83-1.29c.38-.18.43-.48.11-.69l-2-1.26a1.5,1.5,0,0,0-1.28-.05Z"/><path class="cls-27" d="M693.79,548.77c-.38.17-.43.48-.11.69l2,1.26a1.37,1.37,0,0,0,.54.22,1.86,1.86,0,0,0,.75-.17l2.83-1.29c.38-.17.43-.48.11-.69l-2-1.26a1.5,1.5,0,0,0-1.28,0Z"/><path class="cls-27" d="M581.08,578c-.39.17-.44.48-.12.68l2,1.26a1.2,1.2,0,0,0,.54.22,1.71,1.71,0,0,0,.75-.16l2.83-1.29c.38-.18.44-.49.11-.69l-2-1.27a1.53,1.53,0,0,0-1.29,0Z"/><path class="cls-27" d="M477.13,625.3c-.39.18-.44.49-.12.69l2,1.26a1.37,1.37,0,0,0,.54.22,1.81,1.81,0,0,0,.75-.17l2.83-1.28c.38-.18.43-.49.11-.69l-2-1.27a1.56,1.56,0,0,0-1.29,0Z"/><path class="cls-27" d="M503.26,613.48c-.39.18-.44.49-.12.69l2,1.26a1.37,1.37,0,0,0,.54.22,1.81,1.81,0,0,0,.75-.17l2.83-1.28c.38-.18.44-.49.11-.69l-2-1.27a1.52,1.52,0,0,0-1.29,0Z"/><path class="cls-27" d="M529.39,601.66c-.39.18-.44.49-.12.69l2,1.26a1.17,1.17,0,0,0,.55.22,1.69,1.69,0,0,0,.74-.16l2.83-1.29c.38-.18.44-.49.11-.69l-2-1.27a1.52,1.52,0,0,0-1.29,0Z"/><path class="cls-27" d="M555.52,589.84c-.39.18-.44.49-.12.69l2,1.26a1.17,1.17,0,0,0,.55.22,1.69,1.69,0,0,0,.74-.16l2.83-1.29c.38-.18.44-.49.11-.69l-2-1.27a1.52,1.52,0,0,0-1.29,0Z"/><path class="cls-27" d="M607.78,566.21c-.39.17-.44.48-.12.68l2,1.27a1.38,1.38,0,0,0,.55.22,2,2,0,0,0,.74-.17l2.83-1.29c.39-.18.44-.49.12-.69l-2-1.26a1.49,1.49,0,0,0-1.29-.05Z"/><path class="cls-27" d="M633.91,554.39c-.39.17-.44.48-.12.68l2,1.27a1.38,1.38,0,0,0,.55.22,2,2,0,0,0,.74-.17l2.83-1.29c.39-.18.44-.49.12-.69l-2-1.26a1.49,1.49,0,0,0-1.29,0Z"/><path class="cls-27" d="M660,542.57c-.39.17-.44.48-.12.68l2,1.27a1.38,1.38,0,0,0,.55.22,2.09,2.09,0,0,0,.75-.17l2.82-1.29c.39-.18.44-.48.12-.69l-2-1.26a1.49,1.49,0,0,0-1.29-.05Z"/><path class="cls-27" d="M686.17,530.75c-.39.17-.44.48-.12.69l2,1.26a1.44,1.44,0,0,0,.55.22,1.86,1.86,0,0,0,.75-.17l2.82-1.29c.39-.17.44-.48.12-.69l-2-1.26a1.52,1.52,0,0,0-1.29,0Z"/><path class="cls-27" d="M714.18,518c-.38.18-.44.48-.11.69l2,1.26a1.37,1.37,0,0,0,.54.22,1.86,1.86,0,0,0,.75-.17l2.82-1.29c.39-.17.44-.48.12-.68l-2-1.27a1.54,1.54,0,0,0-1.28,0Z"/><path class="cls-27" d="M556.74,568.78c-.39.18-.44.49-.12.69l2,1.26a1.44,1.44,0,0,0,.55.22,1.86,1.86,0,0,0,.75-.17l2.82-1.28c.39-.18.44-.49.12-.69l-2-1.27a1.54,1.54,0,0,0-1.28,0Z"/><path class="cls-27" d="M452.79,616.08c-.39.18-.44.48-.12.69l2,1.26a1.44,1.44,0,0,0,.55.22,1.86,1.86,0,0,0,.75-.17l2.82-1.29c.39-.17.44-.48.12-.68l-2-1.27a1.56,1.56,0,0,0-1.29-.05Z"/><path class="cls-27" d="M478.92,604.26c-.39.18-.44.49-.12.69l2,1.26a1.44,1.44,0,0,0,.55.22,1.86,1.86,0,0,0,.75-.17l2.82-1.29c.39-.17.44-.48.12-.68L483,603a1.54,1.54,0,0,0-1.28,0Z"/><path class="cls-27" d="M505.05,592.44c-.38.18-.44.49-.12.69l2,1.26a1.44,1.44,0,0,0,.55.22,1.86,1.86,0,0,0,.75-.17l2.82-1.29c.39-.17.44-.48.12-.68l-2-1.27a1.54,1.54,0,0,0-1.28-.05Z"/><path class="cls-27" d="M531.18,580.62c-.38.18-.44.49-.11.69l2,1.26a1.37,1.37,0,0,0,.54.22,1.86,1.86,0,0,0,.75-.17l2.82-1.29c.39-.17.44-.48.12-.68l-2-1.27a1.54,1.54,0,0,0-1.28,0Z"/><path class="cls-27" d="M583.44,557c-.38.18-.44.49-.11.69l2,1.26a1.37,1.37,0,0,0,.54.22,1.86,1.86,0,0,0,.75-.17l2.82-1.28c.39-.18.44-.49.12-.69l-2-1.27a1.5,1.5,0,0,0-1.28,0Z"/><path class="cls-27" d="M609.57,545.16c-.38.18-.43.49-.11.69l2,1.26a1.2,1.2,0,0,0,.54.22,1.75,1.75,0,0,0,.75-.16l2.82-1.29c.39-.18.44-.49.12-.69l-2-1.27a1.5,1.5,0,0,0-1.28,0Z"/><path class="cls-27" d="M635.7,533.34c-.38.18-.43.49-.11.69l2,1.26a1.53,1.53,0,0,0,.54.23,2.09,2.09,0,0,0,.75-.17l2.83-1.29c.38-.18.43-.49.11-.69l-2-1.27a1.5,1.5,0,0,0-1.28,0Z"/><path class="cls-27" d="M661.83,521.53c-.38.17-.43.48-.11.68l2,1.26a1.53,1.53,0,0,0,.54.23,2.09,2.09,0,0,0,.75-.17l2.83-1.29c.38-.18.43-.49.11-.69l-2-1.27a1.53,1.53,0,0,0-1.29,0Z"/><path class="cls-27" d="M686.94,509.3c-.38.17-.43.48-.11.68l2,1.27a1.37,1.37,0,0,0,.54.22,2.09,2.09,0,0,0,.75-.17L693,510c.38-.18.43-.49.11-.69l-2-1.26a1.47,1.47,0,0,0-1.28-.05Z"/><path class="cls-27" d="M494.92,577.35c-.38.17-.43.48-.11.69l2,1.26a1.37,1.37,0,0,0,.54.22,1.86,1.86,0,0,0,.75-.17l2.83-1.29c.38-.17.43-.48.11-.69l-2-1.26a1.53,1.53,0,0,0-1.29-.05Z"/><path class="cls-27" d="M391,624.65c-.38.17-.43.48-.11.68l2,1.26a1.53,1.53,0,0,0,.54.23,2.09,2.09,0,0,0,.75-.17l2.83-1.29c.38-.18.43-.49.11-.69l-2-1.26a1.47,1.47,0,0,0-1.28,0Z"/><path class="cls-27" d="M417.1,612.83c-.38.17-.43.48-.11.68l2,1.27a1.37,1.37,0,0,0,.54.22,2.09,2.09,0,0,0,.75-.17l2.83-1.29c.38-.18.43-.49.11-.69l-2-1.26a1.49,1.49,0,0,0-1.29-.05Z"/><path class="cls-27" d="M443.23,601c-.38.17-.43.48-.11.68l2,1.27a1.37,1.37,0,0,0,.54.22,2,2,0,0,0,.75-.17l2.83-1.29c.38-.18.43-.49.11-.69l-2-1.26a1.49,1.49,0,0,0-1.29,0Z"/><path class="cls-27" d="M469.37,589.19c-.39.17-.44.48-.12.68l2,1.27a1.37,1.37,0,0,0,.54.22,1.81,1.81,0,0,0,.75-.17l2.83-1.29c.38-.18.44-.48.11-.69l-2-1.26a1.52,1.52,0,0,0-1.29-.05Z"/><path class="cls-27" d="M521.63,565.55c-.39.18-.44.48-.12.69l2,1.26a1.33,1.33,0,0,0,.55.22,1.8,1.8,0,0,0,.74-.17l2.83-1.29c.38-.17.44-.48.11-.69l-2-1.26a1.56,1.56,0,0,0-1.29,0Z"/><path class="cls-27" d="M547.76,553.73c-.39.18-.44.49-.12.69l2,1.26a1.33,1.33,0,0,0,.55.22,1.8,1.8,0,0,0,.74-.17l2.83-1.29c.38-.17.44-.48.11-.68l-2-1.27a1.56,1.56,0,0,0-1.29,0Z"/><path class="cls-27" d="M573.89,541.91c-.39.18-.44.49-.12.69l2,1.26a1.38,1.38,0,0,0,.55.22,1.8,1.8,0,0,0,.74-.17l2.83-1.29c.39-.17.44-.48.12-.68l-2-1.27a1.56,1.56,0,0,0-1.29,0Z"/><path class="cls-27" d="M600,530.09c-.39.18-.44.49-.12.69l2,1.26a1.38,1.38,0,0,0,.55.22,1.8,1.8,0,0,0,.74-.17L606,530.8c.39-.17.44-.48.12-.68l-2-1.27a1.56,1.56,0,0,0-1.29-.05Z"/><path class="cls-27" d="M625.13,517.86c-.39.18-.44.49-.12.69l2,1.26a1.38,1.38,0,0,0,.55.22,1.8,1.8,0,0,0,.74-.17l2.83-1.28c.38-.18.44-.49.12-.69l-2-1.27a1.56,1.56,0,0,0-1.29,0Z"/><path class="cls-27" d="M651.6,505.72c-.39.18-.44.49-.12.69l2,1.26a1.44,1.44,0,0,0,.55.22,1.86,1.86,0,0,0,.75-.17l2.82-1.29c.39-.17.44-.48.12-.68l-2-1.27a1.56,1.56,0,0,0-1.29-.05Z"/><path class="cls-27" d="M754.93,539.68l2.05,1c.19.09.14.42-.07.51l-2,.89a.2.2,0,0,1-.29-.2l-.06-1.88C754.56,539.78,754.77,539.6,754.93,539.68Z"/><path class="cls-27" d="M760.84,545.94l1.69-.94a.19.19,0,0,1,.29.13l.38,1.7c0,.21-.15.42-.32.36l-2.07-.77C760.62,546.35,760.64,546,760.84,545.94Z"/><path class="cls-27" d="M743.14,554.46a.42.42,0,0,1,.62-.06l.86.76c.19.17.14.35-.11.4l-2.16.46c-.25.05-.33-.07-.18-.28Z"/><path class="cls-27" d="M780.93,537.32c-.25,0-.3.21-.11.38l.86.75a.47.47,0,0,0,.66,0l1.09-1.2c.17-.19.1-.31-.15-.27Z"/></g><ellipse class="cls-28" cx="348.37" cy="626.92" rx="10.43" ry="12.19" transform="translate(-322.08 372.19) rotate(-40.14)"/><g class="cls-29"><path class="cls-30" d="M346.63,615.43c-6.1,0-10.28,5.16-9.32,11.51A14,14,0,0,0,345,637.2c2-6.58,4.35-14.55,6.23-20.82A11.54,11.54,0,0,0,346.63,615.43Z"/></g></g></g></svg>