<svg xmlns="http://www.w3.org/2000/svg" viewBox="0 0 148.72 179.52"><defs><style>.cls-1{fill:#dda29b;}.cls-2{fill:#c4857b;}.cls-3{fill:#cd8551;}.cls-4{fill:#dc9a61;}.cls-11,.cls-5,.cls-6{fill:none;}.cls-11,.cls-12,.cls-5,.cls-6{stroke:#755d67;stroke-miterlimit:10;}.cls-5{stroke-width:1.83px;}.cls-7{fill:#c7554f;}.cls-8{fill:#cb655d;}.cls-9{fill:#fff;}.cls-10{fill:#352b38;}.cls-11,.cls-12{stroke-width:1.43px;}.cls-12{fill:#a5c1d3;}</style></defs><title>Recurso 7</title><g id="Capa_2" data-name="Capa 2"><g id="Capa_1-2" data-name="Capa 1"><path class="cls-1" d="M95.09,120.92c-8.48-4.63-6.17-27-6.17-27l-12.7.82v-.81l-1.36.41-1.36-.41v.81l-12.7-.82s2.31,22.37-6.17,27S-4,127.86,1.42,179.52H148.29C153.69,127.86,103.57,125.54,95.09,120.92Z"/><path class="cls-2" d="M59,115.15q15.23-2.28,30.42-4.68a68.07,68.07,0,0,1-.51-16.55l-12.7.82v-.81l-1.36.41-1.36-.41v.81l-12.7-.82S62.13,106.92,59,115.15Z"/><path class="cls-3" d="M97.73,120.52c-4.24-2.31-5.8-9-6.3-15.18-3.72,1.41-11.18,2.23-16,2.23-5.75,0-13-1.18-17.12-3.15-.42,6.41-1.92,13.67-6.36,16.1-8.54,4.66-57,7-51.57,59H148.29C153.73,127.51,106.27,125.18,97.73,120.52Z"/><path class="cls-4" d="M74.79,132.57c11.66,0,22.12-3.88,29.26-10a32.6,32.6,0,0,1-5.89-2c-4.24-2.31-5.8-9-6.3-15.18-3.73,1.41-11.18,2.23-16,2.23-5.75,0-13-1.18-17.12-3.15-.42,6.41-1.92,13.67-6.36,16.1a38.19,38.19,0,0,1-6.67,2.24C52.89,128.78,63.25,132.57,74.79,132.57Z"/><polyline class="cls-5" points="20.72 173.36 28.97 165.57 36.76 173.36"/><polyline class="cls-5" points="113.52 173.05 122.93 165.57 130.72 173.36"/><polyline class="cls-5" points="98 173.1 106.88 165.57 114.68 173.36"/><polyline class="cls-5" points="83.05 173.36 91.3 165.57 99.09 173.36"/><polyline class="cls-5" points="66.68 173.2 75.72 165.57 84.15 173.15"/><polyline class="cls-5" points="51.88 173.36 60.13 165.57 67.93 173.36"/><polyline class="cls-5" points="35.65 173.2 44.55 165.57 52.88 173.05"/><polyline class="cls-6" points="20.72 165.69 28.97 157.9 36.76 165.69"/><polyline class="cls-6" points="113.52 165.39 122.93 157.9 130.72 165.69"/><polyline class="cls-6" points="98 165.44 106.88 157.9 114.68 165.69"/><polyline class="cls-6" points="83.05 165.69 91.3 157.9 99.09 165.69"/><polyline class="cls-6" points="66.68 165.53 75.72 157.9 84.15 165.48"/><polyline class="cls-6" points="51.88 165.69 60.13 157.9 67.93 165.69"/><polyline class="cls-6" points="35.65 165.53 44.55 157.9 52.88 165.39"/><path class="cls-4" d="M23.22,160.82A105.17,105.17,0,0,0,19.81,133c-12,7.79-22,21.33-19.39,46.53H21.8A118.89,118.89,0,0,0,23.22,160.82Z"/><path class="cls-4" d="M128.74,132.58a104.85,104.85,0,0,0-3.52,28.24,118.89,118.89,0,0,0,1.42,18.7h21.65C151,153.86,140.78,140.3,128.74,132.58Z"/><path class="cls-2" d="M50,61.19c-2.5-7.75-8.42-6-9-5.77s-6.7,1-5.64,9S41.19,77,45.61,75.71C50.16,75,52.53,69,50,61.19Z"/><path class="cls-2" d="M99.92,61.19c2.5-7.75,8.42-6,9-5.77s6.7,1,5.64,9S108.76,77,104.34,75.71C99.79,75,97.41,69,99.92,61.19Z"/><path class="cls-1" d="M44,49.44c3.09-34,28.94-32.08,31.37-31.83,2.44-.25,28.28-2.16,31.38,31.83,3.11,34.2-12.12,56.53-31.38,55.3C56.07,106,40.84,83.64,44,49.44Z"/><path class="cls-7" d="M42.72,25.57s-7,4.5-2,20l3,17.5,2.5.5s-1-26.5,7.5-32.5S42.72,25.57,42.72,25.57Z"/><path class="cls-8" d="M96.22,28.07s-33.5,19.5-51.5,4,1-23.5,8.5-22.5c0,0-2.5-8.5,7.5-9.5s8,9,23,9,22.5,1,21,13.5c0,0,7.5-4.5,10,4s-7,36.5-7,36.5l-1,4.5h-2.5v-24S94.72,46.57,96.22,28.07Z"/><path class="cls-7" d="M114.72,26.57c-2.5-8.5-10-4-10-4,.86-7.2-1.26-10.58-6.08-12.15a47.05,47.05,0,0,1-7.48,20.24c3.14-1.48,5.06-2.59,5.06-2.59-1.5,18.5,8,15.5,8,15.5v24h2.5l1-4.5S117.22,35.07,114.72,26.57Z"/><path class="cls-2" d="M79.79,53.43c.43,1.56.76,3.13,1.06,4.7s.54,3.16.77,4.74c.12.79.2,1.59.3,2.38s.18,1.59.26,2.38c.17,1.59.28,3.19.38,4.78l0,.43-.31.19c-1,.63-2,1.24-3.09,1.83S77.08,76,76,76.54c.87-.84,1.8-1.6,2.71-2.37s1.87-1.51,2.82-2.23l-.28.62c-.26-1.58-.49-3.16-.68-4.75-.1-.79-.2-1.58-.27-2.38s-.16-1.59-.22-2.39c-.13-1.59-.23-3.19-.29-4.79S79.71,55.05,79.79,53.43Z"/><path class="cls-9" d="M88.51,82.64c-6.16,6-16.58,5.65-24.47.32"/><path class="cls-10" d="M99.7,50.91,99,50.5l-.82-.45-1-.56c-.4-.17-.8-.4-1.24-.57l-.66-.29-.7-.26c-.46-.2-1-.28-1.44-.45a10.57,10.57,0,0,0-1.48-.22l-.73-.06c-.25,0-.49,0-.73,0a8.69,8.69,0,0,0-1.43.23,12.25,12.25,0,0,0-1.34.42l-.33.1-.3.15-.59.28a8.56,8.56,0,0,0-1.05.52c-.29.18-.58.33-.81.46-.47.25-.77.38-.77.38s.12-.28.39-.76c.13-.23.29-.53.5-.85a4.81,4.81,0,0,1,.82-1,6.52,6.52,0,0,1,1.14-1.06,9.27,9.27,0,0,1,1.55-.9c.29-.12.6-.23.91-.34a3.12,3.12,0,0,1,1-.22c.34-.05.67-.1,1-.13s.68,0,1,0a9.79,9.79,0,0,1,2,.4c.31.12.6.25.9.38a5,5,0,0,1,.83.43l.76.47.66.52A10.23,10.23,0,0,1,98,48.28a9.54,9.54,0,0,1,1.3,1.85A4.32,4.32,0,0,1,99.7,50.91Z"/><path class="cls-10" d="M67.51,50.91l-.74-.41L66,50.05l-1-.56c-.4-.17-.79-.4-1.24-.57L63,48.63l-.7-.26c-.46-.2-1-.28-1.44-.45a10.57,10.57,0,0,0-1.48-.22l-.73-.06c-.24,0-.49,0-.73,0a8.41,8.41,0,0,0-1.42.23,11.77,11.77,0,0,0-1.35.42l-.33.1-.3.15-.58.28a7.9,7.9,0,0,0-1,.52c-.3.18-.59.33-.82.46-.46.25-.76.38-.76.38a6.86,6.86,0,0,1,.38-.76c.13-.23.29-.53.5-.85a4.81,4.81,0,0,1,.82-1,6.6,6.6,0,0,1,1.15-1.06,8.78,8.78,0,0,1,1.54-.9c.29-.12.6-.23.91-.34a3.25,3.25,0,0,1,1-.22c.34-.05.68-.1,1-.13s.68,0,1,0a9.79,9.79,0,0,1,2,.4c.31.12.6.25.9.38a5,5,0,0,1,.83.43c.26.16.52.31.76.47l.66.52a10.4,10.4,0,0,1,2.41,2.92A4.63,4.63,0,0,1,67.51,50.91Z"/><path class="cls-11" d="M41.32,54.5,50,61.19l21.85.68s5.63-7.89,10.33,0h22.52l6.77-6.34"/><circle class="cls-12" cx="60.61" cy="61.87" r="11.26"/><circle class="cls-12" cx="93.46" cy="61.87" r="11.26"/><path class="cls-10" d="M66.49,63.23s-.07-.28-.23-.74a11.87,11.87,0,0,0-.78-1.83,6.21,6.21,0,0,0-1.67-2A4.07,4.07,0,0,0,62.55,58a2.83,2.83,0,0,0-.71-.17,3.74,3.74,0,0,0-.75-.06,5.5,5.5,0,0,0-.72,0,5.36,5.36,0,0,0-.79.14,3.51,3.51,0,0,0-1.22.58,4,4,0,0,0-.92.95,7.47,7.47,0,0,0-.58,1.12,9.55,9.55,0,0,0-.52,1.9,7.41,7.41,0,0,0-.11.77,4.92,4.92,0,0,1-.13-.78,6.8,6.8,0,0,1,.1-2.09A5.87,5.87,0,0,1,56.67,59a4.34,4.34,0,0,1,2.67-2.21,5.44,5.44,0,0,1,.84-.17,6.18,6.18,0,0,1,.94,0,4.05,4.05,0,0,1,.92.1,3.45,3.45,0,0,1,.89.24,3.15,3.15,0,0,1,.83.39,4.23,4.23,0,0,1,.71.53,5.83,5.83,0,0,1,1.64,2.58,7.8,7.8,0,0,1,.39,2A6.13,6.13,0,0,1,66.49,63.23Z"/><path class="cls-10" d="M95.42,62.76s-.07-.28-.23-.74a12.44,12.44,0,0,0-.78-1.82,6.3,6.3,0,0,0-1.68-2,4,4,0,0,0-1.25-.64,2.85,2.85,0,0,0-.71-.18,3.12,3.12,0,0,0-.75-.05,5.78,5.78,0,0,0-.73,0,5.21,5.21,0,0,0-.78.14,3.6,3.6,0,0,0-1.22.58,4.35,4.35,0,0,0-.92.95,6,6,0,0,0-.58,1.12A10.74,10.74,0,0,0,85.26,62c-.08.48-.11.76-.11.76A5.63,5.63,0,0,1,85,62a6.8,6.8,0,0,1,.1-2.09,5,5,0,0,1,.47-1.37,4.33,4.33,0,0,1,2.66-2.22,7.82,7.82,0,0,1,.84-.17,8.08,8.08,0,0,1,1,0,4.18,4.18,0,0,1,.92.1,3.56,3.56,0,0,1,.89.24,3.18,3.18,0,0,1,.83.4,3.75,3.75,0,0,1,.71.53A5.83,5.83,0,0,1,95,59.93a8.13,8.13,0,0,1,.38,2A5.21,5.21,0,0,1,95.42,62.76Z"/></g></g></svg>