<svg xmlns="http://www.w3.org/2000/svg" viewBox="0 0 154.38 174.81"><defs><style>.cls-1{fill:#73403a;}.cls-2{fill:#91534f;}.cls-3{fill:#dda29b;}.cls-4{fill:#c4857b;}.cls-5{fill:#5b8180;}.cls-6{fill:#74a19e;}.cls-7{fill:#352b38;}.cls-8{fill:#fff;}</style></defs><title>Recurso 6</title><g id="Capa_2" data-name="Capa 2"><g id="Capa_1-2" data-name="Capa 1"><path class="cls-1" d="M63,99.52s-15.33,9.67-7,24.34,66,10.66,36.33-24.34C67.87,70.61,63,99.52,63,99.52Z"/><path class="cls-1" d="M119.16,62.19s-6.67,8-5.34,16c1.92,11.51-15.66,26.67-33.66,21.67s1.33-38.67,1.33-38.67Z"/><path class="cls-1" d="M35,62.19s6.67,8,5.33,16C38.45,89.7,56,104.86,74,99.86s-1.33-38.67-1.33-38.67Z"/><path class="cls-2" d="M80.79,87.37a50.76,50.76,0,0,0,24-5.18,25.68,25.68,0,0,0,9-7.91c.75-6.5,5.39-12.09,5.39-12.09l-37.67-1s-8.2,14.28-8.94,25.62A79.19,79.19,0,0,0,80.79,87.37Z"/><path class="cls-2" d="M40.52,76.79A90.33,90.33,0,0,0,80.79,87.37h.89c-.51-11.42-9-26.17-9-26.17L35,62.19S41,69.28,40.52,76.79Z"/><path class="cls-3" d="M97.24,116.2c-8.48-4.62-6.17-27-6.17-27L78.37,90v-.82L77,89.62l-1.36-.41V90L63,89.21s2.31,22.37-6.17,27-60.6,6.94-55.21,58.61H152.45C157.85,123.14,105.73,120.83,97.24,116.2Z"/><path class="cls-4" d="M61.17,110.43q15.22-2.27,30.42-4.68a67.69,67.69,0,0,1-.52-16.54L78.37,90v-.82L77,89.62l-1.36-.41V90L63,89.21S64.29,102.21,61.17,110.43Z"/><path class="cls-5" d="M114.49,120.18c-7.42,6.73-18.38,11.39-30.89,12.59L76.87,157,73.3,133c-13.55-.79-25.49-5.61-33.41-12.79C22.28,125.83-3.45,138.06.38,174.8H154C157.84,138.06,132.11,125.83,114.49,120.18Z"/><path class="cls-6" d="M74.22,139.14,73.3,133c-13.55-.79-25.49-5.61-33.41-12.79a91.67,91.67,0,0,0-9.34,3.54C36.79,132.21,53.8,138.46,74.22,139.14Z"/><path class="cls-6" d="M124.87,124.19a86.32,86.32,0,0,0-10.38-4c-7.42,6.73-18.38,11.39-30.89,12.59l-1.76,6.36C101.76,138.42,118.39,132.41,124.87,124.19Z"/><path class="cls-6" d="M75.34,162.89a2.8,2.8,0,1,0,2.8-2.8A2.8,2.8,0,0,0,75.34,162.89Z"/><path class="cls-4" d="M52.18,56.48c-2.5-7.76-8.42-6-9-5.78s-6.69,1-5.64,9.06S43.34,72.29,47.76,71C52.31,70.27,54.69,64.27,52.18,56.48Z"/><path class="cls-4" d="M102.08,56.48c2.5-7.76,8.41-6,9-5.78s6.7,1,5.64,9.06S110.91,72.29,106.49,71C101.94,70.27,99.56,64.27,102.08,56.48Z"/><path class="cls-3" d="M46.11,44.73c3.1-34,28.94-32.09,31.38-31.83,2.43-.26,28.27-2.16,31.37,31.83C112,78.92,96.75,101.25,77.49,100,58.23,101.25,43,78.92,46.11,44.73Z"/><path class="cls-2" d="M45,51.19s-1.67,44.67,24.67,49.67,42.66-17,40.33-52l-3.33-.34s-2.17,35.34-10.17,35.67,3.83-11-11.5-11.67-22.92-5.77-24.17,7.17C60,88.36,49.37,73.52,48,50.52S45,51.19,45,51.19Z"/><path class="cls-1" d="M49.3,60.79A80.33,80.33,0,0,1,48,50.52c-1.33-23-3,.67-3,.67a90.42,90.42,0,0,0,.52,11.53Z"/><path class="cls-1" d="M110.07,61.08a92.39,92.39,0,0,0,0-12.22l-3.33-.34s-.3,4.84-1.08,10.95Z"/><path class="cls-4" d="M81.94,48.72a76.7,76.7,0,0,1,1.83,9.44c.21,1.58.42,3.17.56,4.76s.29,3.18.38,4.78l0,.43-.31.19c-1,.63-2.05,1.23-3.09,1.82s-2.1,1.17-3.2,1.68c.88-.83,1.8-1.6,2.72-2.37s1.86-1.5,2.82-2.23l-.29.63c-.26-1.58-.49-3.17-.67-4.75s-.35-3.18-.5-4.77A80.94,80.94,0,0,1,81.94,48.72Z"/><path class="cls-7" d="M101.86,46.2a45.42,45.42,0,0,0-4.15-2.12,12.82,12.82,0,0,0-4-1.09,8.45,8.45,0,0,0-3.94.54,14.49,14.49,0,0,0-2,.86c-.69.34-1.32.79-2.11,1.13a11.46,11.46,0,0,1,1.27-2.15,8.75,8.75,0,0,1,1.9-1.73A6,6,0,0,1,90,41c.41-.17.84-.31,1.27-.46A8.37,8.37,0,0,1,94,40.3a9.32,9.32,0,0,1,4.84,2A9.69,9.69,0,0,1,101.86,46.2Z"/><path class="cls-7" d="M69.67,46.2a45.42,45.42,0,0,0-4.15-2.12,12.82,12.82,0,0,0-4-1.09,8.45,8.45,0,0,0-3.94.54,14.49,14.49,0,0,0-2,.86c-.68.34-1.32.79-2.11,1.13a11.46,11.46,0,0,1,1.27-2.15,9,9,0,0,1,1.9-1.73A6,6,0,0,1,57.78,41c.41-.17.84-.31,1.27-.46a8.37,8.37,0,0,1,2.73-.21,9.32,9.32,0,0,1,4.84,2A9.61,9.61,0,0,1,69.67,46.2Z"/><path class="cls-7" d="M68.65,58.51a10.14,10.14,0,0,0-1.91-3.86A4.45,4.45,0,0,0,63.25,53a4.89,4.89,0,0,0-2,.29,3.79,3.79,0,0,0-1.53,1.17,8.22,8.22,0,0,0-1.39,4A6.33,6.33,0,0,1,59,54a4.42,4.42,0,0,1,1.85-1.68,5.89,5.89,0,0,1,2.43-.45,5,5,0,0,1,4.2,2.25A7.22,7.22,0,0,1,68.65,58.51Z"/><path class="cls-7" d="M97.57,58.05a10,10,0,0,0-1.9-3.87,4.49,4.49,0,0,0-3.49-1.61,5.21,5.21,0,0,0-2,.29A3.79,3.79,0,0,0,88.7,54a8.16,8.16,0,0,0-1.39,4,6.3,6.3,0,0,1,.62-4.55,4.35,4.35,0,0,1,1.85-1.67,5.84,5.84,0,0,1,2.42-.45,5,5,0,0,1,4.21,2.24A7.24,7.24,0,0,1,97.57,58.05Z"/><path class="cls-8" d="M90.66,77.93c-6.15,6-16.57,5.65-24.46.32"/><path class="cls-1" d="M78,17.86s-18.67-3.34-21.67,8.33,1.34,27.33-12.33,25c0,0-9.91,2-3.58,17.67,0,0-18.75-18-7.75-31C41.59,27.25,38,4.19,60,.52S78,13.52,78,17.86Z"/><path class="cls-2" d="M78,17.86s-18.67-3.34-21.67,8.33,1.34,27.33-12.33,25c0,0-9.91,2-3.58,17.67,0,0-18.75-18-7.75-31C41.59,27.25,38,4.19,60,.52S78,13.52,78,17.86Z"/><path class="cls-2" d="M76.25,17.86s18.66-3.34,21.66,8.33-1.33,27.33,12.34,25c0,0,9.91,2,3.57,17.67,0,0,18.76-18,7.76-31-9-10.61-5.33-33.67-27.33-37.34S76.25,13.52,76.25,17.86Z"/><path class="cls-2" d="M75.94,15.1a42.22,42.22,0,0,1,7.56.58,27.68,27.68,0,0,1,7.31,2.24A14.3,14.3,0,0,1,96.87,23a11.34,11.34,0,0,1,1.51,3.76,27,27,0,0,1,.43,3.8c.3,5-.39,9.88-.09,14.62.17,2.33.63,4.75,2.23,6.31s4.13,1.91,6.49,1.78h.06a10.44,10.44,0,0,1,2.16.59,7.59,7.59,0,0,1,1.94,1.1A4.7,4.7,0,0,1,113,56.66a4.54,4.54,0,0,1,.38,2.14,4.44,4.44,0,0,0-.53-2.06,4.65,4.65,0,0,0-1.43-1.53,8.66,8.66,0,0,0-4-1.28h.06a13.94,13.94,0,0,1-3.76,0,7.26,7.26,0,0,1-3.55-1.58A7.63,7.63,0,0,1,98,49a16.88,16.88,0,0,1-.82-3.72c-.54-5-.12-9.87-.54-14.62a23.47,23.47,0,0,0-.52-3.45,8.8,8.8,0,0,0-1.29-2.94,12.19,12.19,0,0,0-5.14-4.05,27,27,0,0,0-6.66-1.91,39.61,39.61,0,0,0-7-.52Z"/></g></g></svg>