<svg xmlns="http://www.w3.org/2000/svg" viewBox="0 0 432.17 382.58"><defs><style>.cls-1{fill:#813d2a;}.cls-2{fill:#ae7154;}.cls-20,.cls-3{fill:#fff;}.cls-3{opacity:0.2;}.cls-4{fill:#0c0a0c;}.cls-32,.cls-5{fill:#070308;}.cls-5{opacity:0.3;}.cls-6{fill:#3f3530;}.cls-7{fill:#534540;}.cls-8{fill:#67574f;}.cls-9{fill:#826d68;}.cls-10{fill:#f3e2b9;}.cls-11{fill:#c0995b;}.cls-12{fill:#563716;}.cls-13{fill:#b16f3b;}.cls-14{fill:#69441c;}.cls-15,.cls-24{fill:#83501e;}.cls-16{fill:#a4773f;}.cls-17{fill:#c58f4d;}.cls-18{fill:#cea451;}.cls-19{fill:#dbb75e;}.cls-21{fill:#d1d1d1;}.cls-22{fill:#e0dedc;}.cls-23{fill:#f4efe8;}.cls-24,.cls-29{opacity:0.5;}.cls-25{fill:#3d6366;}.cls-26{fill:#87bcbc;}.cls-27{fill:#407b7b;}.cls-28,.cls-29{fill:#39908f;}.cls-30{fill:#e8c18a;}.cls-31{fill:#d2ab6e;}.cls-33{fill:#362c28;}.cls-34{fill:#201919;}.cls-35{fill:#564943;}.cls-36{fill:#d7d0c6;}.cls-37{fill:#e6e0dc;}.cls-38{fill:#b4aea6;}.cls-39{fill:#a29b94;}.cls-40{fill:#15425a;}.cls-41{fill:#c95a56;}.cls-42{fill:#f2e179;}.cls-43{fill:#da9349;}.cls-44{fill:#c6a4c8;}.cls-45{fill:#9aad65;}.cls-46{fill:#100e0f;}.cls-47{fill:#251e1c;}.cls-48{fill:#9f857f;}.cls-49{fill:#bea099;}.cls-50{fill:#663120;}.cls-51{fill:#8f4d39;}.cls-52{fill:#c87c65;}.cls-53{fill:#5d4439;}.cls-54{fill:#6d5748;}.cls-55{fill:#465f2e;}.cls-56{fill:#556d3e;}.cls-57{fill:#617a48;}.cls-58{fill:#6d8852;}.cls-59{fill:#769458;}.cls-60{fill:#839c5f;}.cls-61{fill:#8ba563;}.cls-62{fill:#99b56d;}.cls-63{fill:#a6c376;}.cls-64{fill:#aec87f;}.cls-65{fill:#bad087;}.cls-66{fill:#84201d;}.cls-67{fill:#bc4232;}.cls-68{fill:#bbbaba;}.cls-69{fill:#afb0b0;}.cls-70{fill:#b27f8c;}.cls-71{fill:#7a4958;}.cls-72{fill:#e6f0f9;}.cls-73{fill:#4c64a6;}.cls-74{fill:#6a87bf;}.cls-75{fill:#e8c2b2;}.cls-76{fill:#c7d276;}.cls-77{fill:#c2a194;}.cls-78{fill:#2a5d78;}.cls-79{fill:#a22d22;}.cls-80{fill:#4187ab;}</style></defs><title>Recurso 1</title><g id="Capa_2" data-name="Capa 2"><g id="Capa_1-2" data-name="Capa 1"><polygon class="cls-1" points="356.53 250.73 356.52 249.93 221.49 170.76 216.4 170.78 135.7 219.19 135.7 219.98 270.72 297.26 275.82 297.25 356.53 250.73"/><polygon class="cls-2" points="356.52 249.93 356.52 246.99 221.49 169.71 216.38 169.73 135.68 216.25 135.7 219.19 270.72 296.47 275.81 296.46 356.52 249.93"/><polygon class="cls-3" points="259.18 207.09 259.18 206.27 221.71 184.81 220.29 184.82 197.89 198.05 197.89 198.87 235.37 220.32 236.78 220.31 259.18 207.09"/><polygon class="cls-3" points="280.6 263.14 280.6 262.33 243.12 240.88 241.71 240.88 219.31 254.11 219.31 254.93 256.79 276.38 258.2 276.38 280.6 263.14"/><polygon class="cls-3" points="327.96 255.93 327.95 255.11 290.48 233.66 289.07 233.67 266.67 246.9 266.67 247.71 304.14 269.17 305.56 269.16 327.96 255.93"/><polygon class="cls-3" points="256.31 223.71 256.3 223.1 228.13 206.97 227.06 206.98 210.22 216.92 210.22 217.54 238.4 233.66 239.47 233.66 256.31 223.71"/><polygon class="cls-3" points="327.96 250.4 327.95 249.79 299.78 233.66 298.71 233.67 281.87 243.62 281.87 244.22 310.05 260.35 311.12 260.35 327.96 250.4"/><polygon class="cls-3" points="289.55 218.34 289.54 218.02 274.85 209.61 274.29 209.61 265.51 214.79 265.51 215.12 280.21 223.53 280.76 223.53 289.55 218.34"/><polygon class="cls-3" points="199.73 233.25 199.72 232.83 180.77 221.99 180.06 221.99 168.73 228.68 168.73 229.09 187.68 239.95 188.39 239.94 199.73 233.25"/><polygon class="cls-3" points="281.01 269.88 281 269.48 262.05 258.62 261.34 258.63 250.01 265.32 250.01 265.73 268.96 276.58 269.68 276.57 281.01 269.88"/><polygon class="cls-3" points="205.36 221.46 205.35 220.88 178.46 205.48 177.44 205.49 161.37 214.98 161.37 215.57 188.27 230.96 189.28 230.96 205.36 221.46"/><polygon class="cls-4" points="268.1 210.6 267.19 210.6 267.19 202.99 263.08 198.65 256.8 194.11 250.13 191 243.87 189.34 236.65 186.8 230.59 181.14 228.22 173.81 228.22 168.44 226.07 162.63 227.77 154.92 235.82 149.67 236.31 150.42 228.57 155.48 227.01 162.57 229.12 168.37 229.12 173.74 231.38 180.64 237.19 186.07 244.13 188.47 250.44 190.16 257.25 193.34 263.67 197.98 268.1 202.63 268.1 210.6"/><polygon class="cls-5" points="427.35 215.7 270.52 125.14 232.47 147.12 232.47 165.32 285.55 195.97 297.3 200.24 304.68 207.01 357.78 237.67 389.3 237.67 427.35 215.7"/><polygon class="cls-6" points="245.63 160.48 245.63 164.93 243.2 166.34 242.34 161.37 245.63 160.48"/><polygon class="cls-7" points="243.2 161.88 243.2 166.34 239.76 166.34 237.35 160.48 243.2 161.88"/><polygon class="cls-8" points="239.76 161.88 239.76 166.34 237.35 164.93 237.35 160.48 239.76 161.88"/><polygon class="cls-9" points="237.35 158.51 237.35 160.48 239.76 161.88 243.2 161.88 245.63 160.48 245.63 158.51 243.2 157.1 239.76 157.1 237.35 158.51"/><polygon class="cls-6" points="360.8 226.97 360.8 231.41 358.36 232.82 357.51 227.85 360.8 226.97"/><polygon class="cls-7" points="358.36 228.37 358.36 232.82 354.93 232.82 352.51 226.97 358.36 228.37"/><polygon class="cls-8" points="354.93 228.37 354.93 232.82 352.51 231.41 352.51 226.97 354.93 228.37"/><polygon class="cls-9" points="352.51 225 352.51 226.97 354.93 228.37 358.36 228.37 360.8 226.97 360.8 225 358.37 223.58 354.93 223.58 352.51 225"/><polygon class="cls-6" points="422.64 210.7 422.64 215.14 420.2 216.55 419.35 211.58 422.64 210.7"/><polygon class="cls-7" points="420.2 212.1 420.2 216.55 416.78 216.55 414.36 210.7 420.2 212.1"/><polygon class="cls-8" points="416.78 212.1 416.78 216.55 414.36 215.14 414.36 210.7 416.78 212.1"/><polygon class="cls-9" points="414.36 208.73 414.36 210.7 416.78 212.1 420.2 212.1 422.64 210.7 422.64 208.73 420.21 207.32 416.78 207.32 414.36 208.73"/><polygon class="cls-10" points="284.7 186.47 236.7 159 234.52 155.4 267.24 132.35 287.1 143.81 284.7 186.47"/><polygon class="cls-11" points="270.84 134.42 234.52 155.4 233.56 114.08 247.44 114.08 270.84 134.42"/><polygon class="cls-5" points="259.75 163.89 241.51 153.36 263.1 140.9 281.34 151.44 259.75 163.89"/><polygon class="cls-12" points="280.76 151.47 259.8 163.56 258.71 161.26 280.76 150.96 280.76 151.47"/><polygon class="cls-13" points="259.8 163.07 252.38 159.12 243.53 153.68 243.99 153.12 264.5 141.57 280.76 150.96 259.8 163.07"/><polygon class="cls-14" points="244.95 152.86 243.53 153.68 243.28 153.58 243.01 153.04 244.59 152.3 244.95 152.86"/><polygon class="cls-13" points="244.65 152.27 243.18 153.12 242.97 153.45 242.46 153.06 242.97 152.5 244.73 151.75 244.65 152.27"/><polygon class="cls-14" points="244.73 151.75 242.46 153.06 241.95 152.48 241.84 151.72 242.35 151.16 244.1 150.41 244.73 151.75"/><polygon class="cls-12" points="244.1 150.41 241.84 151.72 241.65 151.22 241.84 150.25 244.1 148.95 244.1 150.41"/><polygon class="cls-15" points="241.84 150.25 241.84 151.72 242.46 153.06 242.83 153.26 243.18 153.12 243.53 153.68 259.8 163.07 259.8 163.56 243.35 154.07 243.18 153.77 243 153.87 242.25 153.43 241.4 151.63 241.4 149.84 241.84 150.25"/><polygon class="cls-16" points="244.01 152.63 243.18 153.12 243.18 152.75 243.46 152.37 244.32 151.97 244.01 152.63"/><polygon class="cls-17" points="244.32 151.97 243.48 152.46 243.4 151.9 243.48 151.29 244.32 150.8 244.32 151.97"/><polygon class="cls-18" points="244.32 150.8 243.48 151.29 243.21 150.73 242.88 149.76 243.72 149.28 244.32 150.8"/><polygon class="cls-19" points="243.18 153.12 243.48 152.46 243.48 151.29 243.18 150.3 242.83 149.84 243.28 151.23 243.28 152.3 242.83 153.26 243.18 153.12"/><polygon class="cls-20" points="279.88 150.96 259.7 162.6 259.24 161.87 259.35 161.34 279.53 149.69 279.88 150.96"/><polygon class="cls-21" points="279.53 148.28 262.84 158.54 259.35 159.93 258.89 159.2 259.7 159.18 279.88 147.53 279.53 148.28"/><polygon class="cls-22" points="279.53 149.69 259.35 161.34 258.89 160.61 259.35 159.93 279.53 148.28 279.53 149.69"/><polygon class="cls-23" points="243.83 151.09 243.53 150.09 243.89 150.05 259.7 159.18 259.35 159.93 259.35 161.34 259.7 162.6 243.89 153.47 243.53 152.91 243.83 152.25 243.83 151.09"/><polygon class="cls-12" points="280.76 147.54 259.8 159.64 258.71 157.33 280.76 147.04 280.76 147.54"/><polygon class="cls-14" points="242.97 149.61 241.84 150.25 241.84 149.77 242.97 149.12 242.97 149.61"/><polygon class="cls-14" points="264.24 137.79 243.28 149.85 242.95 149.77 242.93 149.42 263.54 137.39 263.97 137.34 264.24 137.79"/><polygon class="cls-13" points="259.8 159.14 252.2 155.09 243.35 149.66 264.32 137.55 280.76 147.04 259.8 159.14"/><polygon class="cls-24" points="272.52 148.17 272.52 147.19 273.12 146.84 264.01 141.59 263.42 141.94 261.72 141.94 261.1 141.57 257.43 143.71 258.04 144.06 258.04 145.04 257.44 145.38 266.54 150.64 267.15 150.3 268.84 150.3 269.44 150.64 273.12 148.52 272.52 148.17"/><polygon class="cls-13" points="263.97 137.34 243 149.45 242.42 149.3 242.25 149.01 263.21 136.9 263.97 137.34"/><polygon class="cls-15" points="241.4 149.84 242.25 149.01 243 149.45 243.18 149.76 243.35 149.66 259.8 159.14 259.8 159.64 243.53 150.25 243.18 150.3 242.83 149.84 242.46 149.64 241.84 150.25 241.64 150.15 241.4 149.84"/><polygon class="cls-25" points="280.75 146.74 259.78 158.84 258.69 156.54 280.75 146.24 280.75 146.74"/><polygon class="cls-26" points="259.78 158.34 252.37 154.39 243.52 148.96 243.97 148.39 264.49 136.85 280.75 146.24 259.78 158.34"/><polygon class="cls-27" points="244.95 148.13 243.52 148.96 243.27 148.86 243 148.31 244.59 147.57 244.95 148.13"/><polygon class="cls-26" points="244.64 147.54 243.17 148.39 242.95 148.73 242.45 148.33 242.96 147.77 244.72 147.03 244.64 147.54"/><polygon class="cls-27" points="244.72 147.03 242.45 148.33 241.94 147.75 241.82 147 242.33 146.43 244.09 145.69 244.72 147.03"/><polygon class="cls-25" points="244.09 145.69 241.82 147 241.64 146.5 241.82 145.53 244.09 144.22 244.09 145.69"/><polygon class="cls-28" points="241.82 145.53 241.82 147 242.45 148.33 242.81 148.54 243.17 148.39 243.52 148.96 259.78 158.34 259.78 158.84 243.34 149.35 243.17 149.04 242.99 149.15 242.23 148.71 241.39 146.91 241.39 145.12 241.82 145.53"/><polygon class="cls-16" points="244.01 147.91 243.17 148.39 243.17 148.03 243.45 147.66 244.31 147.25 244.01 147.91"/><polygon class="cls-17" points="244.31 147.25 243.46 147.74 243.39 147.18 243.46 146.57 244.31 146.08 244.31 147.25"/><polygon class="cls-18" points="244.31 146.08 243.46 146.57 243.21 146 242.87 145.03 243.72 144.55 244.31 146.08"/><polygon class="cls-19" points="243.17 148.39 243.46 147.74 243.46 146.57 243.17 145.57 242.81 145.12 243.27 146.5 243.27 147.58 242.81 148.54 243.17 148.39"/><polygon class="cls-20" points="279.87 146.23 259.69 157.88 259.23 157.15 259.35 156.61 279.52 144.97 279.87 146.23"/><polygon class="cls-21" points="279.52 143.54 262.83 153.81 259.35 155.2 258.88 154.47 259.69 154.45 279.87 142.81 279.52 143.54"/><polygon class="cls-22" points="279.52 144.97 259.35 156.61 258.88 155.88 259.35 155.2 279.52 143.54 279.52 144.97"/><polygon class="cls-23" points="243.83 146.37 243.52 145.36 243.88 145.33 259.69 154.45 259.35 155.2 259.35 156.61 259.69 157.88 243.88 148.75 243.52 148.19 243.83 147.53 243.83 146.37"/><polygon class="cls-25" points="280.75 142.81 259.78 154.92 258.69 152.61 280.75 142.31 280.75 142.81"/><polygon class="cls-27" points="242.95 144.88 241.82 145.53 241.82 145.05 242.95 144.4 242.95 144.88"/><polygon class="cls-27" points="264.22 133.06 243.27 145.12 242.94 145.05 242.92 144.7 263.52 132.66 263.96 132.62 264.22 133.06"/><polygon class="cls-26" points="259.78 154.42 252.18 150.37 243.34 144.93 264.31 132.82 280.75 142.31 259.78 154.42"/><polygon class="cls-29" points="272.51 143.45 272.51 142.46 273.11 142.12 264.01 136.86 263.41 137.2 261.72 137.2 261.1 136.85 257.42 138.97 258.03 139.34 258.03 140.31 257.43 140.66 266.54 145.92 267.14 145.57 268.83 145.57 269.43 145.92 273.11 143.79 272.51 143.45"/><polygon class="cls-26" points="263.96 132.62 242.99 144.73 242.41 144.58 242.23 144.29 263.2 132.18 263.96 132.62"/><polygon class="cls-28" points="241.39 145.12 242.23 144.29 242.99 144.73 243.17 145.03 243.34 144.93 259.78 154.42 259.78 154.92 243.52 145.53 243.17 145.57 242.81 145.12 242.45 144.91 241.82 145.53 241.63 145.43 241.39 145.12"/><polygon class="cls-5" points="238.34 132.55 241.39 146.91 241.39 145.12 242.23 144.28 246.43 141.85 264 151.98 264 161.15 264.26 161.15 264.26 161.29 284.22 172.82 286.49 157.88 238.34 132.55"/><polygon class="cls-10" points="427.35 153.4 270.52 62.85 232.47 84.82 232.47 103.02 285.55 133.67 297.3 137.93 304.68 144.72 357.78 175.37 389.3 175.37 427.35 153.4"/><polygon class="cls-30" points="357.78 231.18 304.68 200.53 301 162.08 304.68 144.72 357.78 175.37 371.2 182.16 357.78 231.18"/><path class="cls-30" d="M285.55,133.67,232.47,103v55.81l53.08,30.65,5.18-34.36Zm-2.17,49.94L234.52,155.4V114.55l48.86,28.21Z"/><polygon class="cls-31" points="389.3 175.37 357.78 175.37 357.78 231.18 389.3 231.18 398.56 186.12 389.3 175.37"/><polygon class="cls-11" points="427.35 209.21 389.3 231.18 389.3 175.37 427.35 153.4 427.35 209.21"/><polygon class="cls-11" points="304.68 200.53 297.3 193.75 294.13 156.21 297.3 137.93 304.68 144.72 304.68 200.53"/><polygon class="cls-31" points="297.3 193.75 285.55 189.48 285.55 133.67 297.3 137.93 297.3 193.75"/><polygon class="cls-5" points="389.3 175 357.78 175 304.68 144.35 297.3 137.56 285.55 133.31 232.47 102.65 232.47 109.23 285.55 139.88 297.3 144.15 304.68 150.93 357.78 181.57 389.3 181.57 427.35 159.61 427.35 153.04 389.3 175"/><polygon class="cls-10" points="270.51 53.31 229.06 77.25 229.06 97.08 356.36 170.58 390.71 170.59 432.17 146.65 270.51 53.31"/><polygon class="cls-30" points="356.36 177.33 229.06 103.84 229.06 97.08 356.36 170.58 356.36 177.33"/><rect class="cls-31" x="356.36" y="170.58" width="34.35" height="6.76"/><polygon class="cls-11" points="432.17 146.65 390.71 170.58 390.71 177.33 432.17 153.4 432.17 146.65"/><polygon class="cls-31" points="354.6 202.07 305.73 173.86 305.73 153.71 354.6 181.92 354.6 202.07"/><polygon class="cls-10" points="354.6 181.92 305.73 153.71 306.69 153.16 355.55 181.37 354.6 181.92"/><polygon class="cls-11" points="354.6 202.07 354.6 181.92 355.55 181.37 355.55 201.52 354.6 202.07"/><polygon class="cls-6" points="334.46 186.19 335.21 185.78 335.21 185.39 333.89 185.5 334.46 186.19"/><polygon class="cls-7" points="334.46 185.82 335.21 185.39 334.09 183.45 325.33 179.24 334.46 185.82"/><polygon class="cls-9" points="333.34 183.87 334.09 183.45 326.07 178.83 325.33 179.24 333.34 183.87"/><polygon class="cls-8" points="324.21 179.88 325.33 179.24 333.34 183.87 334.46 185.82 334.46 186.19 333.34 186.84 325.33 182.21 324.21 180.28 324.21 179.88"/><polygon class="cls-31" points="282.43 160.41 233.56 132.19 233.56 112.04 282.43 140.25 282.43 160.41"/><polygon class="cls-10" points="282.43 140.25 233.56 112.04 234.52 111.49 283.38 139.7 282.43 140.25"/><polygon class="cls-11" points="282.43 160.41 282.43 140.25 283.38 139.7 283.38 159.85 282.43 160.41"/><polygon class="cls-6" points="262.3 144.53 263.04 144.1 263.04 143.72 261.72 143.84 262.3 144.53"/><polygon class="cls-7" points="262.3 144.16 263.04 143.72 261.91 141.78 253.16 137.57 262.3 144.16"/><polygon class="cls-9" points="261.17 142.2 261.91 141.78 253.9 137.17 253.16 137.57 261.17 142.2"/><polygon class="cls-8" points="252.04 138.22 253.16 137.57 261.17 142.2 262.3 144.16 262.3 144.53 261.17 145.18 253.16 140.54 252.04 138.61 252.04 138.22"/><polygon class="cls-31" points="354.6 224.28 305.73 196.07 305.73 175.92 354.6 204.13 354.6 224.28"/><polygon class="cls-10" points="354.6 204.13 305.73 175.92 306.69 175.37 355.55 203.57 354.6 204.13"/><polygon class="cls-11" points="354.6 224.28 354.6 204.13 355.55 203.57 355.55 223.74 354.6 224.28"/><polygon class="cls-6" points="334.46 208.42 335.21 207.99 335.21 207.61 333.89 207.72 334.46 208.42"/><polygon class="cls-7" points="334.46 208.04 335.21 207.61 334.09 205.66 325.33 201.45 334.46 208.04"/><polygon class="cls-9" points="333.34 206.09 334.09 205.66 326.07 201.04 325.33 201.45 333.34 206.09"/><polygon class="cls-8" points="324.21 202.1 325.33 201.45 333.34 206.09 334.46 208.04 334.46 208.42 333.34 209.05 325.33 204.43 324.21 202.49 324.21 202.1"/><polygon class="cls-5" points="309.62 138.47 252.15 105.28 296.68 79.57 354.16 112.75 309.62 138.47"/><polygon class="cls-32" points="349.3 112.74 327.83 125.13 327.83 114.16 349.3 101.77 349.3 112.74"/><polygon class="cls-33" points="295.77 36.47 287.78 41.09 334.83 77.09 351.54 66.24 299.02 35.91 295.77 36.47"/><polygon class="cls-34" points="353.08 69.55 338.99 77.69 334.83 73.27 351.54 66.24 353.08 69.55"/><polygon class="cls-35" points="327.37 63.08 272.74 28.14 275.92 26.28 331.03 58.1 327.37 63.08"/><polygon class="cls-34" points="330.09 65.23 327.85 59.96 331.03 58.1 333.58 62.63 330.09 65.23"/><polygon class="cls-4" points="353.08 103.1 329.07 124.1 329.07 66.82 330.44 64.45 333.58 62.63 334.83 73.27 353.08 69.55 353.08 103.1"/><polygon class="cls-8" points="311.43 75.42 308.84 70.93 253.74 39.11 251.15 40.61 251.15 101.05 253.74 105.55 308.84 137.36 311.43 135.87 311.43 75.42"/><polygon class="cls-36" points="286.06 113.15 285.6 112.35 276.74 107.24 276.28 107.5 276.28 107.77 276.74 108.57 285.6 113.69 286.06 113.42 286.06 113.15"/><polygon class="cls-37" points="285.74 112.27 285.6 112.35 276.74 107.24 276.87 107.16 285.74 112.27"/><polygon class="cls-38" points="286.2 113.07 286.06 113.15 285.6 112.35 285.74 112.27 286.2 113.07"/><polygon class="cls-39" points="286.2 113.35 286.06 113.42 286.06 113.15 286.2 113.07 286.2 113.35"/><polygon class="cls-33" points="302.29 127.29 301.44 125.81 300.24 125.12 299.38 125.61 299.38 127 300.24 128.48 301.44 129.18 302.29 128.68 302.29 127.29"/><polygon class="cls-35" points="302.17 125.39 301.44 125.81 300.24 125.12 300.97 124.7 302.17 125.39"/><polygon class="cls-34" points="303.02 126.87 302.29 127.29 301.44 125.81 302.17 125.39 303.02 126.87"/><polygon class="cls-4" points="303.02 128.26 302.29 128.68 302.29 127.29 303.02 126.87 303.02 128.26"/><polygon class="cls-33" points="297.32 124.85 296.86 124.05 296.2 123.68 295.75 123.94 295.75 124.7 296.2 125.5 296.86 125.87 297.32 125.61 297.32 124.85"/><polygon class="cls-35" points="297.26 123.83 296.86 124.05 296.2 123.68 296.61 123.45 297.26 123.83"/><rect class="cls-34" x="297.06" y="123.88" width="0.45" height="0.92" transform="translate(-22.43 164.56) rotate(-29.87)"/><polygon class="cls-4" points="297.72 125.38 297.32 125.61 297.32 124.85 297.72 124.63 297.72 125.38"/><polygon class="cls-33" points="294.08 122.98 293.63 122.18 292.97 121.8 292.5 122.07 292.5 122.82 292.97 123.63 293.63 124.01 294.08 123.74 294.08 122.98"/><polygon class="cls-35" points="294.02 121.95 293.63 122.18 292.97 121.8 293.37 121.58 294.02 121.95"/><polygon class="cls-34" points="294.48 122.76 294.08 122.98 293.63 122.18 294.02 121.95 294.48 122.76"/><polygon class="cls-4" points="294.48 123.51 294.08 123.74 294.08 122.98 294.48 122.76 294.48 123.51"/><polygon class="cls-33" points="290.85 121.11 290.38 120.32 289.73 119.94 289.27 120.2 289.27 120.96 289.73 121.76 290.38 122.14 290.85 121.86 290.85 121.11"/><polygon class="cls-35" points="290.77 120.09 290.38 120.32 289.73 119.94 290.13 119.71 290.77 120.09"/><polygon class="cls-34" points="291.24 120.89 290.85 121.11 290.38 120.32 290.77 120.09 291.24 120.89"/><polygon class="cls-4" points="291.24 121.64 290.85 121.86 290.85 121.11 291.24 120.89 291.24 121.64"/><polygon class="cls-33" points="287.61 119.25 287.15 118.44 286.49 118.06 286.03 118.33 286.03 119.09 286.49 119.89 287.15 120.26 287.61 120 287.61 119.25"/><polygon class="cls-35" points="287.54 118.22 287.15 118.44 286.49 118.06 286.88 117.84 287.54 118.22"/><rect class="cls-34" x="287.35" y="118.27" width="0.46" height="0.92" transform="translate(-20.58 161.57) rotate(-30.35)"/><polygon class="cls-4" points="288 119.77 287.61 120 287.61 119.25 288 119.01 288 119.77"/><polygon class="cls-33" points="284.37 117.37 283.91 116.58 283.25 116.2 282.79 116.46 282.79 117.22 283.25 118.02 283.91 118.4 284.37 118.13 284.37 117.37"/><polygon class="cls-35" points="284.3 116.34 283.91 116.58 283.25 116.2 283.65 115.97 284.3 116.34"/><polygon class="cls-34" points="284.76 117.15 284.37 117.37 283.91 116.58 284.3 116.34 284.76 117.15"/><polygon class="cls-4" points="284.76 117.9 284.37 118.13 284.37 117.37 284.76 117.15 284.76 117.9"/><polygon class="cls-6" points="265.77 103.34 264.03 100.33 253.28 94.12 253.28 100.17 255.02 103.18 265.77 109.39 265.77 103.34"/><polygon class="cls-9" points="327.85 59.96 308.84 70.93 253.74 39.11 272.74 28.14 327.85 59.96"/><rect class="cls-7" x="308.67" y="65.1" width="21.95" height="5.18" transform="translate(8.94 168.78) rotate(-29.98)"/><polygon class="cls-6" points="330.44 124.9 311.43 135.87 311.43 75.42 330.44 64.45 330.44 124.9"/><polygon class="cls-4" points="306.18 120.68 305.64 120.98 256.93 92.86 254.64 88.88 254.64 45.85 255.17 45.55 255.17 88.58 257.46 92.54 306.18 120.68"/><polygon class="cls-40" points="307.94 76.63 307.94 119.65 306.18 120.68 257.46 92.54 255.17 88.58 255.17 45.55 256.93 44.53 305.64 72.66 307.94 76.63"/><polygon class="cls-41" points="280.38 94.28 280.04 94.08 280.04 92.75 280.38 92.94 280.38 94.28"/><polygon class="cls-41" points="280.38 99.97 280.38 99.05 280.04 98.85 280.04 99.77 278.5 98.87 278.5 101.94 279.29 102.39 279.29 101.54 279.81 101.84 279.81 103.53 280.61 103.99 280.61 102.3 281.13 102.6 281.13 103.46 281.93 103.92 281.93 100.85 280.38 99.97"/><rect class="cls-42" x="265.97" y="77.45" width="1.67" height="2.89" transform="matrix(0.87, -0.5, 0.5, 0.87, -3.67, 144.12)"/><rect class="cls-42" x="269.18" y="79.31" width="1.67" height="2.89" transform="translate(-4.12 146.15) rotate(-30.07)"/><rect class="cls-42" x="272.4" y="81.16" width="1.67" height="2.89" transform="translate(-4.8 147.23) rotate(-29.91)"/><polygon class="cls-42" points="276.45 86.12 275 83.62 276.45 82.79 277.89 85.29 276.45 86.12"/><polygon class="cls-42" points="289.29 93.54 287.84 91.04 289.29 90.21 290.74 92.71 289.29 93.54"/><rect class="cls-42" x="291.66" y="92.28" width="1.67" height="2.89" transform="translate(-7.72 158.62) rotate(-29.97)"/><rect class="cls-42" x="294.87" y="94.14" width="1.67" height="2.89" transform="translate(-8.14 160.82) rotate(-30.03)"/><polygon class="cls-43" points="266.81 58.87 265.36 56.36 266.81 55.53 268.26 58.04 266.81 58.87"/><polygon class="cls-43" points="270.02 60.72 268.57 58.22 270.02 57.39 271.47 59.89 270.02 60.72"/><rect class="cls-43" x="272.4" y="59.47" width="1.67" height="2.89" transform="translate(6.07 144.51) rotate(-29.94)"/><rect class="cls-43" x="275.61" y="61.32" width="1.67" height="2.89" transform="translate(5.7 146.78) rotate(-30.03)"/><rect class="cls-43" x="278.82" y="63.17" width="1.67" height="2.89" transform="translate(5.29 148.92) rotate(-30.09)"/><rect class="cls-43" x="282.03" y="65.02" width="1.67" height="2.89" transform="translate(4.69 150.43) rotate(-30.02)"/><rect class="cls-43" x="285.24" y="66.88" width="1.67" height="2.89" transform="translate(4.02 151.7) rotate(-29.9)"/><polygon class="cls-43" points="289.29 71.85 287.84 69.35 289.29 68.51 290.74 71.01 289.29 71.85"/><polygon class="cls-43" points="292.5 73.7 291.05 71.2 292.5 70.36 293.95 72.86 292.5 73.7"/><rect class="cls-43" x="294.87" y="72.44" width="1.67" height="2.89" transform="translate(2.72 157.91) rotate(-30.03)"/><polygon class="cls-41" points="299.38 86.41 299.91 86.1 299.67 85.68 299.14 85.99 297.57 85.09 297.05 84.17 296.81 84.31 297.33 85.23 297.33 87.03 296.81 87.34 297.05 87.76 297.57 87.45 299.14 88.35 299.67 89.27 299.91 89.13 299.38 88.21 299.38 86.41"/><polygon class="cls-41" points="295.58 84.21 296.11 83.91 295.88 83.5 295.34 83.8 293.77 82.89 293.25 81.98 293.01 82.11 293.54 83.03 293.54 84.84 293.01 85.15 293.25 85.56 293.77 85.25 295.34 86.16 295.88 87.08 296.11 86.94 295.58 86.02 295.58 84.21"/><polygon class="cls-41" points="291.78 82.02 292.31 81.71 292.07 81.3 291.54 81.61 289.98 80.7 289.45 79.78 289.21 79.92 289.74 80.84 289.73 82.65 289.21 82.95 289.45 83.37 289.98 83.06 291.54 83.97 292.07 84.88 292.31 84.75 291.78 83.83 291.78 82.02"/><polygon class="cls-41" points="287.98 79.83 288.51 79.52 288.27 79.11 287.74 79.41 286.17 78.51 285.65 77.59 285.41 77.73 285.94 78.65 285.94 80.45 285.41 80.76 285.65 81.17 286.17 80.87 287.74 81.77 288.27 82.69 288.51 82.55 287.98 81.63 287.98 79.83"/><polygon class="cls-41" points="284.18 77.63 284.71 77.33 284.48 76.91 283.95 77.22 282.38 76.31 281.85 75.39 281.61 75.54 282.14 76.45 282.14 78.26 281.61 78.57 281.85 78.98 282.38 78.67 283.95 79.58 284.48 80.49 284.71 80.36 284.18 79.44 284.18 77.63"/><polygon class="cls-41" points="276.58 73.24 277.11 72.94 276.87 72.53 276.35 72.83 274.78 71.93 274.25 71.01 274.01 71.15 274.54 72.06 274.54 73.87 274.01 74.18 274.25 74.59 274.78 74.29 276.35 75.19 276.87 76.11 277.11 75.97 276.58 75.05 276.58 73.24"/><polygon class="cls-41" points="272.79 71.05 273.31 70.75 273.08 70.33 272.55 70.64 270.98 69.73 270.45 68.82 270.21 68.95 270.74 69.87 270.74 71.68 270.21 71.99 270.45 72.4 270.98 72.09 272.55 73 273.08 73.91 273.31 73.78 272.79 72.86 272.79 71.05"/><polygon class="cls-41" points="268.99 68.86 269.51 68.55 269.27 68.14 268.74 68.45 267.18 67.54 266.65 66.62 266.41 66.76 266.95 67.68 266.95 69.49 266.41 69.79 266.65 70.21 267.18 69.9 268.74 70.8 269.27 71.72 269.51 71.59 268.99 70.67 268.99 68.86"/><polygon class="cls-41" points="265.18 66.66 265.71 66.36 265.48 65.95 264.95 66.25 263.38 65.35 262.85 64.43 262.61 64.57 263.14 65.48 263.14 67.29 262.61 67.6 262.85 68.01 263.38 67.71 264.95 68.61 265.48 69.53 265.71 69.39 265.18 68.48 265.18 66.66"/><polygon class="cls-44" points="299.39 92.89 299.8 92.65 298.35 90.14 296.91 90.98 297.32 91.69 296.68 92.07 297.49 93.49 297.74 93.35 297.15 92.34 297.56 92.1 298.35 93.48 299.16 93.02 299.56 93.73 298.98 94.07 299.22 94.48 300.04 94.01 299.39 92.89"/><polygon class="cls-44" points="295.59 90.69 296 90.45 294.56 87.95 293.12 88.79 293.52 89.5 292.88 89.87 293.7 91.29 293.93 91.15 293.35 90.15 293.76 89.91 294.56 91.29 295.36 90.83 295.77 91.54 295.18 91.87 295.42 92.29 296.24 91.81 295.59 90.69"/><polygon class="cls-44" points="291.79 88.5 292.21 88.26 290.76 85.76 289.31 86.59 289.73 87.31 289.07 87.68 289.9 89.1 290.14 88.97 289.56 87.95 289.96 87.72 290.76 89.09 291.55 88.63 291.96 89.34 291.38 89.68 291.63 90.09 292.44 89.62 291.79 88.5"/><polygon class="cls-44" points="284.19 84.11 284.6 83.88 283.16 81.37 281.72 82.2 282.13 82.92 281.48 83.29 282.3 84.71 282.54 84.58 281.96 83.56 282.36 83.33 283.16 84.71 283.95 84.25 284.37 84.96 283.78 85.29 284.02 85.71 284.84 85.23 284.19 84.11"/><polygon class="cls-44" points="276.6 79.72 277 79.49 275.56 76.99 274.12 77.82 274.53 78.53 273.88 78.91 274.7 80.32 274.94 80.19 274.35 79.18 274.77 78.94 275.56 80.32 276.36 79.86 276.77 80.57 276.19 80.91 276.42 81.32 277.24 80.85 276.6 79.72"/><polygon class="cls-44" points="272.8 77.53 273.21 77.29 271.76 74.79 270.32 75.63 270.73 76.34 270.09 76.71 270.9 78.13 271.14 77.99 270.56 76.99 270.96 76.75 271.76 78.13 272.56 77.66 272.97 78.38 272.38 78.71 272.63 79.13 273.44 78.65 272.8 77.53"/><polygon class="cls-44" points="269 75.33 269.41 75.1 267.96 72.6 266.52 73.43 266.93 74.14 266.28 74.52 267.1 75.94 267.34 75.8 266.76 74.79 267.17 74.55 267.96 75.93 268.76 75.47 269.17 76.18 268.59 76.52 268.82 76.94 269.65 76.46 269 75.33"/><polygon class="cls-44" points="265.2 73.14 265.61 72.91 264.16 70.4 262.72 71.24 263.13 71.95 262.48 72.32 263.3 73.74 263.54 73.61 262.95 72.6 263.37 72.36 264.16 73.74 264.96 73.28 265.37 73.99 264.79 74.33 265.03 74.74 265.84 74.26 265.2 73.14"/><polygon class="cls-45" points="299.81 81.6 299.23 80.59 299.63 80.36 299.39 79.94 298.98 80.18 298.36 79.09 297.73 79.46 297.31 78.75 297.08 78.88 297.49 79.59 296.91 79.93 297.7 81.29 297.69 81.29 297.69 82.51 299.02 83.27 299.02 82.05 299.02 82.05 299.81 81.6"/><polygon class="cls-45" points="296.01 79.41 295.43 78.4 295.83 78.17 295.59 77.75 295.19 77.99 294.56 76.9 293.93 77.27 293.52 76.56 293.28 76.7 293.7 77.4 293.12 77.74 293.9 79.09 293.9 79.09 293.9 80.32 295.22 81.08 295.22 79.86 295.22 79.86 296.01 79.41"/><polygon class="cls-45" points="292.21 77.21 291.63 76.21 292.04 75.97 291.8 75.56 291.4 75.8 290.76 74.71 290.14 75.08 289.73 74.36 289.49 74.5 289.9 75.21 289.32 75.54 290.11 76.9 290.11 76.9 290.11 78.13 291.43 78.88 291.43 77.66 291.43 77.66 292.21 77.21"/><polygon class="cls-45" points="288.42 75.02 287.84 74.02 288.25 73.78 288 73.37 287.6 73.6 286.97 72.52 286.34 72.88 285.93 72.17 285.69 72.31 286.1 73.02 285.52 73.35 286.31 74.71 286.31 74.71 286.31 75.93 287.63 76.7 287.63 75.48 287.63 75.47 288.42 75.02"/><polygon class="cls-45" points="284.62 72.83 284.04 71.82 284.45 71.59 284.2 71.18 283.8 71.41 283.17 70.33 282.54 70.69 282.13 69.98 281.9 70.12 282.31 70.83 281.73 71.16 282.51 72.52 282.51 72.52 282.51 73.74 283.83 74.5 283.83 73.28 283.83 73.28 284.62 72.83"/><polygon class="cls-45" points="277.03 68.45 276.45 67.44 276.85 67.21 276.62 66.79 276.21 67.03 275.58 65.94 274.95 66.31 274.54 65.6 274.3 65.74 274.71 66.44 274.14 66.78 274.92 68.13 274.92 68.13 274.92 69.36 276.25 70.12 276.25 68.9 276.25 68.9 277.03 68.45"/><polygon class="cls-45" points="273.23 66.25 272.65 65.25 273.06 65.02 272.82 64.6 272.41 64.84 271.78 63.75 271.15 64.12 270.74 63.41 270.51 63.54 270.92 64.25 270.34 64.58 271.12 65.94 271.12 65.94 271.12 67.17 272.45 67.93 272.45 66.7 272.45 66.7 273.23 66.25"/><polygon class="cls-45" points="269.43 64.06 268.85 63.06 269.26 62.83 269.02 62.41 268.62 62.64 267.98 61.56 267.36 61.92 266.95 61.21 266.71 61.35 267.12 62.06 266.54 62.39 267.32 63.75 267.32 63.75 267.32 64.97 268.65 65.74 268.65 64.51 268.65 64.51 269.43 64.06"/><polygon class="cls-45" points="265.64 61.87 265.06 60.87 265.46 60.63 265.23 60.22 264.82 60.46 264.19 59.37 263.56 59.73 263.15 59.02 262.91 59.16 263.32 59.87 262.75 60.2 263.53 61.56 263.53 61.56 263.53 62.78 264.86 63.54 264.86 62.32 264.86 62.32 265.64 61.87"/><polygon class="cls-33" points="328.91 71.67 313.08 80.81 312.82 81.15 312.82 81.31 313.08 81.36 328.91 72.23 329.15 71.88 329.15 71.72 328.91 71.67"/><polygon class="cls-33" points="313.08 85.63 312.82 85.98 312.82 86.14 313.08 86.2 328.91 77.05 329.15 76.71 329.15 76.55 328.91 76.5 313.08 85.63"/><polygon class="cls-33" points="313.08 90.46 312.82 90.8 312.82 90.97 313.08 91.03 328.91 81.88 329.15 81.54 329.15 81.38 328.91 81.33 313.08 90.46"/><polygon class="cls-33" points="313.08 95.29 312.82 95.63 312.82 95.8 313.08 95.85 328.91 86.71 329.15 86.37 329.15 86.2 328.91 86.15 313.08 95.29"/><polygon class="cls-33" points="313.08 100.12 312.82 100.46 312.82 100.62 313.08 100.68 328.91 91.54 329.15 91.2 329.15 91.03 328.91 90.98 313.08 100.12"/><polygon class="cls-33" points="313.08 104.94 312.82 105.29 312.82 105.46 313.08 105.51 328.91 96.37 329.15 96.03 329.15 95.86 328.91 95.81 313.08 104.94"/><polygon class="cls-33" points="313.08 109.77 312.82 110.12 312.82 110.28 313.08 110.33 328.91 101.2 329.15 100.86 329.15 100.69 328.91 100.64 313.08 109.77"/><polygon class="cls-33" points="313.08 114.6 312.82 114.94 312.82 115.11 313.08 115.16 328.91 106.02 329.15 105.68 329.15 105.52 328.91 105.47 313.08 114.6"/><polygon class="cls-33" points="313.08 119.43 312.82 119.77 312.82 119.94 313.08 119.99 328.91 110.85 329.15 110.51 329.15 110.35 328.91 110.3 313.08 119.43"/><polygon class="cls-33" points="313.08 124.26 312.82 124.6 312.82 124.77 313.08 124.82 328.91 115.68 329.15 115.34 329.15 115.17 328.91 115.12 313.08 124.26"/><polygon class="cls-33" points="313.08 129.09 312.82 129.43 312.82 129.59 313.08 129.65 328.91 120.51 329.15 120.17 329.15 120 328.91 119.94 313.08 129.09"/><polygon class="cls-4" points="269.58 215.61 269.2 214.79 277.57 210.93 282.06 206.7 285.12 200.67 286.69 192.63 286.04 184.86 285.58 177.32 285.59 177.27 286.7 169.64 289.63 161.2 293.05 154.19 294.05 146.04 300.98 139.27 306.87 138.01 306.95 138.01 317.09 139.24 326.88 136.49 335.87 131.28 343.13 125.2 348.02 118.36 354.74 113.76 357.63 109 354.82 103.79 350.1 103.47 350.17 102.56 355.39 102.92 358.67 109.03 355.33 114.45 348.59 119.06 343.75 125.86 336.38 132.01 327.18 137.34 317.16 140.16 317.07 140.15 306.91 138.92 301.43 140.1 294.91 146.47 293.9 154.52 290.46 161.54 287.58 169.85 286.48 177.36 286.94 184.79 287.6 192.68 287.59 192.74 285.96 201.03 282.74 207.3 278.01 211.72 269.58 215.61"/><path class="cls-5" d="M284.58,49.77H274.31L267,45.53V39.42l7.33-4.24h10.27l7.34,4.24v6.11Z"/><polygon class="cls-35" points="284.52 47.23 274.37 47.23 267.19 43.09 267.19 37.24 274.37 33.09 284.52 33.09 291.7 37.24 291.7 43.09 284.52 47.23"/><polygon class="cls-33" points="274.37 49.55 274.37 47.23 267.19 43.09 267.19 45.41 274.37 49.55"/><rect class="cls-34" x="274.37" y="47.24" width="10.14" height="2.31"/><polygon class="cls-4" points="291.7 45.41 291.7 43.09 284.52 47.23 284.52 49.55 291.7 45.41"/><polygon class="cls-38" points="278.38 33.77 277.92 34.04 273.13 25.77 273.6 25.49 278.38 33.77"/><polygon class="cls-36" points="272.72 25.73 277.74 34.42 279.48 35.43 279.48 34.95 277.92 34.04 273.13 25.77 272.94 25.49 272.72 25.73"/><polygon class="cls-37" points="279.95 34.68 279.48 34.95 277.92 34.04 278.38 33.77 279.95 34.68"/><polygon class="cls-8" points="282.81 40.35 280.03 40.35 278.06 39.21 278.06 37.61 280.03 36.48 282.81 36.48 284.77 37.61 284.77 39.21 282.81 40.35"/><polygon class="cls-33" points="280.03 40.9 280.03 40.35 278.06 39.21 278.06 39.77 280.03 40.9"/><rect class="cls-34" x="280.03" y="40.35" width="2.78" height="0.55"/><polygon class="cls-4" points="284.77 39.77 284.77 39.21 282.81 40.35 282.81 40.9 284.77 39.77"/><polygon class="cls-8" points="282.48 36.06 280.36 36.06 278.87 35.2 278.87 33.97 280.36 33.11 282.48 33.11 283.98 33.97 283.98 35.2 282.48 36.06"/><polygon class="cls-33" points="280.36 39.65 280.36 36.06 278.87 35.2 278.87 38.78 280.36 39.65"/><rect class="cls-34" x="280.36" y="36.06" width="2.12" height="3.59"/><polygon class="cls-4" points="283.98 38.78 283.98 35.2 282.48 36.06 282.48 39.65 283.98 38.78"/><polygon class="cls-35" points="282.04 33.17 280.8 33.17 279.91 32.66 279.91 31.94 280.8 31.43 282.04 31.43 282.92 31.94 282.92 32.66 282.04 33.17"/><polygon class="cls-33" points="280.8 35.29 280.8 33.17 279.91 32.66 279.91 34.78 280.8 35.29"/><rect class="cls-34" x="280.8" y="33.17" width="1.25" height="2.12"/><polygon class="cls-4" points="282.92 34.78 282.92 32.66 282.04 33.17 282.04 35.29 282.92 34.78"/><polygon class="cls-7" points="285.27 21.25 282.31 22.47 283.83 24.37 285.97 22.47 285.27 21.25"/><polygon class="cls-6" points="285.97 22.47 283.99 23.62 282.48 26.08 283.99 34.62 285.97 33.47 285.97 22.47"/><polygon class="cls-8" points="283.29 22.41 283.99 23.62 283.99 34.62 283.29 35.03 278.18 32.08 277.47 30.86 277.47 19.86 278.18 19.45 283.29 22.41"/><polygon class="cls-9" points="280.15 18.3 278.18 19.45 283.29 22.41 285.27 21.25 280.15 18.3"/><polygon class="cls-39" points="273.6 25.49 273.13 25.77 273.13 17.57 273.6 17.3 273.6 25.49"/><polygon class="cls-37" points="285.14 37.67 284.76 38.27 283.09 37.04 283.57 36.77 285.14 37.67"/><polygon class="cls-36" points="273.13 25.77 273.13 17.96 277.92 15.2 284.67 19.11 289.45 27.38 289.45 35.19 284.67 37.95 283.09 37.04 283.09 37.51 284.84 38.52 289.86 35.62 289.86 27.42 284.84 18.73 277.74 14.63 272.72 17.53 272.72 25.73 273.13 25.77"/><polygon class="cls-37" points="285.31 18.46 284.84 18.73 277.74 14.63 278.21 14.36 285.31 18.46"/><polygon class="cls-38" points="290.33 27.15 289.86 27.42 284.84 18.73 285.31 18.46 290.33 27.15"/><polygon class="cls-39" points="290.33 35.35 289.86 35.62 289.86 27.42 290.33 27.15 290.33 35.35"/><polygon class="cls-5" points="271.88 41.21 271.26 41.21 270.83 40.96 270.83 40.6 271.26 40.35 271.88 40.35 272.31 40.6 272.31 40.96 271.88 41.21"/><polygon class="cls-46" points="271.79 40.98 271.57 41.01 271.35 40.98 271.2 40.97 271.37 41.02 271.57 41.06 271.79 41.02 271.94 40.97 271.79 40.98"/><polygon class="cls-47" points="271.88 40.84 271.26 40.84 271.06 40.86 271.2 40.97 271.57 41.06 271.94 40.97 272.08 40.86 271.88 40.84"/><polygon class="cls-33" points="272.14 40.36 271.88 40.64 271.26 40.64 271 40.36 270.81 40.3 270.85 40.57 271.06 40.86 271.57 40.98 272.08 40.86 272.28 40.57 272.33 40.3 272.14 40.36"/><polygon class="cls-6" points="272.28 40.04 272.13 40.09 271.8 40.32 271.33 40.32 271.01 40.09 270.85 40.04 270.81 40.3 271.03 40.61 271.57 40.75 272.11 40.61 272.33 40.3 272.28 40.04"/><polygon class="cls-8" points="272.08 39.75 271.94 39.64 271.96 39.72 271.94 39.89 271.75 40.09 271.39 40.09 271.19 39.89 271.18 39.72 271.2 39.64 271.06 39.75 270.85 40.04 271.06 40.34 271.57 40.46 272.08 40.34 272.28 40.04 272.08 39.75"/><polygon class="cls-9" points="271.94 39.64 271.78 39.59 271.8 39.65 271.79 39.74 271.64 39.81 271.5 39.81 271.35 39.74 271.35 39.65 271.36 39.59 271.2 39.64 271.05 39.85 271.2 40.07 271.57 40.16 271.94 40.07 272.1 39.85 271.94 39.64"/><polygon class="cls-48" points="271.78 39.59 271.7 39.57 271.71 39.62 271.68 39.66 271.63 39.69 271.51 39.69 271.46 39.66 271.43 39.62 271.44 39.57 271.36 39.59 271.27 39.71 271.37 39.83 271.57 39.88 271.78 39.83 271.87 39.71 271.78 39.59"/><polygon class="cls-49" points="271.7 39.71 271.74 39.64 271.7 39.57 271.57 39.54 271.44 39.57 271.4 39.64 271.44 39.71 271.57 39.74 271.7 39.71"/><polygon class="cls-8" points="276.6 43.92 273.82 43.92 271.87 42.79 271.87 41.19 273.82 40.06 276.6 40.06 278.57 41.19 278.57 42.79 276.6 43.92"/><polygon class="cls-33" points="273.82 44.48 273.82 43.92 271.87 42.79 271.87 43.34 273.82 44.48"/><rect class="cls-34" x="273.82" y="43.92" width="2.77" height="0.55"/><polygon class="cls-4" points="278.57 43.34 278.57 42.79 276.6 43.92 276.6 44.48 278.57 43.34"/><polygon class="cls-5" points="278.63 45.12 278.01 45.12 277.58 44.87 277.58 44.51 278.01 44.26 278.63 44.26 279.07 44.51 279.07 44.87 278.63 45.12"/><polygon class="cls-46" points="278.55 44.89 278.32 44.92 278.11 44.89 277.95 44.88 278.11 44.92 278.32 44.97 278.55 44.92 278.69 44.88 278.55 44.89"/><polygon class="cls-47" points="278.62 44.75 278.02 44.75 277.82 44.77 277.95 44.88 278.32 44.97 278.69 44.88 278.83 44.77 278.62 44.75"/><polygon class="cls-33" points="278.89 44.27 278.63 44.54 278.01 44.54 277.75 44.27 277.56 44.21 277.61 44.48 277.82 44.77 278.32 44.89 278.83 44.77 279.04 44.48 279.08 44.21 278.89 44.27"/><polygon class="cls-6" points="279.04 43.95 278.88 44 278.56 44.22 278.09 44.22 277.76 44 277.61 43.95 277.56 44.21 277.79 44.53 278.32 44.65 278.86 44.53 279.08 44.21 279.04 43.95"/><polygon class="cls-8" points="278.82 43.66 278.69 43.55 278.71 43.63 278.7 43.8 278.51 43.99 278.13 43.99 277.94 43.8 277.93 43.63 277.95 43.55 277.82 43.66 277.61 43.95 277.82 44.24 278.32 44.36 278.83 44.24 279.04 43.95 278.82 43.66"/><polygon class="cls-9" points="278.69 43.55 278.54 43.5 278.55 43.56 278.55 43.65 278.4 43.72 278.25 43.72 278.11 43.65 278.09 43.56 278.11 43.5 277.95 43.55 277.79 43.77 277.95 43.98 278.32 44.07 278.69 43.98 278.85 43.77 278.69 43.55"/><polygon class="cls-48" points="278.54 43.5 278.44 43.48 278.46 43.53 278.43 43.57 278.38 43.6 278.26 43.6 278.21 43.57 278.19 43.53 278.2 43.48 278.11 43.5 278.03 43.63 278.11 43.75 278.32 43.79 278.54 43.75 278.62 43.63 278.54 43.5"/><polygon class="cls-49" points="278.44 43.62 278.5 43.55 278.44 43.48 278.32 43.45 278.2 43.48 278.15 43.55 278.2 43.62 278.32 43.65 278.44 43.62"/><polygon class="cls-34" points="280.29 43.69 278.68 44.63 278.24 44.38 279.85 43.26 280.29 43.69"/><polygon class="cls-33" points="279.84 43.44 278.24 44.38 277.93 43.84 279.53 42.39 279.84 43.44"/><polygon class="cls-35" points="279.53 42.9 277.93 43.84 277.93 43.33 279.53 42.39 279.53 42.9"/><polygon class="cls-4" points="279.99 42.12 279.53 42.39 279.53 42.9 279.84 43.44 280.29 43.69 280.74 43.43 280.74 42.92 280.43 42.38 279.99 42.12"/><polygon class="cls-38" points="292.48 36.48 280.28 43.55 279.91 43.34 292.12 36.12 292.48 36.48"/><polygon class="cls-36" points="292.12 36.27 279.91 43.34 279.66 42.89 291.85 35.4 292.12 36.27"/><polygon class="cls-37" points="291.85 35.81 279.66 42.89 279.66 42.47 291.85 35.4 291.85 35.81"/><polygon class="cls-39" points="292.23 35.17 291.85 35.4 291.85 35.81 292.12 36.27 292.48 36.48 292.87 36.26 292.87 35.84 292.61 35.38 292.23 35.17"/><polygon class="cls-38" points="302.41 30.51 292.48 36.38 292.16 36.2 302.09 30.19 302.41 30.51"/><polygon class="cls-36" points="302.09 30.33 292.16 36.2 291.93 35.81 301.86 29.57 302.09 30.33"/><polygon class="cls-37" points="301.86 29.94 291.93 35.81 291.93 35.44 301.86 29.57 301.86 29.94"/><polygon class="cls-39" points="302.19 29.37 301.86 29.57 301.86 29.94 302.09 30.33 302.41 30.51 302.74 30.32 302.74 29.95 302.51 29.56 302.19 29.37"/><polygon class="cls-38" points="310.97 25.46 302.42 30.43 302.14 30.27 310.7 25.19 310.97 25.46"/><polygon class="cls-36" points="310.7 25.3 302.14 30.27 301.94 29.93 310.5 24.64 310.7 25.3"/><polygon class="cls-37" points="310.5 24.96 301.94 29.93 301.94 29.61 310.5 24.64 310.5 24.96"/><polygon class="cls-39" points="310.79 24.48 310.5 24.64 310.5 24.96 310.7 25.3 310.97 25.46 311.26 25.3 311.26 24.98 311.06 24.63 310.79 24.48"/><polygon class="cls-38" points="311.45 25.08 310.97 25.35 310.75 25.22 311.22 24.86 311.45 25.08"/><polygon class="cls-36" points="311.22 24.95 310.75 25.22 310.59 24.95 311.06 24.41 311.22 24.95"/><polygon class="cls-37" points="311.06 24.67 310.59 24.95 310.59 24.68 311.06 24.41 311.06 24.67"/><polygon class="cls-39" points="311.29 24.28 311.06 24.41 311.06 24.67 311.22 24.95 311.45 25.08 311.68 24.95 311.68 24.68 311.52 24.41 311.29 24.28"/><polygon class="cls-34" points="311.81 25.25 311.5 25.43 311.08 25.19 311.39 24.84 311.81 25.25"/><polygon class="cls-33" points="311.39 25.01 311.08 25.19 310.79 24.68 311.09 24.02 311.39 25.01"/><polygon class="cls-35" points="311.09 24.5 310.79 24.68 310.79 24.2 311.09 24.02 311.09 24.5"/><polygon class="cls-4" points="311.53 23.77 311.09 24.02 311.09 24.5 311.39 25.01 311.81 25.25 312.24 25 312.24 24.52 311.94 24.01 311.53 23.77"/><polygon class="cls-37" points="269.52 36.99 257.61 16.38 257.62 15.99 258.07 15.74 258.33 15.97 269.99 36.73 269.52 36.99"/><polygon class="cls-36" points="269.99 36.73 258.07 15.74 258.39 15.56 270.3 36.55 269.99 36.73"/><polygon class="cls-39" points="269.22 37.18 257.3 16.18 257.62 15.99 269.52 36.99 269.22 37.18"/><polygon class="cls-35" points="271.09 39.83 269.56 37.62 269.49 37.02 270.02 36.71 270.42 37.14 271.62 39.52 271.09 39.83"/><polygon class="cls-33" points="271.62 39.52 270.02 36.71 270.39 36.5 272 39.3 271.62 39.52"/><polygon class="cls-34" points="270.72 40.04 269.11 37.24 269.49 37.02 271.09 39.83 270.72 40.04"/><polygon class="cls-37" points="257.67 15.97 250.3 3.04 250.31 2.73 250.67 2.52 250.88 2.71 258.03 15.76 257.67 15.97"/><polygon class="cls-36" points="258.03 15.76 250.67 2.52 250.93 2.37 258.29 15.61 258.03 15.76"/><polygon class="cls-39" points="257.41 16.12 250.05 2.88 250.31 2.73 257.67 15.97 257.41 16.12"/><polygon class="cls-37" points="250.35 2.71 249.76 1.92 249.77 1.69 250.05 1.52 250.22 1.67 250.63 2.54 250.35 2.71"/><polygon class="cls-36" points="250.63 2.54 250.05 1.52 250.25 1.41 250.84 2.43 250.63 2.54"/><polygon class="cls-39" points="250.15 2.83 249.57 1.8 249.77 1.69 250.35 2.71 250.15 2.83"/><polygon class="cls-37" points="249.8 1.67 249.32 1.03 249.33 0.84 249.56 0.71 249.69 0.83 250.02 1.54 249.8 1.67"/><polygon class="cls-36" points="250.02 1.54 249.56 0.71 249.72 0.62 250.19 1.45 250.02 1.54"/><polygon class="cls-39" points="249.64 1.76 249.17 0.94 249.33 0.84 249.8 1.67 249.64 1.76"/><polygon class="cls-35" points="249.17 0.93 248.79 0.71 248.96 0.53 249.49 0.22 249.65 0.22 249.7 0.63 249.17 0.93"/><polygon class="cls-33" points="249.7 0.63 249.49 0.22 249.87 0 250.08 0.41 249.7 0.63"/><polygon class="cls-34" points="248.8 1.15 248.59 0.74 248.96 0.53 249.17 0.93 248.8 1.15"/><polygon class="cls-5" points="352.31 139.8 352.32 144.65 358.25 148.09 366.65 148.09 372.59 144.65 372.59 139.8 366.65 136.37 358.25 136.38 352.31 139.8"/><polygon class="cls-50" points="371.89 130.28 370.23 143.5 365.67 146.13 364.4 132.31 371.89 130.28"/><polygon class="cls-1" points="366.36 133.48 365.67 146.13 359.23 146.13 353.01 130.29 366.36 133.48"/><polygon class="cls-51" points="358.54 133.48 359.23 146.13 354.68 143.5 353.01 130.29 358.54 133.48"/><polygon class="cls-4" points="353.01 125.78 353.01 130.29 358.54 133.48 366.36 133.48 371.89 130.29 371.89 125.78 366.36 122.58 358.54 122.58 353.01 125.78"/><polygon class="cls-5" points="353.08 130.79 353.35 132.98 358.68 136.06 366.21 136.06 371.55 132.97 371.81 130.87 353.08 130.79"/><polygon class="cls-50" points="372.58 129.5 372.58 131.22 366.65 134.64 364.56 131.66 372.58 129.5"/><polygon class="cls-1" points="366.65 132.93 366.65 134.64 358.25 134.64 352.32 129.5 366.65 132.93"/><polygon class="cls-51" points="358.25 132.93 358.25 134.64 352.31 131.22 352.32 129.5 358.25 132.93"/><polygon class="cls-52" points="352.31 124.65 352.32 129.5 358.25 132.93 366.65 132.93 372.59 129.5 372.59 124.65 366.65 121.22 358.25 121.22 352.31 124.65"/><polygon class="cls-51" points="366.1 121.98 371.27 124.97 371.27 127.73 366.1 124.75 366.1 121.98"/><rect class="cls-1" x="358.8" y="121.98" width="7.3" height="2.76"/><polygon class="cls-50" points="358.8 124.75 353.64 127.73 353.64 124.97 358.8 121.98 358.8 124.75"/><polygon class="cls-53" points="371.27 127.73 371.27 129.18 366.1 132.16 358.8 132.16 353.64 129.18 353.64 127.73 358.8 124.75 366.1 124.75 371.27 127.73"/><polygon class="cls-54" points="357.23 126.44 357.23 127.19 358.15 127.73 359.45 127.73 360.37 127.19 360.37 126.44 359.45 125.91 358.15 125.91 357.23 126.44"/><polygon class="cls-54" points="363.89 130.17 363.89 130.83 364.7 131.29 365.84 131.29 366.65 130.83 366.65 130.17 365.84 129.71 364.7 129.71 363.89 130.17"/><polygon class="cls-54" points="363.03 125.77 363.03 126.23 363.59 126.55 364.37 126.55 364.94 126.23 364.94 125.77 364.37 125.45 363.59 125.45 363.03 125.77"/><polygon class="cls-54" points="366.55 128.72 366.55 129.18 367.1 129.5 367.88 129.5 368.44 129.18 368.44 128.72 367.88 128.4 367.1 128.4 366.55 128.72"/><polygon class="cls-54" points="354.97 128.28 354.97 128.84 355.66 129.24 356.63 129.24 357.31 128.84 357.31 128.28 356.63 127.88 355.66 127.88 354.97 128.28"/><polygon class="cls-54" points="364.94 126.8 364.94 127.35 365.62 127.75 366.59 127.75 367.27 127.35 367.27 126.8 366.59 126.39 365.62 126.39 364.94 126.8"/><polygon class="cls-54" points="357.58 130.07 357.58 130.52 358.14 130.84 358.93 130.84 359.48 130.52 359.48 130.07 358.93 129.74 358.14 129.74 357.58 130.07"/><polygon class="cls-54" points="369.11 128.22 369.11 128.49 369.44 128.68 369.9 128.68 370.24 128.49 370.24 128.22 369.9 128.03 369.44 128.03 369.11 128.22"/><polygon class="cls-54" points="358.67 128.81 358.67 129.08 359 129.27 359.46 129.27 359.79 129.08 359.79 128.81 359.46 128.62 359 128.62 358.67 128.81"/><polygon class="cls-54" points="361.55 127.26 361.55 127.53 361.88 127.72 362.34 127.72 362.67 127.53 362.67 127.26 362.34 127.07 361.88 127.07 361.55 127.26"/><polygon class="cls-54" points="360.81 131.16 360.81 131.43 361.13 131.62 361.6 131.62 361.93 131.43 361.93 131.16 361.6 130.97 361.13 130.97 360.81 131.16"/><polygon class="cls-12" points="364.43 121.02 364.43 129.07 363.27 129.74 362.86 121.45 364.43 121.02"/><polygon class="cls-14" points="363.27 121.69 363.27 129.74 361.63 129.74 360.48 121.02 363.27 121.69"/><polygon class="cls-15" points="361.63 121.69 361.63 129.74 360.48 129.07 360.48 121.02 361.63 121.69"/><polygon class="cls-13" points="360.48 120.07 360.48 121.02 361.63 121.69 363.27 121.69 364.43 121.02 364.43 120.07 363.27 119.41 361.63 119.41 360.48 120.07"/><polygon class="cls-55" points="368.57 108.23 356.32 108.23 347.66 113.23 347.66 120.31 356.32 125.31 368.57 125.31 377.24 120.31 377.24 113.23 368.57 108.23"/><polygon class="cls-56" points="369.26 103.89 355.64 103.89 346.01 109.45 346.02 117.31 355.64 122.87 369.26 122.87 378.88 117.31 378.88 109.45 369.26 103.89"/><polygon class="cls-57" points="369.96 99.22 354.95 99.22 344.35 105.35 344.35 114.01 354.95 120.14 369.95 120.14 380.56 114.01 380.56 105.35 369.96 99.22"/><polygon class="cls-58" points="370.7 94.6 354.2 94.6 342.54 101.33 342.54 110.85 354.2 117.59 370.7 117.59 382.36 110.86 382.36 101.33 370.7 94.6"/><polygon class="cls-59" points="341.08 97.7 341.08 107.92 353.59 115.15 371.3 115.15 383.82 107.92 383.82 97.7 371.31 90.47 353.59 90.47 341.08 97.7"/><polygon class="cls-60" points="370.7 88.78 354.2 88.78 342.55 95.51 342.55 105.03 354.2 111.76 370.69 111.76 382.36 105.03 382.36 95.51 370.7 88.78"/><polygon class="cls-61" points="369.96 86.61 354.95 86.61 344.35 92.73 344.35 101.39 354.95 107.51 369.95 107.51 380.56 101.39 380.56 92.73 369.96 86.61"/><polygon class="cls-62" points="369.26 84.81 355.64 84.82 346.01 90.38 346.02 98.23 355.64 103.79 369.26 103.79 378.88 98.23 378.88 90.38 369.26 84.81"/><polygon class="cls-63" points="368.57 82.92 356.32 82.92 347.66 87.93 347.66 95 356.32 100 368.57 100 377.24 95 377.24 87.93 368.57 82.92"/><polygon class="cls-64" points="368.07 81.66 356.83 81.67 348.89 86.25 348.89 92.73 356.83 97.32 368.07 97.32 376.01 92.74 376.01 86.25 368.07 81.66"/><polygon class="cls-65" points="367.41 80.08 357.5 80.08 350.47 84.14 350.48 89.86 357.5 93.91 367.41 93.91 374.43 89.86 374.43 84.14 367.41 80.08"/><polygon class="cls-66" points="275.37 221.77 254.83 233.63 226.93 213.18 275.37 217.43 275.37 221.77"/><polygon class="cls-67" points="254.83 233.63 226.93 217.53 226.93 213.18 254.83 229.29 254.83 233.63"/><polygon class="cls-39" points="275.37 217.43 254.83 229.29 226.93 206.09 275.37 210.33 275.37 217.43"/><polygon class="cls-36" points="254.83 229.29 252.48 227.93 249.16 224 247.29 224.94 226.93 213.18 226.93 206.09 254.83 222.19 254.83 229.29"/><polygon class="cls-19" points="229.16 210.3 228.67 210.57 228.67 211.37 229.16 212.22 239.51 218.19 240 217.91 240 217.11 239.51 216.27 229.16 210.3"/><polygon class="cls-37" points="254.83 222.19 226.93 206.09 247.48 194.23 275.37 210.33 254.83 222.19"/><polygon class="cls-33" points="252.48 227.93 247.29 224.93 247.29 217.84 252.07 219.66 252.48 220.84 252.48 227.93"/><polygon class="cls-35" points="257.75 217.79 252.57 214.8 247.29 217.84 252.48 220.84 257.75 217.79"/><polygon class="cls-35" points="273.03 208.98 267.84 205.99 257.07 212.21 262.25 215.2 273.03 208.98"/><polygon class="cls-35" points="261.24 215.78 256.06 212.79 256.57 212.5 261.75 215.49 261.24 215.78"/><polygon class="cls-35" points="260.24 216.36 255.05 213.37 255.56 213.08 260.74 216.08 260.24 216.36"/><polygon class="cls-35" points="259.23 216.94 254.04 213.95 254.54 213.66 259.73 216.66 259.23 216.94"/><polygon class="cls-35" points="258.22 217.53 253.03 214.54 253.54 214.24 258.73 217.24 258.22 217.53"/><polygon class="cls-22" points="236.06 207.51 236.06 208.7 242.65 212.5 242.65 211.31 236.06 207.51"/><polygon class="cls-23" points="251.94 198.34 242.65 198.34 236.06 202.14 236.06 207.51 242.65 211.31 251.95 211.31 258.53 207.51 258.53 202.14 251.94 198.34"/><rect class="cls-68" x="242.65" y="211.31" width="9.3" height="1.19"/><polygon class="cls-69" points="258.53 207.51 251.95 211.31 251.95 212.5 258.53 208.7 258.53 207.51"/><polygon class="cls-8" points="255.99 208.05 255.49 208.34 241.83 200.46 239.47 201.82 238.98 201.53 241.83 199.88 255.99 208.05"/><polygon class="cls-70" points="255.49 208.34 253.13 209.7 239.47 201.82 241.83 200.46 255.49 208.34"/><polygon class="cls-71" points="253.98 209.21 240.33 201.33 240.48 201.23 254.13 209.12 253.98 209.21"/><polygon class="cls-42" points="241.53 191.18 255.69 199.35 253.13 209.7 238.98 192.66 241.53 191.18"/><polygon class="cls-17" points="255.69 199.35 255.69 208.22 253.13 209.7 253.13 200.82 255.69 199.35"/><polygon class="cls-19" points="253.13 200.82 253.13 209.7 238.98 201.53 238.98 192.66 253.13 200.82"/><polygon class="cls-67" points="251.86 201.94 251.86 208.98 240.24 202.27 240.24 195.23 251.86 201.94"/><polygon class="cls-26" points="243.41 199.52 242.23 198.84 241.39 199.32 241.39 200.68 242.23 202.13 243.41 202.81 244.24 202.33 244.24 200.97 243.41 199.52"/><polygon class="cls-72" points="251.04 205.05 245.36 201.77 245.36 199.74 251.04 203.02 251.04 205.05"/><polygon class="cls-72" points="251.04 207.4 245.36 204.11 245.36 202.57 251.04 205.85 251.04 207.4"/><polygon class="cls-42" points="246.16 225.91 248.47 227.24 247.78 228.53 245.47 226.31 246.16 225.91"/><polygon class="cls-17" points="248.47 227.24 248.47 228.13 247.78 228.53 247.78 227.65 248.47 227.24"/><polygon class="cls-19" points="247.78 227.65 247.78 228.53 245.47 227.19 245.47 226.31 247.78 227.65"/><polygon class="cls-35" points="229.56 215.79 232.95 217.75 232.42 220.11 229.02 216.1 229.56 215.79"/><polygon class="cls-4" points="232.95 217.75 232.95 219.8 232.42 220.11 232.42 218.06 232.95 217.75"/><polygon class="cls-33" points="232.42 218.06 232.42 220.11 229.02 218.15 229.02 216.1 232.42 218.06"/><polygon class="cls-4" points="232.16 218.21 232.16 219.67 229.28 218 229.28 216.54 232.16 218.21"/><polygon class="cls-35" points="235.79 219.39 239.19 221.35 238.66 223.71 235.26 219.69 235.79 219.39"/><polygon class="cls-4" points="239.19 221.35 239.19 223.41 238.66 223.71 238.66 221.66 239.19 221.35"/><polygon class="cls-33" points="238.66 221.66 238.66 223.71 235.26 221.75 235.26 219.69 238.66 221.66"/><polygon class="cls-4" points="238.4 221.81 238.4 223.27 235.51 221.6 235.51 220.15 238.4 221.81"/><polygon class="cls-41" points="249.52 227.85 251.82 229.18 251.14 230.46 248.82 228.25 249.52 227.85"/><polygon class="cls-66" points="251.82 229.18 251.82 230.06 251.14 230.46 251.14 229.58 251.82 229.18"/><polygon class="cls-67" points="251.14 229.58 251.14 230.46 248.82 229.13 248.82 228.25 251.14 229.58"/><polygon class="cls-35" points="229.3 216.56 232.16 218.21 229.41 221.19 226.54 218.15 229.3 216.56"/><polygon class="cls-4" points="232.16 218.21 232.16 219.61 229.41 221.19 229.41 219.79 232.16 218.21"/><polygon class="cls-33" points="229.41 219.79 229.41 221.19 226.54 219.54 226.54 218.15 229.41 219.79"/><polygon class="cls-4" points="228.43 219.72 228.43 220.15 227.78 220.53 227.69 220.05 228.43 219.72"/><polygon class="cls-35" points="227.79 219.05 228.17 219.26 227.49 219.75 227.14 219.43 227.79 219.05"/><polygon class="cls-34" points="228.17 219.26 228.43 219.72 227.78 220.1 227.61 219.96 227.51 219.64 228.17 219.26"/><polygon class="cls-33" points="226.87 220.01 227.14 220.47 227.51 220.68 227.78 220.53 227.78 220.1 227.51 219.64 227.14 219.43 226.87 219.58 226.87 220.01"/><polygon class="cls-4" points="227.45 219.75 227.19 219.6 222.52 221.37 213.25 223.68 205.45 223.08 199.91 221.14 194.36 218.54 188.31 213.8 183.64 209.71 178.37 205.41 173.19 202.59 166.73 199.9 160.41 198.87 160.27 199.76 166.43 200.75 172.79 203.4 177.86 206.16 183.06 210.4 187.74 214.49 193.83 219.29 199.57 221.97 205.21 223.96 213.33 224.59 222.78 222.23 227.45 220.46 227.63 220.35 227.63 220.06 227.45 219.75"/><polygon class="cls-35" points="235.53 220.15 238.4 221.81 235.64 224.8 232.78 221.74 235.53 220.15"/><polygon class="cls-4" points="238.4 221.81 238.4 223.2 235.64 224.8 235.64 223.4 238.4 221.81"/><polygon class="cls-33" points="235.64 223.4 235.64 224.8 232.78 223.14 232.78 221.74 235.64 223.4"/><polygon class="cls-4" points="234.66 223.32 234.66 223.75 234.01 224.13 233.93 223.65 234.66 223.32"/><polygon class="cls-35" points="234.03 222.65 234.4 222.86 233.72 223.35 233.37 223.03 234.03 222.65"/><polygon class="cls-34" points="234.4 222.86 234.66 223.32 234.01 223.7 233.85 223.56 233.74 223.24 234.4 222.86"/><polygon class="cls-33" points="233.1 223.61 233.37 224.06 233.74 224.28 234.01 224.13 234.01 223.7 233.74 223.24 233.37 223.03 233.1 223.17 233.1 223.61"/><polygon class="cls-4" points="252.53 241.27 250.68 238.91 247.8 236.89 244.15 235.49 239.01 234.67 233.37 233.56 228.47 233.56 224.88 230.71 224.4 228.43 227.71 225.88 230.35 225.22 233.69 224.11 233.88 224 233.88 223.68 233.69 223.36 233.43 223.2 230.09 224.36 227.4 225.03 223.41 228.06 224.06 231.21 228.16 234.46 233.28 234.46 238.85 235.56 243.88 236.35 247.33 237.67 250.01 239.52 251.77 241.77 253.55 245.08 252.69 247.29 251.16 247.79 246.9 246.09 244.44 243.24 243.12 241.03 239.82 239.63 235.58 239.75 234.67 242.99 237.53 244.67 236.81 246.76 234.1 248.33 234.55 249.11 237.56 247.37 238.62 244.27 235.73 242.56 236.27 240.64 239.65 240.54 242.5 241.74 243.71 243.76 246.36 246.84 251.13 248.75 253.38 248.01 254.54 245.02 252.53 241.27"/><polygon class="cls-5" points="202.59 382.58 10.31 271.56 75.37 233.96 267.65 344.97 202.59 382.58"/><polygon class="cls-6" points="263.96 336.41 263.26 345.64 261.29 346.77 260.75 337.27 263.96 336.41"/><polygon class="cls-7" points="261.57 337.78 261.29 346.77 258.53 346.77 255.87 336.41 261.57 337.78"/><polygon class="cls-8" points="258.23 337.78 258.53 346.77 256.57 345.64 255.87 336.41 258.23 337.78"/><polygon class="cls-9" points="255.87 334.49 255.87 336.41 258.23 337.78 261.57 337.78 263.96 336.41 263.96 334.49 261.58 333.1 258.23 333.1 255.87 334.49"/><polygon class="cls-6" points="206.88 369.41 206.18 378.64 204.21 379.78 203.67 370.28 206.88 369.41"/><polygon class="cls-7" points="204.5 370.79 204.21 379.78 201.45 379.78 198.79 369.41 204.5 370.79"/><polygon class="cls-8" points="201.16 370.79 201.45 379.78 199.49 378.64 198.79 369.41 201.16 370.79"/><polygon class="cls-9" points="198.79 367.49 198.79 369.41 201.16 370.79 204.5 370.79 206.88 369.41 206.88 367.49 204.51 366.11 201.16 366.11 198.79 367.49"/><polygon class="cls-6" points="22.49 262.95 21.78 272.17 19.82 273.31 19.27 263.82 22.49 262.95"/><polygon class="cls-7" points="20.1 264.32 19.82 273.31 17.06 273.31 14.38 262.95 20.1 264.32"/><polygon class="cls-8" points="16.75 264.32 17.06 273.31 15.09 272.17 14.38 262.95 16.75 264.32"/><polygon class="cls-9" points="14.38 261.03 14.38 262.95 16.75 264.32 20.1 264.32 22.49 262.95 22.49 261.03 20.11 259.65 16.75 259.65 14.38 261.03"/><polygon class="cls-8" points="202.84 372.06 12.16 261.98 12.16 255.46 202.84 363.19 206.35 367.06 202.84 372.06"/><polygon class="cls-6" points="266.17 335.45 202.84 372.06 202.84 363.19 266.17 328.93 266.17 335.45"/><polygon class="cls-51" points="22.77 261.59 12.16 255.46 0 180 20.3 178.68 22.77 261.59"/><polygon class="cls-51" points="36.28 222.97 30.55 224.52 21.88 216.25 25.68 216.85 35.28 217.3 36.28 222.97"/><polygon class="cls-52" points="36.28 222.97 25.68 216.85 75.2 181.82 85.8 187.94 65.87 210.43 36.28 222.97"/><polygon class="cls-50" points="36.28 222.97 32.49 222.37 20.3 178.68 10.61 186.12 22.77 261.59 86.1 224.97 90.05 191.43 85.8 187.94 36.28 222.97"/><polygon class="cls-52" points="10.61 186.12 0 180 9.69 172.56 20.3 178.68 10.61 186.12"/><polygon class="cls-27" points="201.03 361.37 259.51 327.55 259.51 318.43 201.03 352.25 201.03 361.37"/><polygon class="cls-33" points="233.4 268.27 236 266.07 240.68 260.38 245.15 258.85 249.03 259.36 249.32 263.56 246.62 267.99 242.72 271.94 239.62 278.37 237.62 281.82 234.82 284.41 229.91 277.58 233.4 268.27"/><polygon class="cls-73" points="229.36 262.36 235.32 269.52 235.32 274.31 230.02 279.95 221.84 274.99 229.36 262.36"/><polygon class="cls-33" points="236.17 292.49 239.9 291.13 243.11 289.38 246.11 290.62 247.91 294.24 246.27 299.31 238.88 303.94 233.91 306.99 230.25 307.44 227.54 305.91 227.32 298.86 236.17 292.49"/><polygon class="cls-74" points="233.58 265.68 236.85 292.88 235.61 296.94 230.75 299.31 226.46 298.75 221.61 278.77 233.58 265.68"/><polygon class="cls-75" points="147.53 235.96 147.82 244.25 149.99 254.75 150.21 264.98 148.4 271.45 150.81 276.12 156.08 276.12 170.3 272.43 173.01 270.18 173.01 266.41 170.98 264.15 163.83 264.15 159.77 263.7 160.61 239.79 147.53 235.96"/><polygon class="cls-51" points="205.65 334.12 36.1 236.29 91.38 204.31 260.93 302.14 235.02 325.9 205.65 334.12"/><polygon class="cls-73" points="221.84 274.99 200.81 281.44 194.11 270.09 199.98 256.16 211.94 253.75 217.52 251.57 222.63 254.28 229.36 262.36 221.84 274.99"/><polygon class="cls-74" points="221.61 278.77 197.46 295.92 187.64 297.84 178.73 293.44 173.42 290.28 169.03 283.96 170.13 274 200.29 270.31 213.71 264.21 224.32 261.5 228.38 259.91 233.58 265.68 228.58 274.85 221.61 278.77"/><polygon class="cls-73" points="221.61 278.77 229.91 272.41 227.32 276.58 221.61 278.77"/><polygon class="cls-45" points="178.15 225.61 174.8 223.02 169.05 223.77 164.9 228.13 163.7 233.48 159.9 251.14 164.6 257.48 170.85 259.91 173.86 259.91 178.15 225.61"/><polygon class="cls-75" points="180.47 221.28 180.65 225.61 179.48 227.04 180.06 231.41 186.37 235.35 192.35 233.59 193.44 230.21 193.44 221.74 187.49 219.33 180.47 221.28"/><polygon class="cls-76" points="197.54 234.56 193.44 230.21 191.7 231.92 185.84 232.46 180.65 228.92 180.65 225.61 178.32 224.82 174.47 224.82 170.26 227.65 167.37 232.46 167.37 238.13 171.28 259.12 169.81 273.58 173.99 279 184.25 282.68 194.75 281.59 201.07 276.06 202.59 248.07 197.54 234.56"/><polygon class="cls-75" points="175.49 210.06 175.66 214.64 176.85 217.49 179.2 218.03 178.26 212.54 175.49 210.06"/><polygon class="cls-12" points="185.95 193.79 182 192.89 182 193.79 176.24 196.83 177.26 196.83 173.99 202.13 173.99 207.22 176.24 212.19 178.16 218.51 182 223.13 187.42 224.82 192.05 223.47 194.86 219.97 198.37 212.64 198.37 202.48 195.54 196.72 194.98 197.28 191.37 192.89 190.58 193.56 187.98 192.89 185.95 193.79"/><polygon class="cls-75" points="212.52 210.88 210.16 208.07 210.95 205.3 212.52 203.5 212.75 201.07 213.83 198.75 215.69 196.61 216.76 196.61 217.04 197.28 215.91 199.2 215.86 201.13 218.68 201.58 221.33 203.75 221.84 206.37 220.09 210.54 218.98 211.84 212.52 210.88"/><polygon class="cls-45" points="199.53 250.37 194.56 248.41 192.84 242.62 195.09 235.62 198.92 233.97 206.68 226.29 208.41 221.25 212.62 210.64 215.11 208.86 217.89 209.59 219.09 212.07 218.12 223.88 214.97 231.59 212.92 233.59 205.96 243.37 202.94 247.81 199.53 250.37"/><polygon class="cls-77" points="148.96 239.69 148.45 242.79 146.04 254.67 150.81 253.17 151.79 257.54 151.41 260.47 148 261.89 143.74 267.39 140.88 269.04 137.64 268.59 136.84 265.36 138.48 259.27 138.6 251.05 138.2 241.88 148.96 239.69"/><polygon class="cls-77" points="138.2 241.88 137.64 228.94 140.32 221.64 146.45 220.67 149.3 221.91 151.14 226.54 148.96 239.69 138.2 241.88"/><polygon class="cls-78" points="129.29 223.45 140.32 221.27 144.64 223.45 146.81 227.97 128.47 236.61 129.29 223.45"/><polygon class="cls-75" points="142.83 203.24 144.91 205.01 148 205.59 152.81 206.1 156.8 204.22 157.59 201.33 155.17 199.2 150.55 196.66 148.07 196.48 143.06 198.36 141.86 201.42 142.83 203.24"/><polygon class="cls-4" points="160.81 199.36 160.81 199.78 160.15 200.17 160.06 199.69 160.81 199.36"/><polygon class="cls-35" points="160.17 198.68 160.54 198.9 159.86 199.38 159.51 199.06 160.17 198.68"/><polygon class="cls-34" points="160.54 198.9 160.81 199.36 160.15 199.74 159.98 199.6 159.88 199.28 160.54 198.9"/><polygon class="cls-33" points="159.24 199.65 159.51 200.1 159.88 200.32 160.15 200.17 160.15 199.74 159.88 199.28 159.51 199.06 159.24 199.21 159.24 199.65"/><polygon class="cls-66" points="165.87 204.21 160.92 207.06 160.64 205.59 165.87 202.96 165.87 204.21"/><polygon class="cls-79" points="160.92 207.06 160.29 207.06 160.07 205.51 160.92 205.81 160.92 207.06"/><polygon class="cls-67" points="160.29 207.06 148.07 200 148.07 198.75 157.23 203.06 160.29 205.81 160.29 207.06"/><polygon class="cls-41" points="153.64 195.54 153.01 195.54 148.07 198.39 148.07 198.75 160.29 205.81 160.92 205.81 165.87 202.96 165.87 202.59 153.64 195.54"/><polygon class="cls-33" points="165.48 202.87 165.48 202.68 153.49 195.76 153.17 195.76 148.45 198.48 148.46 198.66 160.45 205.59 160.76 205.59 165.48 202.87"/><polygon class="cls-19" points="154.02 200.34 153.54 200.34 153.21 200.54 153.21 200.82 156.06 202.47 156.54 202.47 156.89 202.27 156.89 201.99 154.02 200.34"/><polygon class="cls-35" points="154.07 200.32 153.8 200.32 153.61 200.42 153.61 200.58 154.47 201.07 154.73 201.07 154.92 200.96 154.92 200.81 154.07 200.32"/><polygon class="cls-33" points="154.47 201.33 153.61 200.84 153.61 200.58 154.47 201.07 154.47 201.33"/><rect class="cls-34" x="154.47" y="201.07" width="0.26" height="0.26"/><polygon class="cls-4" points="154.92 201.23 154.73 201.33 154.73 201.07 154.92 200.96 154.92 201.23"/><polygon class="cls-35" points="155.63 201.21 155.35 201.21 155.17 201.33 155.17 201.48 156.02 201.97 156.29 201.97 156.47 201.86 156.47 201.71 155.63 201.21"/><polygon class="cls-33" points="156.02 202.24 155.17 201.74 155.17 201.48 156.02 201.97 156.02 202.24"/><rect class="cls-34" x="156.02" y="201.97" width="0.27" height="0.26"/><polygon class="cls-4" points="156.47 202.12 156.29 202.24 156.29 201.97 156.47 201.86 156.47 202.12"/><polygon class="cls-19" points="158.99 202.29 158.05 202.29 157.38 202.68 157.38 203.22 160.07 204.76 161.01 204.76 161.67 204.38 161.67 203.85 158.99 202.29"/><polygon class="cls-33" points="158.14 203.5 157.59 203.18 157.59 202.86 158.25 203.11 158.14 203.5"/><polygon class="cls-4" points="159.47 203.18 158.91 203.5 158.8 203.07 159.47 202.86 159.47 203.18"/><polygon class="cls-34" points="158.91 203.5 158.14 203.5 158.14 203.17 158.43 203.07 158.91 203.17 158.91 203.5"/><polygon class="cls-35" points="158.91 202.09 158.14 202.09 157.59 202.41 157.59 202.86 158.14 203.17 158.91 203.17 159.47 202.86 159.47 202.41 158.91 202.09"/><polygon class="cls-33" points="160.12 204.64 159.57 204.33 159.57 204.01 160.24 204.25 160.12 204.64"/><polygon class="cls-4" points="161.45 204.33 160.9 204.64 160.78 204.22 161.45 204.01 161.45 204.33"/><polygon class="cls-34" points="160.9 204.64 160.12 204.64 160.12 204.32 160.41 204.22 160.9 204.32 160.9 204.64"/><polygon class="cls-35" points="160.9 203.24 160.12 203.24 159.57 203.55 159.57 204.01 160.12 204.32 160.9 204.32 161.45 204.01 161.45 203.55 160.9 203.24"/><path class="cls-19" d="M161,202.35h-.81l-.6-.35v-.52l.6-.35H161l.6.35V202Z"/><polygon class="cls-67" points="160.24 202.29 159.69 201.96 159.69 201.65 160.36 201.89 160.24 202.29"/><polygon class="cls-66" points="161.57 201.96 161.02 202.29 160.9 201.86 161.57 201.65 161.57 201.96"/><polygon class="cls-79" points="161.02 202.29 160.24 202.29 160.24 201.96 160.53 201.86 161.02 201.96 161.02 202.29"/><polygon class="cls-41" points="161.02 200.87 160.24 200.87 159.69 201.2 159.69 201.65 160.24 201.96 161.02 201.96 161.57 201.65 161.57 201.2 161.02 200.87"/><path class="cls-19" d="M163,203.49h-.81l-.6-.34v-.53l.6-.34H163l.6.34v.53Z"/><polygon class="cls-67" points="162.22 203.43 161.67 203.11 161.67 202.79 162.34 203.04 162.22 203.43"/><polygon class="cls-66" points="163.56 203.11 163 203.43 162.88 203.01 163.56 202.79 163.56 203.11"/><polygon class="cls-79" points="163 203.43 162.22 203.43 162.22 203.11 162.52 203.01 163 203.11 163 203.43"/><polygon class="cls-41" points="163 202.02 162.22 202.02 161.67 202.34 161.67 202.79 162.22 203.11 163 203.11 163.56 202.79 163.56 202.34 163 202.02"/><polygon class="cls-19" points="154.6 199.73 157.95 201.66 158.14 201.55 154.79 199.62 154.6 199.73"/><polygon class="cls-19" points="155.03 199.48 158.38 201.41 158.56 201.31 155.23 199.37 155.03 199.48"/><polygon class="cls-19" points="155.47 199.23 158.81 201.16 159 201.05 155.65 199.12 155.47 199.23"/><polygon class="cls-19" points="156.97 198.36 155.9 198.98 159.24 200.91 160.32 200.29 156.97 198.36"/><polygon class="cls-19" points="154.56 199.09 153.59 198.52 154.56 197.95 153.54 197.36 152.55 197.93 151.57 197.36 150.55 197.95 151.53 198.52 150.55 199.09 151.57 199.69 152.55 199.11 153.54 199.69 154.56 199.09"/><polygon class="cls-4" points="154.37 199.1 154.37 198.84 153.94 198.85 153.37 198.53 154.37 197.95 154.37 197.69 152.55 198.05 151.55 197.48 150.93 197.84 151.73 198.53 151.06 199.12 151.55 199.57 152.55 199 152.96 199.08 153.55 199.57 154.37 199.1"/><polygon class="cls-33" points="151.73 198.53 150.73 197.95 150.73 197.69 151.73 198.27 151.73 198.53"/><polygon class="cls-35" points="154.37 198.84 153.37 198.27 154.37 197.69 153.55 197.21 152.55 197.79 151.55 197.21 150.73 197.69 151.73 198.27 150.73 198.84 151.55 199.31 152.55 198.74 153.55 199.31 154.37 198.84"/><polygon class="cls-33" points="152.65 198.12 152.44 198.12 152.29 198.2 152.29 198.32 152.44 198.41 152.65 198.41 152.81 198.32 152.81 198.2 152.65 198.12"/><polygon class="cls-33" points="153.49 197.89 153.19 197.72 153.49 197.54 153.8 197.72 153.49 197.89"/><polygon class="cls-33" points="151.61 198.98 151.31 198.81 151.61 198.63 151.92 198.81 151.61 198.98"/><polygon class="cls-33" points="153.19 198.81 153.49 198.63 153.8 198.81 153.49 198.98 153.19 198.81"/><polygon class="cls-33" points="151.31 197.72 151.61 197.54 151.92 197.72 151.61 197.89 151.31 197.72"/><polygon class="cls-33" points="151.55 199.57 150.73 199.1 150.73 198.84 151.55 199.31 151.55 199.57"/><polygon class="cls-33" points="153.55 199.57 152.55 199 152.55 198.74 153.55 199.31 153.55 199.57"/><polygon class="cls-75" points="131.2 196.62 142.75 196.76 148.84 195.54 151.92 196.15 154.04 198.14 152.55 198.74 149.28 197.69 145.79 200.32 143.81 200.39 142.83 203.24 137.16 204.01 130.95 201.86 131.2 196.62"/><polygon class="cls-23" points="103.09 182.95 99.73 186.4 99.42 191.63 101.91 196.89 110.71 205.24 116.63 204.47 120.22 200.59 120.22 196.89 114.96 189.57 112.47 185.61 107.9 182.95 103.09 182.95"/><polygon class="cls-75" points="116.39 181.98 114.91 185.31 112.44 187.84 114.08 192.81 120.51 195.54 127.51 195.54 128.69 191.93 129.43 185.81 130.13 183.24 130.72 180.85 126.66 178.02 119.55 178.53 116.39 181.98"/><polygon class="cls-75" points="160.61 239.79 160.97 229.47 155.71 224.16 147.2 226.76 147.48 234.65 147.53 235.96 156.95 239.69 160.61 239.79"/><polygon class="cls-77" points="149.75 239.69 158.23 233.79 149.75 241.65 149.75 239.69"/><polygon class="cls-80" points="130.72 232.82 147.42 226.05 152.7 229.69 153.61 237.29 150.25 242.47 126.89 259.67 117.18 261.48 108.83 258.1 103.3 256.4 97.54 249.03 98.39 241.87 130.72 232.82"/><polygon class="cls-20" points="134.11 197.54 131.1 195.54 128.69 191.93 125.95 193.2 118.82 191.79 114.19 188.8 114.91 185.31 112.44 185.68 108.83 185.31 105.06 187.87 101.83 193.13 101.83 199.57 102.74 221.34 98.9 235.49 98.14 241.58 101.61 245.65 105.97 247.68 114.1 249.03 122.82 247.38 129.37 242.94 132.01 237.45 132.38 229.54 135.05 215.6 134.11 197.54"/><polygon class="cls-75" points="137.55 166.76 137.97 170.18 137.76 171.42 137.76 177.21 135.33 182.07 132.4 184.7 129.73 184.93 128.42 182.63 126.27 176.96 128.48 166.76 133.11 164.91 137.55 166.76"/><polygon class="cls-33" points="118.74 185.64 123.1 186.4 126.87 184.81 128.53 182.49 129.13 179.63 130.78 177.06 132.51 177.06 133.11 177.36 134.16 177.06 134.77 174.43 137.55 170.67 137.55 165.55 138.23 166.08 138.68 166.68 139.06 164.65 136.12 160.44 133.86 159.68 131.3 157.81 126.04 156.75 120.32 158.33 116.63 160.96 113.55 165.1 112.04 168.79 112.57 175.71 114 180.08 115.81 183.54 118.74 185.64"/><polygon class="cls-4" points="133.86 159.68 127.55 160.13 122.6 164.6 128.23 161.08 133.86 159.68"/><polygon class="cls-75" points="146.81 211.6 147.48 212.22 151.14 209.28 155.82 205.59 156.54 202.47 158.34 200.58 159.51 200.39 160.81 201.96 161.57 203.29 165.87 203.43 166.56 204.64 166.33 205.51 165.48 206.28 164.64 208.38 162.34 210.87 160.54 211.48 157.92 211.43 152.81 220.35 149.01 222.04 144.5 222.55 140.32 218.54 141.11 214.59 146.81 211.6"/><polygon class="cls-77" points="147.48 212.22 149.97 214.87 146.04 212.22 146.81 211.6 147.48 212.22"/><polygon class="cls-23" points="130.1 197.54 127.22 200.69 126.89 205.51 128.75 210.58 138.73 218.54 143.31 218.54 146.81 214.76 146.81 211.15 141.67 204.01 139.24 200.15 134.79 197.54 130.1 197.54"/><polygon class="cls-52" points="188.97 270.54 19.42 172.71 25.98 167.74 195.53 265.57 193.62 274.56 188.97 270.54"/><polygon class="cls-51" points="201.03 352.25 31.48 254.42 19.42 172.71 188.97 270.54 195.53 288.09 201.03 352.25"/><polygon class="cls-50" points="205.65 334.12 195.53 265.57 188.97 270.54 201.03 352.25 260.93 317.62 260.93 302.14 205.65 334.12"/><polygon class="cls-51" points="192.24 359.43 22.77 261.59 11.38 228.3 10.61 186.12 189.76 276.52 192.24 359.43"/><polygon class="cls-52" points="180.07 283.96 10.61 186.12 20.3 178.68 189.76 276.52 180.07 283.96"/><polygon class="cls-51" points="202.84 365.55 192.24 359.43 180.07 283.96 200.37 282.65 202.84 365.55"/><polygon class="cls-51" points="216.35 326.94 210.62 328.49 201.96 320.21 205.74 320.81 215.35 321.27 216.35 326.94"/><polygon class="cls-52" points="216.35 326.94 205.74 320.81 255.27 285.79 265.87 291.91 245.94 314.39 216.35 326.94"/><polygon class="cls-50" points="216.35 326.94 212.56 326.33 200.37 282.65 190.67 290.09 202.84 365.55 266.17 328.93 270.11 295.4 265.87 291.91 216.35 326.94"/><polygon class="cls-52" points="190.67 290.09 180.07 283.96 189.76 276.52 200.37 282.65 190.67 290.09"/><polygon class="cls-4" points="234.72 248.79 234.72 249.22 234.06 249.6 233.98 249.13 234.72 248.79"/><polygon class="cls-35" points="234.09 248.12 234.46 248.34 233.78 248.82 233.43 248.5 234.09 248.12"/><polygon class="cls-34" points="234.46 248.34 234.72 248.79 234.06 249.17 233.91 249.04 233.8 248.72 234.46 248.34"/><polygon class="cls-33" points="233.16 249.09 233.43 249.54 233.8 249.76 234.06 249.6 234.06 249.17 233.8 248.72 233.43 248.5 233.16 248.66 233.16 249.09"/><polygon class="cls-66" points="239.79 253.64 234.84 256.49 234.55 255.03 239.79 252.4 239.79 253.64"/><polygon class="cls-79" points="234.84 256.49 234.21 256.49 233.99 254.95 234.84 255.25 234.84 256.49"/><polygon class="cls-67" points="234.21 256.49 221.99 249.44 221.99 248.19 231.16 252.5 234.21 255.25 234.21 256.49"/><polygon class="cls-41" points="227.57 244.98 226.93 244.98 221.99 247.83 221.99 248.19 234.21 255.25 234.84 255.25 239.79 252.4 239.79 252.03 227.57 244.98"/><polygon class="cls-33" points="239.4 252.31 239.4 252.13 227.41 245.2 227.09 245.2 222.37 247.92 222.37 248.1 234.37 255.03 234.68 255.03 239.4 252.31"/><polygon class="cls-19" points="232.91 251.73 231.96 251.73 231.31 252.12 231.31 252.65 233.98 254.21 234.93 254.21 235.59 253.82 235.59 253.29 232.91 251.73"/><polygon class="cls-33" points="232.06 252.93 231.51 252.62 231.51 252.3 232.18 252.55 232.06 252.93"/><polygon class="cls-4" points="233.39 252.62 232.84 252.93 232.72 252.51 233.39 252.3 233.39 252.62"/><polygon class="cls-34" points="232.84 252.93 232.06 252.93 232.06 252.62 232.35 252.51 232.84 252.62 232.84 252.93"/><polygon class="cls-35" points="232.84 251.53 232.06 251.53 231.51 251.85 231.51 252.3 232.06 252.62 232.84 252.62 233.39 252.3 233.39 251.85 232.84 251.53"/><polygon class="cls-33" points="234.04 254.08 233.49 253.77 233.49 253.44 234.16 253.69 234.04 254.08"/><polygon class="cls-4" points="235.38 253.77 234.82 254.08 234.7 253.66 235.38 253.44 235.38 253.77"/><polygon class="cls-34" points="234.82 254.08 234.04 254.08 234.04 253.77 234.34 253.66 234.82 253.77 234.82 254.08"/><polygon class="cls-35" points="234.82 252.68 234.04 252.68 233.49 252.99 233.49 253.44 234.04 253.77 234.82 253.77 235.38 253.44 235.38 252.99 234.82 252.68"/><path class="cls-19" d="M235,251.79h-.82l-.59-.34v-.53l.59-.34H235l.59.34v.53Z"/><polygon class="cls-67" points="234.16 251.72 233.61 251.41 233.61 251.08 234.28 251.33 234.16 251.72"/><polygon class="cls-66" points="235.49 251.41 234.94 251.72 234.82 251.3 235.49 251.08 235.49 251.41"/><polygon class="cls-79" points="234.94 251.72 234.16 251.72 234.16 251.4 234.46 251.3 234.94 251.4 234.94 251.72"/><polygon class="cls-41" points="234.94 250.32 234.16 250.32 233.61 250.63 233.61 251.08 234.16 251.4 234.94 251.4 235.49 251.08 235.49 250.63 234.94 250.32"/><path class="cls-19" d="M237,252.93h-.82l-.6-.34v-.52l.6-.35H237l.59.35v.52Z"/><polygon class="cls-67" points="236.14 252.87 235.59 252.55 235.59 252.23 236.26 252.48 236.14 252.87"/><polygon class="cls-66" points="237.47 252.55 236.92 252.87 236.81 252.45 237.47 252.23 237.47 252.55"/><polygon class="cls-79" points="236.92 252.87 236.14 252.87 236.14 252.55 236.44 252.45 236.92 252.55 236.92 252.87"/><polygon class="cls-41" points="236.92 251.46 236.14 251.46 235.59 251.78 235.59 252.23 236.14 252.55 236.92 252.55 237.47 252.23 237.47 251.78 236.92 251.46"/><polygon class="cls-19" points="228.52 249.16 231.86 251.1 232.05 250.99 228.71 249.06 228.52 249.16"/><polygon class="cls-19" points="228.96 248.92 232.3 250.85 232.49 250.74 229.14 248.81 228.96 248.92"/><polygon class="cls-19" points="229.39 248.67 232.73 250.6 232.92 250.49 229.58 248.56 229.39 248.67"/><polygon class="cls-19" points="230.9 247.8 229.82 248.42 233.16 250.35 234.24 249.73 230.9 247.8"/><polygon class="cls-19" points="228.49 248.53 227.5 247.96 228.49 247.4 227.46 246.8 226.48 247.37 225.5 246.8 224.47 247.4 225.45 247.96 224.47 248.53 225.5 249.12 226.48 248.56 227.46 249.12 228.49 248.53"/><polygon class="cls-4" points="228.28 248.54 228.28 248.28 227.87 248.29 227.29 247.96 228.28 247.39 228.28 247.12 226.47 247.49 225.47 246.92 224.84 247.28 225.66 247.96 224.99 248.56 225.47 249.02 226.47 248.44 226.88 248.52 227.47 249.02 228.28 248.54"/><polygon class="cls-33" points="225.66 247.96 224.66 247.39 224.66 247.12 225.66 247.7 225.66 247.96"/><polygon class="cls-35" points="228.28 248.28 227.29 247.7 228.28 247.12 227.47 246.66 226.47 247.23 225.47 246.66 224.66 247.12 225.66 247.7 224.66 248.28 225.47 248.75 226.47 248.18 227.47 248.75 228.28 248.28"/><polygon class="cls-33" points="226.58 247.55 226.36 247.55 226.22 247.64 226.22 247.76 226.36 247.85 226.58 247.85 226.72 247.76 226.72 247.64 226.58 247.55"/><polygon class="cls-33" points="227.41 247.33 227.11 247.16 227.41 246.98 227.72 247.16 227.41 247.33"/><polygon class="cls-33" points="225.53 248.42 225.22 248.25 225.53 248.07 225.83 248.25 225.53 248.42"/><polygon class="cls-33" points="227.11 248.25 227.41 248.07 227.72 248.25 227.41 248.42 227.11 248.25"/><polygon class="cls-33" points="225.22 247.16 225.53 246.98 225.83 247.16 225.53 247.33 225.22 247.16"/><polygon class="cls-33" points="225.47 249.02 224.66 248.54 224.66 248.28 225.47 248.75 225.47 249.02"/><polygon class="cls-33" points="227.47 249.02 226.47 248.44 226.47 248.18 227.47 248.75 227.47 249.02"/></g></g></svg>