<svg xmlns="http://www.w3.org/2000/svg" xmlns:xlink="http://www.w3.org/1999/xlink" viewBox="0 0 271.53 199.18"><defs><style>.cls-1{isolation:isolate;}.cls-2{fill:#a5c7e5;}.cls-3{fill:#eff6fc;}.cls-4{fill:#4088c0;}.cls-5{fill:#309ea1;}.cls-6{fill:#8dadc8;}.cls-12,.cls-6{opacity:0.2;}.cls-21,.cls-7{fill:#fff;}.cls-8{fill:#093269;}.cls-9{fill:#13498a;}.cls-10,.cls-12,.cls-13{mix-blend-mode:multiply;}.cls-10{fill:url(#radial-gradient);}.cls-11{fill:#f5e3b7;}.cls-12{fill:url(#radial-gradient-2);}.cls-13{opacity:0.3;fill:url(#radial-gradient-3);}.cls-14{mix-blend-mode:screen;fill:url(#radial-gradient-4);}.cls-15{fill:#ebc230;}.cls-16{fill:#f3d630;}.cls-17{fill:#6faad7;}.cls-18{fill:#cee5f7;}.cls-19{fill:#c34a79;}.cls-20{fill:#c85e8b;}.cls-21{opacity:0.5;}.cls-22{fill:#001a45;}.cls-23{fill:#1e9794;}.cls-24{fill:#4ca5ac;}</style><radialGradient id="radial-gradient" cx="234.45" cy="73.09" r="19.26" gradientTransform="matrix(-1, 0, 0, 1, 303.45, 0)" gradientUnits="userSpaceOnUse"><stop offset="0.06" stop-color="#7c96aa"/><stop offset="1" stop-color="#fff"/></radialGradient><radialGradient id="radial-gradient-2" cx="2625.26" cy="-964.13" r="57.75" gradientTransform="matrix(-0.78, 0.62, 0.24, 0.3, 2392.54, -1188.35)" gradientUnits="userSpaceOnUse"><stop offset="0" stop-color="#7d98be"/><stop offset="1" stop-color="#fff"/></radialGradient><radialGradient id="radial-gradient-3" cx="2621.64" cy="-959.52" r="29.56" xlink:href="#radial-gradient-2"/><radialGradient id="radial-gradient-4" cx="4204.24" cy="-8428.92" r="18.86" gradientTransform="matrix(-1.06, -0.46, -0.06, 0.14, 3999.54, 3198.81)" gradientUnits="userSpaceOnUse"><stop offset="0" stop-color="#fff"/><stop offset="0.13" stop-color="#ca68a0"/><stop offset="1" stop-color="#070308"/></radialGradient></defs><title>Recurso 2</title><g class="cls-1"><g id="Capa_2" data-name="Capa 2"><g id="Capa_1-2" data-name="Capa 1"><polygon class="cls-2" points="70.76 197.99 0 145.09 117.24 94.8 188 147.71 70.76 197.99"/><polygon class="cls-3" points="72.21 196.54 1.45 143.64 118.69 93.35 189.45 146.25 72.21 196.54"/><polygon class="cls-2" points="79.82 197.71 2.54 153.09 114.14 88.65 191.43 133.28 79.82 197.71"/><polygon class="cls-3" points="81.05 195.91 4.54 151.74 115.02 87.95 191.53 132.13 81.05 195.91"/><path class="cls-4" d="M153.46,140.49a.67.67,0,0,1-.3-.08l-9.47-5.47a.6.6,0,0,1,0-1l9.41-5.43a.59.59,0,0,1,.6,0l9.47,5.47a.59.59,0,0,1,0,1l-9.41,5.44A.61.61,0,0,1,153.46,140.49Zm-8.27-6.07,8.27,4.78,8.22-4.74-8.28-4.78Z"/><path class="cls-4" d="M118.11,114.15l-1.54.88,3.09,1.79,1.54-.89ZM113,116.8l9.51,5.48,1.54-.89-9.51-5.48Zm21.89,7.06-12.41-7.17-1.53.89,12.41,7.16Zm-25.45-9.18,2.24,1.36,1.54-.89L111,113.79Zm6.88-5.27,28.18,16.26,2.87-1.49-28.18-16.27Zm-7,1.45,5.92,3.41,1.54-.89L110.86,110Zm25.39,14.65,5.5,3.17,1.53-.88-5.5-3.18Zm-10.85-2.46,13.06,7.53,1.53-.88-13.05-7.54Z"/><polygon class="cls-5" points="150.83 136.06 151.87 127.45 153.85 127.69 153.14 133.57 164.04 131.46 164.42 133.43 150.83 136.06"/><path class="cls-4" d="M135.89,150.33a.64.64,0,0,1-.3-.08l-9.47-5.47a.6.6,0,0,1,0-1l9.41-5.43a.59.59,0,0,1,.6,0l9.47,5.47a.59.59,0,0,1,0,1l-9.41,5.44A.67.67,0,0,1,135.89,150.33Zm-8.28-6.07,8.28,4.78,8.21-4.74-8.27-4.78Z"/><path class="cls-4" d="M100.53,124l-1.53.88,3.09,1.79,1.53-.89Zm-5.06,2.65,9.51,5.48,1.53-.89L97,125.75Zm21.89,7.06L105,126.53l-1.54.89,12.41,7.16ZM91.9,124.52l2.25,1.36,1.53-.89-2.24-1.36Zm6.89-5.27L127,135.51l2.86-1.49-28.17-16.27Zm-7,1.45,5.93,3.41,1.53-.89-5.92-3.41Zm25.39,14.65,5.5,3.17,1.54-.88-5.5-3.18Zm-10.84-2.46,13,7.53,1.54-.88L107.83,132Z"/><path class="cls-4" d="M118,160.12a.64.64,0,0,1-.3-.08l-9.47-5.47a.59.59,0,0,1,0-1l9.41-5.44a.64.64,0,0,1,.6,0l9.47,5.47a.6.6,0,0,1,0,1L118.34,160A.67.67,0,0,1,118,160.12Zm-8.28-6.07,8.28,4.78,8.21-4.74L118,149.31Z"/><path class="cls-4" d="M82.68,133.78l-1.53.89,3.09,1.78,1.53-.89Zm-5.06,2.65,9.51,5.49,1.53-.89-9.5-5.48Zm21.89,7.06L87.1,136.33l-1.54.88L98,144.38Zm-25.46-9.18,2.25,1.36,1.53-.89-2.24-1.35ZM80.94,129l28.18,16.27,2.86-1.5L83.81,127.54Zm-7,1.45,5.93,3.41,1.53-.88-5.92-3.41Zm25.4,14.65,5.49,3.18,1.54-.89-5.5-3.17Zm-10.85-2.46,13,7.54,1.54-.89L90,141.79Z"/><polygon class="cls-5" points="115.41 155.69 116.44 147.09 118.43 147.32 117.72 153.21 128.62 151.1 129 153.06 115.41 155.69"/><path class="cls-4" d="M100.46,170a.67.67,0,0,1-.3-.08l-9.47-5.47a.6.6,0,0,1,0-1l9.42-5.44a.62.62,0,0,1,.59,0l9.47,5.47a.6.6,0,0,1,0,1l-9.41,5.43A.61.61,0,0,1,100.46,170Zm-8.27-6.06,8.27,4.77,8.22-4.74-8.28-4.78Z"/><path class="cls-4" d="M65.11,143.62l-1.53.89,3.08,1.78,1.54-.89Zm-5.06,2.65,9.5,5.49,1.54-.89-9.51-5.48Zm21.88,7.06-12.41-7.16-1.53.88,12.41,7.17Zm-25.45-9.18,2.24,1.36,1.54-.89L58,143.27Zm6.88-5.27,28.18,16.27,2.87-1.5L66.23,137.38Zm-7,1.45,5.92,3.41,1.54-.88-5.93-3.41ZM81.72,155l5.5,3.18,1.53-.89-5.5-3.17Zm-10.84-2.46,13.05,7.54,1.53-.89-13-7.54Z"/><path class="cls-4" d="M82.89,179.62a.64.64,0,0,1-.3-.08l-9.47-5.47a.59.59,0,0,1-.3-.52.57.57,0,0,1,.3-.51l9.41-5.44a.59.59,0,0,1,.6,0l9.47,5.47a.61.61,0,0,1,.3.52.59.59,0,0,1-.3.51l-9.41,5.44A.64.64,0,0,1,82.89,179.62Zm-8.28-6.07,8.28,4.78,8.22-4.74-8.28-4.78Z"/><path class="cls-4" d="M47.53,153.28l-1.53.88L49.09,156l1.53-.89Zm-5.06,2.65L52,161.41l1.53-.88L44,155.05ZM64.36,163,52,155.83l-1.54.88,12.41,7.17Zm-25.45-9.18,2.24,1.36,1.53-.89-2.24-1.36Zm6.88-5.27L74,164.81l2.86-1.5L48.66,147Zm-7,1.45,5.93,3.41,1.53-.89-5.92-3.41Zm25.4,14.65,5.49,3.17,1.54-.88-5.5-3.18ZM53.3,162.18l13,7.53,1.54-.88-13-7.54Z"/><path class="cls-6" d="M23.31,160.58,15,155.91c-2.16-1.25-1.89-3.43.61-4.87l45-25.65c2.49-1.44,6.26-1.6,8.42-.35l8.31,4.67c2.16,1.25,1.89,3.43-.61,4.87l-45,25.65C29.25,161.67,25.47,161.83,23.31,160.58Z"/><path class="cls-4" d="M27.76,157.91,69.24,134c4.68-2.7,8.48-10,8.48-16.19V7.29c0-3.17,2.6-3.87,1-5C78.68,2.24,75,.58,75,.56a6.08,6.08,0,0,0-5.73.33l-41.48,24c-4.68,2.7-8.47,10-8.47,16.19V151.51c0,3.31,1.07,5.68,2.77,6.76.1.06,4.49,2.15,4.61,2.19C28.18,161,25.71,159.09,27.76,157.91Z"/><path class="cls-7" d="M31,159.39l41.49-24c4.67-2.7,8.47-10,8.47-16.18V8.77c0-6.24-3.8-9.11-8.47-6.41L31,26.31c-4.68,2.71-8.47,10-8.47,16.19V153C22.51,159.22,26.3,162.09,31,159.39Z"/><path class="cls-2" d="M31.72,159.78,73.2,135.83c4.68-2.7,8.48-10,8.48-16.19V9.17c0-6.24-3.8-9.11-8.48-6.41l-41.48,24c-4.68,2.7-8.47,9.95-8.47,16.19V153.38C23.25,159.62,27,162.49,31.72,159.78Z"/><path class="cls-8" d="M28.88,158.59a5.26,5.26,0,0,0,2.6-.8L72.75,134c3.9-2.26,7.07-8.35,7.07-13.59V9.77C79.82,6.24,78.34,4,76,4a5.35,5.35,0,0,0-2.6.79L32.18,28.58c-3.91,2.25-7.08,8.35-7.08,13.59V152.78C25.1,156.31,26.58,158.59,28.88,158.59Z"/><path class="cls-9" d="M78.87,121.05V11c0-4.58-2.78-6.68-6.22-4.7L32.27,29.61c-3.43,2-6.22,7.31-6.22,11.88V151.55c0,4.57,2.79,6.68,6.22,4.7l40.38-23.32C76.09,131,78.87,125.63,78.87,121.05Z"/><polygon class="cls-7" points="78.05 120.44 26.88 149.99 26.88 55.95 78.05 26.41 78.05 120.44"/><path class="cls-7" d="M36.23,35c0-.23-.16-.32-.35-.21l-5.13,3a.79.79,0,0,0-.35.61c0,.23.16.32.35.2l5.13-3A.77.77,0,0,0,36.23,35ZM30.4,40.17c0,.22.16.31.35.2l5.13-3a.79.79,0,0,0,.35-.61c0-.22-.16-.31-.35-.2l-5.13,3A.78.78,0,0,0,30.4,40.17Zm0,1.82c0,.22.16.31.35.2l5.13-3a.78.78,0,0,0,.35-.61c0-.22-.16-.31-.35-.2l-5.13,3A.79.79,0,0,0,30.4,42Z"/><path class="cls-7" d="M67.26,17.89c0,.54.39.76.86.49A1.87,1.87,0,0,0,69,16.91c0-.54-.38-.76-.85-.49A1.89,1.89,0,0,0,67.26,17.89Z"/><path class="cls-7" d="M69.84,16.4c0,.54.38.76.85.48a1.87,1.87,0,0,0,.85-1.47c0-.54-.38-.76-.85-.48A1.87,1.87,0,0,0,69.84,16.4Z"/><path class="cls-7" d="M72.41,14.9c0,.54.38.76.85.49a1.89,1.89,0,0,0,.86-1.47c0-.54-.39-.76-.86-.49A1.87,1.87,0,0,0,72.41,14.9Z"/><path class="cls-4" d="M35,73.27l4.77-2.8V68.66L35,71.47Zm-4.67-1.66,29.08-17V51.83l-29.08,17Zm10.73-1.89,10.68-6.16v-1.8L41.08,67.92Zm12-6.9L59.43,59v-1.8L53.05,61Z"/><path class="cls-2" d="M63.61,59.91a.57.57,0,0,1-.29-.5V48.12a.57.57,0,0,1,.29-.5l9.84-5.69a.58.58,0,0,1,.87.51V53.73a.57.57,0,0,1-.29.5l-9.84,5.68a.57.57,0,0,1-.58,0Zm9.55-16.47-8.68,5V58.4l8.68-5Z"/><path class="cls-4" d="M35,92.54l4.77-2.81v-1.8L35,90.73Zm-4.67-1.67,29.08-17V71.1l-29.08,17ZM41.08,89l10.68-6.16V81L41.08,87.18Zm12-6.91,6.38-3.77V76.5l-6.38,3.78Z"/><path class="cls-2" d="M63.61,79.18a.6.6,0,0,1-.29-.51V67.38a.57.57,0,0,1,.29-.5l9.84-5.68a.55.55,0,0,1,.58,0,.57.57,0,0,1,.29.5V73a.57.57,0,0,1-.29.5l-9.84,5.69a.64.64,0,0,1-.58,0ZM73.16,62.7l-8.68,5v10l8.68-5Z"/><path class="cls-4" d="M35,111.55l4.77-2.8v-1.81L35,109.75Zm-4.67-1.66,29.08-17V90.11l-29.08,17ZM41.08,108l10.68-6.16V100L41.08,106.2Zm12-6.91,6.38-3.77v-1.8l-6.38,3.77Z"/><path class="cls-2" d="M63.61,98.19a.58.58,0,0,1-.29-.5V86.39a.59.59,0,0,1,.29-.5l9.84-5.68a.6.6,0,0,1,.58,0,.57.57,0,0,1,.29.5V92a.59.59,0,0,1-.29.5l-9.84,5.68a.57.57,0,0,1-.58,0Zm9.55-16.47-8.68,5v10l8.68-5Z"/><path class="cls-4" d="M35,130.81l4.77-2.8V126.2L35,129Zm-4.67-1.66,29.08-17v-2.74l-29.08,17Zm10.73-1.89,10.68-6.16v-1.8l-10.68,6.16Zm12-6.9,6.38-3.78v-1.8l-6.38,3.77Z"/><path class="cls-2" d="M63.61,117.45a.57.57,0,0,1-.29-.5V105.66a.57.57,0,0,1,.29-.5l9.84-5.69a.58.58,0,0,1,.87.51v11.29a.57.57,0,0,1-.29.5l-9.84,5.68a.57.57,0,0,1-.58,0ZM73.16,101l-8.68,5v10l8.68-5Z"/><polygon class="cls-10" points="87.17 60.4 74.27 82.62 41.3 63.99 49.18 53.24 72.47 76.17 76.77 58.97 87.17 60.4"/><path class="cls-11" d="M91.85,151l8.21-15.57s18.71,16.41,17.91,18.21S91.85,151,91.85,151Z"/><path class="cls-12" d="M40.82,189.4l61.12-30.8s.51-.23.72-.3a97.1,97.1,0,0,1,13.94-4.78h0c1-.25,1.4.05,1.09,1.15a5.08,5.08,0,0,1-2.25,2.83h0s-9.19,6.57-15.06,9.89a7.67,7.67,0,0,1-1,.62l-.06,0h0L38,199.18Z"/><path class="cls-13" d="M82.86,170.12l27.42-13.81.32-.14a43.67,43.67,0,0,1,6.25-2.14h0c.43-.11.12,1.3-.51,1.79h0s-4.13,2.95-6.76,4.44a3.68,3.68,0,0,1-.45.28h0l-27.53,14Z"/><path class="cls-14" d="M28.8,109c-.62,1.44,7.82,6.46,18.86,11.22s20.47,7.45,21.09,6-7.82-6.45-18.85-11.21S29.42,107.6,28.8,109Z"/><path class="cls-15" d="M37.76,107.84l60.78,26.74a6.6,6.6,0,0,1,2.64,2.09l1.75,2.34a1.37,1.37,0,0,1-1,2.19l-3.82.33L35.37,113.71Z"/><path class="cls-16" d="M35.37,113.71l62.76,27.82,1.62,2.82a1.36,1.36,0,0,1-.89,2l-3.72.81-61.27-27Z"/><path class="cls-15" d="M33.87,120.15,31,124.28l60.17,26.55a3.19,3.19,0,0,0,2.87-.16l1.36-.8a1.1,1.1,0,0,0,.52-1.69l-.77-1Z"/><path class="cls-2" d="M18.38,119l7.42-16.71,11.85,5.24h0l.07,0c2.68,1.19,3.2,5.9,1.15,10.51s-5.89,7.38-8.57,6.19l-.07,0h0Z"/><path class="cls-17" d="M18.42,119c2.68,1.19,6.52-1.58,8.57-6.19s1.53-9.32-1.16-10.52-6.52,1.58-8.57,6.2S15.73,117.81,18.42,119Z"/><path class="cls-18" d="M26.61,112.76c2.05-4.61,1.53-9.32-1.16-10.51a1.27,1.27,0,0,0-.18-.06,3.29,3.29,0,0,1,.87.23c2.69,1.19,3.21,5.9,1.16,10.51s-5.71,7.25-8.39,6.26C21.5,119.54,24.77,116.9,26.61,112.76Z"/><path class="cls-19" d="M11,115.14l6.92-15.6,7.15,3.15h0l.06,0c2.51,1.11,3,5.51,1.08,9.81s-5.5,6.9-8,5.79l-.06,0h0Z"/><ellipse class="cls-20" cx="14.48" cy="107.35" rx="8.53" ry="4.97" transform="translate(-89.51 77.03) rotate(-66.06)"/><path class="cls-21" d="M18.68,109.23c1.74-3.93,1.49-7.92-.46-9.44l.16.06c2.51,1.11,3,5.51,1.08,9.82s-5.5,6.89-8,5.78a3,3,0,0,1-.61-.38C13.34,116,16.81,113.45,18.68,109.23Z"/><path class="cls-22" d="M113.77,148.22a13.69,13.69,0,0,1-2.2,5.68c3.5.29,6.15.32,6.4-.25S116.38,150.87,113.77,148.22Z"/><polygon class="cls-23" points="61.55 48.97 76.58 81.72 103.09 53.89 90.83 42.72 76.58 66.73 69.86 50.59 61.55 48.97"/><polygon class="cls-5" points="59.3 50.62 74.34 83.36 100.85 55.53 88.58 44.36 74.34 68.38 67.61 52.23 59.3 50.62"/><polygon class="cls-23" points="103.09 53.89 100.85 55.53 74.34 83.36 76.58 81.72 103.09 53.89"/><polygon class="cls-24" points="61.55 48.97 59.3 50.62 67.61 52.23 69.86 50.59 61.55 48.97"/><polygon class="cls-24" points="100.85 55.53 88.58 44.36 90.83 42.72 103.09 53.89 100.85 55.53"/><polygon class="cls-7" points="67.64 51.87 59.3 50.62 67.61 52.23 69.86 50.59 67.64 51.87"/><polygon class="cls-7" points="100.85 55.53 88.58 44.36 100.88 55.08 103.09 53.89 100.85 55.53"/></g></g></g></svg>