<svg xmlns="http://www.w3.org/2000/svg" viewBox="0 0 230 178.93"><defs><style>.cls-1{fill:#939597;}.cls-2{fill:#bcbebf;}.cls-3{fill:#a6a8ac;}.cls-4{fill:#259b93;}.cls-5{fill:#535359;}.cls-6,.cls-9{fill:#131214;}.cls-7{fill:#070308;}.cls-8{fill:#303033;}.cls-9{opacity:0.3;}.cls-10{fill:#b15f16;}.cls-11{fill:#d27b33;}.cls-12{fill:#0f1f33;}.cls-13{fill:#1b364d;}.cls-14{fill:#167a6e;}.cls-15{fill:#a1223a;}.cls-16{fill:#c23959;}</style></defs><title>Recurso 4</title><g id="Capa_2" data-name="Capa 2"><g id="Capa_1-2" data-name="Capa 1"><path class="cls-1" d="M14.51,60.94a58.37,58.37,0,0,1,6-3.93l35.86-20.7c27.32-15.77,71.61-15.77,98.93,0a58.81,58.81,0,0,1,6.66,4.44h13.83v26c0,10.34-6.83,20.67-20.49,28.56L119.42,116c-27.32,15.77-71.61,15.77-98.93,0C7,108.24.16,98.05,0,87.83H0v-.35H0V60.94Z"/><path class="cls-2" d="M20.49,32.53l35.86-20.7c27.32-15.77,71.61-15.77,98.93,0s27.32,41.34,0,57.12l-35.86,20.7c-27.32,15.77-71.61,15.77-98.93,0S-6.83,48.31,20.49,32.53Z"/><path class="cls-1" d="M38.22,44.27c1.52-5.59,6-11,13.47-15.27,18.74-10.82,49.13-10.82,67.87,0,7.66,4.42,12.18,10,13.58,15.72h.48V48.6h0c0,7.09-4.69,14.18-14.06,19.59C100.82,79,70.43,79,51.69,68.19c-9.38-5.41-14.06-12.5-14.06-19.59V44.27Z"/><path class="cls-3" d="M51.69,64.31c18.74,10.82,49.13,10.82,67.87,0s18.74-28.36,0-39.19-49.13-10.82-67.87,0S32.94,53.49,51.69,64.31Z"/><path class="cls-2" d="M60.49,40.11c4.73,2.73,12.41,2.73,17.14,0s4.74-7.17,0-9.9-12.41-2.73-17.14,0S55.76,37.37,60.49,40.11Z"/><path class="cls-1" d="M61.05,91V88.2l1.37-.53a9.7,9.7,0,0,1,2.48-2c5.13-3,13.45-3,18.59,0a9.7,9.7,0,0,1,2.48,2l1.37.53V91c0,1.94-1.29,3.88-3.85,5.36-5.14,3-13.46,3-18.59,0C62.33,94.92,61.05,93,61.05,91Z"/><path class="cls-3" d="M64.9,93.56c5.13,3,13.45,3,18.59,0s5.13-7.77,0-10.73-13.46-3-18.59,0S59.77,90.6,64.9,93.56Z"/><path class="cls-4" d="M78.43,92.77a4.07,4.07,0,0,0,3.69,0,1.13,1.13,0,0,0,0-2.13,4.13,4.13,0,0,0-3.69,0A1.13,1.13,0,0,0,78.43,92.77Z"/><path class="cls-1" d="M145.07,42.53V39.68l1.38-.51a9.28,9.28,0,0,1,2.47-2c5.14-3,13.46-3,18.59,0a9.33,9.33,0,0,1,2.48,2l1.37.51v2.85c0,1.94-1.28,3.88-3.85,5.36-5.13,3-13.45,3-18.58,0C146.36,46.41,145.07,44.47,145.07,42.53Z"/><path class="cls-3" d="M148.93,45.05c5.13,3,13.45,3,18.58,0s5.13-7.77,0-10.73-13.45-3-18.59,0S143.79,42.09,148.93,45.05Z"/><path class="cls-4" d="M162.46,44.26a4.11,4.11,0,0,0,3.68,0,1.12,1.12,0,0,0,0-2.13,4.11,4.11,0,0,0-3.68,0A1.13,1.13,0,0,0,162.46,44.26Z"/><path class="cls-5" d="M119.46,108.87c0,1.07.76,1.51,1.69,1l10.28-5.93a3.78,3.78,0,0,0,1.7-2.94V99.36c0-1.07-.77-1.51-1.7-1l-10.28,5.94a3.75,3.75,0,0,0-1.69,2.93Z"/><path class="cls-6" d="M120.06,108.15c0,1,.69,1.38,1.54.89l9.38-5.41a3.44,3.44,0,0,0,1.55-2.68v-.85c0-1-.7-1.38-1.55-.89l-9.38,5.42a3.41,3.41,0,0,0-1.54,2.67Z"/><path class="cls-5" d="M141.61,96.08c0,1.07.76,1.51,1.69,1l10.28-5.93a3.77,3.77,0,0,0,1.7-2.93V86.57c0-1.07-.77-1.51-1.7-1L143.3,91.53a3.76,3.76,0,0,0-1.69,2.93Z"/><path class="cls-6" d="M142.21,95.36c0,1,.69,1.39,1.54.9l9.38-5.42a3.41,3.41,0,0,0,1.54-2.68v-.84c0-1-.69-1.39-1.54-.9l-9.38,5.42a3.41,3.41,0,0,0-1.54,2.68Z"/><path class="cls-5" d="M122.21,99.06c0,1.08.76,1.51,1.69,1l4.8-2.76a3.78,3.78,0,0,0,1.7-2.94v-2.9c0-1.07-.77-1.51-1.7-1l-4.8,2.78a3.73,3.73,0,0,0-1.69,2.93Z"/><path class="cls-6" d="M122.9,98.33c0,.9.63,1.26,1.41.81l4-2.3a3.14,3.14,0,0,0,1.41-2.44V92.21c0-.9-.64-1.26-1.41-.82l-4,2.31a3.11,3.11,0,0,0-1.41,2.44Z"/><path class="cls-5" d="M144.36,86.27c0,1.08.76,1.52,1.68,1l4.81-2.77a3.77,3.77,0,0,0,1.69-2.94V78.65c0-1.08-.76-1.52-1.69-1l-4.8,2.77a3.76,3.76,0,0,0-1.69,2.93Z"/><path class="cls-6" d="M145.05,85.55c0,.89.63,1.26,1.4.8l4-2.29a3.14,3.14,0,0,0,1.4-2.45V79.42c0-.89-.63-1.26-1.4-.81l-4,2.3a3.14,3.14,0,0,0-1.4,2.44Z"/><path class="cls-7" d="M99.87,122.36l-.78-.45v-2.17s6.92-3.54,8.5-4v2.17Z"/><path class="cls-8" d="M99.87,120.19l-.78-.45a13.19,13.19,0,0,1,3.26-2.57,20.62,20.62,0,0,1,4.46-1.89l.78.45Z"/><path class="cls-7" d="M76.09,136.08l-.77-.45v-2.16s6.91-3.54,8.5-4v2.16Z"/><path class="cls-8" d="M76.09,133.92l-.77-.45a13,13,0,0,1,3.26-2.58A20.89,20.89,0,0,1,83,129l.78.45Z"/><path class="cls-1" d="M70.8,141.13h9.51l27.3-15.77a25.68,25.68,0,0,1,17.23-2.53v-2.42h8.38v9.52h0c0,2.5-1.73,5.12-5.28,7.17L96.41,155.31c-6.43,3.7-16.19,4.08-21.8.84-2.56-1.48-3.81-3.46-3.81-5.52Z"/><path class="cls-2" d="M76.08,133.93l31.53-18.21c6.42-3.7,16.18-4.09,21.79-.85s5,8.88-1.47,12.59l-31.52,18.2c-6.43,3.71-16.19,4.09-21.8.85S69.65,137.63,76.08,133.93Z"/><path class="cls-3" d="M87.13,132.29c2.12-1.23,5-1,6.4.56L96.4,136c1.39,1.54.79,3.79-1.33,5l-4.28,2.47a12.73,12.73,0,0,1-8.7.77l-5.46-1.66c-2.66-.81-3.1-2.47-1-3.69Z"/><path class="cls-9" d="M91.78,135.74a1.34,1.34,0,0,0,0-2.54,4.91,4.91,0,0,0-4.39,0,1.34,1.34,0,0,0,0,2.54A4.85,4.85,0,0,0,91.78,135.74Z"/><path class="cls-10" d="M86.83,133.12l1.16.39a4.49,4.49,0,0,1,3.17,0l1.18-.41v1.33h0a1.39,1.39,0,0,1-.8,1.1,4.32,4.32,0,0,1-3.9,0,1.39,1.39,0,0,1-.8-1.1h0Z"/><path class="cls-11" d="M91.54,134.23a1.19,1.19,0,0,0,0-2.25,4.38,4.38,0,0,0-3.9,0,1.19,1.19,0,0,0,0,2.25A4.32,4.32,0,0,0,91.54,134.23Z"/><path class="cls-9" d="M86.63,138.71a1.33,1.33,0,0,0,0-2.53,4.83,4.83,0,0,0-4.38,0,1.34,1.34,0,0,0,0,2.53A4.83,4.83,0,0,0,86.63,138.71Z"/><path class="cls-10" d="M81.69,136.09l1.15.4a4.49,4.49,0,0,1,3.17,0l1.19-.4v1.32h0a1.39,1.39,0,0,1-.81,1.1,4.3,4.3,0,0,1-3.89,0,1.37,1.37,0,0,1-.81-1.1h0Z"/><path class="cls-11" d="M86.39,137.21a1.19,1.19,0,0,0,0-2.25,4.3,4.3,0,0,0-3.89,0,1.19,1.19,0,0,0,0,2.25A4.3,4.3,0,0,0,86.39,137.21Z"/><path class="cls-9" d="M81.48,141.69a1.34,1.34,0,0,0,0-2.53,4.83,4.83,0,0,0-4.38,0,1.34,1.34,0,0,0,0,2.53A4.83,4.83,0,0,0,81.48,141.69Z"/><path class="cls-10" d="M76.54,139.08l1.15.39a4.49,4.49,0,0,1,3.17,0l1.18-.4v1.32h0a1.39,1.39,0,0,1-.8,1.1,4.3,4.3,0,0,1-3.89,0,1.39,1.39,0,0,1-.81-1.1h0Z"/><path class="cls-11" d="M81.24,140.19a1.19,1.19,0,0,0,0-2.25,4.3,4.3,0,0,0-3.89,0,1.19,1.19,0,0,0,0,2.25A4.3,4.3,0,0,0,81.24,140.19Z"/><path class="cls-1" d="M133.07,127.73l20.31,11.9V139h6.09v5.34h0a2.34,2.34,0,0,1-.4,1.18c-1.82,2.9-6.68,2.22-6.68,2.22s-18.41-6.82-27.58-10v-5.21S133.75,130.52,133.07,127.73Z"/><path class="cls-2" d="M127.94,130.78c3.47-2,5.25-4.58,5.27-7h0V122.6l23.15,13.58s4.43,1.38,2.69,4.15-6.68,2.23-6.68,2.23l-27.58-10Z"/><path class="cls-1" d="M142.09,155.85v-1.41h4v5.26h0a1.92,1.92,0,0,1-1.06,1.54l-1.79,1c-1.84,1.06-5.65.71-8.46-.78a116.88,116.88,0,0,0-31.12-10.36v-8.07Z"/><path class="cls-2" d="M120.72,133.2l22.93,18c2.59,1.63,3.19,3.83,1.35,4.89l-1.79,1c-1.84,1.07-5.65.72-8.46-.77l-31.12-13.23Z"/><path class="cls-1" d="M96.41,154.15l3.14-1.81,4.74,18.11h1.26v5.3h0c-.09.92-.8,2.28-4,2.94-4.8,1-7.19-1.55-7.19-1.55l-12.27-20v-5.21S92.89,156.18,96.41,154.15Z"/><path class="cls-2" d="M94.38,171.93l-12.27-20a25.59,25.59,0,0,0,14.3-3l3.14-1.81,5.89,22.49s1.16,2.82-3.87,3.86C96.77,174.49,94.38,171.93,94.38,171.93Z"/><path class="cls-5" d="M111.54,124.82a14.82,14.82,0,0,0,13.37,0c3.69-2.13,3.69-5.59,0-7.72a14.77,14.77,0,0,0-13.36,0C107.85,119.23,107.85,122.68,111.54,124.82Z"/><path class="cls-7" d="M112.52,124.21a12.54,12.54,0,0,0,11.32,0c3.13-1.8,3.13-4.73,0-6.54a12.5,12.5,0,0,0-11.33,0C109.39,119.47,109.39,122.4,112.52,124.21Z"/><path class="cls-6" d="M110.72,119.79a4.71,4.71,0,0,1,2-2,12.06,12.06,0,0,1,10.93,0,4.73,4.73,0,0,1,2,2l.25.53v.6h0a3.85,3.85,0,0,1-2.27,3.16,12.06,12.06,0,0,1-10.93,0,3.83,3.83,0,0,1-2.26-3.15h0v-.64Z"/><path class="cls-8" d="M112.72,123.45a12.06,12.06,0,0,0,10.93,0c3-1.75,3-4.57,0-6.32a12.1,12.1,0,0,0-10.93,0C109.71,118.88,109.7,121.71,112.72,123.45Z"/><polygon class="cls-6" points="116.61 120.3 112.49 117.92 112.49 116.93 118.19 119.39 124 116.87 124 117.85 119.76 120.3 123.95 121.73 123.95 122.72 122.37 123.63 118.19 121.21 113.97 123.64 112.4 122.73 112.4 121.75 116.61 120.3"/><polygon class="cls-5" points="116.61 119.31 112.49 116.93 114.06 116.02 118.19 118.4 122.43 115.96 124 116.87 119.76 119.31 123.95 121.73 122.37 122.64 118.19 120.22 113.97 122.65 112.4 121.75 116.61 119.31"/><polygon class="cls-6" points="117.26 117.66 119.12 117.66 119.12 116.91 118.19 116.59 117.26 116.91 117.26 117.66"/><polygon class="cls-5" points="117.26 116.91 119.12 116.91 118.19 115.84 117.26 116.91"/><polygon class="cls-6" points="113.65 120.82 113.65 120.07 111.79 119.53 111.79 120.28 113.65 120.82"/><polygon class="cls-5" points="113.65 120.07 113.66 118.99 111.79 119.53 113.65 120.07"/><polygon class="cls-6" points="119.08 122.88 119.08 122.13 117.22 122.13 117.22 122.88 118.14 123.95 119.08 122.88"/><polygon class="cls-5" points="119.08 122.13 117.22 122.13 118.14 123.2 119.08 122.13"/><polygon class="cls-6" points="122.68 120.05 122.68 120.8 124.55 120.26 124.55 119.51 122.68 120.05"/><polygon class="cls-5" points="122.68 118.97 122.68 120.05 124.55 119.51 122.68 118.97"/><path class="cls-3" d="M112.17,144a11.23,11.23,0,0,0,10.19,0c2.82-1.62,2.82-4.26,0-5.88a11.23,11.23,0,0,0-10.19,0C109.36,139.76,109.36,142.4,112.17,144Z"/><path class="cls-5" d="M113,143.56a9.47,9.47,0,0,0,8.61,0c2.38-1.37,2.38-3.6,0-5a9.53,9.53,0,0,0-8.61,0C110.58,140,110.58,142.19,113,143.56Z"/><path class="cls-1" d="M124.43,139.67v1.44a3.57,3.57,0,0,1-2.1,2.92,11.16,11.16,0,0,1-10.13,0,3.55,3.55,0,0,1-2.09-2.92v-1.44Z"/><path class="cls-2" d="M112.2,142.59a11.23,11.23,0,0,0,10.13,0c2.8-1.61,2.8-4.23,0-5.85a11.21,11.21,0,0,0-10.12,0C109.41,138.36,109.41,141,112.2,142.59Z"/><path class="cls-8" d="M113.3,142a8.81,8.81,0,0,0,7.94,0c2.19-1.27,2.19-3.32,0-4.59a8.81,8.81,0,0,0-7.94,0C111.1,138.64,111.1,140.69,113.3,142Z"/><path class="cls-7" d="M112.93,139.31v-1.46h.82a3,3,0,0,1,.45-.31,6.78,6.78,0,0,1,6.14,0,2.88,2.88,0,0,1,.44.31h.83v1.46a2.2,2.2,0,0,1-1.27,1.78,6.78,6.78,0,0,1-6.14,0A2.16,2.16,0,0,1,112.93,139.31Z"/><path class="cls-8" d="M114.2,139.62a6.84,6.84,0,0,0,6.14,0c1.69-1,1.69-2.57,0-3.55a6.78,6.78,0,0,0-6.14,0C112.5,137.05,112.5,138.64,114.2,139.62Z"/><path class="cls-6" d="M111.65,137.75v-1.89h1.07a4.52,4.52,0,0,1,.58-.4,8.81,8.81,0,0,1,7.94,0,5.19,5.19,0,0,1,.57.4h1.07v1.89a2.82,2.82,0,0,1-1.64,2.3,8.81,8.81,0,0,1-7.94,0A2.81,2.81,0,0,1,111.65,137.75Z"/><path class="cls-8" d="M113.3,138.15a8.81,8.81,0,0,0,7.94,0c2.19-1.27,2.19-3.32,0-4.58a8.75,8.75,0,0,0-7.94,0C111.1,134.83,111.1,136.88,113.3,138.15Z"/><path class="cls-9" d="M94.91,140.24c1.37-.79,1.37-2.08,0-2.88a5.61,5.61,0,0,0-5,0c-1.38.8-1.38,2.09,0,2.88A5.49,5.49,0,0,0,94.91,140.24Z"/><path class="cls-12" d="M89.28,137.27l1.31.45a5.07,5.07,0,0,1,3.6,0l1.35-.46v1.51h0a1.55,1.55,0,0,1-.92,1.24,4.85,4.85,0,0,1-4.42,0,1.54,1.54,0,0,1-.91-1.24h0Z"/><path class="cls-13" d="M94.62,138.54a1.35,1.35,0,0,0,0-2.56,4.91,4.91,0,0,0-4.42,0,1.35,1.35,0,0,0,0,2.56A4.91,4.91,0,0,0,94.62,138.54Z"/><path class="cls-9" d="M89.27,143.5c1.38-.8,1.38-2.09,0-2.88a5.53,5.53,0,0,0-5,0c-1.38.79-1.38,2.08,0,2.88A5.53,5.53,0,0,0,89.27,143.5Z"/><path class="cls-12" d="M83.65,140.52,85,141a5.07,5.07,0,0,1,3.6,0l1.35-.46V142h0a1.57,1.57,0,0,1-.92,1.24,4.85,4.85,0,0,1-4.42,0,1.54,1.54,0,0,1-.91-1.24h0Z"/><path class="cls-13" d="M89,141.79a1.35,1.35,0,0,0,0-2.56,4.91,4.91,0,0,0-4.42,0,1.35,1.35,0,0,0,0,2.56A4.91,4.91,0,0,0,89,141.79Z"/><path class="cls-9" d="M100.87,130.1a1.09,1.09,0,0,0,0-2.07,3.94,3.94,0,0,0-3.57,0,1.09,1.09,0,0,0,0,2.07A3.94,3.94,0,0,0,100.87,130.1Z"/><path class="cls-14" d="M96.84,128l.94.32a3.64,3.64,0,0,1,2.58,0l1-.33V129h0a1.13,1.13,0,0,1-.66.9,3.54,3.54,0,0,1-3.17,0,1.13,1.13,0,0,1-.66-.9h0Z"/><path class="cls-4" d="M100.67,128.87a1,1,0,0,0,0-1.83,3.48,3.48,0,0,0-3.17,0,1,1,0,0,0,0,1.83A3.48,3.48,0,0,0,100.67,128.87Z"/><path class="cls-9" d="M107.32,133.86c1.55-.9,1.55-2.35,0-3.24a6.23,6.23,0,0,0-5.61,0c-1.55.89-1.55,2.34,0,3.24A6.23,6.23,0,0,0,107.32,133.86Z"/><path class="cls-15" d="M101,130.51l1.48.5a5.65,5.65,0,0,1,4,0l1.51-.52v1.69h0a1.75,1.75,0,0,1-1,1.4,5.47,5.47,0,0,1-5,0,1.75,1.75,0,0,1-1-1.4h0Z"/><path class="cls-16" d="M107,131.94c1.37-.8,1.37-2.09,0-2.88a5.53,5.53,0,0,0-5,0c-1.37.79-1.37,2.08,0,2.88A5.53,5.53,0,0,0,107,131.94Z"/><path class="cls-7" d="M155,80.24l-.33-.84L156,77.7s7.63,1.5,9.17,2.11l-1.34,1.7Z"/><path class="cls-8" d="M156.34,78.54,156,77.7a13.42,13.42,0,0,1,4.16,0A20.94,20.94,0,0,1,164.83,79l.34.84Z"/><path class="cls-7" d="M127.83,76.34l-.33-.84,1.33-1.7s7.63,1.49,9.17,2.1l-1.34,1.7Z"/><path class="cls-8" d="M129.17,74.63l-.34-.83a12.83,12.83,0,0,1,4.16,0,20.06,20.06,0,0,1,4.67,1.28l.34.83Z"/><path class="cls-1" d="M120.55,77,128,82.9l31.2,4.49A25.67,25.67,0,0,1,174.34,96l1.5-1.9,6.59,5.18-5.89,7.49h0c-1.5,2-4.53,3-8.58,2.38l-36-5.18c-7.35-1.06-15.25-6.79-17.66-12.8-1.1-2.75-.86-5.09.42-6.7Z"/><path class="cls-2" d="M129.15,74.63l36,5.18c7.34,1,15.24,6.79,17.65,12.8s-1.58,10-8.93,9l-36-5.18c-7.35-1.06-15.25-6.79-17.66-12.81S121.81,73.57,129.15,74.63Z"/><path class="cls-3" d="M138.85,80.18c2.42.34,4.53,2.32,4.68,4.39l.3,4.25c.15,2.07-1.71,3.48-4.14,3.13l-4.9-.7a12.64,12.64,0,0,1-7.3-4.78l-3.28-4.68c-1.59-2.27-.9-3.85,1.52-3.5Z"/><path class="cls-9" d="M140.37,85.76c1.39.2,2.09-.69,1.57-2a4.87,4.87,0,0,0-3.45-2.72c-1.38-.19-2.08.7-1.57,2A4.88,4.88,0,0,0,140.37,85.76Z"/><path class="cls-10" d="M138.1,80.64l.66,1a4.46,4.46,0,0,1,2.51,1.94l1.18.42-.82,1h0a1.39,1.39,0,0,1-1.31.36,4.28,4.28,0,0,1-3.06-2.4,1.36,1.36,0,0,1,.05-1.36h0Z"/><path class="cls-11" d="M141.11,84.43c1.23.17,1.85-.62,1.39-1.77a4.32,4.32,0,0,0-3.06-2.41c-1.23-.17-1.85.62-1.39,1.77A4.32,4.32,0,0,0,141.11,84.43Z"/><path class="cls-9" d="M134.49,84.91c1.39.2,2.09-.69,1.57-2a4.88,4.88,0,0,0-3.45-2.71c-1.39-.2-2.09.69-1.57,2A4.83,4.83,0,0,0,134.49,84.91Z"/><path class="cls-10" d="M132.22,79.8l.66,1a4.45,4.45,0,0,1,2.5,2l1.18.41-.81,1h0a1.38,1.38,0,0,1-1.32.37,4.35,4.35,0,0,1-3.06-2.41,1.39,1.39,0,0,1,0-1.36h0Z"/><path class="cls-11" d="M135.23,83.58c1.22.18,1.85-.62,1.39-1.77a4.32,4.32,0,0,0-3.06-2.41c-1.23-.17-1.85.62-1.39,1.77A4.29,4.29,0,0,0,135.23,83.58Z"/><path class="cls-9" d="M128.6,84.08c1.38.19,2.09-.7,1.57-2a4.9,4.9,0,0,0-3.45-2.71c-1.39-.2-2.09.69-1.57,2A4.88,4.88,0,0,0,128.6,84.08Z"/><path class="cls-10" d="M126.33,79l.66,1a4.5,4.5,0,0,1,2.5,2l1.18.41-.82,1h0a1.36,1.36,0,0,1-1.31.37,4.34,4.34,0,0,1-3.06-2.41,1.39,1.39,0,0,1,0-1.36h0Z"/><path class="cls-11" d="M129.34,82.74c1.22.17,1.85-.62,1.38-1.77a4.24,4.24,0,0,0-3-2.4c-1.24-.18-1.86.61-1.4,1.77A4.29,4.29,0,0,0,129.34,82.74Z"/><path class="cls-1" d="M177.79,105l8.6,21.91.38-.48,4.78,3.76-3.29,4.19h0a2.32,2.32,0,0,1-1,.67c-3.23,1.17-6.64-2.37-6.64-2.37s-10.24-16.75-15.52-24.89c.45-.56,3.22-4.09,3.22-4.09S176.59,107.6,177.79,105Z"/><path class="cls-2" d="M171.86,104.21c4,.57,7-.35,8.49-2.27h0l.71-.9,9.81,25s2.63,3.82-.45,4.93c-3.23,1.16-6.64-2.38-6.64-2.38l-15.52-24.88Z"/><path class="cls-1" d="M167.5,132.67l.86-1.11,3.12,2.46-3.25,4.13h0a1.93,1.93,0,0,1-1.79.55l-2-.29c-2.11-.3-4.88-2.93-6.17-5.84a117.09,117.09,0,0,0-18.06-27.39l5-6.34Z"/><path class="cls-2" d="M164.69,101.65l6.93,28.29c1,2.87.15,5-2,4.67l-2-.29c-2.11-.31-4.88-2.93-6.17-5.84l-16.3-29.64Z"/><path class="cls-1" d="M132.63,103.09l3.59.52-7.47,17.16,1,.78-3.28,4.18h0c-.64.66-2,1.29-4.94-.14-4.4-2.19-4.69-5.67-4.69-5.67l2.72-23.32,3.22-4.1S128.61,102.51,132.63,103.09Z"/><path class="cls-2" d="M120,115.82l2.73-23.33A25.58,25.58,0,0,0,135.85,99l3.59.52-9.28,21.32s-.82,2.93-5.42.64C120.34,119.3,120,115.82,120,115.82Z"/><path class="cls-5" d="M162.66,89.38a14.76,14.76,0,0,0,10.51,8.27c4.22.61,6.35-2.11,4.77-6.06a14.78,14.78,0,0,0-10.51-8.27C163.21,82.71,161.07,85.43,162.66,89.38Z"/><path class="cls-7" d="M163.8,89.51a12.51,12.51,0,0,0,8.91,7c3.57.52,5.38-1.78,4-5.14a12.52,12.52,0,0,0-8.9-7C164.27,83.86,162.46,86.16,163.8,89.51Z"/><path class="cls-6" d="M165.12,84.93a4.65,4.65,0,0,1,2.82-.34,12.11,12.11,0,0,1,8.59,6.76,4.75,4.75,0,0,1,.33,2.84l-.13.56-.37.48h0a3.85,3.85,0,0,1-3.74,1.07A12.08,12.08,0,0,1,164,89.55c-.64-1.62-.54-3,.17-3.88h0l.4-.51Z"/><path class="cls-8" d="M164.43,89A12,12,0,0,0,173,95.8c3.45.5,5.19-1.72,3.9-5a12.06,12.06,0,0,0-8.59-6.75C164.88,83.59,163.13,85.81,164.43,89Z"/><polygon class="cls-6" points="169.44 88.97 167.67 84.55 168.28 83.77 171.24 89.23 177.37 90.84 176.76 91.62 171.91 90.92 174.32 94.63 173.71 95.4 171.91 95.14 170.11 90.66 165.3 89.97 164.62 88.28 165.23 87.5 169.44 88.97"/><polygon class="cls-5" points="170.05 88.2 168.28 83.77 170.08 84.03 171.85 88.45 176.69 89.15 177.37 90.84 172.52 90.14 174.32 94.63 172.52 94.37 170.72 89.88 165.91 89.19 165.23 87.5 170.05 88.2"/><polygon class="cls-6" points="171.57 87.3 173.04 88.45 173.5 87.86 172.97 87.03 172.04 86.71 171.57 87.3"/><polygon class="cls-5" points="172.04 86.71 173.5 87.86 173.44 86.44 172.04 86.71"/><polygon class="cls-6" points="166.79 87.55 167.25 86.96 166.12 85.39 165.66 85.98 166.79 87.55"/><polygon class="cls-5" points="167.25 86.96 167.92 86.12 166.12 85.39 167.25 86.96"/><polygon class="cls-6" points="169.78 92.52 170.25 91.93 168.78 90.78 168.32 91.37 168.38 92.79 169.78 92.52"/><polygon class="cls-5" points="170.25 91.93 168.78 90.78 168.84 92.2 170.25 91.93"/><polygon class="cls-6" points="174.36 92.52 173.9 93.11 175.7 93.84 176.16 93.25 174.36 92.52"/><polygon class="cls-5" points="175.03 91.68 174.36 92.52 176.16 93.25 175.03 91.68"/><path class="cls-3" d="M151.28,104.87a11.26,11.26,0,0,0,8,6.3c3.21.46,4.84-1.61,3.63-4.62a11.28,11.28,0,0,0-8-6.31C151.7,99.79,150.07,101.85,151.28,104.87Z"/><path class="cls-5" d="M152.19,105a9.48,9.48,0,0,0,6.77,5.33c2.71.39,4.09-1.36,3.07-3.91a9.48,9.48,0,0,0-6.77-5.32C152.54,100.7,151.16,102.45,152.19,105Z"/><path class="cls-1" d="M163.61,109l-.89,1.13a3.55,3.55,0,0,1-3.45,1,11.2,11.2,0,0,1-8-6.26,3.58,3.58,0,0,1,.16-3.6l.89-1.13Z"/><path class="cls-2" d="M152.19,103.77a11.25,11.25,0,0,0,8,6.26c3.2.46,4.82-1.6,3.62-4.6a11.2,11.2,0,0,0-8-6.26C152.61,98.71,151,100.77,152.19,103.77Z"/><path class="cls-8" d="M153.44,104a8.85,8.85,0,0,0,6.25,4.91c2.5.36,3.77-1.26,2.83-3.61a8.77,8.77,0,0,0-6.24-4.9C153.77,100,152.5,101.6,153.44,104Z"/><path class="cls-7" d="M154.79,101.64l.91-1.16.64.51a3.35,3.35,0,0,1,.54,0,6.8,6.8,0,0,1,4.83,3.8,3.33,3.33,0,0,1,.16.51l.65.51-.91,1.15a2.13,2.13,0,0,1-2.09.61,6.78,6.78,0,0,1-4.83-3.79A2.16,2.16,0,0,1,154.79,101.64Z"/><path class="cls-8" d="M155.6,102.66a6.8,6.8,0,0,0,4.82,3.8c1.94.28,2.92-1,2.19-2.79a6.75,6.75,0,0,0-4.82-3.79C155.85,99.6,154.87,100.84,155.6,102.66Z"/><path class="cls-6" d="M154.75,99.63l1.17-1.5.84.67a5.8,5.8,0,0,1,.7,0,8.79,8.79,0,0,1,6.24,4.91c.09.23.15.45.21.66l.84.66-1.17,1.49a2.78,2.78,0,0,1-2.71.79,8.77,8.77,0,0,1-6.24-4.91A2.78,2.78,0,0,1,154.75,99.63Z"/><path class="cls-8" d="M155.8,101a8.79,8.79,0,0,0,6.24,4.91c2.5.36,3.77-1.25,2.83-3.6a8.74,8.74,0,0,0-6.24-4.91C156.13,97,154.86,98.6,155.8,101Z"/><path class="cls-9" d="M140,91.23c1.58.23,2.37-.78,1.79-2.26a5.56,5.56,0,0,0-3.92-3.08c-1.58-.23-2.38.79-1.78,2.26A5.47,5.47,0,0,0,140,91.23Z"/><path class="cls-12" d="M137.46,85.42l.75,1.16a5.1,5.1,0,0,1,2.85,2.21l1.34.48-.93,1.18h0a1.59,1.59,0,0,1-1.49.41,4.91,4.91,0,0,1-3.48-2.73,1.54,1.54,0,0,1,.06-1.55h0Z"/><path class="cls-13" d="M140.88,89.72c1.39.2,2.1-.7,1.58-2A4.88,4.88,0,0,0,139,85c-1.4-.2-2.1.7-1.58,2A4.9,4.9,0,0,0,140.88,89.72Z"/><path class="cls-9" d="M133.61,90.31c1.58.22,2.37-.79,1.78-2.27A5.54,5.54,0,0,0,131.47,85c-1.57-.22-2.37.79-1.78,2.27A5.54,5.54,0,0,0,133.61,90.31Z"/><path class="cls-12" d="M131,84.5l.75,1.16a5,5,0,0,1,2.84,2.21l1.34.47L135,89.52h0a1.56,1.56,0,0,1-1.49.42,4.88,4.88,0,0,1-3.47-2.74,1.55,1.55,0,0,1,.05-1.54h0Z"/><path class="cls-13" d="M134.44,88.79c1.4.2,2.11-.7,1.58-2a4.87,4.87,0,0,0-3.47-2.73c-1.4-.2-2.11.7-1.58,2A4.87,4.87,0,0,0,134.44,88.79Z"/><path class="cls-9" d="M151,87c1.13.16,1.7-.57,1.27-1.63a4,4,0,0,0-2.81-2.21c-1.12-.16-1.7.57-1.28,1.63A4,4,0,0,0,151,87Z"/><path class="cls-14" d="M149.15,82.77l.55.84a3.65,3.65,0,0,1,2,1.58l1,.34-.67.85h0a1.13,1.13,0,0,1-1.07.3,3.51,3.51,0,0,1-2.5-2,1.15,1.15,0,0,1,0-1.11h0Z"/><path class="cls-4" d="M151.61,85.86c1,.14,1.51-.51,1.13-1.45a3.53,3.53,0,0,0-2.49-2c-1-.14-1.51.5-1.14,1.45A3.51,3.51,0,0,0,151.61,85.86Z"/><path class="cls-9" d="M153.75,93.88c1.77.26,2.67-.88,2-2.54a6.19,6.19,0,0,0-4.41-3.47c-1.77-.26-2.67.88-2,2.55A6.17,6.17,0,0,0,153.75,93.88Z"/><path class="cls-15" d="M150.84,87.34l.85,1.31a5.71,5.71,0,0,1,3.2,2.49l1.51.53L155.35,93h0a1.75,1.75,0,0,1-1.67.47,5.56,5.56,0,0,1-3.92-3.08,1.8,1.8,0,0,1,.06-1.74h0Z"/><path class="cls-16" d="M154.69,92.18c1.57.22,2.36-.79,1.78-2.26a5.54,5.54,0,0,0-3.92-3.08c-1.57-.23-2.37.79-1.77,2.26A5.52,5.52,0,0,0,154.69,92.18Z"/></g></g></svg>